#N canvas 274 101 710 608 12;
#N canvas 640 382 450 300 volume 0;
#X obj 116 38 inlet~;
#X obj 117 81 *~;
#X obj 177 71 line~;
#X msg 178 42 \$1 50;
#X obj 178 15 inlet;
#X obj 114 111 outlet~;
#X connect 0 0 1 0;
#X connect 1 0 5 0;
#X connect 2 0 1 1;
#X connect 3 0 2 0;
#X connect 4 0 3 0;
#X restore 304 236 pd volume;
#X obj 268 299 dac~;
#X obj 407 220 vsl 15 128 0 1 0 0 empty empty empty 0 -9 0 10 -262144
-1 -1 6350 1;
#X msg 290 388 \; pd dsp 1;
#X obj 290 361 loadbang;
#X text 433 267 MAIN VOLUME;
#N canvas 58 415 494 344 META 0;
#X text 12 158 HELP_PATCH_AUTHORS "pd meta" information added by Jonathan
Wilkes for Pd version 0.42.;
#X text 12 137 AUTHOR Joel Matthys;
#X text 12 5 KEYWORDS exponential delay;
#X text 12 25 LICENSE GPL;
#X text 13 82 INLET_1 exponential curve coefficient;
#X text 13 100 OUTLET_0 delay audio output;
#X text 12 45 DESCRIPTION exponential delay;
#X text 12 65 INLET_0 total delay time (ms);
#X restore 528 411 pd META;
#X obj 363 464 tabwrite impulse;
#X obj 167 123 tabplay~ impulse;
#X obj 223 2 mtof;
#X obj 188 -78 key;
#X obj 481 336 table impulse 1;
#X msg 394 413 1 0;
#X obj 168 174 compressor~;
#X obj 168 148 bp~ 440 50;
#X obj 189 -26 t b f b;
#X obj 59 71 gate 2;
#X obj 50 38 + 1;
#X obj 49 15 tgl 15 0 empty empty empty 17 7 0 10 -262144 -1 -1 0 1
;
#X obj 60 107 bng 15 250 50 0 empty empty empty 17 7 0 10 -262144 -1
-1;
#X obj 94 107 bng 15 250 50 0 empty empty empty 17 7 0 10 -262144 -1
-1;
#X obj 17 160 tabplay~ impulse;
#X obj 18 211 compressor~;
#X obj 18 185 bp~ 440 50;
#N canvas 640 382 450 300 volume 0;
#X obj 116 38 inlet~;
#X obj 117 81 *~;
#X obj 177 71 line~;
#X msg 178 42 \$1 50;
#X obj 178 15 inlet;
#X obj 114 111 outlet~;
#X connect 0 0 1 0;
#X connect 1 0 5 0;
#X connect 2 0 1 1;
#X connect 3 0 2 0;
#X connect 4 0 3 0;
#X restore 205 237 pd volume;
#X obj 522 7 vsl 15 128 0.05 3 0 0 empty empty empty 0 -9 0 10 -262144
-1 -1 1787 1;
#X obj 20 310 delwrite~ inputleft 5000;
#X obj 37 352 delwrite~ inputright 5000;
#X obj 304 171 exp-delay~ inputleft 50 5000 3;
#X obj 315 196 exp-delay~ inputright 50 5000 3;
#X obj 620 156 loadbang;
#X obj 550 71 r curve;
#X obj 448 236 r vol;
#X obj 188 -54 spigot;
#X obj 231 -81 tgl 15 0 empty empty empty 17 7 0 10 -262144 -1 -1 1
1;
#X obj 232 -106 r tog-clix;
#X msg 572 252 \; set-curve 3 \; set-vol 0.5;
#X msg 643 199 5;
#X connect 0 0 1 1;
#X connect 2 0 0 1;
#X connect 2 0 24 1;
#X connect 4 0 3 0;
#X connect 8 0 14 0;
#X connect 9 0 14 1;
#X connect 9 0 23 1;
#X connect 10 0 33 0;
#X connect 12 0 7 0;
#X connect 13 0 26 0;
#X connect 14 0 13 0;
#X connect 15 0 16 1;
#X connect 15 1 9 0;
#X connect 15 2 18 0;
#X connect 16 0 19 0;
#X connect 16 1 20 0;
#X connect 17 0 16 0;
#X connect 18 0 17 0;
#X connect 19 0 21 0;
#X connect 20 0 8 0;
#X connect 21 0 23 0;
#X connect 22 0 27 0;
#X connect 23 0 22 0;
#X connect 24 0 1 0;
#X connect 25 0 28 1;
#X connect 25 0 29 1;
#X connect 28 0 24 0;
#X connect 29 0 0 0;
#X connect 30 0 37 0;
#X connect 30 0 12 0;
#X connect 30 0 36 0;
#X connect 31 0 25 0;
#X connect 32 0 2 0;
#X connect 33 0 15 0;
#X connect 34 0 33 1;
#X connect 35 0 34 0;
#X connect 37 0 13 1;
#X connect 37 0 22 1;
