#N canvas 225 107 744 658 12;
#X obj 440 155 f \$0;
#X obj 440 241 s pd-exp-delay~.pd;
#X obj 305 -30 inlet;
#X obj 247 133 until;
#X obj 245 223 int;
#X obj 276 223 + 1;
#X obj 282 72 bng 15 250 50 0 empty empty empty 17 7 0 10 -262144 -1
-1;
#X obj 299 333 pow;
#X obj 256 341 pow;
#X obj 364 238 t f f;
#X obj 299 360 - 1;
#X obj 299 387 * -1;
#X floatatom 388 130 5 0 0 0 - - -;
#X obj 473 79 until;
#X obj 473 107 int;
#X obj 504 107 + 1;
#X obj 507 159 * 25;
#X obj 473 132 t b f f;
#X obj 452 18 bng 15 250 50 0 empty empty empty 17 7 0 10 -262144 -1
-1;
#X obj 342 412 f \$0;
#X obj 236 450 pack f f f;
#X obj 244 259 t f f f f b b;
#X obj 487 412 f \$0;
#X obj 422 449 pack f f f;
#X floatatom 459 330 5 0 0 0 - - -;
#X msg 422 475 \; \$3-\$1-time \$2;
#X msg 515 54 1;
#X msg 234 479 \; \$3-\$1-gain \$2 \; \$3-\$1-dsp 1;
#X obj 305 1 t b f;
#X obj 254 -31 inlet;
#X obj 584 338 catch~ \$0-delout;
#X obj 583 368 outlet~;
#X obj 254 -1 t b f;
#X obj 568 80 loadbang;
#X floatatom 345 340 5 0 0 0 - - -;
#X obj 252 29 t b b b;
#X obj 499 6 t b b b b;
#X msg 440 215 obj 20 \$3 one-expdelay~ \$1 \$2 \$4;
#X text 593 -20 \$1 delay name \; \$2 number of voices \; \$3 max time
\; \$4 curve val;
#X obj 247 106 f \$2;
#X obj 456 49 f \$2;
#X obj 364 211 f \$4;
#X obj 407 420 * \$3;
#X obj 256 314 / \$2;
#X obj 299 307 / \$2;
#X obj 440 186 pack f f f symbol;
#X obj 567 145 symbol \$1;
#X msg 320 145 1;
#X connect 0 0 45 0;
#X connect 2 0 28 0;
#X connect 3 0 4 0;
#X connect 4 0 5 0;
#X connect 4 0 21 0;
#X connect 5 0 4 1;
#X connect 6 0 39 0;
#X connect 7 0 10 0;
#X connect 7 0 34 0;
#X connect 8 0 42 0;
#X connect 9 0 8 1;
#X connect 9 1 7 1;
#X connect 10 0 11 0;
#X connect 11 0 20 1;
#X connect 12 0 41 1;
#X connect 13 0 14 0;
#X connect 14 0 15 0;
#X connect 14 0 17 0;
#X connect 15 0 14 1;
#X connect 16 0 45 2;
#X connect 17 0 0 0;
#X connect 17 1 45 1;
#X connect 17 2 16 0;
#X connect 18 0 36 0;
#X connect 19 0 20 2;
#X connect 20 0 27 0;
#X connect 21 0 23 0;
#X connect 21 1 43 0;
#X connect 21 2 20 0;
#X connect 21 3 44 0;
#X connect 21 4 19 0;
#X connect 21 5 22 0;
#X connect 22 0 23 2;
#X connect 23 0 25 0;
#X connect 24 0 42 1;
#X connect 26 0 14 1;
#X connect 28 0 35 0;
#X connect 28 1 12 0;
#X connect 29 0 32 0;
#X connect 30 0 31 0;
#X connect 32 0 35 0;
#X connect 32 1 24 0;
#X connect 33 0 36 0;
#X connect 35 0 39 0;
#X connect 35 1 47 0;
#X connect 35 2 41 0;
#X connect 36 0 35 0;
#X connect 36 1 40 0;
#X connect 36 2 26 0;
#X connect 36 3 46 0;
#X connect 37 0 1 0;
#X connect 39 0 3 0;
#X connect 40 0 13 0;
#X connect 41 0 9 0;
#X connect 42 0 23 1;
#X connect 43 0 8 0;
#X connect 44 0 7 0;
#X connect 45 0 37 0;
#X connect 46 0 45 3;
#X connect 47 0 4 1;
