#N canvas 643 447 450 300 12;
#X obj 40 174 netsend;
#X msg 40 100 send vlc -f ~/Videos/pa_final.avi --no-video-title-show
;
#X msg 40 64 disconnect \, connect matthys-vaio.local \$1;
#X obj 40 34 + 45223;
#X obj 40 13 tgl 15 0 empty empty empty 17 7 0 10 -262144 -1 -1 1 1
;
#X obj 40 202 tgl 15 0 empty empty empty 17 7 0 10 -262144 -1 -1 1
1;
#X connect 0 0 5 0;
#X connect 1 0 0 0;
#X connect 2 0 0 0;
#X connect 3 0 2 0;
#X connect 4 0 3 0;
