#N canvas 0 24 1366 714 10;
#X declare -lib mrpeach;
#X declare -lib mrpeach;
#X text 1040 -86 NRCI-UC;
#X obj 9 -117 cnv 15 775 100 empty empty empty 20 12 0 14 -228856 -66577
0;
#X obj 551 -63 ctime-randomperiodic 1000 500 17 t;
#X text 245 -112 TIMERS;
#X obj 10 -10 cnv 15 388 170 empty empty empty 20 12 0 14 -233017 -66577
0;
#X obj 93 -2 cdata;
#X text 20 -3 NOTE DATA;
#X obj 321 167 cnv 15 300 225 empty empty empty 20 12 0 14 -233017
-66577 0;
#X text 434 166 EFFECTS;
#X obj 329 325 sfx-pan~;
#X obj 571 -9 cnv 15 220 150 empty empty empty 20 12 0 14 -233017 -66577
0;
#X obj 576 13 ui-mouse 1279 799;
#X obj 576 33 ui-fretboard-number;
#X obj 576 53 ui-fretboard-pitch;
#X obj 404 -10 cnv 15 160 170 empty empty empty 20 12 0 14 -233017
-66577 0;
#X text 436 -11 SAMPLE PLAYBACK;
#X obj 8 167 cnv 15 120 300 empty empty empty 20 12 0 14 -233017 -66577
0;
#X text 38 166 SYNTHESIS;
#X obj 394 325 sfx-pan~;
#X obj 808 -9 ui-grid;
#X obj 551 -43 ctime-tuplet 2000 4 10 q;
#X obj 551 -103 ctime-triangular 1000 4000 200 r;
#X obj 551 -83 ctime-sinusoid 2000 5000 0.55 s;
#X text 376 -112 (values in milliseconds);
#X obj 788 -117 cnv 15 190 100 empty empty empty 20 12 0 14 -233017
-66577 0;
#X text 831 -118 OSC COMMUNICATION;
#X obj 159 -91 ctime-sawtooth;
#X obj 794 -103 net-sendosc 127.0.0.1 /nrci;
#X obj 363 -91 ctime-random;
#X obj 135 167 cnv 15 180 235 empty empty empty 20 12 0 14 -233017
-66577 0;
#X text 200 166 WAVEFORM;
#X obj 794 -65 net-rcvosc /nrci;
#X text 586 -5 USER INTERACTION;
#X obj 329 185 sfx-lowpass~ A;
#X obj 329 205 sfx-highpass~ B;
#X obj 329 225 sfx-randombpass~ C;
#X obj 329 245 sfx-bandpass~ 0.9 D;
#X obj 329 265 sfx-compressor~ E;
#X obj 329 285 sfx-ampenv~ F;
#X obj 329 305 sfx-gate~ G;
#X obj 477 185 sfx-randomcomb~ H;
#X obj 477 205 sfx-combfilter~ 99 I;
#X obj 477 225 sfx-ringmod~ J;
#X obj 477 245 sfx-distortion~ K;
#X obj 477 265 sfx-feedback~ L;
#X obj 477 285 sfx-fm~ M;
#X obj 477 305 sfx-ffm~ N;
#X obj 334 404 sfx-randomdelay~ O;
#X obj 477 345 sfx-reverb~ P;
#X obj 477 365 sfx-scrub~ Q;
#X obj 18 185 sfx-synth~ a;
#X obj 18 325 sfx-synth~ b;
#X obj 147 185 synth-wave~ c;
#X obj 147 288 sfx-envelope~ d;
#X obj 576 73 ui-keytrigger;
#X obj 681 73 ui-keytrigger;
#X obj 409 113 synth-soundfile~ z;
#X obj 409 133 synth-loop~;
#X obj 409 9 synth-grain~ v;
#X obj 409 29 synth-grain~ w;
#X obj 409 71 synth-playback~ y;
#X obj 408 50 synth-playback~ x;
#X text 1033 -68 27 Mar 2011;
#X obj 409 92 synth-soundfile~ z;
#X text 989 -1 Greg Surges \, & Joel Matthys;
#X text 997 -19 created by Chris Burns \,;
#X obj 20 -95 ctime-steady 250;
#X obj 953 191 pipe 125;
#X obj 482 403 sfx-randomdelay~ O;
#X text 195 455 EXAMPLE 1;
#X text 146 497 - both randomdelays (bottom mid);
#X text 145 478 To activate \, turn on:;
#X text 191 459 __________;
#X text 153 543 drag the red dot around the grid;
#X obj 735 234 sfx-mixer~;
#N canvas 0 0 450 312 dsp 0;
#N canvas 691 217 482 356 dsp 0;
#X obj 11 7 inlet;
#X obj 92 226 select 0 1;
#X obj 92 57 route dsp;
#X obj 92 36 receive pd;
#X obj 206 138 loadbang;
#X msg 11 220 dsp \$1;
#X obj 11 245 send pd;
#X msg 235 275 set \$1;
#X obj 206 174 value GLOBAL_PDDP_DSP;
#X obj 180 309 send \$0-dsp-toggle;
#X obj 92 115 change;
#X msg 109 278 color \$1 20 12;
#X msg 162 253 13;
#X msg 64 254 1;
#X connect 0 0 5 0;
#X connect 0 0 10 0;
#X connect 1 0 13 0;
#X connect 1 1 12 0;
#X connect 2 0 10 0;
#X connect 3 0 2 0;
#X connect 4 0 8 0;
#X connect 5 0 6 0;
#X connect 7 0 9 0;
#X connect 8 0 7 0;
#X connect 8 0 1 0;
#X connect 10 0 7 0;
#X connect 10 0 1 0;
#X connect 10 0 8 0;
#X connect 11 0 9 0;
#X connect 12 0 11 0;
#X connect 13 0 11 0;
#X restore 109 158 pd dsp logic;
#X obj 101 101 tgl 30 0 FOO \$0-dsp-toggle dsp 2 15 1 12 -258699 -195568
-33289 1 1;
#X connect 1 0 0 0;
#X coords 0 -1 1 1 32 32 2 100 100;
#X restore 693 292 pd dsp;
#X text 146 512 - click dsp & turn up yellow channel;
#X text 162 528 on mixer;
#X text 387 504 _____________________________________________________
;
#X text 702 472 |;
#X text 702 483 |;
#X text 702 494 |;
#X text 702 505 |;
#X text 702 428 |;
#X text 702 439 |;
#X text 702 450 |;
#X text 702 461 |;
#X text 702 384 |;
#X text 702 395 |;
#X text 702 406 |;
#X text 702 417 |;
#X text 702 340 |;
#X text 702 351 |;
#X text 702 362 |;
#X text 702 373 |;
#X text 460 482 |;
#X text 460 493 |;
#X text 460 438 |;
#X text 460 449 |;
#X text 460 460 |;
#X text 460 471 |;
#X text 460 416 |;
#X text 460 427 |;
#X text 608 482 |;
#X text 608 493 |;
#X text 608 438 |;
#X text 608 449 |;
#X text 608 460 |;
#X text 608 471 |;
#X text 608 416 |;
#X text 608 427 |;
#X text 348 493 ____________________________________________;
#X obj 20 -115 loadbang;
#X text 1051 505 |;
#X text 1051 516 |;
#X text 1051 527 |;
#X text 1051 538 |;
#X text 1051 461 |;
#X text 1051 472 |;
#X text 1051 483 |;
#X text 1051 494 |;
#X text 1051 417 |;
#X text 1051 428 |;
#X text 1051 439 |;
#X text 1051 450 |;
#X text 1051 373 |;
#X text 1051 384 |;
#X text 1051 395 |;
#X text 1051 406 |;
#X text 702 319 |;
#X text 702 330 |;
#X text 1051 340 |;
#X text 1051 351 |;
#X text 1051 362 |;
#X text 1051 296 |;
#X text 1051 307 |;
#X text 1051 318 |;
#X text 1051 329 |;
#X text 1051 252 |;
#X text 1051 263 |;
#X text 1051 274 |;
#X text 1051 285 |;
#X text 1051 208 |;
#X text 1051 219 |;
#X text 1051 230 |;
#X text 1051 241 |;
#X text 1051 175 |;
#X text 1051 186 |;
#X text 1051 197 |;
#X text 1051 131 |;
#X text 1051 142 |;
#X text 1051 153 |;
#X text 1051 164 |;
#X text 1051 87 |;
#X text 1051 98 |;
#X text 1051 109 |;
#X text 1051 120 |;
#X text 1051 43 |;
#X text 1051 54 |;
#X text 1051 65 |;
#X text 1051 76 |;
#X text 958 32 ________________;
#X text 352 537 ___________________________________________________________
;
#X text 699 537 ___________________________________________________________
;
#X connect 19 0 50 0;
#X connect 19 1 67 0;
#X connect 47 0 74 0;
#X connect 50 0 47 0;
#X connect 51 0 68 0;
#X connect 66 0 19 0;
#X connect 67 0 51 0;
#X connect 68 0 74 1;
#X connect 112 0 66 0;
