#N canvas 190 46 825 552 10;
#X obj 345 178 synth-varplay~;
#X obj 308 67 metro;
#X obj 308 27 tgl 30 0 empty empty empty 17 7 0 10 -4034 -1 -1 0 1
;
#X obj 386 47 nbx 7 15 100 60000 0 0 empty empty empty 0 -8 0 10 -257985
-1 -1 100 256;
#X text 379 25 how long is the loop (milliseconds = 1000/sec);
#X text 48 46 example 2: variable speed looping;
#X text 36 83 click the red buttons to load a wav file;
#X text 34 101 then activate that player by checking;
#X text 34 119 the black box;
#X obj 345 157 r pulse;
#X obj 401 157 r length;
#X obj 475 178 synth-varplay~;
#X obj 475 157 r pulse;
#X obj 531 157 r length;
#X obj 87 178 synth-varplay~;
#X obj 87 157 r pulse;
#X obj 143 157 r length;
#X obj 217 178 synth-varplay~;
#X obj 217 157 r pulse;
#X obj 273 157 r length;
#X obj 308 93 s pulse;
#X obj 386 93 s length;
#X obj 148 337 sfx-mixer~;
#N canvas 0 0 450 312 dsp 0;
#N canvas 691 217 482 356 dsp 0;
#X obj 11 7 inlet;
#X obj 92 226 select 0 1;
#X obj 92 57 route dsp;
#X obj 92 36 receive pd;
#X obj 206 138 loadbang;
#X msg 11 220 dsp \$1;
#X obj 11 245 send pd;
#X msg 235 275 set \$1;
#X obj 206 174 value GLOBAL_PDDP_DSP;
#X obj 180 309 send \$0-dsp-toggle;
#X obj 92 115 change;
#X msg 109 278 color \$1 20 12;
#X msg 162 253 13;
#X msg 64 254 1;
#X connect 0 0 5 0;
#X connect 0 0 10 0;
#X connect 1 0 13 0;
#X connect 1 1 12 0;
#X connect 2 0 10 0;
#X connect 3 0 2 0;
#X connect 4 0 8 0;
#X connect 5 0 6 0;
#X connect 7 0 9 0;
#X connect 8 0 7 0;
#X connect 8 0 1 0;
#X connect 10 0 7 0;
#X connect 10 0 1 0;
#X connect 10 0 8 0;
#X connect 11 0 9 0;
#X connect 12 0 11 0;
#X connect 13 0 11 0;
#X restore 109 158 pd dsp logic;
#X obj 101 101 tgl 30 0 FOO \$0-dsp-toggle dsp 2 15 1 12 -166441 -195568
-33289 0 1;
#X connect 1 0 0 0;
#X coords 0 -1 1 1 32 32 2 100 100;
#X restore 503 341 pd dsp;
#X connect 0 0 22 4;
#X connect 0 0 22 5;
#X connect 1 0 20 0;
#X connect 2 0 1 0;
#X connect 3 0 1 1;
#X connect 3 0 21 0;
#X connect 9 0 0 0;
#X connect 10 0 0 1;
#X connect 11 0 22 6;
#X connect 11 0 22 7;
#X connect 12 0 11 0;
#X connect 13 0 11 1;
#X connect 14 0 22 0;
#X connect 14 0 22 1;
#X connect 15 0 14 0;
#X connect 16 0 14 1;
#X connect 17 0 22 2;
#X connect 17 0 22 3;
#X connect 18 0 17 0;
#X connect 19 0 17 1;
