#N canvas 666 52 646 525 10;
#X obj 97 177 sfx-mixer2~;
#X msg 99 -15 bang;
#X text 136 -15 click to play;
#N canvas 59 24 450 312 dsp 0;
#N canvas 691 217 482 356 dsp 0;
#X obj 11 7 inlet;
#X obj 92 226 select 0 1;
#X obj 92 57 route dsp;
#X obj 92 36 receive pd;
#X obj 206 138 loadbang;
#X msg 11 220 dsp \$1;
#X obj 11 245 send pd;
#X msg 235 275 set \$1;
#X obj 206 174 value GLOBAL_PDDP_DSP;
#X obj 180 309 send \$0-dsp-toggle;
#X obj 92 115 change;
#X msg 109 278 color \$1 20 12;
#X msg 162 253 13;
#X msg 64 254 1;
#X connect 0 0 5 0;
#X connect 0 0 10 0;
#X connect 1 0 13 0;
#X connect 1 1 12 0;
#X connect 2 0 10 0;
#X connect 3 0 2 0;
#X connect 4 0 8 0;
#X connect 5 0 6 0;
#X connect 7 0 9 0;
#X connect 8 0 7 0;
#X connect 8 0 1 0;
#X connect 10 0 7 0;
#X connect 10 0 1 0;
#X connect 10 0 8 0;
#X connect 11 0 9 0;
#X connect 12 0 11 0;
#X connect 13 0 11 0;
#X restore 109 158 pd dsp logic;
#X obj 101 101 tgl 30 0 FOO \$0-dsp-toggle dsp 2 15 1 12 -258699 -195568
-33289 1 1;
#X obj 93 38 loadbang;
#X msg 96 60 1;
#X connect 1 0 0 0;
#X connect 2 0 3 0;
#X connect 3 0 1 0;
#X coords 0 -1 1 1 32 32 2 100 100;
#X restore 366 141 pd dsp;
#X obj 100 43 sfx-autotune~;
#X obj 436 146 sfx-synth~;
#X obj 562 233 loadbang;
#X obj 437 293 sfx-randomdelay~;
#X obj 437 107 moses 0;
#X obj 432 -31 ctime-steady;
#X obj 438 49 t b b;
#X obj 439 78 f;
#X msg 468 79 -1;
#X msg 569 264 60;
#X obj 154 414 sfx-record~;
#X obj 462 320 sfx-synth~;
#X obj 463 467 sfx-randomdelay~;
#X obj 366 421 line~;
#X msg 376 397 0 3000;
#X obj 395 458 *~;
#X msg 344 397 1;
#X msg 415 338 0;
#X obj 99 12 synth-soundfile~;
#X connect 0 0 14 0;
#X connect 0 1 14 1;
#X connect 1 0 22 0;
#X connect 4 0 0 0;
#X connect 4 0 0 1;
#X connect 4 1 11 1;
#X connect 5 0 7 0;
#X connect 6 0 13 0;
#X connect 7 0 0 2;
#X connect 7 0 0 3;
#X connect 8 1 5 0;
#X connect 8 1 15 0;
#X connect 9 0 10 0;
#X connect 10 0 12 0;
#X connect 10 1 11 0;
#X connect 11 0 8 0;
#X connect 12 0 11 1;
#X connect 13 0 7 1;
#X connect 13 0 16 1;
#X connect 15 0 19 0;
#X connect 16 0 0 4;
#X connect 16 0 0 5;
#X connect 17 0 19 1;
#X connect 18 0 17 0;
#X connect 19 0 16 0;
#X connect 20 0 17 0;
#X connect 21 0 15 0;
#X connect 22 0 4 0;
