#N canvas 0 24 1366 714 10;
#X declare -lib mrpeach;
#X declare -lib mrpeach;
#X text 173 421 NRCI-UC;
#X obj 739 165 ui-keyboard;
#X obj 18 -110 cnv 15 775 100 empty empty empty 20 12 0 14 -228856
-66577 0;
#X obj 560 -56 ctime-randomperiodic 1000 500 17 t;
#X text 254 -105 TIMERS;
#X obj 19 -3 cnv 15 388 170 empty empty empty 20 12 0 14 -233017 -66577
0;
#X obj 102 5 cdata;
#X text 29 4 NOTE DATA;
#X obj 330 174 cnv 15 300 225 empty empty empty 20 12 0 14 -233017
-66577 0;
#X text 443 173 EFFECTS;
#X obj 338 332 sfx-pan~;
#X obj 580 -2 cnv 15 220 150 empty empty empty 20 12 0 14 -233017 -66577
0;
#X obj 585 20 ui-mouse 1279 799;
#X obj 585 40 ui-fretboard-number;
#X obj 585 60 ui-fretboard-pitch;
#X obj 413 -3 cnv 15 160 170 empty empty empty 20 12 0 14 -233017 -66577
0;
#X text 445 -4 SAMPLE PLAYBACK;
#X obj 17 174 cnv 15 120 300 empty empty empty 20 12 0 14 -233017 -66577
0;
#X text 47 173 SYNTHESIS;
#X obj 403 332 sfx-pan~;
#X obj 810 -1 ui-grid;
#X obj 560 -36 ctime-tuplet 2000 4 10 q;
#X obj 560 -96 ctime-triangular 1000 4000 200 r;
#X obj 560 -76 ctime-sinusoid 2000 5000 0.55 s;
#X text 385 -105 (values in milliseconds);
#X obj 797 -110 cnv 15 190 100 empty empty empty 20 12 0 14 -233017
-66577 0;
#X text 840 -111 OSC COMMUNICATION;
#X obj 168 -84 ctime-sawtooth;
#X obj 803 -96 net-sendosc 127.0.0.1 /nrci;
#X obj 372 -84 ctime-random;
#X obj 144 174 cnv 15 180 235 empty empty empty 20 12 0 14 -233017
-66577 0;
#X text 209 173 WAVEFORM;
#X obj 803 -58 net-rcvosc /nrci;
#X text 595 2 USER INTERACTION;
#X obj 338 192 sfx-lowpass~ A;
#X obj 338 212 sfx-highpass~ B;
#X obj 338 232 sfx-randombpass~ C;
#X obj 338 252 sfx-bandpass~ 0.9 D;
#X obj 338 272 sfx-compressor~ E;
#X obj 338 292 sfx-ampenv~ F;
#X obj 338 312 sfx-gate~ G;
#X obj 486 192 sfx-randomcomb~ H;
#X obj 486 212 sfx-combfilter~ 99 I;
#X obj 486 232 sfx-ringmod~ J;
#X obj 486 252 sfx-distortion~ K;
#X obj 486 272 sfx-feedback~ L;
#X obj 486 292 sfx-fm~ M;
#X obj 486 312 sfx-ffm~ N;
#X obj 486 332 sfx-randomdelay~ O;
#X obj 486 352 sfx-reverb~ P;
#X obj 486 372 sfx-scrub~ Q;
#X obj 27 192 sfx-synth~ a;
#X obj 27 332 sfx-synth~ b;
#X obj 156 192 synth-wave~ c;
#X obj 156 295 sfx-envelope~ d;
#X obj 585 80 ui-keytrigger;
#X obj 690 80 ui-keytrigger;
#X obj 418 140 synth-loop~;
#X obj 418 16 synth-grain~ v;
#X obj 418 36 synth-grain~ w;
#X obj 418 78 synth-playback~ y;
#X obj 417 57 synth-playback~ x;
#X text 166 439 27 Mar 2011;
#X obj 418 99 synth-soundfile~ z;
#X text 152 489 Greg Surges \, & Joel Matthys;
#X text 160 471 created by Chris Burns \,;
#X obj 29 -88 ctime-steady 1000;
#N canvas 0 0 450 312 dsp 0;
#N canvas 691 217 482 356 dsp 0;
#X obj 11 7 inlet;
#X obj 92 226 select 0 1;
#X obj 92 57 route dsp;
#X obj 92 36 receive pd;
#X obj 206 138 loadbang;
#X msg 11 220 dsp \$1;
#X obj 11 245 send pd;
#X msg 235 275 set \$1;
#X obj 206 174 value GLOBAL_PDDP_DSP;
#X obj 180 309 send \$0-dsp-toggle;
#X obj 92 115 change;
#X msg 109 278 color \$1 20 12;
#X msg 162 253 13;
#X msg 64 254 1;
#X connect 0 0 5 0;
#X connect 0 0 10 0;
#X connect 1 0 13 0;
#X connect 1 1 12 0;
#X connect 2 0 10 0;
#X connect 3 0 2 0;
#X connect 4 0 8 0;
#X connect 5 0 6 0;
#X connect 7 0 9 0;
#X connect 8 0 7 0;
#X connect 8 0 1 0;
#X connect 10 0 7 0;
#X connect 10 0 1 0;
#X connect 10 0 8 0;
#X connect 11 0 9 0;
#X connect 12 0 11 0;
#X connect 13 0 11 0;
#X restore 109 158 pd dsp logic;
#X obj 101 101 tgl 30 0 FOO \$0-dsp-toggle dsp 2 15 1 12 -166441 -195568
-33289 0 1;
#X connect 1 0 0 0;
#X coords 0 -1 1 1 32 32 2 100 100;
#X restore 692 157 pd dsp;
#N canvas 0 0 450 300 midi_objects 0;
#X obj 56 82 ui-midictl;
#X obj 175 83 ui-midinote;
#X restore 712 441 pd midi_objects;
#X obj 652 209 sfx-mixer2~;
#X obj 447 412 sfx-autotune~;
#X obj 418 120 synth-mp3~ z;
