#N canvas 95 142 650 519 10;
#X obj 176 14 inlet;
#X obj 176 271 outlet;
#X text 17 360 two user-specified values (\$1 \, \$2): lower \, upper
thresholds;
#X obj 176 161 random;
#X obj 176 230 +;
#X obj 248 96 -;
#X text 34 373 for random value;
#X text 220 13 stream of incoming bangs;
#X text 16 393 one inlet: stream of bang messages;
#X text 16 408 one outlet: stream of random values;
#X text 226 271 stream of random values;
#X floatatom 176 251 5 0 0 0 - - -;
#X obj 176 33 t b b;
#X obj 248 132 t f f;
#X obj 223 161 random;
#X obj 176 184 +;
#X obj 176 205 / 200;
#X obj 248 114 * 100;
#X text 16 345 produce streams of random values (triangular distribution)
;
#X text 17 331 cdata-rtriangle.pd;
#X obj 382 63 f \$2;
#X obj 417 63 f \$1;
#X obj 382 20 loadbang;
#X obj 382 39 t b b;
#X obj 450 18 inlet;
#X obj 490 37 inlet;
#X obj 465 84 t b f;
#X obj 501 84 t b f;
#X connect 0 0 12 0;
#X connect 3 0 15 0;
#X connect 4 0 11 0;
#X connect 5 0 17 0;
#X connect 11 0 1 0;
#X connect 12 0 3 0;
#X connect 12 1 14 0;
#X connect 13 0 3 1;
#X connect 13 1 14 1;
#X connect 14 0 15 1;
#X connect 15 0 16 0;
#X connect 16 0 4 0;
#X connect 17 0 13 0;
#X connect 20 0 5 0;
#X connect 21 0 4 1;
#X connect 21 0 5 1;
#X connect 22 0 23 0;
#X connect 23 0 20 0;
#X connect 23 1 21 0;
#X connect 24 0 26 0;
#X connect 25 0 27 0;
#X connect 26 0 23 0;
#X connect 26 1 21 1;
#X connect 27 0 23 0;
#X connect 27 1 20 1;
#X coords 0 -1 1 1 170 17 1 40 250;
