#N canvas 95 101 455 570 10;
#X obj 64 11 inlet;
#X obj 176 371 outlet;
#X text 18 457 two user-specified values (\$1 \, \$2): lower \, upper
thresholds;
#X obj 64 165 random;
#X obj 265 80 f \$2;
#X obj 300 80 f \$1;
#X obj 294 -32 loadbang;
#X obj 265 123 -;
#X obj 314 49 t b b;
#X text 108 10 stream of incoming bangs;
#X text 17 490 one inlet: stream of bang messages;
#X text 17 505 one outlet: stream of random values;
#X text 226 371 stream of random values;
#X floatatom 176 351 5 0 0 0 - - -;
#X obj 64 30 t b b;
#X obj 265 141 * 100;
#X obj 238 191 table \$0-heap 6;
#X text 35 470 for random values;
#X text 17 424 randomly choose one of a set of random values;
#X obj 176 307 random 6;
#X obj 176 328 tabread \$0-heap;
#X obj 64 237 t f b;
#X obj 64 291 tabwrite \$0-heap;
#X obj 94 258 random 6;
#X obj 64 185 / 100;
#X obj 64 217 +;
#X obj 64 111 random 4;
#X obj 64 131 sel 0;
#X text 18 438 and randomly replace those values over time;
#X text 18 410 cdata-heap.pd;
#X obj 358 -26 inlet;
#X obj 398 -7 inlet;
#X obj 350 23 t b f;
#X obj 386 23 t b f;
#X obj 244 39 t b b b;
#X obj 218 79 Uzi 6;
#X connect 0 0 14 0;
#X connect 3 0 24 0;
#X connect 4 0 7 0;
#X connect 5 0 7 1;
#X connect 5 0 25 1;
#X connect 6 0 34 0;
#X connect 7 0 15 0;
#X connect 8 0 4 0;
#X connect 8 1 5 0;
#X connect 13 0 1 0;
#X connect 14 0 26 0;
#X connect 14 1 19 0;
#X connect 15 0 3 1;
#X connect 19 0 20 0;
#X connect 20 0 13 0;
#X connect 21 0 22 0;
#X connect 21 1 23 0;
#X connect 23 0 22 1;
#X connect 24 0 25 0;
#X connect 25 0 21 0;
#X connect 26 0 27 0;
#X connect 27 0 3 0;
#X connect 30 0 32 0;
#X connect 31 0 33 0;
#X connect 32 0 8 0;
#X connect 32 1 5 1;
#X connect 33 0 8 0;
#X connect 33 1 4 1;
#X connect 34 0 35 0;
#X connect 34 1 4 0;
#X connect 34 2 5 0;
#X connect 35 0 3 0;
#X coords 0 -1 1 1 170 17 1 40 350;
