#N canvas 221 77 458 503 10;
#X obj 125 17 inlet;
#X obj 176 351 outlet;
#X text 167 17 stream of incoming bangs;
#X text 226 351 stream of values;
#X obj 153 139 + 1;
#X obj 125 139 int;
#X text 181 140 counter;
#X obj 125 164 * \$3;
#X text 18 404 three user-specified value (\$1 \, \$2 \, \$3): lower
threshold \,;
#X text 19 437 one inlet: stream of bangs (timing messages);
#X text 19 451 one outlet: stream of numeric values;
#X text 18 389 output triangularly oscillating values;
#X text 39 420 upper threshold \, increment/decrement amount;
#X obj 125 188 + \$1;
#X obj 125 207 moses \$1;
#X obj 176 226 moses \$2;
#X msg 198 118 -1;
#X msg 169 118 1;
#X obj 172 42 r \$0-retrigger;
#X obj 172 61 t b f;
#X text 162 163 multiply by \$3 increment;
#X obj 202 79 sel 0 1;
#X msg 125 249 0;
#X msg 227 247 1;
#X obj 227 291 s \$0-retrigger;
#X floatatom 176 321 5 0 0 0 - - -;
#X text 19 375 cdata-triangular.pd;
#X obj 307 137 inlet;
#X obj 347 138 inlet;
#X obj 387 140 inlet;
#X connect 0 0 5 0;
#X connect 4 0 5 1;
#X connect 5 0 4 0;
#X connect 5 0 7 0;
#X connect 7 0 13 0;
#X connect 13 0 14 0;
#X connect 14 0 22 0;
#X connect 14 1 15 0;
#X connect 15 0 25 0;
#X connect 15 1 23 0;
#X connect 16 0 4 1;
#X connect 17 0 4 1;
#X connect 18 0 19 0;
#X connect 19 0 5 0;
#X connect 19 1 21 0;
#X connect 21 0 17 0;
#X connect 21 1 16 0;
#X connect 22 0 24 0;
#X connect 23 0 24 0;
#X connect 25 0 1 0;
#X connect 27 0 14 1;
#X connect 28 0 15 1;
#X connect 29 0 7 1;
#X coords 0 -1 1 1 210 17 1 0 320;
