#N canvas 95 116 463 555 10;
#X obj 64 11 inlet;
#X obj 176 371 outlet;
#X text 18 457 two user-specified values (\$1 \, \$2): lower \, upper
thresholds;
#X obj 64 165 random;
#X obj 305 94 -;
#X text 108 10 stream of incoming bangs;
#X text 17 490 one inlet: stream of bang messages;
#X text 17 505 one outlet: stream of random values;
#X text 226 371 stream of random values;
#X floatatom 176 351 5 0 0 0 - - -;
#X obj 64 30 t b b;
#X obj 306 133 * 100;
#X text 35 470 for random values;
#X obj 64 237 t f b;
#X obj 64 185 / 100;
#X obj 64 217 +;
#X obj 64 131 sel 0;
#X text 18 438 and randomly replace those values over time;
#X obj 266 186 table \$0-cycle 6;
#X obj 64 291 tabwrite \$0-cycle;
#X obj 176 328 tabread \$0-cycle;
#X obj 94 257 random 6;
#X obj 176 277 int;
#X obj 201 277 + 1;
#X obj 176 298 mod 6;
#X obj 64 111 random 5;
#X text 17 424 cycle through a sequence of random values;
#X text 19 410 cdata-cycle.pd;
#X obj 291 61 f \$2;
#X obj 342 64 f \$1;
#X obj 292 10 loadbang;
#X obj 357 -59 inlet;
#X obj 397 -40 inlet;
#X obj 266 -19 t b f;
#X obj 338 -16 t b f;
#X obj 130 71 Uzi 6;
#X obj 292 29 t b b b;
#X msg 141 115 bang;
#X connect 0 0 10 0;
#X connect 3 0 14 0;
#X connect 4 0 11 0;
#X connect 9 0 1 0;
#X connect 10 0 25 0;
#X connect 10 1 22 0;
#X connect 11 0 3 1;
#X connect 13 0 19 0;
#X connect 13 1 21 0;
#X connect 14 0 15 0;
#X connect 15 0 13 0;
#X connect 16 0 3 0;
#X connect 20 0 9 0;
#X connect 21 0 19 1;
#X connect 22 0 24 0;
#X connect 22 0 23 0;
#X connect 23 0 22 1;
#X connect 24 0 20 0;
#X connect 25 0 16 0;
#X connect 28 0 4 0;
#X connect 29 0 4 1;
#X connect 29 0 15 1;
#X connect 30 0 36 0;
#X connect 31 0 33 0;
#X connect 32 0 34 0;
#X connect 33 0 36 0;
#X connect 33 1 29 1;
#X connect 34 0 36 0;
#X connect 34 1 28 1;
#X connect 35 0 37 0;
#X connect 36 0 35 0;
#X connect 36 1 28 0;
#X connect 36 2 29 0;
#X connect 37 0 3 0;
#X coords 0 -1 1 1 170 17 1 40 350;
