#N canvas 181 116 517 610 10;
#X obj 274 28 inlet;
#X text 318 28 on/off switch;
#X text 318 40 (0 = off \, 1 = on);
#X obj 274 419 outlet;
#X text 35 517 one inlet: on/off switch (nonzero/zero);
#X text 35 532 one outlet: stream of bang messages;
#X text 22 439 produce a (randomly changing) periodic stream of bangs
;
#X text 38 469 high frequency threshold (\$2) \, % likelihood of change
on;
#X obj 274 236 metro;
#X obj 304 178 random;
#X obj 304 199 + \$1;
#X obj 311 102 loadbang;
#X obj 341 140 f \$2;
#X obj 341 159 - \$1;
#X obj 293 358 / 100;
#X obj 293 378 moses \$3;
#X obj 293 338 random 10001;
#X obj 293 399 s \$0-new-frequency;
#X obj 311 121 t b b;
#X obj 304 59 r \$0-new-frequency;
#X msg 304 78 bang;
#X obj 274 51 tgl 15 0 empty empty empty 0 -6 0 8 -262144 -1 -1 1 1
;
#X obj 304 218 t f f;
#X obj 274 257 t b b b b;
#X obj 332 276 f;
#X text 23 454 four user-specified values: low frequency threshold
(\$1);
#X text 37 483 each event (\$3) \, on/off key assignment (\$4);
#X obj 201 27 select \$4;
#X obj 201 4 internals-keyswitch;
#X text 23 425 ctime-randomperiodic.pd;
#X obj 332 295 s duration-report;
#X obj 312 319 s rhythm-report;
#X connect 0 0 21 0;
#X connect 8 0 23 0;
#X connect 9 0 10 0;
#X connect 10 0 22 0;
#X connect 11 0 18 0;
#X connect 12 0 13 0;
#X connect 13 0 9 1;
#X connect 14 0 15 0;
#X connect 15 0 17 0;
#X connect 16 0 14 0;
#X connect 18 0 9 0;
#X connect 18 1 12 0;
#X connect 19 0 20 0;
#X connect 20 0 9 0;
#X connect 21 0 8 0;
#X connect 22 0 8 1;
#X connect 22 1 24 1;
#X connect 23 0 3 0;
#X connect 23 1 16 0;
#X connect 23 2 31 0;
#X connect 23 3 24 0;
#X connect 24 0 30 0;
#X connect 27 0 21 0;
#X connect 28 0 27 0;
#X coords 0 -1 1 1 230 17 1 60 50;
