#N canvas 243 217 599 335 10;
#X obj 130 118 knob 48 48 5000 10 1 0 \$0-knobout \$0-knobin empty
0 -8 192 8 -262144 -1 -1 1217 1;
#X floatatom 73 127 8 0 0 0 - #0-fromknob #0-milliout;
#X obj 308 28 r \$0-milliout;
#X obj 233 72 spigot;
#X obj 233 49 t b f;
#X obj 51 104 tgl 15 0 \$0-togout \$0-togin empty 17 7 0 10 -262144
-1 -1 0 1;
#X obj 233 28 r \$0-togout;
#X obj 233 95 delay 1000;
#X obj 252 164 outlet;
#X obj 51 155 bng 10 50 10 0 empty \$0-bangin empty 17 7 0 10 -262144
-1 -1;
#X obj 233 118 t b b b;
#X obj 272 141 s \$0-bangin;
#X obj 383 231 s \$0-fromknob;
#X obj 383 207 spigot;
#X obj 383 183 r \$0-knobout;
#X msg 478 215 1;
#X msg 477 195 0;
#X obj 244 198 r \$0-milliout;
#X obj 270 250 s \$0-knobin;
#X obj 251 271 del 1;
#X floatatom 91 149 5 0 0 0 - #0-bpmin #0-bpmout;
#X obj 290 293 s \$0-bpmin;
#X obj 251 225 t b f f b;
#X obj 290 271 expr 60000 / $f1;
#X obj 404 75 s \$0-fromknob;
#X obj 404 28 loadbang;
#X obj 487 19 inlet;
#X obj 487 42 s \$0-togin;
#X text 54 126 ms;
#X text 67 147 bpm;
#X text 71 100 ctime-steady;
#X obj 403 50 f \$1;
#X connect 2 0 7 1;
#X connect 3 0 7 0;
#X connect 4 0 3 0;
#X connect 4 1 3 1;
#X connect 6 0 4 0;
#X connect 7 0 10 0;
#X connect 10 0 3 0;
#X connect 10 1 8 0;
#X connect 10 2 11 0;
#X connect 13 0 12 0;
#X connect 14 0 13 0;
#X connect 15 0 13 1;
#X connect 16 0 13 1;
#X connect 17 0 22 0;
#X connect 19 0 15 0;
#X connect 22 0 19 0;
#X connect 22 1 18 0;
#X connect 22 2 23 0;
#X connect 22 3 16 0;
#X connect 23 0 21 0;
#X connect 25 0 31 0;
#X connect 26 0 27 0;
#X connect 31 0 24 0;
#X coords 0 -1 1 1 133 70 2 50 100;
