#N canvas 129 39 614 592 10;
#X obj 284 23 inlet;
#X text 328 21 on/off switch;
#X text 328 33 (0 = off \, 1 = on);
#X obj 334 406 outlet;
#X text 40 519 one inlet: on/off switch (nonzero/zero);
#X text 40 534 one outlet: stream of bang messages;
#X obj 277 329 spigot;
#X obj 284 74 t f f;
#X obj 139 123 sel 1;
#X obj 277 407 delay;
#X obj 277 427 s \$0-retrigger;
#X obj 34 123 r \$0-retrigger;
#X text 384 406 stream of bangs;
#X obj 167 169 + 1;
#X obj 139 169 int;
#X text 195 170 counter;
#X obj 139 194 * \$3;
#X obj 185 122 r \$0-reset;
#X msg 185 140 0;
#X text 171 195 increment;
#X obj 139 276 moses \$2;
#X obj 139 312 s \$0-reset;
#X text 43 453 produce a linearly decreasing timed stream of bangs
;
#X text 55 486 for time interval between bangs (\$1 \, \$2) \, decrement
;
#X obj 139 257 -;
#X obj 139 233 f \$1;
#X obj 139 214 trigger b f;
#X obj 284 51 tgl 15 0 empty empty empty 0 -6 0 8 -262144 -1 -1 0 1
;
#X obj 277 349 trigger b f b b f;
#X text 44 473 four user-specified values: upper \, lower thresholds
;
#X text 51 501 (in msec) (\$3) on/off key assignment (\$4);
#X obj 209 23 select \$4;
#X obj 209 0 internals-keyswitch;
#X text 42 439 ctime-ldecrease.pd;
#X obj 391 369 s duration-report;
#X obj 362 387 s rhythm-report;
#X obj 407 118 inlet;
#X obj 447 119 inlet;
#X obj 487 119 inlet;
#X connect 0 0 27 0;
#X connect 6 0 28 0;
#X connect 7 0 8 0;
#X connect 7 1 6 1;
#X connect 8 0 14 0;
#X connect 9 0 10 0;
#X connect 11 0 14 0;
#X connect 13 0 14 1;
#X connect 14 0 13 0;
#X connect 14 0 16 0;
#X connect 16 0 26 0;
#X connect 17 0 18 0;
#X connect 18 0 14 0;
#X connect 20 0 21 0;
#X connect 20 1 6 0;
#X connect 24 0 20 0;
#X connect 25 0 24 0;
#X connect 26 0 25 0;
#X connect 26 1 24 1;
#X connect 27 0 7 0;
#X connect 28 0 9 0;
#X connect 28 1 9 1;
#X connect 28 2 3 0;
#X connect 28 3 35 0;
#X connect 28 4 34 0;
#X connect 31 0 27 0;
#X connect 32 0 31 0;
#X connect 36 0 20 1;
#X connect 37 0 25 1;
#X connect 38 0 16 1;
#X coords 0 -1 1 1 230 17 1 70 50;
