#N canvas 1389 157 461 451 10;
#X obj 145 65 inlet;
#X obj 145 119 ascseq;
#X obj 208 177 int;
#X text 325 23 \$1 - max word length;
#X obj 145 146 t f b;
#X obj 346 207 float \$1;
#X obj 344 235 + 1;
#X obj 345 177 loadbang;
#X obj 291 274 moses 10;
#X obj 265 323 *;
#X obj 145 91 t symbol b b;
#X msg 380 315 0;
#X obj 297 363 +;
#X msg 258 110 0;
#X obj 155 207 / 128;
#X obj 264 363 f;
#X obj 237 177 + 1;
#X obj 263 385 outlet;
#X floatatom 207 393 5 0 0 0 - - -;
#X text 325 -14 convert a symbol to;
#X text 328 4 a unique float ID;
#X connect 0 0 10 0;
#X connect 1 0 4 0;
#X connect 2 0 8 0;
#X connect 2 0 16 0;
#X connect 4 0 14 0;
#X connect 4 1 2 0;
#X connect 5 0 6 0;
#X connect 6 0 8 1;
#X connect 7 0 5 0;
#X connect 8 0 9 1;
#X connect 9 0 15 0;
#X connect 10 0 1 0;
#X connect 10 1 13 0;
#X connect 10 2 11 0;
#X connect 11 0 15 1;
#X connect 11 0 12 1;
#X connect 12 0 15 1;
#X connect 13 0 2 1;
#X connect 14 0 9 0;
#X connect 15 0 12 0;
#X connect 15 0 17 0;
#X connect 15 0 18 0;
#X connect 16 0 2 1;
