#N canvas 125 68 843 657 10;
#X obj 54 18 inlet;
#X text 100 18 on/off switch;
#N canvas 505 222 658 428 NUMKEYS 0;
#X obj 316 336 outlet;
#X obj 30 333 outlet;
#X obj 69 17 inlet;
#X obj 69 80 select 33 64 35 36 37 94 38 42 40 41;
#X text 82 333 report matches by ID number;
#X text 369 335 pass nonmatches;
#X text 330 80 test ASCII input against !@#$%^&*();
#X msg 30 101 !;
#X msg 59 101 @;
#X msg 88 101 #;
#X msg 117 101 $;
#X msg 146 101 %;
#X msg 175 101 ^;
#X msg 204 100 &;
#X msg 234 101 *;
#X msg 263 101 (;
#X msg 291 101 );
#X connect 2 0 3 0;
#X connect 3 0 7 0;
#X connect 3 1 8 0;
#X connect 3 2 9 0;
#X connect 3 3 10 0;
#X connect 3 4 11 0;
#X connect 3 5 12 0;
#X connect 3 6 13 0;
#X connect 3 7 14 0;
#X connect 3 8 15 0;
#X connect 3 9 16 0;
#X connect 3 10 0 0;
#X connect 7 0 1 0;
#X connect 8 0 1 0;
#X connect 9 0 1 0;
#X connect 10 0 1 0;
#X connect 11 0 1 0;
#X connect 12 0 1 0;
#X connect 13 0 1 0;
#X connect 14 0 1 0;
#X connect 15 0 1 0;
#X connect 16 0 1 0;
#X restore 219 265 pd NUMKEYS;
#N canvas 527 374 702 428 QWERTYUIOP 0;
#X obj 315 334 outlet;
#X obj 29 333 outlet;
#X obj 68 18 inlet;
#X obj 68 51 select 81 87 69 82 84 89 85 73 79 80;
#X text 81 333 report matches by ID number;
#X text 368 333 pass nonmatches;
#X text 327 51 test ASCII input against QWERTYUIOP;
#X msg 29 71 Q;
#X msg 58 72 W;
#X msg 87 72 E;
#X msg 116 72 R;
#X msg 145 72 T;
#X msg 174 72 Y;
#X msg 203 72 U;
#X msg 232 72 I;
#X msg 261 72 O;
#X msg 290 72 P;
#X connect 2 0 3 0;
#X connect 3 0 7 0;
#X connect 3 1 8 0;
#X connect 3 2 9 0;
#X connect 3 3 10 0;
#X connect 3 4 11 0;
#X connect 3 5 12 0;
#X connect 3 6 13 0;
#X connect 3 7 14 0;
#X connect 3 8 15 0;
#X connect 3 9 16 0;
#X connect 3 10 0 0;
#X connect 7 0 1 0;
#X connect 8 0 1 0;
#X connect 9 0 1 0;
#X connect 10 0 1 0;
#X connect 11 0 1 0;
#X connect 12 0 1 0;
#X connect 13 0 1 0;
#X connect 14 0 1 0;
#X connect 15 0 1 0;
#X connect 16 0 1 0;
#X restore 276 287 pd QWERTYUIOP;
#N canvas 505 222 646 416 ASDFGHJKL 0;
#X obj 316 329 outlet;
#X obj 30 333 outlet;
#X obj 69 17 inlet;
#X obj 69 39 select 65 83 68 70 71 72 74 75 76 58;
#X text 82 333 report matches by ID number;
#X text 369 328 pass nonmatches;
#X text 333 40 test ASCII input against ASDFGHJKL:;
#X msg 30 60 A;
#X msg 59 60 S;
#X msg 88 60 D;
#X msg 117 60 F;
#X msg 147 59 G;
#X msg 175 60 H;
#X msg 204 60 J;
#X msg 233 60 K;
#X msg 262 60 L;
#X msg 291 60 :;
#X connect 2 0 3 0;
#X connect 3 0 7 0;
#X connect 3 1 8 0;
#X connect 3 2 9 0;
#X connect 3 3 10 0;
#X connect 3 4 11 0;
#X connect 3 5 12 0;
#X connect 3 6 13 0;
#X connect 3 7 14 0;
#X connect 3 8 15 0;
#X connect 3 9 16 0;
#X connect 3 10 0 0;
#X connect 7 0 1 0;
#X connect 8 0 1 0;
#X connect 9 0 1 0;
#X connect 10 0 1 0;
#X connect 11 0 1 0;
#X connect 12 0 1 0;
#X connect 13 0 1 0;
#X connect 14 0 1 0;
#X connect 15 0 1 0;
#X connect 16 0 1 0;
#X restore 351 309 pd ASDFGHJKL;
#N canvas 527 374 678 448 ZXCVBNM 0;
#X obj 317 332 outlet;
#X obj 31 333 outlet;
#X obj 70 18 inlet;
#X text 83 333 report matches by ID number;
#X text 370 331 pass nonmatches;
#X text 336 47 test ASCII input against ZXCVBNM<>?;
#X msg 31 69 Z;
#X msg 60 69 X;
#X msg 89 69 C;
#X msg 118 69 V;
#X msg 147 69 B;
#X msg 176 69 N;
#X msg 205 69 M;
#X msg 234 69 <;
#X msg 263 69 >;
#X msg 292 69 ?;
#X obj 71 48 select 90 88 67 86 66 78 77 60 62 63;
#X connect 2 0 16 0;
#X connect 6 0 1 0;
#X connect 7 0 1 0;
#X connect 8 0 1 0;
#X connect 9 0 1 0;
#X connect 10 0 1 0;
#X connect 11 0 1 0;
#X connect 12 0 1 0;
#X connect 13 0 1 0;
#X connect 14 0 1 0;
#X connect 15 0 1 0;
#X connect 16 0 6 0;
#X connect 16 1 7 0;
#X connect 16 2 8 0;
#X connect 16 3 9 0;
#X connect 16 4 10 0;
#X connect 16 5 11 0;
#X connect 16 6 12 0;
#X connect 16 7 13 0;
#X connect 16 8 14 0;
#X connect 16 9 15 0;
#X connect 16 10 0 0;
#X restore 420 331 pd ZXCVBNM;
#X text 243 28 user interface object;
#X text 240 198 derived from "lattice" code by lcb;
#X text 350 223 updated 09.18.2007;
#N canvas 314 332 710 436 qwertyuiop 0;
#X obj 385 332 outlet;
#X obj 68 333 outlet;
#X obj 68 18 inlet;
#X text 120 333 report matches by ID number;
#X text 438 331 pass nonmatches;
#X text 398 50 test ASCII input against QWERTYUIOP;
#X obj 68 51 select 113 119 101 114 116 121 117 105 111 112;
#X msg 68 72 q;
#X msg 97 72 w;
#X msg 126 72 e;
#X msg 155 72 r;
#X msg 185 72 t;
#X msg 213 72 y;
#X msg 242 72 u;
#X msg 271 72 i;
#X msg 301 72 o;
#X msg 329 72 p;
#X obj 263 169 symbol;
#X connect 2 0 6 0;
#X connect 6 0 7 0;
#X connect 6 1 8 0;
#X connect 6 2 9 0;
#X connect 6 3 10 0;
#X connect 6 4 11 0;
#X connect 6 5 12 0;
#X connect 6 6 13 0;
#X connect 6 7 14 0;
#X connect 6 8 15 0;
#X connect 6 9 16 0;
#X connect 6 10 0 0;
#X connect 7 0 1 0;
#X connect 8 0 1 0;
#X connect 9 0 1 0;
#X connect 10 0 1 0;
#X connect 11 0 1 0;
#X connect 12 0 1 0;
#X connect 13 0 1 0;
#X connect 14 0 1 0;
#X connect 15 0 1 0;
#X connect 16 0 1 0;
#X restore 18 177 pd qwertyuiop;
#N canvas 505 222 713 414 asdfghjkl 0;
#X obj 330 343 outlet;
#X obj 27 345 outlet;
#X obj 27 27 inlet;
#X text 79 345 report matches by ID number;
#X text 383 342 pass nonmatches;
#X text 343 49 test ASCII input against asdfghjkl (semicolon);
#X obj 27 49 select 97 115 100 102 103 104 106 107 108 59;
#X msg 27 72 a;
#X msg 56 72 s;
#X msg 85 72 d;
#X msg 114 72 f;
#X msg 143 72 g;
#X msg 172 72 h;
#X msg 201 72 j;
#X msg 230 72 k;
#X msg 259 72 l;
#X msg 288 72 \;;
#X connect 2 0 6 0;
#X connect 6 0 7 0;
#X connect 6 1 8 0;
#X connect 6 2 9 0;
#X connect 6 3 10 0;
#X connect 6 4 11 0;
#X connect 6 5 12 0;
#X connect 6 6 13 0;
#X connect 6 7 14 0;
#X connect 6 8 15 0;
#X connect 6 9 16 0;
#X connect 6 10 0 0;
#X connect 7 0 1 0;
#X connect 8 0 1 0;
#X connect 9 0 1 0;
#X connect 10 0 1 0;
#X connect 11 0 1 0;
#X connect 12 0 1 0;
#X connect 13 0 1 0;
#X connect 14 0 1 0;
#X connect 15 0 1 0;
#X connect 16 0 1 0;
#X restore 93 199 pd asdfghjkl;
#N canvas 527 374 650 389 zxcvbnm 0;
#X obj 313 332 outlet;
#X obj 31 333 outlet;
#X obj 31 11 inlet;
#X text 83 333 report matches by ID number;
#X text 366 331 pass nonmatches;
#X text 342 42 test ASCII input against zxcvbnm \, ./;
#X obj 31 41 select 122 120 99 118 98 110 109 44 46 47;
#X msg 31 69 z;
#X msg 60 69 x;
#X msg 89 69 c;
#X msg 118 69 v;
#X msg 148 69 b;
#X msg 176 69 n;
#X msg 205 69 m;
#X msg 234 69 \,;
#X msg 263 69 .;
#X msg 292 69 /;
#X connect 2 0 6 0;
#X connect 6 0 7 0;
#X connect 6 1 8 0;
#X connect 6 2 9 0;
#X connect 6 3 10 0;
#X connect 6 4 11 0;
#X connect 6 5 12 0;
#X connect 6 6 13 0;
#X connect 6 7 14 0;
#X connect 6 8 15 0;
#X connect 6 9 16 0;
#X connect 6 10 0 0;
#X connect 7 0 1 0;
#X connect 8 0 1 0;
#X connect 9 0 1 0;
#X connect 10 0 1 0;
#X connect 11 0 1 0;
#X connect 12 0 1 0;
#X connect 13 0 1 0;
#X connect 14 0 1 0;
#X connect 15 0 1 0;
#X connect 16 0 1 0;
#X restore 162 221 pd zxcvbnm;
#X obj 18 649 outlet;
#X text 101 29 '1' to activate;
#X text 101 40 '0' to deactivate;
#X text 245 40 when inlet is switched on \, report keypresses:;
#X text 243 15 milo-fretboard-cols.pd;
#X text 264 54 ten lowercase columns as a 10x4 grid;
#X text 278 68 keys "1" through "z" report as numeric values 0-3;
#X text 278 81 keys "2" through "x" report as numeric values 10-13
;
#X text 279 95 ...;
#X text 279 108 keys "0" through "/" report as numeric values 90-93
;
#X text 266 123 ten uppercase columns as a 10x4 grid;
#X text 280 137 keys "!" through "Z" report as numeric values 100-103
;
#X text 280 150 keys "@" through "X" report as numeric values 110-113
;
#X text 280 163 ...;
#X text 280 176 keys ")" through "?" report as numeric values 190-193
;
#X text 352 234 modified for ascii output;
#X text 351 249 10/8/07 greg surges;
#X obj 18 582 symbol;
#X msg 443 380 BackSpace;
#X msg 508 380 Return;
#X text 352 265 (and modified again 11/07/07 cb);
#X obj 510 421 keyname;
#X symbolatom 549 442 10 0 0 0 - - -;
#X obj 641 443 delay 1;
#X obj 516 489 symbol;
#X obj 557 380 select 32 49 50 51 52 53 54 55 56 57 48;
#X obj 477 358 select 8 10;
#X connect 0 0 9 0;
#X connect 2 0 29 0;
#X connect 2 1 3 0;
#X connect 3 0 29 0;
#X connect 3 1 4 0;
#X connect 4 0 29 0;
#X connect 4 1 5 0;
#X connect 5 0 29 0;
#X connect 5 1 38 0;
#X connect 9 0 29 0;
#X connect 9 1 10 0;
#X connect 10 0 29 0;
#X connect 10 1 11 0;
#X connect 11 0 29 0;
#X connect 11 1 2 0;
#X connect 29 0 12 0;
#X connect 30 0 29 0;
#X connect 31 0 29 0;
#X connect 33 1 34 0;
#X connect 34 0 36 1;
#X connect 35 0 36 0;
#X connect 36 0 12 0;
#X connect 37 0 35 0;
#X connect 37 1 35 0;
#X connect 37 2 35 0;
#X connect 37 3 35 0;
#X connect 37 4 35 0;
#X connect 37 5 35 0;
#X connect 37 6 35 0;
#X connect 37 7 35 0;
#X connect 37 8 35 0;
#X connect 37 9 35 0;
#X connect 37 10 35 0;
#X connect 38 0 30 0;
#X connect 38 1 31 0;
#X connect 38 2 37 0;
