#N canvas 190 148 690 463 10;
#X declare -lib mrpeach;
#X obj 353 30 import mrpeach;
#X obj 346 5 loadbang;
#X obj 300 110 unpackOSC;
#X obj 417 85 symbol \$1;
#X obj 264 116 bng 15 50 20 0 empty empty empty 17 7 0 10 -262144 -1
-1;
#X obj 286 233 outlet;
#X obj 350 234 outlet;
#X obj 264 101 bng 15 50 20 0 empty empty empty 17 7 0 10 -262144 -1
-1;
#X obj 295 206 unpack f f;
#X obj 413 270 outlet;
#X obj 477 271 outlet;
#X obj 410 211 unpack symbol f f;
#X symbolatom 212 115 8 0 0 0 - - -;
#X floatatom 101 115 5 0 0 0 - - -;
#X floatatom 136 115 5 0 0 0 - - -;
#X msg 186 43 symbol others;
#X obj 299 85 udpreceive 12001;
#X obj 517 37 r my_own_tag;
#X obj 453 113 pack symbol symbol;
#X obj 509 60 t b symbol;
#X obj 317 169 routeOSC /CiCLOP /myself;
#X msg 411 138 set \$1 \$2;
#X obj 518 176 print net-rcvosc;
#X text 236 100 rcv:;
#X connect 1 0 0 0;
#X connect 1 0 3 0;
#X connect 1 0 15 0;
#X connect 2 0 20 0;
#X connect 3 0 18 0;
#X connect 8 0 5 0;
#X connect 8 0 13 0;
#X connect 8 1 6 0;
#X connect 8 1 14 0;
#X connect 11 0 12 0;
#X connect 11 1 9 0;
#X connect 11 2 10 0;
#X connect 15 0 12 0;
#X connect 16 0 2 0;
#X connect 17 0 19 0;
#X connect 18 0 21 0;
#X connect 19 0 3 0;
#X connect 19 1 18 1;
#X connect 20 0 8 0;
#X connect 20 0 7 0;
#X connect 20 2 11 0;
#X connect 20 2 4 0;
#X connect 21 0 20 0;
#X connect 21 0 22 0;
#X coords 0 -1 1 1 180 35 1 100 100;
