#N canvas 907 51 450 467 10;
#X declare -lib mrpeach;
#X obj 198 233 udpsend;
#X obj 343 13 import mrpeach;
#X obj 67 -13 inlet;
#X obj 124 -15 inlet;
#X obj 343 -15 loadbang;
#X text 327 82 send osc message;
#X obj 127 219 packOSC;
#X obj 24 140 pack symbol f f;
#X msg 54 169 send \$1 \$2 \$3;
#X obj 264 142 sel 1;
#X obj 224 101 tgl 15 0 empty empty empty 17 7 0 10 -262144 -1 -1 1
1;
#X msg 383 266 disconnect;
#X obj 271 295 sel 0;
#X msg 277 348 1;
#X obj 270 271 spigot;
#X msg 346 235 1;
#X obj 205 149 t b b b;
#X msg 349 211 0;
#X msg 133 283 send /server/connect;
#X msg 91 316 send /server/disconnect;
#X obj 315 59 s my_own_tag;
#X obj 323 168 t b b b b;
#X msg 192 204 connect 255.255.255.255 12001;
#X obj 271 319 del 1;
#X obj 317 37 symbol \$1;
#X text 325 98 \$1 = tag (ie /joel);
#X msg 277 33 1;
#X obj 24 95 symbol \$1;
#X obj 150 261 del 5;
#X obj 383 238 del 5;
#X obj 68 7 spigot;
#X obj 124 8 spigot;
#X obj 66 29 t b f;
#X connect 0 0 14 0;
#X connect 2 0 30 0;
#X connect 3 0 31 0;
#X connect 4 0 24 0;
#X connect 4 0 26 0;
#X connect 6 0 0 0;
#X connect 7 0 8 0;
#X connect 8 0 6 0;
#X connect 9 0 16 0;
#X connect 9 0 24 0;
#X connect 9 1 21 0;
#X connect 10 0 9 0;
#X connect 10 0 31 1;
#X connect 10 0 30 1;
#X connect 11 0 0 0;
#X connect 12 0 23 0;
#X connect 13 0 10 0;
#X connect 14 0 12 0;
#X connect 15 0 14 1;
#X connect 16 0 28 0;
#X connect 16 1 22 0;
#X connect 16 2 15 0;
#X connect 17 0 14 1;
#X connect 18 0 6 0;
#X connect 19 0 6 0;
#X connect 21 0 29 0;
#X connect 21 1 19 0;
#X connect 21 2 17 0;
#X connect 22 0 0 0;
#X connect 23 0 13 0;
#X connect 24 0 20 0;
#X connect 26 0 10 0;
#X connect 27 0 7 0;
#X connect 28 0 18 0;
#X connect 29 0 11 0;
#X connect 30 0 32 0;
#X connect 31 0 7 2;
#X connect 32 0 27 0;
#X connect 32 1 7 1;
#X coords 0 -1 1 1 140 17 1 100 100;
