#N canvas 246 214 465 462 10;
#X obj 101 101 tgl 40 0 empty empty empty 17 7 0 10 -1 -262144 -1 0
1;
#X obj 143 101 tgl 40 0 empty empty empty 17 7 0 10 -1 -262144 -1 0
1;
#X obj 185 101 tgl 40 0 empty empty empty 17 7 0 10 -1 -262144 -1 0
1;
#X obj 227 101 tgl 40 0 empty empty empty 17 7 0 10 -1 -262144 -1 0
1;
#X obj 269 101 tgl 40 0 empty empty empty 17 7 0 10 -1 -262144 -1 0
1;
#X obj 311 101 tgl 40 0 empty empty empty 17 7 0 10 -1 -262144 -1 0
1;
#X obj 353 101 tgl 40 0 empty empty empty 17 7 0 10 -1 -262144 -1 0
1;
#X obj 395 101 tgl 40 0 empty empty empty 17 7 0 10 -1 -262144 -1 0
1;
#X obj 58 169 inlet;
#X obj 58 193 spigot;
#X obj 102 169 inlet;
#X obj 102 193 spigot;
#X obj 147 169 inlet;
#X obj 147 193 spigot;
#X obj 191 169 inlet;
#X obj 191 193 spigot;
#X obj 235 169 inlet;
#X obj 235 193 spigot;
#X obj 279 169 inlet;
#X obj 279 193 spigot;
#X obj 324 169 inlet;
#X obj 324 193 spigot;
#X obj 368 169 inlet;
#X obj 368 193 spigot;
#X obj 207 217 s note-in;
#X obj 257 324 s toggle-connection;
#X obj 112 236 sel 0;
#X obj 154 236 sel 0;
#X obj 196 238 sel 0;
#X obj 238 238 sel 0;
#X obj 280 238 sel 0;
#X obj 322 238 sel 0;
#X obj 364 240 sel 0;
#X obj 406 240 sel 0;
#X msg 391 3 0;
#X obj 248 -20 t f b;
#X msg 244 2 \$1 1;
#X text 118 83 9;
#X text 157 83 10;
#X text 199 83 11;
#X text 241 83 12;
#X text 286 83 13;
#X text 325 83 14;
#X text 367 83 15;
#X text 409 83 16;
#X msg 112 258 9 \, 0;
#X msg 154 258 10 \, 0;
#X msg 196 260 11 \, 0;
#X msg 238 260 12 \, 0;
#X msg 280 260 13 \, 0;
#X msg 322 260 14 \, 0;
#X msg 364 262 15 \, 0;
#X msg 406 262 16 \, 0;
#X msg 112 280 -9 \, 0;
#X msg 154 280 -10 \, 0;
#X msg 196 282 -11 \, 0;
#X msg 238 282 -12 \, 0;
#X msg 280 282 -13 \, 0;
#X msg 322 282 -14 \, 0;
#X msg 364 284 -15 \, 0;
#X msg 406 284 -16 \, 0;
#X obj 234 24 route 10 11 12 13 14 15 16;
#X obj 251 -52 r my-pnum;
#X connect 0 0 9 1;
#X connect 0 0 26 0;
#X connect 1 0 11 1;
#X connect 1 0 27 0;
#X connect 2 0 13 1;
#X connect 2 0 28 0;
#X connect 3 0 15 1;
#X connect 3 0 29 0;
#X connect 4 0 17 1;
#X connect 4 0 30 0;
#X connect 5 0 19 1;
#X connect 5 0 31 0;
#X connect 6 0 21 1;
#X connect 6 0 32 0;
#X connect 7 0 23 1;
#X connect 7 0 33 0;
#X connect 8 0 9 0;
#X connect 9 0 24 0;
#X connect 10 0 11 0;
#X connect 11 0 24 0;
#X connect 12 0 13 0;
#X connect 13 0 24 0;
#X connect 14 0 15 0;
#X connect 15 0 24 0;
#X connect 16 0 17 0;
#X connect 17 0 24 0;
#X connect 18 0 19 0;
#X connect 19 0 24 0;
#X connect 20 0 21 0;
#X connect 21 0 24 0;
#X connect 22 0 23 0;
#X connect 23 0 24 0;
#X connect 26 0 53 0;
#X connect 26 1 45 0;
#X connect 27 0 54 0;
#X connect 27 1 46 0;
#X connect 28 0 55 0;
#X connect 28 1 47 0;
#X connect 29 0 56 0;
#X connect 29 1 48 0;
#X connect 30 0 57 0;
#X connect 30 1 49 0;
#X connect 31 0 58 0;
#X connect 31 1 50 0;
#X connect 32 0 59 0;
#X connect 32 1 51 0;
#X connect 33 0 60 0;
#X connect 33 1 52 0;
#X connect 34 0 7 0;
#X connect 34 0 6 0;
#X connect 34 0 5 0;
#X connect 34 0 4 0;
#X connect 34 0 3 0;
#X connect 34 0 2 0;
#X connect 34 0 1 0;
#X connect 34 0 0 0;
#X connect 35 0 36 0;
#X connect 35 1 34 0;
#X connect 36 0 61 0;
#X connect 45 0 25 0;
#X connect 46 0 25 0;
#X connect 47 0 25 0;
#X connect 48 0 25 0;
#X connect 49 0 25 0;
#X connect 50 0 25 0;
#X connect 51 0 25 0;
#X connect 52 0 25 0;
#X connect 53 0 25 0;
#X connect 54 0 25 0;
#X connect 55 0 25 0;
#X connect 56 0 25 0;
#X connect 57 0 25 0;
#X connect 58 0 25 0;
#X connect 59 0 25 0;
#X connect 60 0 25 0;
#X connect 61 0 0 0;
#X connect 61 1 1 0;
#X connect 61 2 2 0;
#X connect 61 3 3 0;
#X connect 61 4 4 0;
#X connect 61 5 5 0;
#X connect 61 6 6 0;
#X connect 62 0 35 0;
#X coords 0 -1 1 1 336 65 2 100 80;
