#N canvas 563 29 655 679 10;
#X declare -lib mrpeach;
#X obj 194 230 udpsend;
#X obj 343 13 import mrpeach;
#X obj 67 -13 inlet;
#X obj 124 -15 inlet;
#X text 327 82 send osc message;
#X obj 24 188 packOSC;
#X obj 24 140 pack symbol f f;
#X msg 24 164 send \$1 \$2 \$3;
#X obj 305 147 sel 1;
#X msg 383 266 disconnect;
#X obj 271 295 sel 0;
#X msg 277 348 1;
#X obj 270 271 spigot;
#X msg 339 235 1;
#X msg 307 235 0;
#X obj 330 170 t b b b b;
#X msg 192 204 connect 255.255.255.255 12001;
#X obj 271 319 del 1;
#X obj 383 238 del 5;
#X obj 68 7 spigot;
#X obj 124 8 spigot;
#X obj 66 29 t b f;
#X msg 363 332 \; net-sendosc-tog color \$1;
#X msg 394 311 16;
#X msg 363 311 13;
#X obj 270 376 s net-sendosc-tog;
#X obj 117 -41 r net-sendosc-togout;
#X obj 309 123 r net-sendosc-togout;
#X obj 75 68 r my_own_tag;
#X msg 87 431 list /p \$1;
#X obj 87 455 makesymbol %s%s;
#X obj 87 479 s my_own_tag;
#X obj 87 408 + 1;
#X obj 101 101 cnv 15 178 45 empty empty empty 20 12 0 14 -228856 -66577
0;
#X obj 159 116 hradio 15 1 0 8 empty net-sendosc-radio empty 0 -8 0
10 -262144 -1 -1 3;
#X obj 264 101 tgl 15 0 net-sendosc-togout net-sendosc-tog empty 17
7 0 10 -258699 -1 -262144 0 1;
#X text 101 119 playernum;
#X obj 24 95 symbol;
#X obj 205 149 t b b b;
#X obj 340 409 r net-sendosc-togout;
#X obj 343 433 sel 0;
#X msg 424 456 22 22 22;
#X obj 120 344 r net-sendosc-togout;
#X msg 459 174 \; peepums-pnum-canvas label \$1;
#X obj 460 149 l2s;
#X obj 87 388 spigot;
#X obj 120 364 == 0;
#X text 137 99 open OSC connection:;
#X obj 465 5 loadbang;
#X msg 463 38 0;
#X obj 214 474 s my-pnum;
#X obj 159 131 hradio 15 1 0 8 empty net-sendosc-radio2 empty 0 -8
0 10 -262144 -262144 -262144 0;
#X obj 44 286 + 8;
#X msg 407 541 \; net-sendosc-radio color 0 0 0 \; net-sendosc-radio2
color 0 22 22;
#X msg 41 542 \; net-sendosc-radio2 color 0 0 0 \; net-sendosc-radio
color 0 22 22;
#X obj 42 500 > 8;
#X obj 43 520 sel 0;
#X floatatom 75 320 5 0 0 0 - - -;
#X msg 322 492 \; net-sendosc-radio color \$1 \$2 \$3 \; net-sendosc-radio2
color \$1 \$2 \$3;
#X obj 332 463 t b b;
#X obj 285 558 f;
#X msg 266 590 \; net-sendosc-radio \$1;
#X obj 548 -4 key;
#X obj 544 26 sel 32;
#X obj 468 68 s net-sendosc-tog;
#X obj 549 258 key;
#X floatatom 550 322 5 0 0 0 - - -;
#X obj 548 282 - 49;
#X obj 549 358 moses 8;
#X obj 520 383 moses 0;
#X obj 492 439 s net-sendosc-radio;
#X obj 585 392 - 48;
#X floatatom 586 414 5 0 0 0 - - -;
#X obj 569 466 moses 0;
#X obj 526 491 s net-sendosc-radio2;
#X connect 0 0 12 0;
#X connect 2 0 19 0;
#X connect 3 0 20 0;
#X connect 5 0 0 0;
#X connect 6 0 7 0;
#X connect 7 0 5 0;
#X connect 8 0 23 0;
#X connect 8 0 38 0;
#X connect 8 1 15 0;
#X connect 8 1 24 0;
#X connect 9 0 0 0;
#X connect 10 0 17 0;
#X connect 11 0 25 0;
#X connect 12 0 10 0;
#X connect 13 0 12 1;
#X connect 14 0 12 1;
#X connect 15 0 18 0;
#X connect 15 2 14 0;
#X connect 16 0 0 0;
#X connect 17 0 11 0;
#X connect 18 0 9 0;
#X connect 19 0 21 0;
#X connect 20 0 6 2;
#X connect 21 0 37 0;
#X connect 21 1 6 1;
#X connect 23 0 22 0;
#X connect 24 0 22 0;
#X connect 26 0 19 1;
#X connect 26 0 20 1;
#X connect 27 0 8 0;
#X connect 28 0 37 1;
#X connect 29 0 30 0;
#X connect 30 0 31 0;
#X connect 32 0 29 0;
#X connect 32 0 44 0;
#X connect 32 0 50 0;
#X connect 32 0 55 0;
#X connect 34 0 45 0;
#X connect 37 0 6 0;
#X connect 38 1 16 0;
#X connect 38 2 13 0;
#X connect 39 0 40 0;
#X connect 40 0 59 0;
#X connect 40 1 41 0;
#X connect 41 0 58 0;
#X connect 42 0 46 0;
#X connect 44 0 43 0;
#X connect 45 0 32 0;
#X connect 45 0 60 1;
#X connect 46 0 45 1;
#X connect 48 0 49 0;
#X connect 49 0 64 0;
#X connect 51 0 52 0;
#X connect 52 0 45 0;
#X connect 52 0 57 0;
#X connect 55 0 56 0;
#X connect 56 0 54 0;
#X connect 56 1 53 0;
#X connect 58 0 54 0;
#X connect 59 0 60 0;
#X connect 59 1 54 0;
#X connect 60 0 61 0;
#X connect 62 0 63 0;
#X connect 63 0 64 0;
#X connect 65 0 67 0;
#X connect 66 0 68 0;
#X connect 67 0 66 0;
#X connect 68 0 69 0;
#X connect 68 1 71 0;
#X connect 69 1 70 0;
#X connect 71 0 72 0;
#X connect 72 0 73 0;
#X connect 73 1 74 0;
#X coords 0 -1 1 1 180 47 1 100 100;
