#N canvas 59 247 465 462 10;
#X obj 101 101 tgl 40 0 empty empty empty 17 7 0 10 -1 -262144 -1 0
1;
#X obj 143 101 tgl 40 0 empty empty empty 17 7 0 10 -1 -262144 -1 0
1;
#X obj 185 101 tgl 40 0 empty empty empty 17 7 0 10 -1 -262144 -1 0
1;
#X obj 227 101 tgl 40 0 empty empty empty 17 7 0 10 -1 -262144 -1 0
1;
#X obj 269 101 tgl 40 0 empty empty empty 17 7 0 10 -1 -262144 -1 0
1;
#X obj 311 101 tgl 40 0 empty empty empty 17 7 0 10 -1 -262144 -1 0
1;
#X obj 353 101 tgl 40 0 empty empty empty 17 7 0 10 -1 -262144 -1 0
1;
#X obj 395 101 tgl 40 0 empty empty empty 17 7 0 10 -1 -262144 -1 0
1;
#X obj 58 169 inlet;
#X obj 58 193 spigot;
#X obj 102 169 inlet;
#X obj 102 193 spigot;
#X obj 147 169 inlet;
#X obj 147 193 spigot;
#X obj 191 169 inlet;
#X obj 191 193 spigot;
#X obj 235 169 inlet;
#X obj 235 193 spigot;
#X obj 279 169 inlet;
#X obj 279 193 spigot;
#X obj 324 169 inlet;
#X obj 324 193 spigot;
#X obj 368 169 inlet;
#X obj 370 195 spigot;
#X text 118 83 1;
#X text 157 83 2;
#X text 199 83 3;
#X text 241 83 4;
#X text 286 83 5;
#X text 325 83 6;
#X text 367 83 7;
#X text 409 83 8;
#X obj 207 217 s note-in;
#X obj 257 324 s toggle-connection;
#X msg 112 258 1 \, 0;
#X msg 112 280 -1 \, 0;
#X obj 112 236 sel 0;
#X obj 154 236 sel 0;
#X obj 196 238 sel 0;
#X obj 238 238 sel 0;
#X obj 280 238 sel 0;
#X obj 322 238 sel 0;
#X obj 364 240 sel 0;
#X obj 406 240 sel 0;
#X msg 154 258 2 \, 0;
#X msg 196 260 3 \, 0;
#X msg 238 260 4 \, 0;
#X msg 280 260 5 \, 0;
#X msg 322 260 6 \, 0;
#X msg 364 262 7 \, 0;
#X msg 406 262 8 \, 0;
#X msg 154 280 -2 \, 0;
#X msg 196 282 -3 \, 0;
#X msg 238 282 -4 \, 0;
#X msg 280 282 -5 \, 0;
#X msg 322 282 -6 \, 0;
#X msg 364 284 -7 \, 0;
#X msg 406 284 -8 \, 0;
#X msg 391 3 0;
#X obj 248 -20 t f b;
#X msg 244 2 \$1 1;
#X obj 249 -47 r my-pnum;
#X obj 234 24 route 2 3 4 5 6 7 8 9;
#X connect 0 0 9 1;
#X connect 0 0 36 0;
#X connect 1 0 11 1;
#X connect 1 0 37 0;
#X connect 2 0 13 1;
#X connect 2 0 38 0;
#X connect 3 0 15 1;
#X connect 3 0 39 0;
#X connect 4 0 17 1;
#X connect 4 0 40 0;
#X connect 5 0 19 1;
#X connect 5 0 41 0;
#X connect 6 0 21 1;
#X connect 6 0 42 0;
#X connect 7 0 23 1;
#X connect 7 0 43 0;
#X connect 8 0 9 0;
#X connect 9 0 32 0;
#X connect 10 0 11 0;
#X connect 11 0 32 0;
#X connect 12 0 13 0;
#X connect 13 0 32 0;
#X connect 14 0 15 0;
#X connect 15 0 32 0;
#X connect 16 0 17 0;
#X connect 17 0 32 0;
#X connect 18 0 19 0;
#X connect 19 0 32 0;
#X connect 20 0 21 0;
#X connect 21 0 32 0;
#X connect 22 0 23 0;
#X connect 23 0 32 0;
#X connect 34 0 33 0;
#X connect 35 0 33 0;
#X connect 36 0 35 0;
#X connect 36 1 34 0;
#X connect 37 0 51 0;
#X connect 37 1 44 0;
#X connect 38 0 52 0;
#X connect 38 1 45 0;
#X connect 39 0 53 0;
#X connect 39 1 46 0;
#X connect 40 0 54 0;
#X connect 40 1 47 0;
#X connect 41 0 55 0;
#X connect 41 1 48 0;
#X connect 42 0 56 0;
#X connect 42 1 49 0;
#X connect 43 0 57 0;
#X connect 43 1 50 0;
#X connect 44 0 33 0;
#X connect 45 0 33 0;
#X connect 46 0 33 0;
#X connect 47 0 33 0;
#X connect 48 0 33 0;
#X connect 49 0 33 0;
#X connect 50 0 33 0;
#X connect 51 0 33 0;
#X connect 52 0 33 0;
#X connect 53 0 33 0;
#X connect 54 0 33 0;
#X connect 55 0 33 0;
#X connect 56 0 33 0;
#X connect 57 0 33 0;
#X connect 58 0 7 0;
#X connect 58 0 6 0;
#X connect 58 0 5 0;
#X connect 58 0 4 0;
#X connect 58 0 3 0;
#X connect 58 0 2 0;
#X connect 58 0 1 0;
#X connect 58 0 0 0;
#X connect 59 0 60 0;
#X connect 59 1 58 0;
#X connect 60 0 62 0;
#X connect 61 0 59 0;
#X connect 62 0 0 0;
#X connect 62 1 1 0;
#X connect 62 2 2 0;
#X connect 62 3 3 0;
#X connect 62 4 4 0;
#X connect 62 5 5 0;
#X connect 62 6 6 0;
#X connect 62 7 7 0;
#X coords 0 -1 1 1 336 65 2 100 80;
