#N canvas 1 81 1353 686 10;
#X declare -lib mrpeach;
#X obj 243 -465 import mrpeach;
#X obj 242 -488 loadbang;
#X obj 121 -405 symbol \$1;
#X obj 136 -378 symbol \$2;
#X obj 206 -405 symbol \$3;
#X obj 218 -380 symbol \$4;
#X obj 290 -403 symbol \$5;
#X obj 309 -377 symbol \$6;
#X obj 369 -402 symbol \$7;
#X obj 11 101 cnv 15 66 45 empty empty empty 20 12 0 14 -191407 -66577
0;
#X obj 145 101 cnv 15 66 45 empty empty empty 20 12 0 14 -191407 -66577
0;
#X obj 278 101 cnv 15 66 45 empty empty empty 20 12 0 14 -191407 -66577
0;
#X obj 413 101 cnv 15 66 45 empty empty empty 20 12 0 14 -191407 -66577
0;
#X obj 133 -226 unpackOSC;
#X obj 19 31 unpack f f;
#X floatatom 12 130 4 0 0 0 - - -;
#X floatatom 40 130 4 0 0 0 - - -;
#X obj 40 59 unpack f f;
#X floatatom 86 130 4 0 0 0 - - -;
#X floatatom 114 130 4 0 0 0 - - -;
#X obj 141 31 unpack f f;
#X floatatom 152 130 4 0 0 0 - - -;
#X floatatom 180 130 4 0 0 0 - - -;
#X obj 176 63 unpack f f;
#X floatatom 218 130 4 0 0 0 - - -;
#X floatatom 246 130 4 0 0 0 - - -;
#X obj 262 31 unpack f f;
#X floatatom 283 130 4 0 0 0 - - -;
#X floatatom 311 130 4 0 0 0 - - -;
#X obj 283 59 unpack f f;
#X floatatom 352 130 4 0 0 0 - - -;
#X floatatom 380 130 4 0 0 0 - - -;
#X obj 384 31 unpack f f;
#X floatatom 420 130 4 0 0 0 - - -;
#X floatatom 448 130 4 0 0 0 - - -;
#X obj 448 64 unpack f f;
#X floatatom 483 130 4 0 0 0 - - -;
#X floatatom 510 130 4 0 0 0 - - -;
#X obj 502 119 bng 10 50 20 0 empty empty empty 17 7 0 10 -262144 -1
-1;
#X obj 440 119 bng 10 50 20 0 empty empty empty 17 7 0 10 -262144 -1
-1;
#X obj 374 119 bng 10 50 20 0 empty empty empty 17 7 0 10 -262144 -1
-1;
#X obj 305 119 bng 10 50 20 0 empty empty empty 17 7 0 10 -262144 -1
-1;
#X obj 237 119 bng 10 50 20 0 empty empty empty 17 7 0 10 -262144 -1
-1;
#X obj 171 119 bng 10 50 20 0 empty empty empty 17 7 0 10 -262144 -1
-1;
#X obj 107 119 bng 10 50 20 0 empty empty empty 17 7 0 10 -262144 -1
-1;
#X obj 33 119 bng 10 50 20 0 empty empty empty 17 7 0 10 -262144 -1
-1;
#X obj 22 225 outlet;
#X symbolatom 13 101 9 0 0 0 - - -;
#X symbolatom 82 101 9 0 0 0 - - -;
#X symbolatom 147 101 9 0 0 0 - - -;
#X symbolatom 217 101 9 0 0 0 - - -;
#X symbolatom 284 101 9 0 0 0 - - -;
#X symbolatom 350 101 9 0 0 0 - - -;
#X symbolatom 419 101 9 0 0 0 - - -;
#X symbolatom 482 101 9 0 0 0 - - -;
#X obj 539 101 cnv 15 66 45 empty empty empty 20 12 0 14 -66577 -66577
0;
#X floatatom 546 130 4 0 0 0 - - -;
#X floatatom 574 130 4 0 0 0 - - -;
#X obj 566 119 bng 10 50 20 0 empty empty empty 17 7 0 10 -262144 -1
-1;
#X symbolatom 545 101 9 0 0 0 - - -;
#X obj 494 24 unpack symbol f f;
#X obj 93 -278 print net-listener;
#X obj 393 -377 symbol \$8;
#X msg 481 -106 symbol others;
#X obj 133 -203 routeOSC /a /b /c /d /e /f /g /h;
#X obj 95 -330 pack symbol symbol symbol symbol symbol symbol symbol
symbol;
#X msg 93 -305 set \$1 \$2 \$3 \$4 \$5 \$6 \$7 \$8;
#X obj 223 -434 t b b b b b b b b;
#X obj 88 -114 symbol \$1;
#X obj 103 -87 symbol \$2;
#X obj 173 -114 symbol \$3;
#X obj 185 -89 symbol \$4;
#X obj 257 -112 symbol \$5;
#X obj 279 -85 symbol \$6;
#X obj 336 -111 symbol \$7;
#X obj 370 -86 symbol \$8;
#N canvas 304 143 729 484 close-if-own-id 0;
#X obj 136 -98 r my_own_tag;
#X obj 136 -69 internals-tagid 10;
#X obj -116 108 spigot;
#X obj 84 51 tgl 15 0 empty empty empty 17 7 0 10 -262144 -1 -1 0 1
;
#X obj 9 -97 inlet;
#X text 54 49 open;
#X obj -116 80 inlet;
#X obj -116 146 outlet;
#X obj 9 -44 internals-tagid 10;
#X obj 84 18 !=;
#X obj 136 -43 t b f;
#X obj -39 147 outlet;
#X obj 9 -71 t symbol symbol;
#X msg 116 106 symbol <<<>>>;
#X obj 131 47 sel 0;
#X connect 0 0 1 0;
#X connect 1 0 10 0;
#X connect 2 0 7 0;
#X connect 3 0 2 1;
#X connect 4 0 12 0;
#X connect 6 0 2 0;
#X connect 8 0 9 0;
#X connect 9 0 3 0;
#X connect 10 0 9 0;
#X connect 10 1 9 1;
#X connect 12 0 8 0;
#X connect 12 1 11 0;
#X connect 13 0 11 0;
#X connect 14 0 13 0;
#X coords 0 -1 1 1 50 17 2 50 50;
#X restore 24 -3 pd close-if-own-id;
#N canvas 304 143 729 484 close-if-own-id 0;
#X obj 136 -98 r my_own_tag;
#X obj 136 -69 internals-tagid 10;
#X obj -116 108 spigot;
#X obj 84 51 tgl 15 0 empty empty empty 17 7 0 10 -262144 -1 -1 1 1
;
#X obj 9 -97 inlet;
#X text 54 49 open;
#X obj -116 80 inlet;
#X obj -116 146 outlet;
#X obj 9 -44 internals-tagid 10;
#X obj 84 18 !=;
#X obj 136 -43 t b f;
#X obj -39 147 outlet;
#X obj 9 -71 t symbol symbol;
#X msg 116 106 symbol <<<>>>;
#X obj 131 47 sel 0;
#X connect 0 0 1 0;
#X connect 1 0 10 0;
#X connect 2 0 7 0;
#X connect 3 0 2 1;
#X connect 4 0 12 0;
#X connect 6 0 2 0;
#X connect 8 0 9 0;
#X connect 9 0 3 0;
#X connect 10 0 9 0;
#X connect 10 1 9 1;
#X connect 12 0 8 0;
#X connect 12 1 11 0;
#X connect 13 0 11 0;
#X connect 14 0 13 0;
#X coords 0 -1 1 1 50 17 2 50 50;
#X restore 80 -3 pd close-if-own-id;
#N canvas 304 143 729 484 close-if-own-id 0;
#X obj 136 -98 r my_own_tag;
#X obj 136 -69 internals-tagid 10;
#X obj -116 108 spigot;
#X obj 84 51 tgl 15 0 empty empty empty 17 7 0 10 -262144 -1 -1 1 1
;
#X obj 9 -97 inlet;
#X text 54 49 open;
#X obj -116 80 inlet;
#X obj -116 146 outlet;
#X obj 9 -44 internals-tagid 10;
#X obj 84 18 !=;
#X obj 136 -43 t b f;
#X obj -39 147 outlet;
#X obj 9 -71 t symbol symbol;
#X msg 116 106 symbol <<<>>>;
#X obj 131 47 sel 0;
#X connect 0 0 1 0;
#X connect 1 0 10 0;
#X connect 2 0 7 0;
#X connect 3 0 2 1;
#X connect 4 0 12 0;
#X connect 6 0 2 0;
#X connect 8 0 9 0;
#X connect 9 0 3 0;
#X connect 10 0 9 0;
#X connect 10 1 9 1;
#X connect 12 0 8 0;
#X connect 12 1 11 0;
#X connect 13 0 11 0;
#X connect 14 0 13 0;
#X coords 0 -1 1 1 50 17 2 50 50;
#X restore 145 -2 pd close-if-own-id;
#N canvas 304 143 729 484 close-if-own-id 0;
#X obj 136 -98 r my_own_tag;
#X obj 136 -69 internals-tagid 10;
#X obj -116 108 spigot;
#X obj 84 51 tgl 15 0 empty empty empty 17 7 0 10 -262144 -1 -1 1 1
;
#X obj 9 -97 inlet;
#X text 54 49 open;
#X obj -116 80 inlet;
#X obj -116 146 outlet;
#X obj 9 -44 internals-tagid 10;
#X obj 84 18 !=;
#X obj 136 -43 t b f;
#X obj -39 147 outlet;
#X obj 9 -71 t symbol symbol;
#X msg 116 106 symbol <<<>>>;
#X obj 131 47 sel 0;
#X connect 0 0 1 0;
#X connect 1 0 10 0;
#X connect 2 0 7 0;
#X connect 3 0 2 1;
#X connect 4 0 12 0;
#X connect 6 0 2 0;
#X connect 8 0 9 0;
#X connect 9 0 3 0;
#X connect 10 0 9 0;
#X connect 10 1 9 1;
#X connect 12 0 8 0;
#X connect 12 1 11 0;
#X connect 13 0 11 0;
#X connect 14 0 13 0;
#X coords 0 -1 1 1 50 17 2 50 50;
#X restore 201 -2 pd close-if-own-id;
#N canvas 304 143 729 484 close-if-own-id 0;
#X obj 136 -98 r my_own_tag;
#X obj 136 -69 internals-tagid 10;
#X obj -116 108 spigot;
#X obj 84 51 tgl 15 0 empty empty empty 17 7 0 10 -262144 -1 -1 1 1
;
#X obj 9 -97 inlet;
#X text 54 49 open;
#X obj -116 80 inlet;
#X obj -116 146 outlet;
#X obj 9 -44 internals-tagid 10;
#X obj 84 18 !=;
#X obj 136 -43 t b f;
#X obj -39 147 outlet;
#X obj 9 -71 t symbol symbol;
#X msg 116 106 symbol <<<>>>;
#X obj 131 47 sel 0;
#X connect 0 0 1 0;
#X connect 1 0 10 0;
#X connect 2 0 7 0;
#X connect 3 0 2 1;
#X connect 4 0 12 0;
#X connect 6 0 2 0;
#X connect 8 0 9 0;
#X connect 9 0 3 0;
#X connect 10 0 9 0;
#X connect 10 1 9 1;
#X connect 12 0 8 0;
#X connect 12 1 11 0;
#X connect 13 0 11 0;
#X connect 14 0 13 0;
#X coords 0 -1 1 1 50 17 2 50 50;
#X restore 256 -2 pd close-if-own-id;
#N canvas 304 143 729 484 close-if-own-id 0;
#X obj 136 -98 r my_own_tag;
#X obj 136 -69 internals-tagid 10;
#X obj -116 108 spigot;
#X obj 84 51 tgl 15 0 empty empty empty 17 7 0 10 -262144 -1 -1 1 1
;
#X obj 9 -97 inlet;
#X text 54 49 open;
#X obj -116 80 inlet;
#X obj -116 146 outlet;
#X obj 9 -44 internals-tagid 10;
#X obj 84 18 !=;
#X obj 136 -43 t b f;
#X obj -39 147 outlet;
#X obj 9 -71 t symbol symbol;
#X msg 116 106 symbol <<<>>>;
#X obj 131 47 sel 0;
#X connect 0 0 1 0;
#X connect 1 0 10 0;
#X connect 2 0 7 0;
#X connect 3 0 2 1;
#X connect 4 0 12 0;
#X connect 6 0 2 0;
#X connect 8 0 9 0;
#X connect 9 0 3 0;
#X connect 10 0 9 0;
#X connect 10 1 9 1;
#X connect 12 0 8 0;
#X connect 12 1 11 0;
#X connect 13 0 11 0;
#X connect 14 0 13 0;
#X coords 0 -1 1 1 50 17 2 50 50;
#X restore 312 -2 pd close-if-own-id;
#N canvas 304 143 729 484 close-if-own-id 0;
#X obj 136 -98 r my_own_tag;
#X obj 136 -69 internals-tagid 10;
#X obj -116 108 spigot;
#X obj 84 51 tgl 15 0 empty empty empty 17 7 0 10 -262144 -1 -1 1 1
;
#X obj 9 -97 inlet;
#X text 54 49 open;
#X obj -116 80 inlet;
#X obj -116 146 outlet;
#X obj 9 -44 internals-tagid 10;
#X obj 84 18 !=;
#X obj 136 -43 t b f;
#X obj -39 147 outlet;
#X obj 9 -71 t symbol symbol;
#X msg 116 106 symbol <<<>>>;
#X obj 131 47 sel 0;
#X connect 0 0 1 0;
#X connect 1 0 10 0;
#X connect 2 0 7 0;
#X connect 3 0 2 1;
#X connect 4 0 12 0;
#X connect 6 0 2 0;
#X connect 8 0 9 0;
#X connect 9 0 3 0;
#X connect 10 0 9 0;
#X connect 10 1 9 1;
#X connect 12 0 8 0;
#X connect 12 1 11 0;
#X connect 13 0 11 0;
#X connect 14 0 13 0;
#X coords 0 -1 1 1 50 17 2 50 50;
#X restore 377 -1 pd close-if-own-id;
#N canvas 304 143 729 484 close-if-own-id 0;
#X obj 136 -98 r my_own_tag;
#X obj 136 -69 internals-tagid 10;
#X obj -116 108 spigot;
#X obj 84 51 tgl 15 0 empty empty empty 17 7 0 10 -262144 -1 -1 1 1
;
#X obj 9 -97 inlet;
#X text 54 49 open;
#X obj -116 80 inlet;
#X obj -116 146 outlet;
#X obj 9 -44 internals-tagid 10;
#X obj 84 18 !=;
#X obj 136 -43 t b f;
#X obj -39 147 outlet;
#X obj 9 -71 t symbol symbol;
#X msg 116 106 symbol <<<>>>;
#X obj 131 47 sel 0;
#X connect 0 0 1 0;
#X connect 1 0 10 0;
#X connect 2 0 7 0;
#X connect 3 0 2 1;
#X connect 4 0 12 0;
#X connect 6 0 2 0;
#X connect 8 0 9 0;
#X connect 9 0 3 0;
#X connect 10 0 9 0;
#X connect 10 1 9 1;
#X connect 12 0 8 0;
#X connect 12 1 11 0;
#X connect 13 0 11 0;
#X connect 14 0 13 0;
#X coords 0 -1 1 1 50 17 2 50 50;
#X restore 433 -1 pd close-if-own-id;
#X obj 45 -160 loadbang;
#X obj 22 157 swap;
#X obj 22 202 route 0;
#X obj 22 179 pack;
#X obj 86 224 outlet;
#X obj 86 156 swap;
#X obj 86 201 route 0;
#X obj 86 178 pack;
#X obj 153 226 outlet;
#X obj 153 158 swap;
#X obj 153 203 route 0;
#X obj 153 180 pack;
#X obj 217 225 outlet;
#X obj 217 157 swap;
#X obj 217 202 route 0;
#X obj 217 179 pack;
#X obj 284 224 outlet;
#X obj 284 156 swap;
#X obj 284 201 route 0;
#X obj 284 178 pack;
#X obj 348 223 outlet;
#X obj 348 155 swap;
#X obj 348 200 route 0;
#X obj 348 177 pack;
#X obj 415 225 outlet;
#X obj 415 157 swap;
#X obj 415 202 route 0;
#X obj 415 179 pack;
#X obj 479 224 outlet;
#X obj 479 156 swap;
#X obj 479 201 route 0;
#X obj 479 178 pack;
#X obj 546 224 outlet;
#X obj 546 156 swap;
#X obj 546 201 route 0;
#X obj 546 178 pack;
#X obj 340 -232 s oscmessage;
#X obj 474 -323 udpreceive 12001;
#X obj 461 -298 speedlim 10;
#X connect 1 0 0 0;
#X connect 1 0 63 0;
#X connect 1 0 67 0;
#X connect 2 0 65 0;
#X connect 3 0 65 1;
#X connect 4 0 65 2;
#X connect 5 0 65 3;
#X connect 6 0 65 4;
#X connect 7 0 65 5;
#X connect 8 0 65 6;
#X connect 13 0 64 0;
#X connect 14 0 15 0;
#X connect 14 0 45 0;
#X connect 14 1 16 0;
#X connect 15 0 85 0;
#X connect 16 0 85 1;
#X connect 17 0 18 0;
#X connect 17 0 44 0;
#X connect 17 1 19 0;
#X connect 18 0 89 0;
#X connect 19 0 89 1;
#X connect 20 0 21 0;
#X connect 20 0 43 0;
#X connect 20 1 22 0;
#X connect 21 0 93 0;
#X connect 22 0 93 1;
#X connect 23 0 24 0;
#X connect 23 0 42 0;
#X connect 23 1 25 0;
#X connect 24 0 97 0;
#X connect 25 0 97 1;
#X connect 26 0 27 0;
#X connect 26 0 41 0;
#X connect 26 1 28 0;
#X connect 27 0 101 0;
#X connect 28 0 101 1;
#X connect 29 0 30 0;
#X connect 29 0 40 0;
#X connect 29 1 31 0;
#X connect 30 0 105 0;
#X connect 31 0 105 1;
#X connect 32 0 33 0;
#X connect 32 0 39 0;
#X connect 32 1 34 0;
#X connect 33 0 109 0;
#X connect 34 0 109 1;
#X connect 35 0 36 0;
#X connect 35 0 38 0;
#X connect 35 1 37 0;
#X connect 36 0 113 0;
#X connect 37 0 113 1;
#X connect 56 0 117 0;
#X connect 57 0 117 1;
#X connect 60 0 59 0;
#X connect 60 0 58 0;
#X connect 60 1 56 0;
#X connect 60 2 57 0;
#X connect 62 0 65 7;
#X connect 63 0 59 0;
#X connect 64 0 76 0;
#X connect 64 1 77 0;
#X connect 64 2 78 0;
#X connect 64 3 79 0;
#X connect 64 4 80 0;
#X connect 64 5 81 0;
#X connect 64 6 82 0;
#X connect 64 7 83 0;
#X connect 64 8 60 0;
#X connect 65 0 66 0;
#X connect 66 0 61 0;
#X connect 66 0 64 0;
#X connect 67 0 2 0;
#X connect 67 1 3 0;
#X connect 67 2 4 0;
#X connect 67 3 5 0;
#X connect 67 4 6 0;
#X connect 67 5 7 0;
#X connect 67 6 8 0;
#X connect 67 7 62 0;
#X connect 68 0 76 1;
#X connect 69 0 77 1;
#X connect 70 0 78 1;
#X connect 71 0 79 1;
#X connect 72 0 80 1;
#X connect 73 0 81 1;
#X connect 74 0 82 1;
#X connect 75 0 83 1;
#X connect 76 0 14 0;
#X connect 76 1 47 0;
#X connect 77 0 17 0;
#X connect 77 1 48 0;
#X connect 78 0 20 0;
#X connect 78 1 49 0;
#X connect 79 0 23 0;
#X connect 79 1 50 0;
#X connect 80 0 26 0;
#X connect 80 1 51 0;
#X connect 81 0 29 0;
#X connect 81 1 52 0;
#X connect 82 0 32 0;
#X connect 82 1 53 0;
#X connect 83 0 35 0;
#X connect 83 1 54 0;
#X connect 84 0 68 0;
#X connect 84 0 69 0;
#X connect 84 0 70 0;
#X connect 84 0 71 0;
#X connect 84 0 72 0;
#X connect 84 0 73 0;
#X connect 84 0 74 0;
#X connect 84 0 75 0;
#X connect 85 0 87 0;
#X connect 85 1 87 1;
#X connect 86 0 46 0;
#X connect 87 0 86 0;
#X connect 89 0 91 0;
#X connect 89 1 91 1;
#X connect 90 0 88 0;
#X connect 91 0 90 0;
#X connect 93 0 95 0;
#X connect 93 1 95 1;
#X connect 94 0 92 0;
#X connect 95 0 94 0;
#X connect 97 0 99 0;
#X connect 97 1 99 1;
#X connect 98 0 96 0;
#X connect 99 0 98 0;
#X connect 101 0 103 0;
#X connect 101 1 103 1;
#X connect 102 0 100 0;
#X connect 103 0 102 0;
#X connect 105 0 107 0;
#X connect 105 1 107 1;
#X connect 106 0 104 0;
#X connect 107 0 106 0;
#X connect 109 0 111 0;
#X connect 109 1 111 1;
#X connect 110 0 108 0;
#X connect 111 0 110 0;
#X connect 113 0 115 0;
#X connect 113 1 115 1;
#X connect 114 0 112 0;
#X connect 115 0 114 0;
#X connect 117 0 119 0;
#X connect 117 1 119 1;
#X connect 118 0 116 0;
#X connect 119 0 118 0;
#X connect 121 0 122 0;
#X connect 122 0 13 0;
#X connect 122 0 120 0;
#X coords 0 -1 1 1 596 50 2 10 100;
