#N canvas 0 0 1022 657 10;
#X obj 358 350 osc~;
#X obj 359 373 *~;
#X obj 618 328 line~;
#X msg 650 276 0 1;
#X obj 359 494 *~;
#X obj 375 471 line~;
#X obj 375 448 pack;
#X msg 396 423 5;
#X obj 375 399 t f b;
#X obj 424 245 osc~;
#X obj 358 172 pack;
#X obj 358 195 line~;
#X obj 359 328 +~;
#X obj 425 268 *~;
#X obj 423 126 *;
#X obj 423 200 pack;
#X obj 423 223 line~;
#X obj 358 126 t f b;
#X obj 423 150 t f b;
#X obj 599 225 t b b b;
#X obj 618 250 delay 1;
#X obj 358 96 mtof;
#X obj 494 -74 inlet;
#X obj 358 517 outlet~;
#X obj 618 300 pack;
#X msg 618 276 1;
#X obj 578 301 pack;
#X msg 578 277 0;
#X obj 609 357 *~;
#X obj 384 56 unpack 1 2 3 4;
#X obj 482 198 pack;
#X obj 482 221 line~;
#X obj 482 148 t f b;
#X text 191 244 onebell.pd - FM bell;
#X text 126 63 - midi pitch;
#X text 126 112 - freq. mod ratio (1 = unison);
#X text 115 23 onebell.pd takes a single note in list form:;
#X text 674 249 envelope;
#X text 634 356 exponential attack & decay;
#X obj 509 67 delay;
#X obj 509 119 switch~;
#X msg 557 93 1;
#X msg 509 93 0;
#X text 665 109 switches off the;
#X text 664 128 window at the end;
#X text 664 148 of the envelope.;
#X obj 536 43 +;
#X obj 578 250 delay;
#X obj 482 125 *;
#X text 125 135 - freq. mod index;
#X obj 411 81 dbtorms;
#X obj 426 296 *~;
#X obj 517 266 +;
#X obj 517 288 t b f;
#X msg 517 310 0;
#X obj 517 332 pack;
#X obj 517 354 line~;
#X obj 494 -5 t l b b b b;
#X msg 489 310 1;
#X obj 494 -52 unpack 1 2 3 4 5 6;
#X obj 494 -28 pack 1 2 3 4;
#X obj 536 18 int;
#X text 126 86 - amplitude in dB;
#X text 125 157 - attack time (ms);
#X text 125 178 - decay time (ms);
#X msg 385 149 5;
#X msg 450 175 5;
#X msg 509 173 5;
#X connect 0 0 1 0;
#X connect 1 0 4 0;
#X connect 2 0 28 1;
#X connect 2 0 28 0;
#X connect 3 0 2 0;
#X connect 4 0 23 0;
#X connect 5 0 4 1;
#X connect 6 0 5 0;
#X connect 7 0 6 1;
#X connect 8 0 6 0;
#X connect 8 1 7 0;
#X connect 9 0 13 0;
#X connect 10 0 11 0;
#X connect 11 0 12 0;
#X connect 12 0 0 0;
#X connect 13 0 51 0;
#X connect 14 0 18 0;
#X connect 15 0 16 0;
#X connect 16 0 9 0;
#X connect 17 0 10 0;
#X connect 17 1 65 0;
#X connect 18 0 15 0;
#X connect 18 1 66 0;
#X connect 19 0 47 0;
#X connect 19 1 20 0;
#X connect 19 2 3 0;
#X connect 20 0 25 0;
#X connect 21 0 17 0;
#X connect 21 0 14 0;
#X connect 21 0 19 0;
#X connect 21 0 48 0;
#X connect 22 0 59 0;
#X connect 24 0 2 0;
#X connect 25 0 24 0;
#X connect 26 0 2 0;
#X connect 27 0 26 0;
#X connect 28 0 1 1;
#X connect 29 0 21 0;
#X connect 29 1 50 0;
#X connect 29 2 14 1;
#X connect 29 3 48 1;
#X connect 30 0 31 0;
#X connect 31 0 13 1;
#X connect 32 0 30 0;
#X connect 32 1 67 0;
#X connect 39 0 42 0;
#X connect 41 0 40 0;
#X connect 42 0 40 0;
#X connect 46 0 39 1;
#X connect 47 0 27 0;
#X connect 48 0 32 0;
#X connect 50 0 8 0;
#X connect 51 0 12 1;
#X connect 52 0 53 0;
#X connect 53 0 54 0;
#X connect 53 1 55 1;
#X connect 54 0 55 0;
#X connect 55 0 56 0;
#X connect 56 0 51 1;
#X connect 57 0 29 0;
#X connect 57 1 39 0;
#X connect 57 2 61 0;
#X connect 57 3 58 0;
#X connect 57 4 41 0;
#X connect 58 0 56 0;
#X connect 59 0 60 0;
#X connect 59 1 60 1;
#X connect 59 2 60 2;
#X connect 59 3 60 3;
#X connect 59 4 52 0;
#X connect 59 4 47 1;
#X connect 59 4 24 1;
#X connect 59 4 61 1;
#X connect 59 5 52 1;
#X connect 59 5 46 1;
#X connect 59 5 26 1;
#X connect 60 0 57 0;
#X connect 61 0 46 0;
#X connect 65 0 10 1;
#X connect 66 0 15 1;
#X connect 67 0 30 1;
