#N canvas 59 24 505 431 10;
#X obj 284 101 tgl 15 0 empty net-connected empty 17 7 0 10 -258113
-1 -262144 0 1;
#X msg 322 149 disconnect;
#X obj 151 175 symbol \$1;
#X msg 152 153 bang;
#X obj 129 296 sel 1;
#X msg 65 242 send \$1;
#X obj 294 125 sel 1;
#X obj 64 193 float;
#X msg 92 170 1;
#X obj 92 148 loadbang;
#X obj 51 156 inlet;
#X msg 122 226 connect \$1 \$2;
#X obj 220 176 f \$2;
#X obj 141 202 pack symbol float;
#X msg 266 37 color 16;
#X msg 335 40 color 13;
#X obj 123 268 netsend 1;
#X connect 0 0 6 0;
#X connect 1 0 16 0;
#X connect 2 0 13 0;
#X connect 3 0 2 0;
#X connect 4 0 14 0;
#X connect 4 1 15 0;
#X connect 5 0 16 0;
#X connect 6 0 3 0;
#X connect 6 1 1 0;
#X connect 7 0 5 0;
#X connect 8 0 7 1;
#X connect 9 0 8 0;
#X connect 9 0 12 0;
#X connect 10 0 7 0;
#X connect 11 0 16 0;
#X connect 12 0 13 1;
#X connect 13 0 11 0;
#X connect 14 0 0 0;
#X connect 15 0 0 0;
#X connect 16 0 4 0;
#X coords 0 -1 1 1 200 17 1 100 100;
