#N canvas 496 77 485 359 10;
#X obj 92 19 inlet~;
#X obj 113 120 knob 32 32 0 1.5708 0 0 empty empty empty 0 -8 0 8 -262144
-1 -1 345 1;
#X text 104 100 sfx-pan~;
#X obj 162 212 line~;
#X obj 148 246 *~;
#X obj 153 279 outlet~;
#X obj 34 223 line~;
#X obj 20 257 *~;
#X obj 25 290 outlet~;
#X obj 29 172 expr 1.5708-$f1;
#X obj 213 72 loadbang;
#X msg 226 107 0.7854;
#X obj 299 30 inlet;
#X msg 34 199 \$1 10;
#X msg 162 188 \$1 10;
#X floatatom 312 126 5 0 0 0 - - -;
#X obj 301 67 / 63.662;
#X text 302 216 sfx-pan~;
#X text 264 234 left inlet - mono audio signal;
#X text 259 252 right inlet - pan value 0-100;
#X connect 0 0 4 0;
#X connect 0 0 7 0;
#X connect 1 0 14 0;
#X connect 1 0 9 0;
#X connect 3 0 4 1;
#X connect 4 0 5 0;
#X connect 6 0 7 1;
#X connect 7 0 8 0;
#X connect 9 0 13 0;
#X connect 10 0 11 0;
#X connect 11 0 1 0;
#X connect 12 0 16 0;
#X connect 13 0 6 0;
#X connect 14 0 3 0;
#X connect 16 0 1 0;
#X connect 16 0 15 0;
#X coords 0 -1 1 1 60 60 2 100 100;
