#N canvas 0 24 1366 714 10;
#X obj 350 4 inlet;
#X obj 36 24 inlet~;
#X text 392 4 stream of incoming data values (0 - 100);
#X text 85 24 audio input;
#X text 33 373 one inlet~: audio data for processing;
#X text 33 401 one outlet~: processed audio;
#X text 33 387 one inlet: values interpreted as MIDI pitches (0-100)
;
#X obj 36 301 outlet~;
#X obj 201 198 line~;
#X obj 350 65 mtof;
#X obj 350 24 clip 0 100;
#X text 93 300 audio output;
#X obj 185 151 tgl 15 0 empty empty empty 0 -6 0 8 -262144 -1 -1 1
1;
#X text 32 343 ring modulate an input signal;
#X text 33 329 milo-sfx-ringmod~.pd;
#X obj 185 240 *~;
#X obj 201 220 osc~;
#X obj 350 43 t f f;
#X obj 185 6 select \$1;
#X text 32 358 one user-specified value: on/off key assignment;
#X obj 185 -13 internals-keyswitch;
#X obj 384 65 s pitch-report;
#X obj 36 190 demux~;
#X msg 232 171 \$1 100;
#X obj 355 161 + 100;
#X obj 350 136 random 900;
#X obj 356 114 loadbang;
#X msg 229 107 bang;
#X connect 0 0 10 0;
#X connect 1 0 22 0;
#X connect 8 0 16 0;
#X connect 9 0 23 0;
#X connect 10 0 17 0;
#X connect 12 0 22 0;
#X connect 12 0 27 0;
#X connect 15 0 7 0;
#X connect 16 0 15 1;
#X connect 17 0 9 0;
#X connect 17 1 21 0;
#X connect 18 0 12 0;
#X connect 20 0 18 0;
#X connect 22 0 7 0;
#X connect 22 1 15 0;
#X connect 23 0 8 0;
#X connect 24 0 23 0;
#X connect 25 0 24 0;
#X connect 26 0 25 0;
#X connect 27 0 25 0;
#X coords 0 -1 1 1 110 17 1 91 150;
