#N canvas 447 100 577 591 10;
#X obj 246 22 inlet;
#X obj 36 24 inlet~;
#X text 288 22 stream of incoming data values (0 - 100);
#X text 85 24 audio input;
#X text 33 491 one inlet~: audio data for processing;
#X text 33 535 one outlet~: processed audio;
#X text 33 505 one inlet: values interpreted as MIDI pitches (0-100)
;
#X obj 246 308 *~;
#X obj 36 401 outlet~;
#X obj 246 195 line~;
#X obj 246 176 pack;
#X msg 279 132 5;
#X text 93 400 audio output;
#X obj 185 151 tgl 15 0 empty empty empty 0 -6 0 8 -262144 -1 -1 1
1;
#X obj 365 224 line~;
#X obj 365 202 pack;
#X msg 388 133 5;
#X obj 312 170 / 1000;
#X text 51 460 with randomly varying feedback;
#X text 55 521 and triggering new random feedback values;
#X text 32 443 apply a delay to an input signal;
#X obj 185 400 delwrite~ \$0-delay 1500;
#X obj 246 224 vd~ \$0-delay 100;
#X obj 246 83 trigger f b b b;
#X obj 246 132 * 15;
#X obj 312 132 random 500;
#X obj 312 151 + 400;
#X obj 246 42 clip 0 100;
#X obj 56 91 select \$1;
#X text 34 475 one user-specified value: on/off key assignment (\$1)
;
#X obj 56 72 internals-keyswitch;
#X obj 36 190 internals-bypass~;
#X text 33 429 sfx-randomdelay~.pd;
#X obj 437 40 loadbang;
#X msg 437 62 100;
#X connect 0 0 27 0;
#X connect 1 0 31 0;
#X connect 7 0 21 0;
#X connect 9 0 22 0;
#X connect 10 0 9 0;
#X connect 11 0 10 1;
#X connect 13 0 31 1;
#X connect 14 0 7 1;
#X connect 15 0 14 0;
#X connect 16 0 15 1;
#X connect 17 0 15 0;
#X connect 22 0 7 0;
#X connect 22 0 8 0;
#X connect 23 0 24 0;
#X connect 23 1 11 0;
#X connect 23 2 25 0;
#X connect 23 3 16 0;
#X connect 24 0 10 0;
#X connect 25 0 26 0;
#X connect 26 0 17 0;
#X connect 27 0 23 0;
#X connect 28 0 13 0;
#X connect 30 0 28 0;
#X connect 31 0 8 0;
#X connect 31 1 21 0;
#X connect 31 1 8 0;
#X connect 33 0 34 0;
#X connect 34 0 23 0;
#X coords 0 -1 1 1 140 17 1 61 150;
