#N canvas 400 32 872 643 10;
#X floatatom 486 267 5 0 0 0 - - -;
#X obj 486 296 -;
#X obj 486 373 exp;
#X obj 486 347 * 0.05776;
#X obj 486 469 *;
#X obj 486 494 + 1;
#X obj 301 21 inlet~;
#X obj 157 677 outlet~;
#X obj 486 407 - 1;
#X msg 121 51 \; autotune-keyboard\$2 color \$1;
#X msg 104 1 0 0 \, 0 2 \, 0 4 \, 0 5 \, 0 7 \, 0 9 \, 0 11 \, 2 1
\, 2 3 \, 2 6 \, 2 8 \, 2 10;
#X obj 114 137 cnv 15 100 45 empty empty empty 20 12 0 14 -128992 -66577
0;
#X obj 122 143 cnv 10 10 30 empty autotune-keyboard0 empty 20 12 0
14 -62784 -262144 0;
#X obj 134 143 cnv 10 10 30 empty autotune-keyboard2 empty 20 12 0
14 -262144 -262144 0;
#X obj 146 143 cnv 10 10 30 empty autotune-keyboard4 empty 20 12 0
14 -262144 -262144 0;
#X obj 158 143 cnv 10 10 30 empty autotune-keyboard5 empty 20 12 0
14 -262144 -262144 0;
#X obj 170 143 cnv 10 10 30 empty autotune-keyboard7 empty 20 12 0
14 -262144 -262144 0;
#X obj 182 143 cnv 10 10 30 empty autotune-keyboard9 empty 20 12 0
14 -262144 -262144 0;
#X obj 194 143 cnv 10 10 30 empty autotune-keyboard11 empty 20 12 0
14 -262144 -262144 0;
#X obj 129 143 cnv 8 8 20 empty autotune-keyboard1 empty 20 12 0 14
-66577 -262144 0;
#X obj 142 143 cnv 8 8 20 empty autotune-keyboard3 empty 20 12 0 14
-66577 -262144 0;
#X obj 164 143 cnv 8 8 20 empty autotune-keyboard6 empty 20 12 0 14
-66577 -262144 0;
#X obj 177 143 cnv 8 8 20 empty autotune-keyboard8 empty 20 12 0 14
-66577 -262144 0;
#X obj 190 143 cnv 8 8 20 empty autotune-keyboard10 empty 20 12 0 14
-66577 -262144 0;
#X obj 120 27 pack;
#X obj 211 -49 t b f b;
#X msg 161 -27 18;
#X obj 79 256 loadbang;
#X floatatom 106 199 5 0 0 0 - - -;
#X obj 172 205 hsl 105 15 0 1 0 0 empty empty empty -2 -8 0 10 -262144
-1 -1 10400 1;
#N canvas 641 78 603 510 fit-to-scale 0;
#X obj 578 15 mod 12;
#X obj 127 91 abs;
#X obj 125 63 -;
#X obj 132 150 pack;
#X msg 127 -164 0 \, 1 \, 2 \, 3 \, 4 \, 5 \, 6 \, 7 \, 8 \, 9 \, 10
\, 11;
#X obj 119 9 t b f f;
#X obj 132 174 route 0;
#X floatatom 133 221 5 0 0 0 - - -;
#X msg 143 -135 0 \, 2 \, 4 \, 5 \, 7 \, 9 \, 11;
#X obj 569 -75 -;
#X floatatom 599 -106 5 0 0 0 - - -;
#X floatatom 568 -166 5 0 0 0 - - -;
#X text 640 -106 transposition;
#X obj 460 109 demux 0 1 2 3 4 5 6;
#X msg 150 -109 0 \, 2 \, 4 \, 7 \, 9;
#X msg 153 -57 0 \, 3 \, 5 \, 6 \, 7 \, 10;
#X msg 153 -32 0 \, 3 \, 7 \, 10;
#X obj 278 185 route 1;
#X obj 278 166 spigot;
#X msg 311 141 0;
#X obj 133 197 t f b;
#X obj 557 -17 t b f b;
#X msg 352 111 1;
#X floatatom 276 265 5 0 0 0 - - -;
#X obj 276 208 t f b;
#X obj 335 165 spigot;
#X msg 368 140 0;
#X obj 333 207 t f b;
#X obj 391 165 spigot;
#X msg 424 140 0;
#X obj 389 207 t f b;
#X obj 447 166 spigot;
#X msg 480 141 0;
#X obj 445 208 t f b;
#X floatatom 331 268 5 0 0 0 - - -;
#X floatatom 380 267 5 0 0 0 - - -;
#X floatatom 437 267 5 0 0 0 - - -;
#X msg 152 -85 0 \, 3 \, 5 \, 7 \, 10;
#X obj 335 185 route 2;
#X obj 391 185 route 3;
#X obj 447 186 route 4;
#X floatatom 224 352 5 0 0 0 - - -;
#X obj 512 163 spigot;
#X msg 545 138 0;
#X obj 510 205 t f b;
#X floatatom 502 264 5 0 0 0 - - -;
#X obj 512 183 route 5;
#X obj 732 -162 inlet;
#X obj 588 84 -;
#X obj 574 -134 t f f;
#X obj 566 43 t f f;
#X obj 118 36 f;
#X floatatom 630 248 5 0 0 0 - - -;
#X obj 632 284 +;
#X obj 769 -163 inlet;
#X obj 809 -159 inlet;
#X obj 631 309 outlet;
#X msg 195 3 0 \, 5 \, 7;
#X connect 0 0 50 0;
#X connect 1 0 3 0;
#X connect 2 0 1 0;
#X connect 3 0 6 0;
#X connect 4 0 5 0;
#X connect 5 0 51 0;
#X connect 5 1 2 1;
#X connect 5 2 3 1;
#X connect 6 0 20 0;
#X connect 6 1 18 0;
#X connect 7 0 41 0;
#X connect 8 0 5 0;
#X connect 9 0 21 0;
#X connect 10 0 9 1;
#X connect 11 0 49 0;
#X connect 13 0 4 0;
#X connect 13 1 8 0;
#X connect 13 2 14 0;
#X connect 13 3 37 0;
#X connect 13 4 15 0;
#X connect 13 5 16 0;
#X connect 13 6 57 0;
#X connect 14 0 5 0;
#X connect 15 0 5 0;
#X connect 16 0 5 0;
#X connect 17 0 24 0;
#X connect 17 1 25 0;
#X connect 18 0 17 0;
#X connect 19 0 18 1;
#X connect 20 0 7 0;
#X connect 20 1 19 0;
#X connect 21 0 13 0;
#X connect 21 1 0 0;
#X connect 21 2 22 0;
#X connect 22 0 18 1;
#X connect 22 0 25 1;
#X connect 22 0 28 1;
#X connect 22 0 31 1;
#X connect 23 0 41 0;
#X connect 24 0 23 0;
#X connect 24 1 26 0;
#X connect 25 0 38 0;
#X connect 26 0 25 1;
#X connect 27 0 34 0;
#X connect 27 1 29 0;
#X connect 28 0 39 0;
#X connect 29 0 28 1;
#X connect 30 0 35 0;
#X connect 30 1 32 0;
#X connect 31 0 40 0;
#X connect 32 0 31 1;
#X connect 33 0 36 0;
#X connect 33 1 43 0;
#X connect 34 0 41 0;
#X connect 35 0 41 0;
#X connect 36 0 41 0;
#X connect 37 0 5 0;
#X connect 38 0 27 0;
#X connect 38 1 28 0;
#X connect 39 0 30 0;
#X connect 39 1 31 0;
#X connect 40 0 33 0;
#X connect 40 1 42 0;
#X connect 41 0 53 1;
#X connect 42 0 46 0;
#X connect 43 0 42 1;
#X connect 44 0 45 0;
#X connect 45 0 41 0;
#X connect 46 0 44 0;
#X connect 47 0 11 0;
#X connect 48 0 52 0;
#X connect 49 0 48 0;
#X connect 49 1 9 0;
#X connect 50 0 51 1;
#X connect 50 1 48 1;
#X connect 51 0 2 0;
#X connect 52 0 53 0;
#X connect 53 0 56 0;
#X connect 54 0 10 0;
#X connect 55 0 13 1;
#X connect 57 0 5 0;
#X restore 490 224 pd fit-to-scale;
#X obj 267 103 vradio 12 1 0 7 empty empty empty 0 -8 0 10 -262144
-1 -1 0;
#X floatatom 247 188 5 0 0 0 - - -;
#X obj 429 249 mod 12;
#X text 171 203 autotune strength;
#X text 224 186 key;
#X obj 693 16 inlet;
#X text 227 123 M pent;
#X text 228 135 m pent;
#X text 233 147 blues;
#X text 247 160 m7;
#X text 215 111 diatonic;
#X text 209 99 chromatic;
#X obj 101 119 tgl 15 0 empty empty empty 17 7 0 10 -262144 -1 -1 0
1;
#X text 118 118 on/off;
#N canvas 59 24 450 300 bypass 0;
#X obj 35 32 inlet~;
#X obj 251 35 inlet;
#X obj 35 279 outlet~;
#X obj 51 227 line~;
#X obj 35 252 *~;
#X msg 51 195 1 5;
#X msg 84 195 0 5;
#X text 84 32 audio input;
#X obj 252 278 outlet~;
#X obj 268 226 line~;
#X obj 252 251 *~;
#X msg 268 194 1 5;
#X msg 301 194 0 5;
#X text 290 36 toggle (0/1);
#X obj 251 58 sel 0;
#X obj 238 92 t b b;
#X obj 281 92 t b b;
#X text 90 279 outlet for bypass;
#X text 310 278 outlet for processing;
#X obj 172 92 loadbang;
#X connect 0 0 4 0;
#X connect 0 0 10 0;
#X connect 1 0 14 0;
#X connect 3 0 4 1;
#X connect 4 0 2 0;
#X connect 5 0 3 0;
#X connect 6 0 3 0;
#X connect 9 0 10 1;
#X connect 10 0 8 0;
#X connect 11 0 9 0;
#X connect 12 0 9 0;
#X connect 14 0 15 0;
#X connect 14 1 16 0;
#X connect 15 0 5 0;
#X connect 15 1 12 0;
#X connect 16 0 6 0;
#X connect 16 1 11 0;
#X connect 19 0 5 0;
#X connect 19 0 12 0;
#X restore 325 76 pd bypass;
#X msg 118 280 25;
#N canvas 147 206 450 300 pitchtracker 0;
#X obj 158 58 inlet~;
#X obj 301 56 inlet;
#X obj 301 84 switch~;
#X obj 151 142 outlet;
#X obj 139 101 sigmund~ -hop 2048 pitch;
#X connect 0 0 4 0;
#X connect 1 0 2 0;
#X connect 4 0 3 0;
#X restore 652 119 pd pitchtracker;
#N canvas 59 24 476 338 round 0;
#X obj 336 113 fmod 1;
#X obj 305 63 inlet;
#X obj 294 131 int;
#X obj 305 87 t f f;
#X obj 337 138 >= 0.5;
#X obj 341 205 +;
#X obj 340 229 outlet;
#X connect 0 0 4 0;
#X connect 1 0 3 0;
#X connect 2 0 5 0;
#X connect 3 0 2 0;
#X connect 3 1 0 0;
#X connect 4 0 5 1;
#X connect 5 0 6 0;
#X restore 490 191 pd round;
#X floatatom 486 525 5 0 0 0 - - -;
#X floatatom 446 405 5 0 0 0 - - -;
#X obj 655 145 moses 1;
#X floatatom 526 268 5 0 0 0 - - -;
#X floatatom 208 186 2 0 0 0 - - -;
#X text 104 181 window;
#X text 141 199 ms;
#X text 148 185 transpose;
#X obj 485 323 +;
#X msg 81 281 1;
#X obj 552 4 inlet;
#X obj 548 85 spigot;
#X obj 597 41 tgl 15 0 empty empty empty 17 7 0 10 -262144 -1 -1 0
1;
#X obj 574 166 spigot;
#X obj 607 147 tgl 15 0 empty empty empty 17 7 0 10 -262144 -1 -1 0
1;
#X msg 487 65 0;
#X msg 606 17 1;
#X obj 538 28 t f b b;
#X msg 608 127 0;
#X text 226 172 I-IV-V;
#X obj 642 590 outlet;
#X obj 692 169 t f f b;
#X obj 550 59 f;
#X obj 395 559 internals-pitchshift;
#X connect 0 0 1 0;
#X connect 0 0 69 0;
#X connect 1 0 57 0;
#X connect 2 0 8 0;
#X connect 3 0 2 0;
#X connect 4 0 5 0;
#X connect 5 0 49 0;
#X connect 6 0 45 0;
#X connect 8 0 4 0;
#X connect 10 0 24 0;
#X connect 24 0 9 0;
#X connect 25 0 26 0;
#X connect 25 1 24 1;
#X connect 25 2 10 0;
#X connect 26 0 24 0;
#X connect 27 0 58 0;
#X connect 27 0 46 0;
#X connect 28 0 72 2;
#X connect 29 0 50 0;
#X connect 30 0 33 0;
#X connect 30 0 0 0;
#X connect 31 0 30 2;
#X connect 32 0 30 1;
#X connect 33 0 25 0;
#X connect 36 0 29 0;
#X connect 43 0 45 1;
#X connect 43 0 47 1;
#X connect 43 0 64 0;
#X connect 43 0 63 0;
#X connect 45 0 7 0;
#X connect 45 1 47 0;
#X connect 45 1 72 0;
#X connect 46 0 28 0;
#X connect 47 0 51 0;
#X connect 48 0 30 0;
#X connect 49 0 72 1;
#X connect 50 0 4 1;
#X connect 51 1 70 0;
#X connect 52 0 1 1;
#X connect 53 0 57 1;
#X connect 57 0 3 0;
#X connect 58 0 29 0;
#X connect 59 0 66 0;
#X connect 60 0 0 0;
#X connect 60 0 33 0;
#X connect 61 0 60 1;
#X connect 62 0 48 0;
#X connect 63 0 62 1;
#X connect 64 0 61 0;
#X connect 65 0 61 0;
#X connect 66 0 71 0;
#X connect 66 1 65 0;
#X connect 66 2 67 0;
#X connect 67 0 63 0;
#X connect 70 0 62 0;
#X connect 70 1 52 0;
#X connect 70 2 71 0;
#X connect 71 0 60 0;
#X connect 72 0 7 0;
#X coords 0 -1 1 1 180 120 1 100 100;
