#N canvas 485 22 651 426 10;
#X obj 180 73 inlet;
#X obj 164 251 outlet~;
#X obj 15 11 inlet~;
#X text 218 251 audio output;
#X text 222 73 stream of incoming data values (0 - 100);
#X text 65 10 audio input;
#X obj 180 132 t f b;
#X msg 207 154 5;
#X obj 180 177 pack;
#X obj 164 218 *~;
#X obj 180 197 line~;
#X text 28 294 modify the amplitude of an input signal;
#X text 221 196 linear envelope;
#X text 29 324 one inlet~: audio data for processing;
#X text 29 338 one inlet: stream of values interpreted as amplitudes
;
#X text 29 352 one outlet~: processed audio;
#X obj 180 92 clip 0 100;
#X obj 164 51 tgl 15 0 empty empty empty 0 -6 0 8 -262144 -1 -1 0 1
;
#X obj 180 112 dbtorms;
#X text 28 309 one user-specified value: on/off key assignment ($1)
;
#X obj 164 29 select \$1;
#X text 29 280 sfx-ampenv~.pd;
#X obj 164 8 internals-keyswitch;
#X obj 15 91 internals-bypass~;
#X connect 0 0 16 0;
#X connect 2 0 23 0;
#X connect 6 0 8 0;
#X connect 6 1 7 0;
#X connect 7 0 8 1;
#X connect 8 0 10 0;
#X connect 9 0 1 0;
#X connect 10 0 9 1;
#X connect 16 0 18 0;
#X connect 17 0 23 1;
#X connect 18 0 6 0;
#X connect 20 0 17 0;
#X connect 22 0 20 0;
#X connect 23 0 1 0;
#X connect 23 1 9 0;
#X coords 0 -1 1 1 100 17 1 80 50;
