#N canvas 180 44 591 620 10;
#X obj 34 -13 inlet~;
#X obj 56 70 *~;
#X obj 70 47 line~;
#X msg 85 21 \$1 20;
#X obj 107 149 vsl 15 128 0 1 0 0 empty empty empty 0 -9 0 10 -262130
-1 -1 0 1;
#X obj 78 -13 inlet~;
#X obj 100 70 *~;
#X obj 114 47 line~;
#X msg 129 21 \$1 20;
#X obj 122 149 vsl 15 128 0 1 0 0 empty empty empty 0 -9 0 10 -262130
-1 -1 0 1;
#X obj 123 -14 inlet~;
#X obj 137 71 *~;
#X obj 159 46 line~;
#X msg 174 20 \$1 20;
#X obj 143 149 vsl 15 128 0 1 0 0 empty empty empty 0 -9 0 10 -204786
-1 -1 0 1;
#X obj 167 -14 inlet~;
#X obj 189 69 *~;
#X obj 203 46 line~;
#X msg 218 20 \$1 20;
#X obj 158 149 vsl 15 128 0 1 0 0 empty empty empty 0 -9 0 10 -204786
-1 -1 0 1;
#X obj 213 -14 inlet~;
#X obj 235 69 *~;
#X obj 249 46 line~;
#X msg 264 20 \$1 20;
#X obj 179 149 vsl 15 128 0 1 0 0 empty empty empty 0 -9 0 10 -204800
-1 -1 0 1;
#X obj 257 -14 inlet~;
#X obj 279 69 *~;
#X obj 293 46 line~;
#X msg 308 20 \$1 20;
#X obj 194 149 vsl 15 128 0 1 0 0 empty empty empty 0 -9 0 10 -204800
-1 -1 0 1;
#X obj 302 -15 inlet~;
#X obj 324 68 *~;
#X obj 338 45 line~;
#X msg 353 19 \$1 20;
#X obj 215 149 vsl 15 128 0 1 0 0 empty empty empty 0 -9 0 10 -232576
-1 -1 0 1;
#X obj 346 -15 inlet~;
#X obj 368 68 *~;
#X obj 382 45 line~;
#X msg 397 19 \$1 20;
#X obj 230 149 vsl 15 128 0 1 0 0 empty empty empty 0 -9 0 10 -232576
-1 -1 0 1;
#X obj 345 173 vu 15 120 empty empty -1 -8 0 5 -66577 -1 1 0;
#X obj 327 173 vu 15 120 empty empty -1 -8 0 5 -66577 -1 0 0;
#X obj 107 281 tgl 15 0 empty empty empty 17 7 0 10 -257985 -1 -1 1
1;
#X obj 71 356 *~;
#X obj 85 333 line~;
#X msg 100 307 \$1 20;
#X obj 112 358 *~;
#X obj 126 335 line~;
#X msg 141 309 \$1 20;
#X obj 122 281 tgl 15 0 empty empty empty 17 7 0 10 -257985 -1 -1 1
1;
#X obj 143 281 tgl 15 0 empty empty empty 17 7 0 10 -4034 -1 -1 1 1
;
#X obj 131 408 *~;
#X obj 145 385 line~;
#X msg 160 359 \$1 20;
#X obj 171 413 *~;
#X obj 186 387 line~;
#X msg 201 361 \$1 20;
#X obj 158 281 tgl 15 0 empty empty empty 17 7 0 10 -4034 -1 -1 1 1
;
#X obj 179 281 tgl 15 0 empty empty empty 17 7 0 10 -4032 -1 -1 1 1
;
#X obj 194 462 *~;
#X obj 208 439 line~;
#X msg 223 413 \$1 20;
#X obj 235 464 *~;
#X obj 249 441 line~;
#X msg 264 415 \$1 20;
#X obj 194 281 tgl 15 0 empty empty empty 17 7 0 10 -4032 -1 -1 1 1
;
#X obj 215 281 tgl 15 0 empty empty empty 17 7 0 10 -159808 -1 -1 1
1;
#X obj 254 514 *~;
#X obj 268 491 line~;
#X msg 283 465 \$1 20;
#X obj 295 516 *~;
#X obj 309 493 line~;
#X msg 324 467 \$1 20;
#X obj 230 281 tgl 15 0 empty empty empty 17 7 0 10 -159808 -1 -1 1
1;
#X obj 234 577 *~;
#X obj 443 422 line~;
#X msg 458 396 \$1 20;
#X obj 282 142 vsl 20 150 0 1 0 0 empty empty empty 0 -9 0 10 -162280
-262144 -1 7450 1;
#X obj 285 579 *~;
#X obj 487 422 line~;
#X msg 502 396 \$1 20;
#X obj 453 268 pvu~;
#X obj 486 268 pvu~;
#X obj 333 123 button PANIC;
#X msg 474 50 0;
#X text 109 129 L;
#X text 124 129 R;
#X text 145 130 L;
#X text 160 130 R;
#X text 180 129 L;
#X text 195 129 R;
#X text 216 130 L;
#X text 231 130 R;
#X obj 101 104 cnv 15 75 15 empty empty empty 20 12 0 14 -262130 -66577
0;
#X obj 177 104 cnv 15 75 15 empty empty empty 20 12 0 14 -204786 -66577
0;
#X obj 252 104 cnv 15 75 15 empty empty empty 20 12 0 14 -204800 -66577
0;
#X obj 324 104 cnv 15 75 15 empty empty empty 20 12 0 14 -232576 -66577
0;
#X obj 438 515 hip~ 5;
#X obj 488 515 hip~ 5;
#X obj 447 556 dac~;
#X obj 510 560 outlet~;
#X obj 354 562 outlet~;
#X msg 505 120 1;
#X obj 507 88 loadbang;
#X text 266 121 MAIN OUT;
#X msg 506 203 0.5;
#X text 109 117 sfx-mixer~;
#X connect 0 0 1 0;
#X connect 1 0 43 0;
#X connect 2 0 1 1;
#X connect 3 0 2 0;
#X connect 4 0 3 0;
#X connect 5 0 6 0;
#X connect 6 0 46 0;
#X connect 7 0 6 1;
#X connect 8 0 7 0;
#X connect 9 0 8 0;
#X connect 10 0 11 0;
#X connect 11 0 51 0;
#X connect 12 0 11 1;
#X connect 13 0 12 0;
#X connect 14 0 13 0;
#X connect 15 0 16 0;
#X connect 16 0 54 0;
#X connect 17 0 16 1;
#X connect 18 0 17 0;
#X connect 19 0 18 0;
#X connect 20 0 21 0;
#X connect 21 0 59 0;
#X connect 22 0 21 1;
#X connect 23 0 22 0;
#X connect 24 0 23 0;
#X connect 25 0 26 0;
#X connect 26 0 62 0;
#X connect 27 0 26 1;
#X connect 28 0 27 0;
#X connect 29 0 28 0;
#X connect 30 0 31 0;
#X connect 31 0 67 0;
#X connect 32 0 31 1;
#X connect 33 0 32 0;
#X connect 34 0 33 0;
#X connect 35 0 36 0;
#X connect 36 0 70 0;
#X connect 37 0 36 1;
#X connect 38 0 37 0;
#X connect 39 0 38 0;
#X connect 42 0 45 0;
#X connect 43 0 74 0;
#X connect 44 0 43 1;
#X connect 45 0 44 0;
#X connect 46 0 78 0;
#X connect 47 0 46 1;
#X connect 48 0 47 0;
#X connect 49 0 48 0;
#X connect 50 0 53 0;
#X connect 51 0 74 0;
#X connect 52 0 51 1;
#X connect 53 0 52 0;
#X connect 54 0 78 0;
#X connect 55 0 54 1;
#X connect 56 0 55 0;
#X connect 57 0 56 0;
#X connect 58 0 61 0;
#X connect 59 0 74 0;
#X connect 60 0 59 1;
#X connect 61 0 60 0;
#X connect 62 0 78 0;
#X connect 63 0 62 1;
#X connect 64 0 63 0;
#X connect 65 0 64 0;
#X connect 66 0 69 0;
#X connect 67 0 74 0;
#X connect 68 0 67 1;
#X connect 69 0 68 0;
#X connect 70 0 78 0;
#X connect 71 0 70 1;
#X connect 72 0 71 0;
#X connect 73 0 72 0;
#X connect 74 0 97 0;
#X connect 75 0 74 1;
#X connect 76 0 75 0;
#X connect 77 0 76 0;
#X connect 77 0 80 0;
#X connect 78 0 98 0;
#X connect 79 0 78 1;
#X connect 80 0 79 0;
#X connect 81 0 41 0;
#X connect 82 0 40 0;
#X connect 83 0 84 0;
#X connect 84 0 77 0;
#X connect 97 0 99 0;
#X connect 97 0 81 0;
#X connect 97 0 101 0;
#X connect 98 0 99 1;
#X connect 98 0 82 0;
#X connect 98 0 100 0;
#X connect 102 0 42 0;
#X connect 102 0 49 0;
#X connect 102 0 50 0;
#X connect 102 0 57 0;
#X connect 102 0 58 0;
#X connect 102 0 65 0;
#X connect 102 0 66 0;
#X connect 102 0 73 0;
#X connect 103 0 102 0;
#X connect 103 0 105 0;
#X connect 105 0 77 0;
#X coords 0 -1 1 1 300 200 2 100 100;
