#N canvas 384 81 722 634 10;
#X obj 389 236 tabread4~ \$0-env;
#X floatatom 108 174 7 0 0 0 - - -;
#X obj 520 -73 loadbang;
#X obj 389 161 f;
#X msg 390 137 bang;
#X obj 434 -48 inlet;
#X obj 250 -52 inlet~;
#X obj 348 350 *~;
#X obj 330 389 outlet~;
#X obj 514 76 int;
#X obj 540 76 + 1;
#X obj 547 258 tabwrite \$0-env;
#X msg 597 -7 0;
#X obj 107 139 bng 15 250 50 0 empty empty empty 17 7 0 10 -262144
-1 -1;
#X text 102 121 reset;
#X obj 134 139 bng 15 250 50 0 empty empty empty 17 7 0 10 -262144
-1 -1;
#X text 136 121 0;
#X obj 214 391 int;
#X obj 240 392 + 1;
#X obj 243 502 tabwrite \$0-env;
#X obj 220 422 t f f f;
#X obj 195 362 Uzi 1000;
#X msg 269 304 0;
#X obj 221 266 t b b b;
#X msg 244 465 0;
#X obj 520 107 t f f f;
#X obj 244 101 tgl 15 0 empty empty empty 17 7 0 10 -262144 -1 -1 1
1;
#X obj 309 259 demux~;
#N canvas 0 0 450 300 (subpatch) 0;
#X array \$0-env 1000 float 0;
#X coords 0 1 999 0 90 60 1;
#X restore 166 131 graph;
#X msg 389 187 0 \, 1000 \$1;
#X obj 389 211 line~;
#X obj 407 268 z~ 1;
#X obj 396 296 +~;
#X obj 384 325 *~ 0.5;
#X obj 170 4 internals-keyswitch;
#X obj 171 41 sel \$1;
#X obj 318 150 == 0;
#X text 107 156 duration;
#X obj 332 -3 loadbang;
#X msg 314 30 1;
#X obj 519 45 Uzi 1000;
#X obj 521 -49 t b b b;
#X obj 544 145 / 1000;
#X obj 544 171 - 1;
#X obj 543 203 t f f;
#X obj 546 230 *;
#X msg 423 34 50;
#X connect 0 0 31 0;
#X connect 0 0 32 0;
#X connect 1 0 3 1;
#X connect 2 0 41 0;
#X connect 3 0 29 0;
#X connect 4 0 3 0;
#X connect 5 0 4 0;
#X connect 6 0 27 0;
#X connect 7 0 8 0;
#X connect 9 0 25 0;
#X connect 10 0 9 1;
#X connect 12 0 9 1;
#X connect 13 0 41 0;
#X connect 15 0 23 0;
#X connect 17 0 20 0;
#X connect 18 0 17 1;
#X connect 20 0 18 0;
#X connect 20 1 24 0;
#X connect 20 2 19 1;
#X connect 21 0 17 0;
#X connect 22 0 17 1;
#X connect 23 1 21 0;
#X connect 23 2 22 0;
#X connect 24 0 19 0;
#X connect 25 0 10 0;
#X connect 25 1 42 0;
#X connect 25 2 11 1;
#X connect 26 0 36 0;
#X connect 27 0 7 0;
#X connect 27 1 8 0;
#X connect 29 0 30 0;
#X connect 30 0 0 0;
#X connect 31 0 32 1;
#X connect 32 0 33 0;
#X connect 33 0 7 1;
#X connect 34 0 35 0;
#X connect 35 0 26 0;
#X connect 36 0 27 0;
#X connect 38 0 39 0;
#X connect 39 0 26 0;
#X connect 40 0 9 0;
#X connect 41 0 46 0;
#X connect 41 1 40 0;
#X connect 41 2 12 0;
#X connect 42 0 43 0;
#X connect 43 0 44 0;
#X connect 44 0 45 0;
#X connect 44 1 45 1;
#X connect 45 0 11 0;
#X connect 46 0 1 0;
#X coords 0 -1 1 1 160 100 1 100 100;
