#N canvas 559 112 612 536 10;
#X obj 344 418 f;
#X msg 372 419 0;
#X obj 17 41 dbtorms;
#X obj 60 114 inlet~;
#X obj 17 114 line~;
#X obj 17 223 *~;
#X obj 17 358 dac~;
#X obj 17 71 pack 0 50;
#X text 108 114 audio in;
#X text 68 40 <-- convert from dB to linear units;
#X floatatom 379 201 3 0 100 0 dB - -;
#X text 86 70 <-- make a ramp to avoid clicks or zipper noise;
#X obj 168 114 inlet~;
#X obj 152 218 *~;
#X obj 379 157 r \$0-master-lvl;
#X obj 344 451 s \$0-master-lvl;
#X obj 487 401 s \$0-master-out;
#X obj 17 15 r \$0-master-out;
#X obj 242 275 r \$0-master-out;
#X obj 60 136 hip~ 3;
#X obj 168 136 hip~ 3;
#X text 8 446 derived from Miller Puckette's "output~.pd";
#X obj 344 201 tgl 15 0 empty empty empty -30 7 0 12 -262144 -1 -1
1 1;
#X text 8 460 thank you (for everything) \, Miller!;
#X obj 242 298 moses 1;
#X obj 487 375 spigot;
#X obj 321 225 moses 1;
#X obj 342 275 t f f;
#X obj 365 244 t b f;
#X obj 344 127 sel \$1;
#X text 393 128 \$1 is on/off key assignment;
#X text 8 475 updated 11.08.2007 to integrate milo-status-send;
#X obj 344 106 internals-keyswitch;
#X msg 493 269 \; pd dsp \$1;
#X connect 0 0 15 0;
#X connect 1 0 15 0;
#X connect 2 0 7 0;
#X connect 3 0 19 0;
#X connect 4 0 13 0;
#X connect 4 0 5 0;
#X connect 5 0 6 0;
#X connect 7 0 4 0;
#X connect 10 0 25 0;
#X connect 12 0 20 0;
#X connect 13 0 6 1;
#X connect 14 0 10 0;
#X connect 17 0 2 0;
#X connect 18 0 24 0;
#X connect 19 0 5 1;
#X connect 20 0 13 1;
#X connect 22 0 26 0;
#X connect 22 0 33 0;
#X connect 24 1 0 1;
#X connect 25 0 16 0;
#X connect 26 0 27 0;
#X connect 26 1 28 0;
#X connect 27 0 25 1;
#X connect 27 1 1 0;
#X connect 28 0 0 0;
#X connect 28 1 25 1;
#X connect 29 0 22 0;
#X connect 32 0 29 0;
#X coords 0 0 1 1 140 17 1 260 200;
