#N canvas 127 175 469 346 10;
#X obj 11 11 inlet~;
#X text 59 11 audio in;
#X obj 126 11 inlet~;
#X obj 314 11 tgl 15 0 empty empty empty -30 7 0 12 -262144 -1 -1 0
1;
#X obj 271 183 writesf~ 2;
#X msg 338 107 start;
#X msg 381 107 stop;
#X obj 271 87 savepanel;
#X msg 271 107 open \$1;
#X obj 297 11 bng 15 250 50 0 empty empty empty 0 -6 0 10 -262144 -1
-1;
#X obj 314 34 sel 1 0;
#X text 13 242 write audio input to disk;
#X text 14 255 two inlets: left \, right audio channels;
#X text 14 268 two controls: bang to name soundfile (first);
#X text 32 282 (then) toggle to turn on/off recording;
#X text 13 298 no outlets or user-specified defaults;
#X obj 126 87 internals-limiter~;
#X obj 11 87 internals-limiter~;
#X text 12 229 sfx-record~.pd;
#X connect 0 0 17 0;
#X connect 2 0 16 0;
#X connect 3 0 10 0;
#X connect 5 0 4 0;
#X connect 6 0 4 0;
#X connect 7 0 8 0;
#X connect 8 0 4 0;
#X connect 9 0 7 0;
#X connect 10 0 5 0;
#X connect 10 1 6 0;
#X connect 16 0 4 1;
#X connect 17 0 4 0;
#X coords 0 0 1 1 110 17 1 220 10;
