#N canvas 458 100 536 584 10;
#X obj 201 30 inlet;
#X obj 36 24 inlet~;
#X text 243 30 stream of incoming data values (0 - 100);
#X text 85 24 audio input;
#X text 33 503 one inlet~: audio data for processing;
#X text 33 531 one outlet~: processed audio;
#X obj 36 431 outlet~;
#X obj 201 198 line~;
#X obj 201 179 pack;
#X msg 224 135 5;
#X text 93 430 audio output;
#X obj 185 151 tgl 15 0 empty empty empty 0 -6 0 8 -262144 -1 -1 0
1;
#X obj 201 91 t f b;
#X obj 185 240 *~;
#X text 32 473 apply hyperbolic tangent waveshaping to an input signal
;
#X obj 201 50 clip 10 100;
#X obj 201 70 / 10;
#X obj 185 322 tabread4~ \$0-waveshape;
#X obj 293 162 table \$0-waveshape 1001;
#X obj 293 139 tabwrite \$0-waveshape;
#X obj 185 343 lop~ 18000;
#N canvas 162 22 618 476 make-tanh 0;
#X obj 114 87 int;
#X msg 114 58 0;
#X obj 141 87 + 1;
#X obj 10 58 r \$0-retrigger;
#X obj 114 368 delay 1;
#X obj 114 387 s \$0-retrigger;
#X obj 235 387 outlet;
#X text 284 387 array y-coord;
#X obj 404 384 outlet;
#X text 452 384 array x-coord;
#X obj 114 127 t f f;
#X obj 114 307 trigger bang float;
#X obj 114 107 moses 1001;
#X obj 114 153 / 500;
#X obj 114 172 - 1;
#X obj 114 220 exp;
#X obj 114 201 * 2;
#X obj 114 239 t f f;
#X obj 144 258 + 1;
#X obj 114 258 - 1;
#X obj 114 277 /;
#X text 114 421 create data for a hyperbolic tangent wavetable;
#X obj 114 17 loadbang;
#X text 114 432 lcb 11.16.2006 for periodic table;
#X text 116 444 hacked into milo-modules on 10.05.2007;
#X connect 0 0 2 0;
#X connect 0 0 12 0;
#X connect 1 0 0 0;
#X connect 2 0 0 1;
#X connect 3 0 0 0;
#X connect 4 0 5 0;
#X connect 10 0 13 0;
#X connect 10 1 8 0;
#X connect 11 0 4 0;
#X connect 11 1 6 0;
#X connect 12 0 10 0;
#X connect 13 0 14 0;
#X connect 14 0 16 0;
#X connect 15 0 17 0;
#X connect 16 0 15 0;
#X connect 17 0 19 0;
#X connect 17 1 18 0;
#X connect 18 0 20 1;
#X connect 19 0 20 0;
#X connect 20 0 11 0;
#X connect 22 0 1 0;
#X restore 293 117 pd make-tanh;
#X text 289 96 load and store transfer function;
#X text 33 517 one inlet: values interpreted as pre-gain (10-100);
#X obj 185 261 clip~ -1 1;
#X obj 185 281 *~ 500;
#X obj 185 301 +~ 500;
#X text 32 488 one user-specified values: on/off key assignment ($1)
;
#X obj 185 8 select \$1;
#X obj 36 190 internals-bypass~;
#X obj 185 -12 internals-keyswitch;
#X text 33 459 sfx-distortion~.pd;
#X connect 0 0 15 0;
#X connect 1 0 29 0;
#X connect 7 0 13 1;
#X connect 8 0 7 0;
#X connect 9 0 8 1;
#X connect 11 0 29 1;
#X connect 12 0 8 0;
#X connect 12 1 9 0;
#X connect 13 0 24 0;
#X connect 15 0 16 0;
#X connect 16 0 12 0;
#X connect 17 0 20 0;
#X connect 20 0 6 0;
#X connect 21 0 19 0;
#X connect 21 1 19 1;
#X connect 24 0 25 0;
#X connect 25 0 26 0;
#X connect 26 0 17 0;
#X connect 28 0 11 0;
#X connect 29 0 6 0;
#X connect 29 1 13 0;
#X connect 30 0 28 0;
#X coords 0 -1 1 1 125 17 1 76 150;
