#N canvas 458 100 637 586 10;
#X obj 246 9 inlet;
#X obj 36 24 inlet~;
#X text 288 9 stream of incoming data values (0 - 100);
#X text 85 24 audio input;
#X text 33 491 one inlet~: audio data for processing;
#X text 33 535 one outlet~: processed audio;
#X text 33 505 one inlet: values interpreted as MIDI pitches (0-100)
;
#X obj 185 400 delwrite~ \$0-comb 100;
#X obj 274 332 *~;
#X obj 36 401 outlet~;
#X obj 274 248 vd~ \$0-comb 100;
#X obj 274 222 line~;
#X obj 274 203 pack;
#X msg 297 158 5;
#X obj 246 155 /;
#X obj 246 178 * 0.022675;
#X obj 246 69 mtof;
#X obj 246 29 clip 0 100;
#X text 93 400 audio output;
#X text 32 443 apply a comb filter to an input signal;
#X obj 185 151 tgl 15 0 empty empty empty 0 -6 0 8 -262144 -1 -1 0
1;
#X obj 392 248 line~;
#X obj 392 226 pack;
#X msg 415 157 5;
#X obj 339 156 random 200;
#X obj 339 194 / 1000;
#X obj 339 175 + 800;
#X text 51 460 with randomly varying feedback;
#X text 55 521 and triggering new random feedback values;
#X obj 246 49 t f f;
#X obj 246 90 trigger b f b b b;
#X obj 56 91 select \$1;
#X text 34 475 one user-specified value: on/off key assignment (\$1)
;
#X text 33 429 sfx-randomcomb~.pd;
#X obj 36 190 internals-bypass~;
#X obj 56 72 internals-keyswitch;
#X obj 281 69 s pitch-report;
#X obj 246 112 samplerate~;
#X obj 246 133 / 2;
#X connect 0 0 17 0;
#X connect 1 0 34 0;
#X connect 8 0 7 0;
#X connect 10 0 8 0;
#X connect 10 0 9 0;
#X connect 11 0 10 0;
#X connect 12 0 11 0;
#X connect 13 0 12 1;
#X connect 14 0 15 0;
#X connect 15 0 12 0;
#X connect 16 0 30 0;
#X connect 17 0 29 0;
#X connect 20 0 34 1;
#X connect 21 0 8 1;
#X connect 22 0 21 0;
#X connect 23 0 22 1;
#X connect 24 0 26 0;
#X connect 25 0 22 0;
#X connect 26 0 25 0;
#X connect 29 0 16 0;
#X connect 29 1 36 0;
#X connect 30 0 37 0;
#X connect 30 1 14 1;
#X connect 30 2 13 0;
#X connect 30 3 24 0;
#X connect 30 4 23 0;
#X connect 31 0 20 0;
#X connect 34 0 9 0;
#X connect 34 1 7 0;
#X connect 35 0 31 0;
#X connect 37 0 38 0;
#X connect 38 0 14 0;
#X coords 0 -1 1 1 125 17 1 76 150;
