#N canvas 458 100 615 465 10;
#X obj 246 22 inlet;
#X obj 36 24 inlet~;
#X text 288 22 stream of incoming data values (0 - 100);
#X text 85 24 audio input;
#X text 33 369 one inlet~: audio data for processing;
#X text 33 397 one outlet~: processed audio;
#X obj 36 297 outlet~;
#X obj 246 179 line~;
#X obj 246 160 pack;
#X obj 246 42 clip 0 100;
#X text 93 296 audio output;
#X obj 185 151 tgl 15 0 empty empty empty 0 -6 0 8 -262144 -1 -1 0
1;
#X text 32 339 sweeping through a delayed input signal;
#X text 33 383 one inlet: values interpreted as % location in delay
line;
#X obj 185 296 delwrite~ \$0-scrub 2000;
#X obj 246 211 vd~ \$0-scrub 2000;
#X obj 246 67 * 20;
#X obj 246 89 t f b;
#X msg 269 116 8;
#X obj 56 91 select \$1;
#X text 32 354 one user-specified value: on/off key assignment ($1)
;
#X obj 56 72 internals-keyswitch;
#X obj 36 190 internals-bypass~;
#X text 33 325 sfx-scrub~.pd;
#X connect 0 0 9 0;
#X connect 1 0 22 0;
#X connect 7 0 15 0;
#X connect 8 0 7 0;
#X connect 9 0 16 0;
#X connect 11 0 22 1;
#X connect 15 0 6 0;
#X connect 16 0 17 0;
#X connect 17 0 8 0;
#X connect 17 1 18 0;
#X connect 18 0 8 1;
#X connect 19 0 11 0;
#X connect 21 0 19 0;
#X connect 22 0 6 0;
#X connect 22 1 14 0;
#X coords 0 -1 1 1 100 17 1 101 150;
