#N canvas 155 151 504 600 10;
#X obj 20 186 line~;
#X text 63 186 set oscillator frequency;
#X obj 20 18 inlet;
#X obj 20 91 mtof;
#X text 72 90 calculate oscillator frequency;
#X obj 20 436 outlet~;
#X text 62 18 stream of incoming data values (0-100);
#X text 78 436 audio output;
#X text 20 517 one inlet: stream of values interpreted as MIDI pitches
;
#X text 20 531 one outlet~: synthesis audio;
#X obj 20 40 clip 0 100;
#X obj 36 387 line~;
#X obj 20 409 *~;
#X obj 184 251 tgl 15 0 empty empty empty 0 -6 0 8 -262144 -1 -1 0
1;
#X obj 184 296 t b b;
#X obj 184 271 sel 1;
#X obj 228 296 t b b;
#X msg 36 365 1 5;
#X obj 214 374 switch~;
#X obj 258 317 delay 6;
#X msg 258 341 0;
#X msg 214 342 1;
#X msg 65 365 0 5;
#X obj 315 317 loadbang;
#X text 20 488 simple sine oscillator;
#X obj 20 221 osc~;
#X text 59 221 sine oscillator;
#X obj 20 60 t f f;
#X obj 184 230 select \$1;
#X text 20 503 one user-specified value: on/off key assignment (\$1)
;
#X obj 184 209 internals-keyswitch;
#X text 21 474 synth-osc~.pd;
#X obj 77 132 s pitch-report;
#X obj 399 210 inlet;
#X msg 20 158 \$1 50;
#X connect 0 0 25 0;
#X connect 2 0 10 0;
#X connect 3 0 34 0;
#X connect 10 0 27 0;
#X connect 11 0 12 1;
#X connect 12 0 5 0;
#X connect 13 0 15 0;
#X connect 14 0 17 0;
#X connect 14 1 21 0;
#X connect 15 0 14 0;
#X connect 15 1 16 0;
#X connect 16 0 22 0;
#X connect 16 1 19 0;
#X connect 17 0 11 0;
#X connect 19 0 20 0;
#X connect 20 0 18 0;
#X connect 21 0 18 0;
#X connect 22 0 11 0;
#X connect 23 0 20 0;
#X connect 25 0 12 0;
#X connect 27 0 3 0;
#X connect 27 1 32 0;
#X connect 28 0 13 0;
#X connect 30 0 28 0;
#X connect 33 0 13 0;
#X connect 34 0 0 0;
#X coords 0 -1 1 1 100 17 1 100 250;
