#N canvas 59 24 658 517 10;
#N canvas 0 0 450 300 (subpatch) 0;
#X array \$0-wave 2051 float 0;
#X coords 0 1 2050 0 110 80 1;
#X restore 149 119 graph;
#N canvas 59 24 771 448 reset 0;
#X obj 466 118 inlet;
#X obj 470 151 sel 1 2 3;
#N canvas 496 187 450 300 sine 0;
#X obj 228 41 inlet;
#X obj 230 166 int;
#X obj 258 167 + 1;
#X msg 328 124 0;
#X obj 233 203 t f f f;
#X obj 250 266 * 6.28;
#X obj 252 368 tabwrite \$0-wave;
#X obj 228 71 t b b;
#X obj 250 317 + 1;
#X obj 251 345 / 2;
#X obj 250 293 sin;
#X obj 228 121 Uzi 2051;
#X obj 250 235 / 2051;
#X connect 0 0 7 0;
#X connect 1 0 4 0;
#X connect 2 0 1 1;
#X connect 3 0 1 1;
#X connect 4 0 2 0;
#X connect 4 1 12 0;
#X connect 4 2 6 1;
#X connect 5 0 10 0;
#X connect 7 0 11 0;
#X connect 7 1 3 0;
#X connect 8 0 9 0;
#X connect 9 0 6 0;
#X connect 10 0 8 0;
#X connect 11 0 1 0;
#X connect 12 0 5 0;
#X restore 654 210 pd sine;
#N canvas 59 24 559 492 square 0;
#X obj 213 163 int;
#X obj 241 164 + 1;
#X msg 311 121 0;
#X obj 235 365 tabwrite \$0-wave;
#X obj 215 23 inlet;
#X msg 222 282 1;
#X obj 350 209 int;
#X obj 378 210 + 1;
#X obj 211 68 t b b b;
#X obj 211 118 Uzi 1025;
#X obj 348 164 Uzi 1026;
#X msg 424 184 1025;
#X obj 216 200 t f b f;
#X obj 353 246 t f b f;
#X msg 359 328 0;
#X connect 0 0 12 0;
#X connect 1 0 0 1;
#X connect 2 0 0 1;
#X connect 4 0 8 0;
#X connect 5 0 3 0;
#X connect 6 0 13 0;
#X connect 7 0 6 1;
#X connect 8 0 9 0;
#X connect 8 1 2 0;
#X connect 8 2 11 0;
#X connect 9 0 0 0;
#X connect 9 1 10 0;
#X connect 10 0 6 0;
#X connect 11 0 6 1;
#X connect 12 0 1 0;
#X connect 12 1 5 0;
#X connect 12 2 3 1;
#X connect 13 0 7 0;
#X connect 13 1 14 0;
#X connect 13 2 3 1;
#X connect 14 0 3 0;
#X restore 285 240 pd square;
#N canvas 59 24 559 492 triangle 0;
#X obj 213 163 int;
#X obj 241 164 + 1;
#X msg 311 121 0;
#X obj 235 365 tabwrite \$0-wave;
#X obj 215 23 inlet;
#X obj 350 209 int;
#X obj 378 210 + 1;
#X obj 211 68 t b b b;
#X obj 211 118 Uzi 1025;
#X obj 348 164 Uzi 1026;
#X msg 424 184 1025;
#X obj 216 200 t f f f;
#X obj 219 251 / 1024;
#X obj 353 246 t f f f;
#X obj 397 321 / 1025;
#X obj 400 349 - 1;
#X obj 399 396 abs;
#X obj 425 297 - 1024;
#X connect 0 0 11 0;
#X connect 1 0 0 1;
#X connect 2 0 0 1;
#X connect 4 0 7 0;
#X connect 5 0 13 0;
#X connect 6 0 5 1;
#X connect 7 0 8 0;
#X connect 7 1 2 0;
#X connect 7 2 10 0;
#X connect 8 0 0 0;
#X connect 8 1 9 0;
#X connect 9 0 5 0;
#X connect 10 0 5 1;
#X connect 11 0 1 0;
#X connect 11 1 12 0;
#X connect 11 2 3 1;
#X connect 12 0 3 0;
#X connect 13 0 6 0;
#X connect 13 1 17 0;
#X connect 13 2 3 1;
#X connect 14 0 15 0;
#X connect 15 0 16 0;
#X connect 16 0 3 0;
#X connect 17 0 14 0;
#X restore 381 240 pd triangle;
#N canvas 430 102 450 300 sawtooth 0;
#X obj 228 41 inlet;
#X obj 230 166 int;
#X obj 258 167 + 1;
#X msg 328 124 0;
#X obj 233 203 t f f f;
#X obj 250 261 tabwrite \$0-wave;
#X obj 228 71 t b b;
#X obj 228 121 Uzi 2051;
#X obj 250 235 / 2051;
#X connect 0 0 6 0;
#X connect 1 0 4 0;
#X connect 2 0 1 1;
#X connect 3 0 1 1;
#X connect 4 0 2 0;
#X connect 4 1 8 0;
#X connect 4 2 5 1;
#X connect 6 0 7 0;
#X connect 6 1 3 0;
#X connect 7 0 1 0;
#X connect 8 0 5 0;
#X restore 533 214 pd sawtooth;
#X connect 0 0 1 0;
#X connect 1 0 3 0;
#X connect 1 1 4 0;
#X connect 1 2 5 0;
#X connect 1 3 2 0;
#X restore 427 25 pd reset;
#X obj 372 110 inlet;
#X obj 372 142 mtof;
#X obj 372 192 line~;
#X obj 372 217 phasor~;
#X obj 373 306 outlet~;
#X obj 121 270 switch~;
#X obj 244 101 tgl 15 0 empty empty empty 17 7 0 10 -262144 -1 -1 0
1;
#X obj 64 19 loadbang;
#X obj 372 242 *~ 2000;
#X obj 365 18 loadbang;
#X msg 356 48 1;
#X obj 101 128 vradio 15 1 0 4 empty empty empty 0 -8 0 10 -262144
-1 -1 0;
#X text 120 156 tri;
#X text 120 171 saw;
#X text 119 127 sin;
#X text 120 141 sqr;
#X msg 81 48 0;
#X obj 373 281 tabread4~ \$0-wave;
#X msg 372 167 \$1 5;
#X connect 2 0 3 0;
#X connect 3 0 20 0;
#X connect 4 0 5 0;
#X connect 5 0 10 0;
#X connect 8 0 7 0;
#X connect 9 0 18 0;
#X connect 10 0 19 0;
#X connect 11 0 12 0;
#X connect 12 0 8 0;
#X connect 13 0 1 0;
#X connect 18 0 13 0;
#X connect 19 0 6 0;
#X connect 20 0 4 0;
#X coords 0 -1 1 1 160 100 1 100 100;
