#N canvas 155 139 830 629 10;
#X obj 213 518 outlet~;
#X text 120 436 audio output;
#X text 348 75 one outlet~: synthesis audio;
#X obj 201 251 tgl 15 0 empty empty empty 0 -6 0 8 -262144 -1 -1 0
1;
#X obj 253 299 sel 1;
#X obj 253 372 switch~;
#X obj 280 323 delay 6;
#X msg 280 347 0;
#X obj 337 323 loadbang;
#X obj 185 251 bng 15 250 50 0 empty empty empty 0 -6 0 8 -262144 -1
-1;
#X obj 253 393 openpanel;
#X text 349 88 bang to select a soundfile for playback;
#X msg 214 465 open \$1;
#X obj 214 492 readsf~;
#X obj 214 440 symbol;
#X obj 195 78 inlet;
#X msg 114 391 start;
#X obj 155 337 t b b;
#X msg 253 348 1;
#X obj 242 413 t b b symbol;
#X text 348 32 soundfile playback;
#X text 349 18 synth-loop~.pd;
#X obj 140 144 spigot;
#X text 348 61 one inlet: bang to start/stop playback;
#X obj 200 102 t b b;
#X connect 3 0 4 0;
#X connect 3 0 22 1;
#X connect 4 0 18 0;
#X connect 4 1 6 0;
#X connect 6 0 7 0;
#X connect 7 0 5 0;
#X connect 8 0 7 0;
#X connect 9 0 10 0;
#X connect 10 0 19 0;
#X connect 12 0 13 0;
#X connect 13 0 0 0;
#X connect 13 1 22 0;
#X connect 14 0 12 0;
#X connect 15 0 24 0;
#X connect 16 0 13 0;
#X connect 17 0 16 0;
#X connect 17 1 14 0;
#X connect 18 0 5 0;
#X connect 19 0 24 0;
#X connect 19 1 14 0;
#X connect 19 2 14 1;
#X connect 22 0 17 0;
#X connect 24 0 22 0;
#X connect 24 1 3 0;
#X coords 0 -1 1 1 125 17 1 92 250;
