#N canvas 158 0 616 657 10;
#X obj 20 218 line~;
#X obj 20 18 inlet;
#X obj 20 78 mtof;
#X msg 43 178 5;
#X obj 20 198 pack;
#X obj 20 636 outlet~;
#X text 62 18 stream of incoming data values (0-100);
#X text 78 636 audio output;
#X text 20 717 one inlet: stream of values interpreted as MIDI pitches
;
#X text 20 731 one outlet~: synthesis audio;
#X obj 20 37 clip 0 100;
#X obj 36 587 line~;
#X obj 20 609 *~;
#X obj 184 451 tgl 15 0 empty empty empty 0 -6 0 8 -262144 -1 -1 0
1;
#X obj 184 496 t b b;
#X obj 184 471 sel 1;
#X obj 228 496 t b b;
#X msg 36 565 1 5;
#X obj 214 574 switch~;
#X obj 258 517 delay 6;
#X msg 258 541 0;
#X msg 214 542 1;
#X msg 65 565 0 5;
#X obj 315 517 loadbang;
#X obj 20 57 t f f;
#X text 20 703 one user-specified values: on/off key assignment (\$1)
;
#X obj 184 414 select \$1;
#X obj 184 393 internals-keyswitch;
#X text 56 80 calculate waveguide length;
#X obj 20 137 /;
#X obj 20 99 t b f;
#X obj 20 252 vd~ \$0-left-rail;
#X obj 138 252 vd~ \$0-right-rail;
#X obj 446 343 line~;
#X obj 398 366 *~;
#X obj 398 343 noise~;
#X obj 138 365 delwrite~ \$0-left-rail 1000;
#X obj 138 272 *~ -1;
#X obj 398 399 delwrite~ \$0-right-rail 1000;
#X obj 315 365 *~;
#X obj 330 343 line~;
#X obj 20 157 trigger f b b b;
#X obj 330 242 / 100;
#X obj 330 262 + 0.5;
#X msg 353 303 5;
#X obj 330 323 pack;
#X obj 330 282 t f b;
#X obj 446 242 / 100;
#X msg 469 303 5;
#X obj 446 323 pack;
#X obj 446 282 t f b;
#X obj 446 222 random 30;
#X obj 446 262 + 0.1;
#X text 21 674 synth-flute~.pd;
#X text 20 688 "flute-like" waveguide structure (emphasis on "-like")
;
#X obj 330 222 random 40;
#X msg 20 118 71;
#X text 73 94 (not quite correct yet);
#X obj 299 81 s pitch-report;
#X obj 479 427 inlet;
#X connect 0 0 31 0;
#X connect 0 0 32 0;
#X connect 1 0 10 0;
#X connect 2 0 30 0;
#X connect 3 0 4 1;
#X connect 4 0 0 0;
#X connect 10 0 24 0;
#X connect 11 0 12 1;
#X connect 12 0 5 0;
#X connect 13 0 15 0;
#X connect 14 0 17 0;
#X connect 14 1 21 0;
#X connect 15 0 14 0;
#X connect 15 1 16 0;
#X connect 16 0 22 0;
#X connect 16 1 19 0;
#X connect 17 0 11 0;
#X connect 19 0 20 0;
#X connect 20 0 18 0;
#X connect 21 0 18 0;
#X connect 22 0 11 0;
#X connect 23 0 20 0;
#X connect 24 0 2 0;
#X connect 24 1 58 0;
#X connect 26 0 13 0;
#X connect 27 0 26 0;
#X connect 29 0 41 0;
#X connect 30 0 56 0;
#X connect 30 1 29 1;
#X connect 31 0 39 0;
#X connect 31 0 12 0;
#X connect 32 0 37 0;
#X connect 33 0 34 1;
#X connect 34 0 38 0;
#X connect 35 0 34 0;
#X connect 37 0 36 0;
#X connect 39 0 38 0;
#X connect 40 0 39 1;
#X connect 41 0 4 0;
#X connect 41 1 3 0;
#X connect 41 2 55 0;
#X connect 41 3 51 0;
#X connect 42 0 43 0;
#X connect 43 0 46 0;
#X connect 44 0 45 1;
#X connect 45 0 40 0;
#X connect 46 0 45 0;
#X connect 46 1 44 0;
#X connect 47 0 52 0;
#X connect 48 0 49 1;
#X connect 49 0 33 0;
#X connect 50 0 49 0;
#X connect 50 1 48 0;
#X connect 51 0 47 0;
#X connect 52 0 50 0;
#X connect 55 0 42 0;
#X connect 56 0 29 0;
#X connect 59 0 13 0;
#X coords 0 -1 1 1 110 17 1 90 450;
