#N canvas 581 115 677 593 10;
#N canvas 0 0 450 300 (subpatch) 0;
#X array \$0-varplay 264797 float 2;
#X coords 0 1 264797 -1 118 70 1;
#X restore 101 124 graph;
#X obj 445 97 openpanel;
#X obj 445 201 s \$0-size;
#X obj 295 104 r \$0-size;
#X obj 525 95 f \$0;
#X obj 452 70 t b b;
#X obj 445 178 soundfiler;
#X msg 452 46 bang;
#X obj 468 133 pack s f;
#X obj 277 198 vline~;
#X msg 277 174 0 \, \$1 \$2;
#X obj 277 151 pack;
#X obj 277 128 f;
#X obj 451 25 inlet;
#X obj 277 243 outlet~;
#X obj 258 33 inlet;
#X text 25 21 variable-speed soundfile player;
#X obj 403 305 samplerate~;
#X obj 403 286 loadbang;
#X obj 361 265 r \$0-size;
#X obj 361 322 /;
#X obj 361 344 * 1000;
#X obj 352 380 pack;
#X obj 352 408 expr $f2/$f1;
#X obj 353 435 * 100;
#X floatatom 187 195 5 0 0 0 - - -;
#X text 130 194 % change:;
#X obj 178 103 tgl 20 0 empty empty empty 17 7 0 10 -1 -262144 -1 0
1;
#X obj 257 82 spigot;
#X text 36 41 left inlet: bang to play \, or ms val;
#X obj 276 221 tabread4~ \$0-varplay;
#X msg 445 155 read -resize \$1 \$2-varplay;
#X obj 199 103 bng 20 250 50 0 empty empty empty 17 7 0 10 -258113
-262144 -1;
#X text 37 58 right: toggle on/off;
#X obj 355 28 inlet;
#X obj 360 291 t b f;
#X floatatom 251 530 5 0 0 0 - - -;
#X obj 359 472 - 100;
#X connect 1 0 8 0;
#X connect 3 0 12 1;
#X connect 4 0 8 1;
#X connect 5 0 1 0;
#X connect 5 1 4 0;
#X connect 6 0 2 0;
#X connect 7 0 5 0;
#X connect 8 0 31 0;
#X connect 9 0 30 0;
#X connect 10 0 9 0;
#X connect 11 0 10 0;
#X connect 12 0 11 0;
#X connect 13 0 27 0;
#X connect 15 0 28 0;
#X connect 17 0 20 1;
#X connect 18 0 17 0;
#X connect 19 0 35 0;
#X connect 20 0 21 0;
#X connect 21 0 22 1;
#X connect 22 0 23 0;
#X connect 23 0 24 0;
#X connect 24 0 36 0;
#X connect 24 0 37 0;
#X connect 27 0 28 1;
#X connect 28 0 12 0;
#X connect 30 0 14 0;
#X connect 31 0 6 0;
#X connect 32 0 7 0;
#X connect 34 0 11 1;
#X connect 34 0 22 0;
#X connect 35 0 22 0;
#X connect 35 1 20 0;
#X connect 37 0 25 0;
#X coords 0 -1 1 1 120 112 1 100 100;
