#N canvas 155 151 689 498 10;
#X obj 20 159 line~;
#X text 363 21 array contains pulses for playback;
#X text 364 35 note that array size must be a power;
#X text 364 49 of two \, plus three;
#X text 365 63 (128+3=131 \, 256+3=259 \, etc.);
#X text 366 77 to set the size \, ctrl-click and choose;
#X text 367 91 'properties';
#X text 63 159 set oscillator frequency;
#X text 156 194 the actual wavetable oscillator;
#X obj 363 113 table \$0-pulses 131;
#X obj 396 161 loadbang;
#X msg 396 179 1 0;
#X obj 396 197 unpack;
#X obj 396 220 tabwrite \$0-pulses;
#X obj 20 194 tabosc4~ \$0-pulses;
#X obj 20 18 inlet;
#X obj 20 79 mtof;
#X msg 42 120 5;
#X obj 20 140 pack;
#X text 66 80 calculate oscillator frequency;
#X obj 20 436 outlet~;
#X text 62 18 stream of incoming data values (0-100);
#X text 78 436 audio output;
#X text 429 179 load single pulse into array;
#X text 200 409 pulse-train generator;
#X text 200 438 one inlet: stream of values interpreted as MIDI pitches
;
#X text 200 452 one outlet~: synthesis audio;
#X obj 20 40 clip 0 100;
#X obj 36 387 line~;
#X obj 20 409 *~;
#X obj 184 251 tgl 15 0 empty empty empty 0 -6 0 8 -262144 -1 -1 0
1;
#X obj 184 296 t b b;
#X obj 184 271 sel 1;
#X obj 228 296 t b b;
#X obj 214 374 switch~;
#X obj 258 317 delay 6;
#X msg 258 341 0;
#X msg 214 342 1;
#X msg 71 365 0 5;
#X obj 315 317 loadbang;
#X msg 36 365 10 5;
#X obj 20 99 t f b;
#X obj 20 59 t f f;
#X obj 184 232 select \$1;
#X text 200 424 one user-specified value: on/off key assignment (\$1)
;
#X obj 184 211 internals-keyswitch;
#X text 201 395 synth-pulsetrain~.pd;
#X obj 72 120 s pitch-report;
#X obj 572 106 inlet;
#X connect 0 0 14 0;
#X connect 10 0 11 0;
#X connect 11 0 12 0;
#X connect 12 0 13 0;
#X connect 12 1 13 1;
#X connect 14 0 29 0;
#X connect 15 0 27 0;
#X connect 16 0 41 0;
#X connect 17 0 18 1;
#X connect 18 0 0 0;
#X connect 27 0 42 0;
#X connect 28 0 29 1;
#X connect 29 0 20 0;
#X connect 30 0 32 0;
#X connect 31 0 40 0;
#X connect 31 1 37 0;
#X connect 32 0 31 0;
#X connect 32 1 33 0;
#X connect 33 0 38 0;
#X connect 33 1 35 0;
#X connect 35 0 36 0;
#X connect 36 0 34 0;
#X connect 37 0 34 0;
#X connect 38 0 28 0;
#X connect 39 0 36 0;
#X connect 40 0 28 0;
#X connect 41 0 18 0;
#X connect 41 1 17 0;
#X connect 42 0 16 0;
#X connect 42 1 47 0;
#X connect 43 0 30 0;
#X connect 45 0 43 0;
#X connect 48 0 30 0;
#X coords 0 -1 1 1 140 17 1 60 250;
