#N canvas 427 27 595 657 10;
#X obj 158 15 inlet;
#X obj 158 95 mtof;
#X obj -6 544 outlet~;
#X text 200 15 stream of incoming data values (0-100);
#X text 52 544 audio output;
#X text -8 617 one inlet: stream of values interpreted as MIDI pitches
;
#X text -8 631 one outlet~: synthesis audio;
#X obj 158 37 clip 0 100;
#X obj 10 495 line~;
#X obj -6 517 *~;
#X obj 334 251 tgl 15 0 empty empty empty 0 -6 0 8 -262144 -1 -1 1
1;
#X obj 334 296 t b b;
#X obj 334 271 sel 1;
#X obj 378 296 t b b;
#X obj 364 374 switch~;
#X obj 408 317 delay 6;
#X msg 408 341 0;
#X msg 364 342 1;
#X msg 45 473 0 5;
#X obj 465 317 loadbang;
#X obj 158 56 t f f;
#X msg 10 473 1 5;
#X obj 334 230 select \$1;
#X text -8 603 one user-specified value: on/off key assignment (\$1)
;
#X text -8 588 Karplus-Strong plucked string synthesis;
#X text 192 97 calculate pluck frequency;
#X text -7 574 synth-pluck~.pd;
#X obj 334 209 internals-keyswitch;
#X obj 188 76 s pitch-report;
#X obj 503 142 inlet;
#X obj 368 120 samplerate~;
#X obj 369 98 loadbang;
#X obj 185 141 * 1.09545;
#X obj 367 144 * 0.025;
#X obj 170 187 /;
#X obj 158 161 f;
#X msg 251 126 213.8;
#X obj 17 94 noise~;
#X obj 158 118 t b b b f;
#X obj 21 123 *~;
#X msg 78 112 1;
#X msg 78 135 0;
#X obj 142 224 del;
#X obj 12 438 delwrite~ \$0-buffer 1000;
#X obj 145 294 vd~ \$0-buffer 100;
#X obj 191 332 z~ 1;
#X obj 138 358 *~ 0.5;
#X obj 193 359 *~ 0.5;
#X obj 174 395 +~;
#X obj 61 412 *~ 0.99;
#X connect 0 0 7 0;
#X connect 1 0 38 0;
#X connect 7 0 20 0;
#X connect 8 0 9 1;
#X connect 9 0 2 0;
#X connect 10 0 12 0;
#X connect 11 0 21 0;
#X connect 11 1 17 0;
#X connect 12 0 11 0;
#X connect 12 1 13 0;
#X connect 13 0 18 0;
#X connect 13 1 15 0;
#X connect 15 0 16 0;
#X connect 16 0 14 0;
#X connect 17 0 14 0;
#X connect 18 0 8 0;
#X connect 19 0 16 0;
#X connect 20 0 1 0;
#X connect 20 1 28 0;
#X connect 21 0 8 0;
#X connect 22 0 10 0;
#X connect 27 0 22 0;
#X connect 29 0 10 0;
#X connect 30 0 33 0;
#X connect 31 0 30 0;
#X connect 32 0 34 1;
#X connect 33 0 35 1;
#X connect 34 0 42 1;
#X connect 34 0 44 0;
#X connect 35 0 34 0;
#X connect 36 0 38 0;
#X connect 37 0 39 0;
#X connect 38 0 42 0;
#X connect 38 1 40 0;
#X connect 38 2 35 0;
#X connect 38 3 32 0;
#X connect 39 0 43 0;
#X connect 40 0 39 1;
#X connect 41 0 39 1;
#X connect 42 0 41 0;
#X connect 44 0 45 0;
#X connect 44 0 46 0;
#X connect 45 0 47 0;
#X connect 46 0 48 0;
#X connect 47 0 48 1;
#X connect 48 0 49 0;
#X connect 48 0 9 0;
#X connect 49 0 43 0;
#X coords 0 -1 1 1 110 17 1 240 250;
