#N canvas 125 123 666 530 10;
#N canvas 505 222 650 420 NUMKEYS 0;
#X obj 316 336 outlet;
#X obj 30 333 outlet;
#X obj 69 17 inlet;
#X obj 69 80 select 33 64 35 36 37 94 38 42 40 41;
#X text 82 333 report matches by ID number;
#X text 369 335 pass nonmatches;
#X text 330 80 test ASCII input against !@#$%^&*();
#X msg 59 101 110;
#X msg 30 101 108;
#X msg 88 101 111;
#X msg 117 101 112;
#X msg 146 101 113;
#X msg 175 101 115;
#X msg 204 101 116;
#X msg 234 101 117;
#X msg 263 101 118;
#X msg 291 101 119;
#X connect 2 0 3 0;
#X connect 3 0 8 0;
#X connect 3 1 7 0;
#X connect 3 2 9 0;
#X connect 3 3 10 0;
#X connect 3 4 11 0;
#X connect 3 5 12 0;
#X connect 3 6 13 0;
#X connect 3 7 14 0;
#X connect 3 8 15 0;
#X connect 3 9 16 0;
#X connect 3 10 0 0;
#X connect 7 0 1 0;
#X connect 8 0 1 0;
#X connect 9 0 1 0;
#X connect 10 0 1 0;
#X connect 11 0 1 0;
#X connect 12 0 1 0;
#X connect 13 0 1 0;
#X connect 14 0 1 0;
#X connect 15 0 1 0;
#X connect 16 0 1 0;
#X restore 322 292 pd NUMKEYS;
#N canvas 527 374 702 428 QWERTYUIOP 0;
#X obj 315 334 outlet;
#X obj 29 333 outlet;
#X obj 68 18 inlet;
#X obj 68 51 select 81 87 69 82 84 89 85 73 79 80;
#X text 81 333 report matches by ID number;
#X text 368 333 pass nonmatches;
#X text 327 51 test ASCII input against QWERTYUIOP;
#X msg 29 72 96;
#X msg 58 72 98;
#X msg 87 72 99;
#X msg 116 72 100;
#X msg 145 72 101;
#X msg 174 72 103;
#X msg 203 72 104;
#X msg 232 72 105;
#X msg 261 72 106;
#X msg 290 72 107;
#X connect 2 0 3 0;
#X connect 3 0 7 0;
#X connect 3 1 8 0;
#X connect 3 2 9 0;
#X connect 3 3 10 0;
#X connect 3 4 11 0;
#X connect 3 5 12 0;
#X connect 3 6 13 0;
#X connect 3 7 14 0;
#X connect 3 8 15 0;
#X connect 3 9 16 0;
#X connect 3 10 0 0;
#X connect 7 0 1 0;
#X connect 8 0 1 0;
#X connect 9 0 1 0;
#X connect 10 0 1 0;
#X connect 11 0 1 0;
#X connect 12 0 1 0;
#X connect 13 0 1 0;
#X connect 14 0 1 0;
#X connect 15 0 1 0;
#X connect 16 0 1 0;
#X restore 387 314 pd QWERTYUIOP;
#N canvas 505 222 642 412 ASDFGHJKL 0;
#X obj 316 329 outlet;
#X obj 30 333 outlet;
#X obj 69 17 inlet;
#X obj 69 39 select 65 83 68 70 71 72 74 75 76 58;
#X text 82 333 report matches by ID number;
#X text 369 328 pass nonmatches;
#X text 333 40 test ASCII input against ASDFGHJKL:;
#X msg 30 60 84;
#X msg 59 60 86;
#X msg 88 60 87;
#X msg 117 60 88;
#X msg 147 60 89;
#X msg 175 60 91;
#X msg 204 60 92;
#X msg 233 60 93;
#X msg 262 60 94;
#X msg 291 60 95;
#X connect 2 0 3 0;
#X connect 3 0 7 0;
#X connect 3 1 8 0;
#X connect 3 2 9 0;
#X connect 3 3 10 0;
#X connect 3 4 11 0;
#X connect 3 5 12 0;
#X connect 3 6 13 0;
#X connect 3 7 14 0;
#X connect 3 8 15 0;
#X connect 3 9 16 0;
#X connect 3 10 0 0;
#X connect 7 0 1 0;
#X connect 8 0 1 0;
#X connect 9 0 1 0;
#X connect 10 0 1 0;
#X connect 11 0 1 0;
#X connect 12 0 1 0;
#X connect 13 0 1 0;
#X connect 14 0 1 0;
#X connect 15 0 1 0;
#X connect 16 0 1 0;
#X restore 473 336 pd ASDFGHJKL;
#N canvas 527 374 654 424 ZXCVBNM 0;
#X obj 317 332 outlet;
#X obj 31 333 outlet;
#X obj 70 18 inlet;
#X obj 70 48 select 90 88 67 86 66 78 77 60 62 63;
#X text 83 333 report matches by ID number;
#X text 370 331 pass nonmatches;
#X text 336 47 test ASCII input against ZXCVBNM<>?;
#X msg 31 69 72;
#X msg 60 69 74;
#X msg 89 69 75;
#X msg 118 69 76;
#X msg 147 69 77;
#X msg 176 69 79;
#X msg 205 69 80;
#X msg 234 69 81;
#X msg 263 69 82;
#X msg 292 69 83;
#X connect 2 0 3 0;
#X connect 3 0 7 0;
#X connect 3 1 8 0;
#X connect 3 2 9 0;
#X connect 3 3 10 0;
#X connect 3 4 11 0;
#X connect 3 5 12 0;
#X connect 3 6 13 0;
#X connect 3 7 14 0;
#X connect 3 8 15 0;
#X connect 3 9 16 0;
#X connect 3 10 0 0;
#X connect 7 0 1 0;
#X connect 8 0 1 0;
#X connect 9 0 1 0;
#X connect 10 0 1 0;
#X connect 11 0 1 0;
#X connect 12 0 1 0;
#X connect 13 0 1 0;
#X connect 14 0 1 0;
#X connect 15 0 1 0;
#X connect 16 0 1 0;
#X restore 552 358 pd ZXCVBNM;
#X text 262 124 user interface object;
#X text 261 201 derived from "lattice" code by lcb;
#N canvas 505 222 662 432 numkeys 0;
#X obj 316 336 outlet;
#X obj 30 333 outlet;
#X obj 69 17 inlet;
#X text 82 333 report matches by ID number;
#X text 369 335 pass nonmatches;
#X obj 69 80 select 49 50 51 52 53 54 55 56 57 48;
#X text 330 80 test ASCII input against numbers;
#X msg 30 101 10;
#X msg 59 101 20;
#X msg 88 101 30;
#X msg 117 101 40;
#X msg 146 101 50;
#X msg 178 101 60;
#X msg 204 101 70;
#X msg 234 101 80;
#X msg 263 101 90;
#X msg 291 101 100;
#X connect 2 0 5 0;
#X connect 5 0 7 0;
#X connect 5 1 8 0;
#X connect 5 2 9 0;
#X connect 5 3 10 0;
#X connect 5 4 11 0;
#X connect 5 5 12 0;
#X connect 5 6 13 0;
#X connect 5 7 14 0;
#X connect 5 8 15 0;
#X connect 5 9 16 0;
#X connect 5 10 0 0;
#X connect 7 0 1 0;
#X connect 8 0 1 0;
#X connect 9 0 1 0;
#X connect 10 0 1 0;
#X connect 11 0 1 0;
#X connect 12 0 1 0;
#X connect 13 0 1 0;
#X connect 14 0 1 0;
#X connect 15 0 1 0;
#X connect 16 0 1 0;
#X restore 27 204 pd numkeys;
#N canvas 527 374 714 440 qwertyuiop 0;
#X obj 385 332 outlet;
#X obj 68 333 outlet;
#X obj 68 18 inlet;
#X text 120 333 report matches by ID number;
#X text 438 331 pass nonmatches;
#X text 398 50 test ASCII input against QWERTYUIOP;
#X obj 68 51 select 113 119 101 114 116 121 117 105 111 112;
#X msg 68 72 7.5;
#X msg 97 72 17.5;
#X msg 126 72 27.5;
#X msg 155 72 37.5;
#X msg 185 72 47.5;
#X msg 213 72 57.5;
#X msg 242 72 67.5;
#X msg 271 71 77.5;
#X msg 301 72 87.5;
#X msg 329 72 97.5;
#X connect 2 0 6 0;
#X connect 6 0 7 0;
#X connect 6 1 8 0;
#X connect 6 2 9 0;
#X connect 6 3 10 0;
#X connect 6 4 11 0;
#X connect 6 5 12 0;
#X connect 6 6 13 0;
#X connect 6 7 14 0;
#X connect 6 8 15 0;
#X connect 6 9 16 0;
#X connect 6 10 0 0;
#X connect 7 0 1 0;
#X connect 8 0 1 0;
#X connect 9 0 1 0;
#X connect 10 0 1 0;
#X connect 11 0 1 0;
#X connect 12 0 1 0;
#X connect 13 0 1 0;
#X connect 14 0 1 0;
#X connect 15 0 1 0;
#X connect 16 0 1 0;
#X restore 92 226 pd qwertyuiop;
#N canvas 505 222 721 422 asdfghjkl 0;
#X obj 330 343 outlet;
#X obj 27 345 outlet;
#X obj 27 27 inlet;
#X text 79 345 report matches by ID number;
#X text 383 342 pass nonmatches;
#X text 343 49 test ASCII input against asdfghjkl (semicolon);
#X obj 27 49 select 97 115 100 102 103 104 106 107 108 59;
#X msg 27 72 5;
#X msg 56 72 15;
#X msg 85 72 25;
#X msg 114 72 35;
#X msg 143 72 45;
#X msg 172 72 55;
#X msg 201 71 65;
#X msg 230 72 75;
#X msg 259 72 85;
#X msg 288 72 95;
#X connect 2 0 6 0;
#X connect 6 0 7 0;
#X connect 6 1 8 0;
#X connect 6 2 9 0;
#X connect 6 3 10 0;
#X connect 6 4 11 0;
#X connect 6 5 12 0;
#X connect 6 6 13 0;
#X connect 6 7 14 0;
#X connect 6 8 15 0;
#X connect 6 9 16 0;
#X connect 6 10 0 0;
#X connect 7 0 1 0;
#X connect 8 0 1 0;
#X connect 9 0 1 0;
#X connect 10 0 1 0;
#X connect 11 0 1 0;
#X connect 12 0 1 0;
#X connect 13 0 1 0;
#X connect 14 0 1 0;
#X connect 15 0 1 0;
#X connect 16 0 1 0;
#X restore 178 248 pd asdfghjkl;
#N canvas 527 374 650 389 zxcvbnm 0;
#X obj 313 332 outlet;
#X obj 31 333 outlet;
#X obj 31 11 inlet;
#X text 83 333 report matches by ID number;
#X text 366 331 pass nonmatches;
#X text 342 42 test ASCII input against zxcvbnm \, ./;
#X obj 31 41 select 122 120 99 118 98 110 109 44 46 47;
#X msg 31 69 2.5;
#X msg 60 69 12.5;
#X msg 93 69 22.5;
#X msg 118 69 32.5;
#X msg 148 69 42.5;
#X msg 176 69 52.5;
#X msg 205 69 62.5;
#X msg 233 69 72.5;
#X msg 263 69 82.5;
#X msg 292 69 92.5;
#X connect 2 0 6 0;
#X connect 6 0 7 0;
#X connect 6 1 8 0;
#X connect 6 2 9 0;
#X connect 6 3 10 0;
#X connect 6 4 11 0;
#X connect 6 5 12 0;
#X connect 6 6 13 0;
#X connect 6 7 14 0;
#X connect 6 8 15 0;
#X connect 6 9 16 0;
#X connect 6 10 0 0;
#X connect 7 0 1 0;
#X connect 8 0 1 0;
#X connect 9 0 1 0;
#X connect 10 0 1 0;
#X connect 11 0 1 0;
#X connect 12 0 1 0;
#X connect 13 0 1 0;
#X connect 14 0 1 0;
#X connect 15 0 1 0;
#X connect 16 0 1 0;
#X restore 257 270 pd zxcvbnm;
#X floatatom 166 451 5 0 0 0 - - -;
#X obj 166 477 outlet;
#X text 263 214 updated 11.08.2007;
#X text 264 136 when net-keymanager is in "fretboard" mode;
#X text 264 149 report keypresses as numeric values;
#X text 262 111 ui-fretboard-number.pd;
#X text 264 162 no inlets;
#X text 261 227 transposition \, scaling added 01.21.2008;
#X obj 177 415 spigot;
#X obj 166 386 + 0;
#X obj 149 451 tgl 15 0 empty empty empty 17 7 0 10 -262144 -1 -1 1
1;
#X obj 106 159 key;
#X obj 166 366 * 1;
#X connect 0 0 22 0;
#X connect 0 1 1 0;
#X connect 1 0 22 0;
#X connect 1 1 2 0;
#X connect 2 0 22 0;
#X connect 2 1 3 0;
#X connect 3 0 22 0;
#X connect 6 0 22 0;
#X connect 6 1 7 0;
#X connect 7 0 22 0;
#X connect 7 1 8 0;
#X connect 8 0 22 0;
#X connect 8 1 9 0;
#X connect 9 0 22 0;
#X connect 9 1 0 0;
#X connect 10 0 11 0;
#X connect 18 0 10 0;
#X connect 19 0 18 0;
#X connect 20 0 18 1;
#X connect 21 0 6 0;
#X connect 22 0 19 0;
#X coords 0 -1 1 1 200 17 1 0 450;
