#N canvas 589 146 500 330 10;
#X obj 205 171 sel;
#X obj 222 193 sel;
#X obj 239 219 sel;
#X obj 256 241 sel;
#X symbolatom 31 120 2 0 0 0 - #0-set1 #0-sym1;
#X obj 216 130 ascseq;
#X obj 266 129 ascseq;
#X obj 330 129 ascseq;
#X obj 390 129 ascseq;
#X obj 161 117 key;
#X obj 165 141 spigot;
#X obj 114 101 tgl 15 0 empty empty empty 17 7 0 10 -262144 -1 -1 0
1;
#X obj 230 15 loadbang;
#X msg 201 61 symbol a;
#X msg 263 64 symbol s;
#X msg 327 64 symbol d;
#X msg 389 67 symbol f;
#X symbolatom 58 120 2 0 0 0 - #0-set2 #0-sym2;
#X symbolatom 87 120 2 0 0 0 - #0-set3 #0-sym3;
#X symbolatom 115 120 2 0 0 0 - #0-set4 #0-sym4;
#X obj 209 108 r \$0-sym1;
#X obj 269 108 r \$0-sym2;
#X obj 329 108 r \$0-sym3;
#X obj 389 108 r \$0-sym4;
#X obj 327 31 s \$0-setsym1;
#X obj 201 88 s \$0-set1;
#X obj 263 89 s \$0-set2;
#X obj 327 89 s \$0-set3;
#X obj 389 90 s \$0-set4;
#X obj 32 137 bng 10 50 20 0 empty empty empty 17 7 0 10 -262144 -1
-1;
#X obj 60 137 bng 10 50 20 0 empty empty empty 17 7 0 10 -262144 -1
-1;
#X obj 88 137 bng 10 50 20 0 empty empty empty 17 7 0 10 -262144 -1
-1;
#X obj 118 137 bng 10 50 20 0 empty empty empty 17 7 0 10 -262144 -1
-1;
#X obj 115 275 outlet;
#X obj 162 274 outlet;
#X obj 209 274 outlet;
#X obj 256 273 outlet;
#X connect 0 0 33 0;
#X connect 0 0 29 0;
#X connect 1 0 34 0;
#X connect 1 0 30 0;
#X connect 2 0 35 0;
#X connect 2 0 31 0;
#X connect 3 0 36 0;
#X connect 3 0 32 0;
#X connect 5 0 0 1;
#X connect 6 0 1 1;
#X connect 7 0 2 1;
#X connect 8 0 3 1;
#X connect 9 0 10 0;
#X connect 10 0 0 0;
#X connect 10 0 1 0;
#X connect 10 0 2 0;
#X connect 10 0 3 0;
#X connect 11 0 10 1;
#X connect 12 0 13 0;
#X connect 12 0 14 0;
#X connect 12 0 15 0;
#X connect 12 0 16 0;
#X connect 13 0 25 0;
#X connect 14 0 26 0;
#X connect 15 0 27 0;
#X connect 16 0 28 0;
#X connect 20 0 5 0;
#X connect 21 0 6 0;
#X connect 22 0 7 0;
#X connect 23 0 8 0;
#X coords 0 -1 1 1 100 50 1 30 100;
