#N canvas 646 139 692 476 10;
#X obj 101 119 vsl 8 50 0 127 0 0 empty 1-slider_in-0 empty 0 -9 0
10 -261234 -1 -1 0 1;
#X obj 113 119 vsl 8 50 0 127 0 0 empty 2-slider_in-0 empty 0 -9 0
10 -261682 -1 -1 0 1;
#X obj 125 119 vsl 8 50 0 127 0 0 empty 3-slider_in-0 empty 0 -9 0
10 -262130 -1 -1 0 1;
#X obj 137 119 vsl 8 50 0 127 0 0 empty 4-slider_in-0 empty 0 -9 0
10 -204786 -1 -1 0 1;
#X obj 149 119 vsl 8 50 0 127 0 0 empty empty empty 0 -9 0 10 -204800
-1 -1 0 1;
#X obj 161 119 vsl 8 50 0 127 0 0 empty empty empty 0 -9 0 10 -203904
-1 -1 0 1;
#X obj 173 119 vsl 8 50 0 127 0 0 empty empty empty 0 -9 0 10 -232576
-1 -1 0 1;
#X obj 185 119 vsl 8 50 0 127 0 0 empty empty empty 0 -9 0 10 -162280
-1 -1 0 1;
#X obj 101 176 tgl 8 0 1-tog_out 1-tog_in empty 17 7 0 10 -258113 -1
-1 0 1;
#X obj 113 176 tgl 8 0 empty empty empty 17 7 0 10 -260097 -1 -1 0
1;
#X obj 125 176 tgl 8 0 empty empty empty 17 7 0 10 -257985 -1 -1 0
1;
#X obj 137 176 tgl 8 0 empty empty empty 17 7 0 10 -4034 -1 -1 0 1
;
#X obj 149 176 tgl 8 0 empty empty empty 17 7 0 10 -4032 -1 -1 0 1
;
#X obj 161 176 tgl 8 0 empty empty empty 17 7 0 10 -4160 -262144 -1
0 1;
#X obj 173 176 tgl 8 0 empty empty empty 17 7 0 10 -159808 -262144
-1 0 1;
#X obj 185 176 tgl 8 0 empty empty empty 17 7 0 10 -1 -262144 -1 0
1;
#X obj 366 87 ctlin;
#X obj -167 128 outlet;
#X obj -149 153 outlet;
#X obj -120 127 outlet;
#X obj -103 154 outlet;
#X obj -75 128 outlet;
#X obj -31 129 outlet;
#X obj -55 153 outlet;
#X obj -11 154 outlet;
#N canvas 0 0 450 300 autodetect_midicontroller 0;
#X obj 119 131 demux;
#X obj 86 179 spigot;
#X obj 119 155 ==;
#X text 220 113 left - control data;
#X text 218 130 middle - midi controller #;
#X text 225 147 right - toggle (0/1) autodetect;
#X obj 123 91 t b f;
#X msg 164 129 0;
#X obj 60 43 inlet;
#X obj 130 44 inlet;
#X obj 267 49 inlet;
#X obj 120 265 outlet;
#X obj 230 233 outlet;
#X connect 0 0 2 0;
#X connect 0 1 2 1;
#X connect 1 0 11 0;
#X connect 2 0 1 1;
#X connect 6 0 7 0;
#X connect 6 1 0 0;
#X connect 7 0 0 1;
#X connect 7 0 12 0;
#X connect 8 0 1 0;
#X connect 9 0 6 0;
#X connect 10 0 0 1;
#X restore 223 280 pd autodetect_midicontroller;
#N canvas 0 0 450 300 autodetect_midicontroller 0;
#X obj 119 131 demux;
#X obj 86 179 spigot;
#X obj 119 155 ==;
#X text 220 113 left - control data;
#X text 218 130 middle - midi controller #;
#X text 225 147 right - toggle (0/1) autodetect;
#X obj 123 91 t b f;
#X msg 164 129 0;
#X obj 60 43 inlet;
#X obj 130 44 inlet;
#X obj 267 49 inlet;
#X obj 120 265 outlet;
#X obj 230 233 outlet;
#X connect 0 0 2 0;
#X connect 0 1 2 1;
#X connect 1 0 11 0;
#X connect 2 0 1 1;
#X connect 6 0 7 0;
#X connect 6 1 0 0;
#X connect 7 0 0 1;
#X connect 7 0 12 0;
#X connect 8 0 1 0;
#X connect 9 0 6 0;
#X connect 10 0 0 1;
#X restore 221 347 pd autodetect_midicontroller;
#N canvas 0 0 450 300 autodetect_midicontroller 0;
#X obj 119 131 demux;
#X obj 86 179 spigot;
#X obj 119 155 ==;
#X text 220 113 left - control data;
#X text 218 130 middle - midi controller #;
#X text 225 147 right - toggle (0/1) autodetect;
#X obj 123 91 t b f;
#X msg 164 129 0;
#X obj 60 43 inlet;
#X obj 130 44 inlet;
#X obj 267 49 inlet;
#X obj 120 265 outlet;
#X obj 230 233 outlet;
#X connect 0 0 2 0;
#X connect 0 1 2 1;
#X connect 1 0 11 0;
#X connect 2 0 1 1;
#X connect 6 0 7 0;
#X connect 6 1 0 0;
#X connect 7 0 0 1;
#X connect 7 0 12 0;
#X connect 8 0 1 0;
#X connect 9 0 6 0;
#X connect 10 0 0 1;
#X restore 220 303 pd autodetect_midicontroller;
#N canvas 0 0 450 300 autodetect_midicontroller 0;
#X obj 119 131 demux;
#X obj 86 179 spigot;
#X obj 119 155 ==;
#X text 220 113 left - control data;
#X text 218 130 middle - midi controller #;
#X text 225 147 right - toggle (0/1) autodetect;
#X obj 123 91 t b f;
#X msg 164 129 0;
#X obj 60 43 inlet;
#X obj 130 44 inlet;
#X obj 267 49 inlet;
#X obj 120 265 outlet;
#X obj 230 233 outlet;
#X connect 0 0 2 0;
#X connect 0 1 2 1;
#X connect 1 0 11 0;
#X connect 2 0 1 1;
#X connect 6 0 7 0;
#X connect 6 1 0 0;
#X connect 7 0 0 1;
#X connect 7 0 12 0;
#X connect 8 0 1 0;
#X connect 9 0 6 0;
#X connect 10 0 0 1;
#X restore 221 325 pd autodetect_midicontroller;
#N canvas 0 0 450 300 autodetect_midicontroller 0;
#X obj 119 131 demux;
#X obj 86 179 spigot;
#X obj 119 155 ==;
#X text 220 113 left - control data;
#X text 218 130 middle - midi controller #;
#X text 225 147 right - toggle (0/1) autodetect;
#X obj 123 91 t b f;
#X msg 164 129 0;
#X obj 60 43 inlet;
#X obj 130 44 inlet;
#X obj 267 49 inlet;
#X obj 120 265 outlet;
#X obj 230 233 outlet;
#X connect 0 0 2 0;
#X connect 0 1 2 1;
#X connect 1 0 11 0;
#X connect 2 0 1 1;
#X connect 6 0 7 0;
#X connect 6 1 0 0;
#X connect 7 0 0 1;
#X connect 7 0 12 0;
#X connect 8 0 1 0;
#X connect 9 0 6 0;
#X connect 10 0 0 1;
#X restore 221 372 pd autodetect_midicontroller;
#N canvas 0 0 450 300 autodetect_midicontroller 0;
#X obj 119 131 demux;
#X obj 86 179 spigot;
#X obj 119 155 ==;
#X text 220 113 left - control data;
#X text 218 130 middle - midi controller #;
#X text 225 147 right - toggle (0/1) autodetect;
#X obj 123 91 t b f;
#X msg 164 129 0;
#X obj 60 43 inlet;
#X obj 130 44 inlet;
#X obj 267 49 inlet;
#X obj 120 265 outlet;
#X obj 230 233 outlet;
#X connect 0 0 2 0;
#X connect 0 1 2 1;
#X connect 1 0 11 0;
#X connect 2 0 1 1;
#X connect 6 0 7 0;
#X connect 6 1 0 0;
#X connect 7 0 0 1;
#X connect 7 0 12 0;
#X connect 8 0 1 0;
#X connect 9 0 6 0;
#X connect 10 0 0 1;
#X restore 220 395 pd autodetect_midicontroller;
#N canvas 0 0 450 300 autodetect_midicontroller 0;
#X obj 119 131 demux;
#X obj 86 179 spigot;
#X obj 119 155 ==;
#X text 220 113 left - control data;
#X text 218 130 middle - midi controller #;
#X text 225 147 right - toggle (0/1) autodetect;
#X obj 123 91 t b f;
#X msg 164 129 0;
#X obj 60 43 inlet;
#X obj 130 44 inlet;
#X obj 267 49 inlet;
#X obj 120 265 outlet;
#X obj 230 233 outlet;
#X connect 0 0 2 0;
#X connect 0 1 2 1;
#X connect 1 0 11 0;
#X connect 2 0 1 1;
#X connect 6 0 7 0;
#X connect 6 1 0 0;
#X connect 7 0 0 1;
#X connect 7 0 12 0;
#X connect 8 0 1 0;
#X connect 9 0 6 0;
#X connect 10 0 0 1;
#X restore 220 421 pd autodetect_midicontroller;
#N canvas 0 0 450 300 autodetect_midicontroller 0;
#X obj 119 131 demux;
#X obj 86 179 spigot;
#X obj 119 155 ==;
#X text 220 113 left - control data;
#X text 218 130 middle - midi controller #;
#X text 225 147 right - toggle (0/1) autodetect;
#X obj 123 91 t b f;
#X msg 164 129 0;
#X obj 60 43 inlet;
#X obj 130 44 inlet;
#X obj 267 49 inlet;
#X obj 120 265 outlet;
#X obj 230 233 outlet;
#X connect 0 0 2 0;
#X connect 0 1 2 1;
#X connect 1 0 11 0;
#X connect 2 0 1 1;
#X connect 6 0 7 0;
#X connect 6 1 0 0;
#X connect 7 0 0 1;
#X connect 7 0 12 0;
#X connect 8 0 1 0;
#X connect 9 0 6 0;
#X connect 10 0 0 1;
#X restore 218 446 pd autodetect_midicontroller;
#X connect 0 0 17 0;
#X connect 1 0 18 0;
#X connect 2 0 19 0;
#X connect 3 0 20 0;
#X connect 4 0 21 0;
#X connect 5 0 23 0;
#X connect 6 0 22 0;
#X connect 7 0 24 0;
#X connect 8 0 25 2;
#X connect 9 0 27 2;
#X connect 10 0 28 2;
#X connect 11 0 26 2;
#X connect 12 0 29 2;
#X connect 13 0 30 2;
#X connect 14 0 31 2;
#X connect 15 0 32 2;
#X connect 16 0 25 0;
#X connect 16 0 27 0;
#X connect 16 0 28 0;
#X connect 16 0 26 0;
#X connect 16 0 29 0;
#X connect 16 0 30 0;
#X connect 16 0 31 0;
#X connect 16 0 32 0;
#X connect 16 1 25 1;
#X connect 16 1 27 1;
#X connect 16 1 28 1;
#X connect 16 1 26 1;
#X connect 16 1 29 1;
#X connect 16 1 30 1;
#X connect 16 1 31 1;
#X connect 16 1 32 1;
#X connect 25 0 0 0;
#X connect 25 1 8 0;
#X connect 26 0 3 0;
#X connect 26 1 11 0;
#X connect 27 0 1 0;
#X connect 27 1 9 0;
#X connect 28 0 2 0;
#X connect 28 1 10 0;
#X connect 29 0 4 0;
#X connect 29 1 12 0;
#X connect 30 0 5 0;
#X connect 30 1 13 0;
#X connect 31 0 6 0;
#X connect 31 1 14 0;
#X connect 32 0 7 0;
#X connect 32 1 15 0;
#X coords 0 -1 1 1 94 88 1 100 100;
