#N canvas 528 184 450 300 10;
#X obj 182 63 notein;
#X obj 186 97 pack;
#X obj 179 132 stripnote;
#X obj 178 159 outlet;
#X obj 252 168 outlet;
#X obj 253 151 bng 15 250 50 0 empty empty empty 17 7 0 10 -262144
-1 -1;
#X connect 0 0 1 0;
#X connect 0 1 1 1;
#X connect 1 0 2 0;
#X connect 2 0 3 0;
#X connect 2 1 5 0;
#X connect 5 0 4 0;
