#N canvas 0 0 491 419 10;
#X obj 101 101 cnv 15 288 108 empty empty empty 20 12 0 14 -228856
-66577 0;
#X obj 179 105 vradio 20 1 0 5 empty empty empty 0 -8 0 10 -262144
-1 -1 0;
#X text 165 105 +;
#X text 165 124 -;
#X text 165 146 *;
#X text 165 166 /;
#X obj 60 246 demux 1 2 3 4 5;
#X obj 53 283 +;
#X obj 79 283 -;
#X obj 103 282 *;
#X obj 132 282 /;
#X obj 158 285 pow;
#X text 156 186 pow;
#X obj 199 105 nbx 4 20 -1e+37 1e+37 0 0 empty empty empty 0 -8 0 10
-262144 -1 -1 7 256;
#X obj 199 125 nbx 4 20 -1e+37 1e+37 0 0 empty empty empty 0 -8 0 10
-262144 -1 -1 0 256;
#X obj 199 145 nbx 4 20 -1e+37 1e+37 0 0 empty empty empty 0 -8 0 10
-262144 -1 -1 1.5 256;
#X obj 199 165 nbx 4 20 -1e+37 1e+37 0 0 empty empty empty 0 -8 0 10
-262144 -1 -1 1 256;
#X obj 199 185 nbx 4 20 -1e+37 1e+37 0 0 empty empty empty 0 -8 0 10
-262144 -1 -1 1 256;
#X obj 276 105 vradio 20 1 0 5 empty empty empty 0 -8 0 10 -262144
-1 -1 2;
#X text 262 105 +;
#X text 262 124 -;
#X text 262 146 *;
#X text 262 166 /;
#X obj 227 235 demux 1 2 3 4 5;
#X obj 224 293 +;
#X obj 259 291 -;
#X obj 289 290 *;
#X obj 327 293 /;
#X obj 366 292 pow;
#X text 253 186 pow;
#X obj 296 105 nbx 4 20 -1e+37 1e+37 0 0 empty empty empty 0 -8 0 10
-262144 -1 -1 0 256;
#X obj 296 125 nbx 4 20 -1e+37 1e+37 0 0 empty empty empty 0 -8 0 10
-262144 -1 -1 0 256;
#X obj 296 145 nbx 4 20 -1e+37 1e+37 0 0 empty empty empty 0 -8 0 10
-262144 -1 -1 2 256;
#X obj 296 165 nbx 4 20 -1e+37 1e+37 0 0 empty empty empty 0 -8 0 10
-262144 -1 -1 1 256;
#X obj 296 185 nbx 4 20 -1e+37 1e+37 0 0 empty empty empty 0 -8 0 10
-262144 -1 -1 1 256;
#X floatatom 106 107 5 0 0 0 - - -;
#X floatatom 106 187 5 0 0 0 - - -;
#X obj 294 333 pipe 100;
#X obj 377 23 loadbang;
#X msg 372 65 100;
#X text 109 121 in;
#X text 109 170 out;
#X obj 143 193 bng 8 50 20 0 empty empty empty 17 7 0 10 -262144 -1
-1;
#X text 351 99 delay;
#X obj 106 28 r note-in;
#X obj 87 223 s note-out;
#X obj 357 137 knob 24 24 100 5000 1 0 empty empty empty 0 -8 0 8 -262144
-1 -1 200 1;
#X floatatom 352 186 5 0 0 0 - - -;
#X msg 245 53 1;
#X obj 430 184 int;
#X obj 106 55 clip 20 100;
#X connect 1 0 6 1;
#X connect 6 0 7 0;
#X connect 6 1 8 0;
#X connect 6 2 9 0;
#X connect 6 3 10 0;
#X connect 6 4 11 0;
#X connect 7 0 23 0;
#X connect 8 0 23 0;
#X connect 9 0 23 0;
#X connect 10 0 23 0;
#X connect 11 0 23 0;
#X connect 13 0 7 1;
#X connect 14 0 8 1;
#X connect 15 0 9 1;
#X connect 16 0 10 1;
#X connect 17 0 11 1;
#X connect 18 0 23 1;
#X connect 23 0 24 0;
#X connect 23 1 25 0;
#X connect 23 2 26 0;
#X connect 23 3 27 0;
#X connect 23 4 28 0;
#X connect 24 0 37 0;
#X connect 25 0 37 0;
#X connect 26 0 37 0;
#X connect 27 0 37 0;
#X connect 28 0 37 0;
#X connect 30 0 24 1;
#X connect 31 0 25 1;
#X connect 32 0 26 1;
#X connect 33 0 27 1;
#X connect 34 0 28 1;
#X connect 35 0 6 0;
#X connect 36 0 45 0;
#X connect 37 0 42 0;
#X connect 37 0 36 0;
#X connect 38 0 39 0;
#X connect 38 0 48 0;
#X connect 39 0 46 0;
#X connect 44 0 50 0;
#X connect 46 0 49 0;
#X connect 47 0 37 1;
#X connect 48 0 15 0;
#X connect 48 0 16 0;
#X connect 48 0 17 0;
#X connect 48 0 32 0;
#X connect 48 0 33 0;
#X connect 48 0 34 0;
#X connect 49 0 47 0;
#X connect 50 0 35 0;
#X coords 0 -1 1 1 290 110 2 100 100;
