#N canvas 409 175 940 550 10;
#X obj 657 149 soundfiler;
#X obj 657 174 s size;
#X obj 743 12 loadbang;
#X obj 151 180 *;
#X obj 166 156 r size;
#X obj 65 371 line~;
#X obj 528 114 table accx;
#X obj 528 139 table accy;
#N canvas 59 24 657 460 window 0;
#N canvas 0 0 450 300 (subpatch) 0;
#X array window 44100 float 0;
#X coords 0 1 44099 0 300 100 1;
#X restore 92 321 graph;
#X obj 388 175 osc~;
#X obj 388 200 *~ -0.5;
#X obj 388 224 +~ 0.5;
#X obj 47 98 r window-size;
#X obj 48 183 /;
#X obj 137 152 samplerate~;
#X obj 48 261 s window-sec;
#X obj 187 214 swap;
#X obj 187 238 /;
#X obj 187 262 s window-hz;
#X obj 59 211 * 1000;
#X obj 59 238 s window-msec;
#X obj 48 125 t f b f;
#X msg 183 102 resize \$1;
#X obj 340 115 r window-hz;
#X msg 392 140 0;
#X obj 340 141 t f b;
#X text 25 18 calculate Hann window table (variable window size) and
constants window-hz (fundamental frequency of analysis) \, window-sec
and window-msec (analysis window size in seconds and msec).;
#X obj 341 257 tabwrite~ window;
#X obj 183 126 s window;
#X obj 432 26 r grain-size;
#X obj 503 68 samplerate~;
#X obj 503 91 / 1000;
#X obj 457 61 t f b;
#X obj 474 120 *;
#X obj 474 143 int;
#X obj 475 166 s window-size;
#X connect 1 0 2 0;
#X connect 2 0 3 0;
#X connect 3 0 19 0;
#X connect 4 0 13 0;
#X connect 5 0 7 0;
#X connect 5 0 11 0;
#X connect 6 0 5 1;
#X connect 6 0 8 1;
#X connect 8 0 9 0;
#X connect 8 1 9 1;
#X connect 9 0 10 0;
#X connect 11 0 12 0;
#X connect 13 0 5 0;
#X connect 13 0 8 0;
#X connect 13 1 6 0;
#X connect 13 2 14 0;
#X connect 14 0 20 0;
#X connect 15 0 17 0;
#X connect 16 0 1 1;
#X connect 17 0 1 0;
#X connect 17 1 16 0;
#X connect 17 1 19 0;
#X connect 21 0 24 0;
#X connect 22 0 23 0;
#X connect 23 0 25 1;
#X connect 24 0 25 0;
#X connect 24 1 22 0;
#X connect 25 0 26 0;
#X connect 26 0 27 0;
#X restore 693 261 pd window;
#X msg 55 343 \$1 100;
#X obj 323 62 normalize 10000;
#X obj 277 210 metro 100;
#X obj 277 167 tgl 15 0 empty empty empty 17 7 0 10 -262144 -1 -1 1
1;
#X obj 334 190 t b f;
#X msg 301 165 1;
#X obj 279 293 windowed-buffer;
#X obj 313 482 dac~;
#X obj 757 261 table schumann;
#X obj 449 235 pack;
#X obj 447 208 counter 7;
#X obj 451 258 route 0 1 2 3 4 5 6 7;
#X obj 386 293 windowed-buffer;
#X obj 586 292 windowed-buffer;
#X obj 485 292 windowed-buffer;
#X obj 331 412 catch~ buffer-out;
#X obj 323 319 windowed-buffer;
#X obj 430 319 windowed-buffer;
#X obj 630 318 windowed-buffer;
#X obj 529 318 windowed-buffer;
#X obj 335 148 r grain-size;
#X obj 335 169 / 8;
#N canvas 495 233 450 300 flip-axis 0;
#X obj 184 101 tgl 15 0 empty empty empty 17 7 0 10 -262144 -1 -1 1
1;
#X obj 222 67 inlet;
#X obj 201 147 gate 2;
#X obj 216 242 outlet;
#X obj 203 125 + 1;
#X obj 258 184 - 1;
#X obj 259 209 abs;
#X obj 186 181 bng 15 250 50 0 empty empty empty 17 7 0 10 -262144
-1 -1;
#X obj 230 183 bng 15 250 50 0 empty empty empty 17 7 0 10 -262144
-1 -1;
#X obj 276 30 inlet;
#X obj 145 27 loadbang;
#X msg 149 52 0;
#X connect 0 0 4 0;
#X connect 1 0 2 1;
#X connect 2 0 3 0;
#X connect 2 0 7 0;
#X connect 2 1 5 0;
#X connect 2 1 8 0;
#X connect 4 0 2 0;
#X connect 5 0 6 0;
#X connect 6 0 3 0;
#X connect 9 0 0 0;
#X connect 10 0 11 0;
#X connect 11 0 0 0;
#X coords 0 -1 1 1 100 17 1 100 100;
#X restore 143 83 pd flip-axis;
#X obj 52 205 t f f;
#X obj 65 234 *;
#X obj 161 60 normalize 100;
#X obj 66 261 * 0.5;
#X obj 365 37 r x-resolution;
#X obj 106 -6 inlet;
#X obj 154 -6 inlet;
#N canvas 495 233 450 300 flip-axis 0;
#X obj 184 101 tgl 15 0 empty empty empty 17 7 0 10 -262144 -1 -1 0
1;
#X obj 222 67 inlet;
#X obj 201 147 gate 2;
#X obj 216 242 outlet;
#X obj 203 125 + 1;
#X obj 258 184 - 1;
#X obj 259 209 abs;
#X obj 186 181 bng 15 250 50 0 empty empty empty 17 7 0 10 -262144
-1 -1;
#X obj 230 183 bng 15 250 50 0 empty empty empty 17 7 0 10 -262144
-1 -1;
#X obj 276 30 inlet;
#X obj 151 31 loadbang;
#X msg 158 60 0;
#X connect 0 0 4 0;
#X connect 1 0 2 1;
#X connect 2 0 3 0;
#X connect 2 0 7 0;
#X connect 2 1 5 0;
#X connect 2 1 8 0;
#X connect 4 0 2 0;
#X connect 5 0 6 0;
#X connect 6 0 3 0;
#X connect 9 0 0 0;
#X connect 10 0 11 0;
#X connect 11 0 0 0;
#X coords 0 -1 1 1 100 17 1 100 100;
#X restore 320 94 pd flip-axis;
#X obj 250 60 r flip-y;
#X obj 427 67 r flip-x;
#X floatatom 322 125 5 0 0 0 - - -;
#X obj 153 263 s y-bar;
#X obj 216 241 s x-bar;
#X obj 48 156 r y-bar-out;
#X obj 163 124 r x-bar-out;
#X obj 330 4 r reset-axes;
#N canvas 580 145 778 328 presets 0;
#X obj 350 9 r preset;
#X obj 294 279 outlet;
#X obj 49 149 openpanel;
#X msg 49 127 bang;
#X obj 342 41 sel 0 1;
#X msg 49 172 set read -resize \$1 schumann;
#X obj 227 94 openpanel;
#X msg 227 72 bang;
#X msg 227 117 set read -resize \$1 schumann;
#X obj 426 90 openpanel;
#X msg 426 68 bang;
#X msg 426 113 set read -resize \$1 schumann;
#X obj 383 284 outlet;
#X obj 35 18 r set-preset1;
#X obj 429 46 r set-preset3;
#X obj 221 46 r set-preset2;
#X msg 362 196 read -resize /home/jwmatthys/ciclop_audio/chimes.wav
schumann;
#X msg 48 200 read -resize /home/jwmatthys/ciclop_audio/beethoven.wav
schumann;
#X msg 228 140 read -resize /home/jwmatthys/ciclop_audio/tear.wav schumann
;
#X connect 0 0 4 0;
#X connect 2 0 5 0;
#X connect 2 0 12 0;
#X connect 3 0 2 0;
#X connect 4 0 17 0;
#X connect 4 1 18 0;
#X connect 4 2 16 0;
#X connect 5 0 17 0;
#X connect 6 0 8 0;
#X connect 6 0 12 0;
#X connect 7 0 6 0;
#X connect 8 0 18 0;
#X connect 9 0 11 0;
#X connect 9 0 12 0;
#X connect 10 0 9 0;
#X connect 11 0 16 0;
#X connect 13 0 3 0;
#X connect 14 0 10 0;
#X connect 15 0 7 0;
#X connect 16 0 1 0;
#X connect 17 0 1 0;
#X connect 18 0 1 0;
#X restore 657 122 pd presets;
#X obj 726 149 print;
#X obj 225 16 r y-resolution;
#X obj 688 393 key;
#X obj 668 458 bng 15 250 50 0 empty empty empty 17 7 0 10 -262144
-1 -1;
#X obj 661 484 s vol-toggle;
#X obj 673 426 sel 32 49 50 51 33 64 35;
#X msg 741 35 \; pd dsp 1 \; init-grain-size 1000 \; init-x-resolution
5000;
#X obj 81 310 * 1;
#X obj 314 445 *~ 1;
#X connect 0 0 1 0;
#X connect 2 0 55 0;
#X connect 3 0 18 1;
#X connect 4 0 3 1;
#X connect 9 0 5 0;
#X connect 10 0 39 0;
#X connect 11 0 19 0;
#X connect 12 0 11 0;
#X connect 13 0 14 0;
#X connect 13 1 11 1;
#X connect 14 0 12 0;
#X connect 18 0 20 0;
#X connect 19 0 18 0;
#X connect 20 0 15 0;
#X connect 20 1 21 0;
#X connect 20 2 23 0;
#X connect 20 3 22 0;
#X connect 20 4 25 0;
#X connect 20 5 26 0;
#X connect 20 6 28 0;
#X connect 20 7 27 0;
#X connect 24 0 57 0;
#X connect 29 0 30 0;
#X connect 30 0 13 0;
#X connect 31 0 43 0;
#X connect 32 0 33 0;
#X connect 32 1 33 1;
#X connect 33 0 35 0;
#X connect 34 0 31 0;
#X connect 35 0 56 0;
#X connect 36 0 10 1;
#X connect 37 0 10 0;
#X connect 38 0 34 0;
#X connect 39 0 42 0;
#X connect 39 0 44 0;
#X connect 40 0 31 1;
#X connect 41 0 39 1;
#X connect 45 0 32 0;
#X connect 46 0 3 0;
#X connect 47 0 34 2;
#X connect 47 0 10 2;
#X connect 48 0 0 0;
#X connect 48 1 49 0;
#X connect 50 0 34 1;
#X connect 51 0 54 0;
#X connect 52 0 53 0;
#X connect 54 0 52 0;
#X connect 56 0 9 0;
#X connect 57 0 16 0;
#X connect 57 0 16 1;
