#N canvas 643 340 450 300 10;
#X obj 58 216 udpsend;
#X obj 84 106 pack;
#X obj 301 164 udpreceive 6499;
#X obj 303 192 unpack;
#X floatatom 283 225 5 0 0 0 - - -;
#X floatatom 337 226 5 0 0 0 - - -;
#X obj 85 26 tgl 15 0 empty empty empty 17 7 0 10 -262144 -1 -1 0 1
;
#X msg 87 175 connect 255.255.255.255 6499;
#X msg 270 266 \; pd dsp \$1;
#X obj 277 246 >= 0;
#X obj 90 48 countdown 6;
#X connect 1 0 0 0;
#X connect 2 0 3 0;
#X connect 3 0 4 0;
#X connect 3 1 5 0;
#X connect 4 0 9 0;
#X connect 6 0 10 0;
#X connect 7 0 0 0;
#X connect 9 0 8 0;
#X connect 10 0 1 0;
#X connect 10 1 1 1;
