#N canvas 653 110 450 300 10;
#X obj 154 81 metro 1000;
#X obj 146 17 tgl 15 0 empty empty empty 17 7 0 10 -262144 -1 -1 1
1;
#X obj 126 159 / 60;
#X obj 154 130 t f f;
#X obj 185 163 % 60;
#X obj 128 184 int;
#X obj 155 106 int;
#X obj 184 106 - 1;
#X obj 148 41 t f b;
#X obj 256 82 * 60;
#X obj 255 59 f \$1;
#X obj 128 239 outlet;
#X obj 182 238 outlet;
#X obj 148 -8 inlet;
#X obj 291 -14 inlet;
#X obj 128 211 max 0;
#X obj 183 209 max 0;
#X connect 0 0 6 0;
#X connect 1 0 8 0;
#X connect 2 0 5 0;
#X connect 3 0 2 0;
#X connect 3 1 4 0;
#X connect 4 0 16 0;
#X connect 5 0 15 0;
#X connect 6 0 7 0;
#X connect 6 0 3 0;
#X connect 7 0 6 1;
#X connect 8 0 0 0;
#X connect 8 1 10 0;
#X connect 9 0 6 1;
#X connect 10 0 9 0;
#X connect 13 0 1 0;
#X connect 14 0 10 1;
#X connect 15 0 11 0;
#X connect 16 0 12 0;
