#N canvas 309 244 526 370 12;
#X obj 67 112 shell;
#X obj 67 227 prepend;
#X obj 120 173 int;
#X obj 152 173 + 1;
#X obj 152 203 t f f;
#X obj 67 52 t b b;
#X msg 152 143 0;
#X obj 67 257 route 1 2 3;
#X msg 67 82 cat /sys/devices/platform/lis3lv02d/position | tr -d "()"
;
#X obj 67 142 t f b;
#X obj 67 287 outlet;
#X obj 117 287 outlet;
#X obj 168 287 outlet;
#X obj 67 22 inlet;
#X text 287 150 bang to output accel data;
#X connect 0 0 9 0;
#X connect 1 0 7 0;
#X connect 2 0 3 0;
#X connect 3 0 4 0;
#X connect 4 0 2 1;
#X connect 4 1 1 1;
#X connect 5 0 8 0;
#X connect 5 1 6 0;
#X connect 6 0 2 1;
#X connect 7 0 10 0;
#X connect 7 1 11 0;
#X connect 7 2 12 0;
#X connect 8 0 0 0;
#X connect 9 0 1 0;
#X connect 9 1 2 0;
#X connect 13 0 5 0;
