#N canvas 59 24 465 379 12;
#X obj 160 25 inlet;
#X obj 293 54 inlet;
#X text 344 53 bang to reset;
#X msg 280 83 bang;
#X obj 280 147 max;
#X floatatom 280 179 5 0 0 0 - - -;
#X obj 160 250 /;
#X msg 280 115 0;
#X floatatom 344 169 5 0 0 0 - - -;
#X obj 315 145 min;
#X msg 344 115 1000;
#X obj 310 211 -;
#X obj 160 218 -;
#X obj 160 89 t f f f;
#X obj 344 83 loadbang;
#X obj 160 282 clip 0 1;
#X obj 223 25 inlet;
#X text 270 24 change moving avg size;
#X obj 160 314 outlet;
#X obj 160 57 mavg \$1;
#X text 12 24 \$1: moving avg size;
#X connect 0 0 19 0;
#X connect 1 0 3 0;
#X connect 3 0 7 0;
#X connect 3 0 10 0;
#X connect 4 0 5 0;
#X connect 5 0 4 1;
#X connect 5 0 11 0;
#X connect 6 0 15 0;
#X connect 7 0 5 0;
#X connect 8 0 9 1;
#X connect 8 0 11 1;
#X connect 8 0 12 1;
#X connect 9 0 8 0;
#X connect 10 0 8 0;
#X connect 11 0 6 1;
#X connect 12 0 6 0;
#X connect 13 0 12 0;
#X connect 13 1 9 0;
#X connect 13 2 4 0;
#X connect 14 0 7 0;
#X connect 14 0 10 0;
#X connect 15 0 18 0;
#X connect 16 0 19 1;
#X connect 19 0 13 0;
