#N canvas 301 186 835 411 10;
#X declare -lib mrpeach;
#X declare -lib apple;
#X obj 231 265 tabplay~ schumann;
#X obj 657 149 soundfiler;
#N canvas 0 0 450 300 (subpatch) 0;
#X array schumann 854260 float 2;
#X coords 0 1 854260 -1 200 140 1;
#X restore 608 235 graph;
#X obj 658 173 s size;
#X obj 98 133 hsl 400 15 0 1 0 0 empty empty empty -2 -8 0 10 -257985
-1 -1 0 1;
#X obj 743 12 loadbang;
#X obj 141 167 *;
#X obj 192 178 r size;
#X obj 230 351 ezdac~;
#X obj 432 157 tgl 15 0 empty empty empty 17 7 0 10 -262144 -1 -1 0
1;
#X obj 408 206 gate 2;
#X obj 409 181 + 1;
#X obj 276 201 t f b;
#X obj 392 289 tabplay~ schumann;
#X msg 394 245 \$1 100;
#X msg 232 221 \$1 100;
#X obj 229 326 vcf~ 1;
#X obj 318 324 vcf~ 1;
#X obj 39 55 vsl 15 128 0 1 0 0 empty empty empty 0 -9 0 10 -4034 -1
-1 0 1;
#X obj 66 291 line~;
#X obj 471 26 import mrpeach;
#X obj 97 79 graph_norm accx;
#X obj 528 114 table accx;
#X obj 528 139 table accy;
#X obj 87 52 graph_norm accy;
#X obj 199 105 bng 15 250 50 0 empty empty empty 17 7 0 10 -262144
-1 -1;
#X obj 48 192 t f f;
#X obj 54 218 *;
#N canvas 0 0 450 300 window 0;
#N canvas 0 0 450 300 (subpatch) 0;
#X array window 100 float 0;
#X coords 0 1 99 0 300 100 1;
#X restore 92 321 graph;
#X obj 388 175 osc~;
#X obj 388 200 *~ -0.5;
#X obj 388 224 +~ 0.5;
#X obj 47 98 r window-size;
#X obj 48 183 /;
#X obj 137 152 samplerate~;
#X obj 48 261 s window-sec;
#X obj 187 214 swap;
#X obj 187 238 /;
#X obj 187 262 s window-hz;
#X obj 59 211 * 1000;
#X obj 59 238 s window-msec;
#X obj 48 125 t f b f;
#X msg 183 102 resize \$1;
#X obj 183 126 s \$0-hann;
#X obj 340 115 r window-hz;
#X msg 392 140 0;
#X obj 340 141 t f b;
#X text 25 18 calculate Hann window table (variable window size) and
constants window-hz (fundamental frequency of analysis) \, window-sec
and window-msec (analysis window size in seconds and msec).;
#X obj 341 257 tabwrite~ window;
#X connect 1 0 2 0;
#X connect 2 0 3 0;
#X connect 3 0 20 0;
#X connect 4 0 13 0;
#X connect 5 0 7 0;
#X connect 5 0 11 0;
#X connect 6 0 5 1;
#X connect 6 0 8 1;
#X connect 8 0 9 0;
#X connect 8 1 9 1;
#X connect 9 0 10 0;
#X connect 11 0 12 0;
#X connect 13 0 5 0;
#X connect 13 0 8 0;
#X connect 13 1 6 0;
#X connect 13 2 14 0;
#X connect 14 0 15 0;
#X connect 16 0 18 0;
#X connect 17 0 1 1;
#X connect 18 0 1 0;
#X connect 18 1 17 0;
#X connect 18 1 20 0;
#X restore 541 231 pd window;
#X msg 741 35 \; pd dsp 1 \; window-size 100;
#N canvas 59 24 450 300 touchOSC 0;
#X obj 234 11 udpreceive 8000;
#X obj 232 37 unpackOSC;
#X obj 231 63 routeOSC /accxyz;
#X obj 231 90 unpack f f f;
#X obj 224 122 outlet;
#X obj 270 122 outlet;
#X obj 316 122 outlet;
#X connect 0 0 1 0;
#X connect 1 0 2 0;
#X connect 2 0 3 0;
#X connect 3 0 4 0;
#X connect 3 1 5 0;
#X connect 3 2 6 0;
#X restore 258 12 pd touchOSC;
#X msg 130 26 100;
#X obj 45 7 loadbang;
#X text 160 103 reset;
#X obj 392 269 line 0 200;
#X obj 230 245 line 0 200;
#X msg 114 3 10000;
#X obj 54 239 * 10000;
#X msg 652 124 read -resize poet.wav schumann;
#X obj 258 72 tgl 15 0 empty empty empty 17 7 0 10 -262144 -1 -1 0
1;
#X obj 277 180 f;
#X msg 632 100 read -resize \$1 schumann;
#X obj 631 75 openpanel;
#X obj 633 56 bng 15 250 50 0 empty empty empty 17 7 0 10 -262144 -1
-1;
#X obj 262 99 metro 25;
#X msg 56 263 \$1 100;
#X obj 351 10 apple-tilt;
#X connect 0 0 16 0;
#X connect 1 0 3 0;
#X connect 4 0 6 0;
#X connect 5 0 29 0;
#X connect 5 0 38 0;
#X connect 6 0 40 0;
#X connect 7 0 6 1;
#X connect 9 0 11 0;
#X connect 10 0 15 0;
#X connect 10 1 14 0;
#X connect 11 0 10 0;
#X connect 12 0 10 1;
#X connect 12 1 9 0;
#X connect 13 0 17 0;
#X connect 14 0 34 0;
#X connect 15 0 35 0;
#X connect 16 0 8 0;
#X connect 17 0 8 1;
#X connect 18 0 26 0;
#X connect 19 0 16 1;
#X connect 19 0 17 1;
#X connect 21 0 4 0;
#X connect 24 0 18 0;
#X connect 25 0 24 2;
#X connect 25 0 21 2;
#X connect 26 0 27 0;
#X connect 26 1 27 1;
#X connect 27 0 37 0;
#X connect 30 0 21 0;
#X connect 30 1 24 0;
#X connect 31 0 24 1;
#X connect 32 0 36 0;
#X connect 32 0 31 0;
#X connect 34 0 13 0;
#X connect 35 0 0 0;
#X connect 36 0 21 1;
#X connect 37 0 45 0;
#X connect 38 0 1 0;
#X connect 39 0 44 0;
#X connect 40 0 12 0;
#X connect 41 0 1 0;
#X connect 42 0 41 0;
#X connect 43 0 42 0;
#X connect 44 0 40 0;
#X connect 45 0 19 0;
