#N canvas 637 167 470 290 10;
#X declare -lib mrpeach;
#X declare -lib mrpeach;
#X floatatom 405 191 7 1 2000 0 - init-grain-size grain-size;
#X text 340 189 grain-size;
#X floatatom 406 212 7 1 2000 0 - init-x-resolution x-resolution;
#X text 328 211 x-resolution;
#X obj 16 165 hsl 400 15 0 1 0 0 x-bar-out x-bar empty -2 -8 0 10 -257985
-1 -1 0 1;
#X obj 192 -6 vsl 15 128 0 1 0 0 y-bar-out y-bar empty 0 -9 0 10 -4034
-1 -1 0 1;
#N canvas 588 244 450 300 pick-input 0;
#X obj 277 -27 apple-tilt;
#X obj 265 -58 touch-osc 8000;
#X obj 63 109 hradio 15 1 0 3 empty empty empty 0 -8 0 10 -262144 -1
-1 0;
#X obj 63 124 hradio 15 1 0 3 empty empty empty 0 -8 0 10 -262144 -1
-1 1;
#X obj 20 37 vradio 15 1 0 3 empty empty empty 0 -8 0 10 -262144 -1
-1 0;
#X text 38 36 apple tilt;
#X text 39 51 touchOSC;
#X text 39 66 other;
#X text 10 107 file pos;
#X text 21 122 volume;
#X obj 117 109 tgl 15 0 flip-x empty empty 17 7 0 10 -262144 -1 -1
0 1;
#X obj 117 124 tgl 15 0 flip-y empty empty 17 7 0 10 -262144 -1 -1
0 1;
#X text 110 91 flip;
#X text 67 91 x;
#X text 82 91 y;
#X text 96 91 z;
#X obj 228 14 switch 3;
#X obj 292 14 switch 3;
#X obj 352 13 switch 3;
#N canvas 59 24 690 486 other 0;
#X obj 109 172 outlet;
#X obj 172 172 outlet;
#X obj 235 171 outlet;
#X text 148 120 [ build your custom input here ];
#X obj 252 57 unpackOSC;
#X obj 57 36 import mrpeach;
#X obj 254 31 udpreceive 8001;
#X obj 251 83 routeOSC /oscdroid;
#X obj 355 176 routeOSC /multitouch;
#X obj 355 214 routeOSC /touch /event /distance;
#X obj 294 241 unpack f f f f;
#X obj 519 268 s init-grain-size;
#X obj 112 147 f;
#X obj 171 148 f;
#X obj 212 252 sel 0;
#X obj 180 233 bng 15 250 50 0 empty empty empty 17 7 0 10 -262144
-1 -1;
#X obj 344 264 - 0.5;
#X obj 344 286 abs;
#X obj 346 313 * 2;
#X obj 348 337 - 1;
#X obj 350 364 abs;
#X connect 4 0 7 0;
#X connect 6 0 4 0;
#X connect 7 0 8 0;
#X connect 8 0 9 0;
#X connect 9 0 10 0;
#X connect 9 2 11 0;
#X connect 10 0 14 0;
#X connect 10 1 12 1;
#X connect 10 2 16 0;
#X connect 12 0 0 0;
#X connect 13 0 1 0;
#X connect 14 0 15 0;
#X connect 15 0 13 0;
#X connect 15 0 12 0;
#X connect 16 0 17 0;
#X connect 17 0 18 0;
#X connect 18 0 19 0;
#X connect 19 0 20 0;
#X connect 20 0 13 1;
#X restore 375 -43 pd other;
#X obj 191 -28 + 1;
#X floatatom 231 45 5 0 0 0 - - -;
#X floatatom 293 46 5 0 0 0 - - -;
#X floatatom 351 44 5 0 0 0 - - -;
#X obj 231 72 switch 3;
#X obj 295 72 switch 3;
#X obj 216 137 + 1;
#X obj 216 160 + 1;
#X text 32 8 CHOOSE INPUT;
#X text 12 78 ---------------------;
#X obj 59 -40 loadbang;
#X msg 126 -23 1;
#X obj 187 92 sel 2;
#X msg 335 127 \; x-resolution 1 \; y-resolution 1;
#X msg 352 78 \; x-resolution 1000 \; y-resolution 100;
#X msg 20 -31 0;
#X obj 245 179 audio-guts;
#X connect 0 0 16 1;
#X connect 0 1 17 1;
#X connect 0 2 18 1;
#X connect 1 0 16 2;
#X connect 1 1 17 2;
#X connect 1 2 18 2;
#X connect 2 0 26 0;
#X connect 3 0 27 0;
#X connect 4 0 20 0;
#X connect 4 0 32 0;
#X connect 16 0 21 0;
#X connect 17 0 22 0;
#X connect 18 0 23 0;
#X connect 19 0 16 3;
#X connect 19 1 17 3;
#X connect 19 2 18 3;
#X connect 20 0 16 0;
#X connect 20 0 17 0;
#X connect 20 0 18 0;
#X connect 21 0 24 1;
#X connect 21 0 25 1;
#X connect 22 0 24 2;
#X connect 22 0 25 2;
#X connect 23 0 24 3;
#X connect 23 0 25 3;
#X connect 24 0 36 0;
#X connect 25 0 36 1;
#X connect 26 0 24 0;
#X connect 27 0 25 0;
#X connect 30 0 31 0;
#X connect 30 0 35 0;
#X connect 31 0 3 0;
#X connect 32 0 33 0;
#X connect 32 1 34 0;
#X connect 35 0 4 0;
#X connect 35 0 2 0;
#X coords 0 -1 1 1 160 150 2 0 0;
#X restore 15 -23 pd pick-input;
#X obj 14 189 bng 30 250 50 0 reset-axes empty empty 17 7 0 10 -257985
-1 -1;
#X text 51 194 reset;
#X obj 254 -15 vradio 20 1 0 3 preset pick-preset empty 0 -8 0 10 -262144
-1 -1 0;
#X text 276 -15 musical sound;
#X text 277 5 speech sound;
#X text 277 27 non-human sound;
#X obj 375 -14 bng 15 250 50 0 set-preset1 key-set-preset1 empty 17
7 0 10 -262144 -1 -1;
#X obj 375 9 bng 15 250 50 0 set-preset2 key-set-preset2 empty 17 7
0 10 -262144 -1 -1;
#X obj 375 31 bng 15 250 50 0 set-preset3 key-set-preset3 empty 17
7 0 10 -262144 -1 -1;
#X text 372 -33 set;
#X obj 118 190 tgl 30 0 volume-value vol-toggle empty 17 7 0 10 -261234
-1 -1 0 1;
#X text 154 195 volume on/off (space bar);
#N canvas 0 0 450 300 timer 0;
#X obj 109 122 nbx 1 34 0 60 0 0 empty empty empty 0 -8 0 30 -262144
-1 -1 0 256;
#X obj 168 122 nbx 2 34 -1e+37 1e+37 0 0 empty empty empty 0 -8 0 30
-262144 -1 -1 0 256;
#X obj 109 103 bng 15 250 50 0 empty empty empty 17 7 0 10 -262144
-1 -1;
#X text 127 100 bang to start piece;
#X obj 235 232 udpsend;
#X msg 264 201 connect 255.255.255.255 6499;
#X obj 237 31 t b b;
#X obj 277 142 pack;
#X msg 333 143 list 255 255;
#X msg 318 251 \; pd dsp \$1;
#X obj 336 111 +;
#X obj 316 230 > 0;
#X msg 187 80 set \$1;
#X obj 267 63 countdown 6;
#X connect 0 0 13 1;
#X connect 2 0 6 0;
#X connect 5 0 4 0;
#X connect 6 0 13 0;
#X connect 6 1 5 0;
#X connect 7 0 4 0;
#X connect 8 0 4 0;
#X connect 10 0 11 0;
#X connect 11 0 9 0;
#X connect 12 0 0 0;
#X connect 13 0 7 0;
#X connect 13 0 10 0;
#X connect 13 0 12 0;
#X connect 13 1 1 0;
#X connect 13 1 7 1;
#X connect 13 1 10 1;
#X coords 0 -1 1 1 150 60 2 100 100;
#X restore 268 83 pd timer;
#X text 330 62 time remaining;
#X text 12 237 rev. 120111;
