#N canvas 75 134 470 290 10;
#X declare -lib mrpeach;
#X declare -lib mrpeach;
#X floatatom 405 191 7 1 2000 0 - init-grain-size grain-size;
#X text 340 189 grain-size;
#X floatatom 406 212 7 1 2000 0 - init-x-resolution x-resolution;
#X text 328 211 x-resolution;
#X obj 16 165 hsl 400 15 0 1 0 0 x-bar-out x-bar empty -2 -8 0 10 -257985
-1 -1 22577 1;
#X obj 192 -6 vsl 15 128 0 1 0 0 y-bar-out y-bar empty 0 -9 0 10 -4034
-1 -1 4744 1;
#N canvas 582 256 634 374 pick-input 0;
#X obj 292 -75 apple-tilt;
#X obj 280 -106 touch-osc 8000;
#X obj 63 109 hradio 15 1 0 3 empty empty empty 0 -8 0 10 -262144 -1
-1 0;
#X obj 63 124 hradio 15 1 0 3 empty empty empty 0 -8 0 10 -262144 -1
-1 1;
#X obj 20 37 vradio 15 1 0 3 empty empty empty 0 -8 0 10 -262144 -1
-1 2;
#X text 38 36 apple tilt;
#X text 39 51 touchOSC;
#X text 39 66 other;
#X text 10 107 file pos;
#X text 21 122 volume;
#X obj 117 109 tgl 15 0 flip-x empty empty 17 7 0 10 -262144 -1 -1
0 1;
#X obj 117 124 tgl 15 0 flip-y empty empty 17 7 0 10 -262144 -1 -1
0 1;
#X text 110 91 flip;
#X text 67 91 x;
#X text 82 91 y;
#X text 96 91 z;
#X obj 243 -34 switch 3;
#X obj 307 -34 switch 3;
#X obj 367 -35 switch 3;
#X obj 206 -76 + 1;
#X floatatom 231 45 5 0 0 0 - - -;
#X floatatom 293 46 5 0 0 0 - - -;
#X floatatom 351 44 5 0 0 0 - - -;
#X obj 231 72 switch 3;
#X obj 295 72 switch 3;
#X obj 216 137 + 1;
#X obj 216 160 + 1;
#X text 32 8 CHOOSE INPUT;
#X text 12 78 ---------------------;
#X obj 59 -40 loadbang;
#X msg 126 -23 1;
#X obj 187 92 sel 2;
#X msg 335 127 \; x-resolution 1 \; y-resolution 1;
#X msg 352 78 \; x-resolution 1000 \; y-resolution 100;
#X msg 20 -31 0;
#X obj 245 179 audio-guts;
#X obj 390 -91 hp-accel;
#X obj 389 -117 metro 50;
#X obj 388 -138 loadbang;
#X obj 218 -1 kalman 50 1 5;
#X obj 313 2 kalman 50 1;
#X obj 394 1 kalman 50 1;
#X connect 0 0 16 1;
#X connect 0 1 17 1;
#X connect 0 2 18 1;
#X connect 1 0 16 2;
#X connect 1 1 17 2;
#X connect 1 2 18 2;
#X connect 2 0 25 0;
#X connect 3 0 26 0;
#X connect 4 0 19 0;
#X connect 4 0 31 0;
#X connect 16 0 39 0;
#X connect 17 0 40 0;
#X connect 18 0 41 0;
#X connect 19 0 16 0;
#X connect 19 0 17 0;
#X connect 19 0 18 0;
#X connect 20 0 23 1;
#X connect 20 0 24 1;
#X connect 21 0 23 2;
#X connect 21 0 24 2;
#X connect 22 0 23 3;
#X connect 22 0 24 3;
#X connect 23 0 35 0;
#X connect 24 0 35 1;
#X connect 25 0 23 0;
#X connect 26 0 24 0;
#X connect 29 0 30 0;
#X connect 29 0 34 0;
#X connect 30 0 3 0;
#X connect 31 0 32 0;
#X connect 31 1 33 0;
#X connect 34 0 4 0;
#X connect 34 0 2 0;
#X connect 36 0 16 3;
#X connect 36 1 17 3;
#X connect 36 2 18 3;
#X connect 37 0 36 0;
#X connect 38 0 37 0;
#X connect 39 0 20 0;
#X connect 40 0 21 0;
#X connect 41 0 22 0;
#X coords 0 -1 1 1 160 150 2 0 0;
#X restore 15 -23 pd pick-input;
#X obj 14 189 bng 30 250 50 0 reset-axes empty empty 17 7 0 10 -257985
-1 -1;
#X text 51 194 reset;
#X obj 249 -18 vradio 20 1 0 3 preset pick-preset empty 0 -8 0 10 -262144
-1 -1 0;
#X text 271 -18 musical sound;
#X text 272 2 speech sound;
#X text 272 24 non-human sound;
#X obj 370 -17 bng 15 250 50 0 set-preset1 key-set-preset1 empty 17
7 0 10 -262144 -1 -1;
#X obj 370 6 bng 15 250 50 0 set-preset2 key-set-preset2 empty 17 7
0 10 -262144 -1 -1;
#X obj 370 28 bng 15 250 50 0 set-preset3 key-set-preset3 empty 17
7 0 10 -262144 -1 -1;
#X text 367 -36 set;
#X obj 118 190 tgl 30 0 volume-value vol-toggle empty 17 7 0 10 -261234
-1 -1 1 1;
#X text 154 195 volume on/off (space bar);
#N canvas 0 22 450 300 timer 0;
#X obj 283 94 udpreceive 6499;
#X obj 285 122 unpack;
#X floatatom 265 155 5 0 0 0 - - -;
#X floatatom 319 156 5 0 0 0 - - -;
#X msg 259 218 \; pd dsp \$1;
#X obj 109 113 nbx 1 34 -1e+37 1e+37 0 0 empty empty empty 0 -8 0 30
-262144 -1 -1 0 256;
#X obj 168 113 nbx 2 34 -1e+37 1e+37 0 0 empty empty empty 0 -8 0 30
-262144 -1 -1 0 256;
#X obj 353 194 +;
#X obj 332 25 import mrpeach;
#X obj 350 222 > 0;
#X connect 0 0 1 0;
#X connect 1 0 2 0;
#X connect 1 1 3 0;
#X connect 2 0 5 0;
#X connect 2 0 7 0;
#X connect 3 0 6 0;
#X connect 3 0 7 1;
#X connect 7 0 9 0;
#X connect 9 0 4 0;
#X coords 0 -1 1 1 150 60 2 100 100;
#X restore 243 79 pd timer;
#X text 275 56 time remaining;
#X text 12 231 rev 120111;
