#N canvas 59 24 450 300 10;
#X obj 191 196 tabplay~ window;
#X obj 147 49 inlet;
#X obj 147 72 t f b;
#X obj 155 227 *~;
#X obj 302 76 r new-buffer;
#X obj 303 98 prepend set;
#X obj 147 141 tabplay~ schumann;
#X obj 151 257 throw~ buffer-out;
#X connect 0 0 3 1;
#X connect 1 0 2 0;
#X connect 2 0 6 0;
#X connect 2 1 0 0;
#X connect 3 0 7 0;
#X connect 4 0 5 0;
#X connect 5 0 6 0;
#X connect 6 0 3 0;
