#N canvas 42 252 519 635 10;
#X declare -lib mrpeach;
#N canvas 580 24 1162 944 subpatch 0;
#X obj 92 562 spigot;
#X obj 125 538 r 1st;
#X obj 160 563 spigot;
#X obj 227 564 spigot;
#X obj 293 565 spigot;
#X obj 364 565 spigot;
#X obj 441 567 spigot;
#X obj 515 567 spigot;
#X obj 592 568 spigot;
#X obj 193 539 r 2nd;
#X obj 260 540 r 3rd;
#X obj 326 541 r 4th;
#X obj 397 541 r 5th;
#X obj 474 543 r 6th;
#X obj 548 543 r 7th;
#X obj 625 544 r 8th;
#X obj 85 124 metro;
#X obj 112 97 expr 30000/$f1;
#X obj 194 484 route 1 2 3 4 5 6 7 8 0;
#X obj 819 612 switch 8;
#X obj 592 685 r length;
#X obj 824 567 route 1 2 3 4 5 6 7 8;
#X obj 785 828 + 1;
#X obj 785 804 f;
#X obj 92 618 unpack 0 0;
#X floatatom 785 857 5 0 0 0 - - -;
#X obj 146 735 * 12;
#X obj 131 767 +;
#N canvas 552 175 316 514 dac 0;
#X obj 13 62 inlet~;
#X obj 12 294 *~;
#X obj 91 185 *~;
#X obj 14 365 hip~ 5;
#X obj 13 427 dac~;
#X obj 90 152 line~;
#X msg 90 128 \$1 20;
#X obj 13 328 *~;
#X obj 90 389 pvu~;
#X obj 94 268 sel 0;
#X msg 94 295 1;
#X msg 129 295 0;
#X obj 94 231 r mute;
#X obj 90 427 s vu;
#X obj 90 99 r vol;
#X connect 0 0 1 0;
#X connect 1 0 7 0;
#X connect 2 0 1 1;
#X connect 3 0 4 0;
#X connect 3 0 4 1;
#X connect 3 0 8 0;
#X connect 5 0 2 0;
#X connect 5 0 2 1;
#X connect 6 0 5 0;
#X connect 7 0 3 0;
#X connect 8 0 13 0;
#X connect 9 0 10 0;
#X connect 9 1 11 0;
#X connect 10 0 7 1;
#X connect 11 0 7 1;
#X connect 12 0 9 0;
#X connect 14 0 6 0;
#X restore 132 894 pd dac;
#X obj 146 649 r octave;
#X obj 217 141 bng 15 100 50 0 empty empty empty 17 7 0 10 -262144
-1 -1;
#X obj 138 425 tabread val1;
#X obj 222 426 tabread val2;
#X obj 310 426 tabread val3;
#X obj 92 648 moses 1;
#X obj 289 265 texttest;
#X obj 217 316 int;
#X obj 246 316 + 1;
#X obj 217 353 moses;
#X obj 580 202 tgl 15 0 empty empty empty 17 7 0 10 -262144 -1 -1 0
1;
#X text 577 144 looper;
#X obj 232 245 spigot;
#X msg 232 282 0;
#X obj 217 388 t f f f f;
#X obj 398 426 tabread val4;
#X obj 194 460 pack f f f f;
#X obj 824 536 pack 0 0;
#X obj 790 501 unpack 0 0 0;
#X obj 592 787 spigot;
#X obj 625 740 sel 0;
#X msg 625 763 1;
#X msg 655 763 0;
#X obj 592 710 t b f;
#X obj 901 646 bng 15 250 50 0 empty empty empty 17 7 0 10 -262144
-1 -1;
#X obj 819 647 t b b f;
#X obj 334 323 f;
#X obj 334 293 t b f;
#X obj 883 845 bng 15 250 50 0 empty empty empty 17 7 0 10 -262144
-1 -1;
#X obj 883 868 spigot;
#X obj 785 755 bng 15 250 50 0 empty empty empty 17 7 0 10 -262144
-1 -1;
#X obj 220 847 instrument2;
#X obj 131 847 instrument1;
#X obj 729 89 r dsp;
#X msg 729 118 \; pd dsp \$1;
#X obj 309 847 instrument3;
#X obj 131 814 demux 0 1 2;
#X obj 146 680 expr 2-$f1;
#X obj 280 44 udpreceive 9999;
#X obj 280 124 metro;
#X obj 307 96 expr 30000/$f1;
#X obj 280 98 tgl 15 0 empty empty empty 17 7 0 10 -262144 -1 -1 0
1;
#X text 80 20 internal metronome;
#X obj 729 176 import mrpeach;
#X obj 194 790 r instr;
#X obj 307 72 init 126;
#X text 364 70 tempo \, bpm;
#X text 278 19 external metronome;
#X obj 112 73 init 126;
#X obj 85 44 r int-metro-start;
#X floatatom 161 707 5 0 0 0 - - -;
#X obj 230 211 s metro;
#X obj 580 171 r looper;
#X obj 217 183 del 0;
#X obj 244 159 r metro-delay;
#X connect 0 0 24 0;
#X connect 1 0 0 1;
#X connect 2 0 24 0;
#X connect 3 0 24 0;
#X connect 4 0 24 0;
#X connect 5 0 24 0;
#X connect 6 0 24 0;
#X connect 7 0 24 0;
#X connect 8 0 24 0;
#X connect 9 0 2 1;
#X connect 10 0 3 1;
#X connect 11 0 4 1;
#X connect 12 0 5 1;
#X connect 13 0 6 1;
#X connect 14 0 7 1;
#X connect 15 0 8 1;
#X connect 16 0 30 0;
#X connect 17 0 16 1;
#X connect 18 0 0 0;
#X connect 18 0 47 0;
#X connect 18 1 2 0;
#X connect 18 1 47 0;
#X connect 18 2 3 0;
#X connect 18 2 47 0;
#X connect 18 3 4 0;
#X connect 18 3 47 0;
#X connect 18 4 5 0;
#X connect 18 4 47 0;
#X connect 18 5 6 0;
#X connect 18 5 47 0;
#X connect 18 6 7 0;
#X connect 18 6 47 0;
#X connect 18 7 8 0;
#X connect 18 7 47 0;
#X connect 18 8 47 0;
#X connect 19 0 53 0;
#X connect 19 0 54 0;
#X connect 20 0 52 0;
#X connect 21 0 19 1;
#X connect 21 1 19 2;
#X connect 21 2 19 3;
#X connect 21 3 19 4;
#X connect 21 4 19 5;
#X connect 21 5 19 6;
#X connect 21 6 19 7;
#X connect 21 7 19 8;
#X connect 22 0 19 0;
#X connect 22 0 25 0;
#X connect 22 0 57 0;
#X connect 23 0 22 0;
#X connect 24 0 34 0;
#X connect 26 0 27 1;
#X connect 27 0 65 0;
#X connect 29 0 66 0;
#X connect 30 0 82 0;
#X connect 31 0 45 0;
#X connect 32 0 45 1;
#X connect 33 0 45 2;
#X connect 34 1 27 0;
#X connect 35 0 42 0;
#X connect 35 1 56 0;
#X connect 36 0 37 0;
#X connect 36 0 38 0;
#X connect 37 0 36 1;
#X connect 38 0 43 0;
#X connect 39 0 41 1;
#X connect 39 0 49 0;
#X connect 39 0 58 1;
#X connect 41 0 42 0;
#X connect 42 0 36 1;
#X connect 42 0 59 0;
#X connect 43 0 31 0;
#X connect 43 1 32 0;
#X connect 43 2 33 0;
#X connect 43 3 44 0;
#X connect 44 0 45 3;
#X connect 45 0 18 0;
#X connect 46 0 21 0;
#X connect 47 1 46 0;
#X connect 47 2 46 1;
#X connect 48 0 23 0;
#X connect 49 0 50 0;
#X connect 49 1 51 0;
#X connect 50 0 48 1;
#X connect 51 0 48 1;
#X connect 52 0 48 0;
#X connect 52 1 23 1;
#X connect 54 1 41 0;
#X connect 54 2 38 1;
#X connect 55 0 38 1;
#X connect 56 0 55 0;
#X connect 56 1 55 1;
#X connect 57 0 58 0;
#X connect 58 0 55 0;
#X connect 59 0 23 0;
#X connect 60 0 28 0;
#X connect 61 0 28 0;
#X connect 62 0 63 0;
#X connect 64 0 28 0;
#X connect 65 0 61 0;
#X connect 65 1 60 0;
#X connect 65 2 64 0;
#X connect 66 0 26 0;
#X connect 66 0 79 0;
#X connect 67 0 70 0;
#X connect 68 0 30 0;
#X connect 69 0 68 1;
#X connect 70 0 68 0;
#X connect 73 0 65 1;
#X connect 74 0 69 0;
#X connect 77 0 17 0;
#X connect 78 0 16 0;
#X connect 81 0 39 0;
#X connect 82 0 80 0;
#X connect 82 0 36 0;
#X connect 83 0 82 1;
#X restore 14 558 pd subpatch;
#X obj 60 97 vsl 15 120 0 1 0 0 set-vol init-vol empty 0 -9 0 10 -228856
-1 -1 5950 1;
#X floatatom 60 232 4 0 0 0 - set-vol vol;
#X obj 0 96 tgl 30 0 dsp init-1 empty 17 7 0 10 -191407 -1 -1 1 1;
#X obj 103 97 vu 15 120 vu empty -1 -8 0 10 -66577 -1 1 0;
#X obj 6 205 tgl 15 0 mute init-zero empty 17 7 0 10 -228856 -1 -1
0 1;
#X obj 201 282 vradio 15 1 0 5 octave set-octave empty 0 -8 0 10 -228856
-1 -1 2;
#N canvas 0 0 693 662 init 0;
#X obj 124 24 loadbang;
#X msg 140 406 1;
#X obj 124 499 s init-vol;
#X msg 175 292 0;
#X msg 124 471 0.5;
#X obj 140 434 s init-1;
#X msg 189 237 7;
#X obj 189 264 s init-length;
#X msg 200 184 0;
#X obj 200 210 s init-instr;
#X msg 159 348 2;
#X msg 214 122 120;
#X obj 214 150 s init-tempo;
#X obj 175 319 s init-zero;
#X obj 159 375 s set-octave;
#X connect 0 0 1 0;
#X connect 0 0 4 0;
#X connect 0 0 10 0;
#X connect 0 0 3 0;
#X connect 0 0 6 0;
#X connect 0 0 8 0;
#X connect 0 0 11 0;
#X connect 1 0 5 0;
#X connect 3 0 13 0;
#X connect 4 0 2 0;
#X connect 6 0 7 0;
#X connect 8 0 9 0;
#X connect 10 0 14 0;
#X connect 11 0 12 0;
#X restore 107 558 pd init;
#X obj 107 437 tgl 15 0 1st set-1st empty 17 7 0 10 -228856 -1 -1 1
1;
#X obj 122 437 tgl 15 0 2nd set-2nd empty 17 7 0 10 -228856 -1 -1 1
1;
#X obj 137 437 tgl 15 0 3rd set-3rd empty 17 7 0 10 -228856 -1 -1 1
1;
#X obj 152 437 tgl 15 0 4th set-4th empty 17 7 0 10 -228856 -1 -1 1
1;
#X obj 167 437 tgl 15 0 5th set-5th empty 17 7 0 10 -228856 -1 -1 1
1;
#X obj 182 437 tgl 15 0 6th set-6th empty 17 7 0 10 -228856 -1 -1 1
1;
#X obj 197 437 tgl 15 0 7th set-7th empty 17 7 0 10 -228856 -1 -1 1
1;
#X obj 212 437 tgl 15 0 8th set-8th empty 17 7 0 10 -228856 -1 -1 1
1;
#X obj 106 385 hradio 15 1 0 8 length set-length empty 0 -8 0 10 -228856
-1 -1 7;
#X text 27 385 clip length;
#X text 5 435 notes activated;
#X text 110 409 1;
#X text 126 409 2;
#X text 140 409 3;
#X text 155 409 4;
#X text 169 409 5;
#X text 184 409 6;
#X text 199 409 7;
#X text 214 409 8;
#X text 177 71 current clip;
#X obj 180 96 cnv 15 30 30 empty cliplabel Q 10 15 0 18 -233017 -66577
0;
#X obj 105 312 hradio 15 1 0 3 instr set-instr empty 0 -8 0 10 -228856
-1 -1 0;
#X text 32 310 instrument;
#X text 221 280 +2;
#X text 220 341 -2;
#X obj 428 226 tgl 20 0 int-metro-start init-zero empty 17 7 0 10 -228856
-1 -1 0 1;
#X text 4 181 mute;
#X text 50 70 volume;
#X text -4 70 on/off;
#N canvas 641 431 1120 461 keyboardControl 0;
#X obj 190 48 key;
#X obj 235 200 - 49;
#X obj 280 199 r init-length;
#X obj 235 233 s set-length;
#X obj 190 140 moses 49;
#X obj 235 171 moses 57;
#X text 241 266 clip length;
#X obj 190 78 spigot;
#X obj 223 48 r dsp;
#X obj 20 174 sel 97 115 100;
#X msg 20 203 0;
#X msg 53 203 1;
#X msg 86 203 2;
#X obj 20 239 s set-instr;
#X text 24 267 instrument;
#X obj 119 203 r init-instr;
#X obj 511 136 sel 33 64 35 36 37 94 38 42;
#X obj 511 364 s set-1st;
#X obj 530 340 s set-2nd;
#X obj 550 319 s set-3rd;
#X obj 570 297 s set-4th;
#X obj 590 276 s set-5th;
#X obj 610 255 s set-6th;
#X obj 630 234 s set-7th;
#X obj 650 212 s set-8th;
#X msg 415 167 0;
#X msg 463 168 1;
#X obj 415 140 r none;
#X obj 463 140 r all;
#X obj 415 195 t f;
#X obj 367 140 init 1;
#X floatatom 119 78 5 0 0 0 - - -;
#X obj 744 132 sel 61 45;
#X obj 744 200 f;
#X obj 815 168 r octave;
#X obj 800 200 f;
#X obj 744 259 s set-octave;
#X obj 744 226 - 1;
#X obj 800 225 + 1;
#X text 757 285 octave;
#X text 506 393 note activation;
#X obj 905 126 sel 32;
#X obj 970 126 init 0;
#X text 923 196 looper;
#X obj 905 166 s set-looper;
#X connect 0 0 7 0;
#X connect 0 0 31 0;
#X connect 1 0 3 0;
#X connect 2 0 3 0;
#X connect 4 1 5 0;
#X connect 5 0 1 0;
#X connect 7 0 9 0;
#X connect 7 0 4 0;
#X connect 7 0 16 0;
#X connect 7 0 32 0;
#X connect 7 0 41 0;
#X connect 8 0 7 1;
#X connect 9 0 10 0;
#X connect 9 1 11 0;
#X connect 9 2 12 0;
#X connect 10 0 13 0;
#X connect 11 0 13 0;
#X connect 12 0 13 0;
#X connect 15 0 13 0;
#X connect 16 0 17 0;
#X connect 16 1 18 0;
#X connect 16 2 19 0;
#X connect 16 3 20 0;
#X connect 16 4 21 0;
#X connect 16 5 22 0;
#X connect 16 6 23 0;
#X connect 16 7 24 0;
#X connect 25 0 29 0;
#X connect 26 0 29 0;
#X connect 27 0 25 0;
#X connect 28 0 26 0;
#X connect 29 0 24 0;
#X connect 29 0 23 0;
#X connect 29 0 22 0;
#X connect 29 0 21 0;
#X connect 29 0 20 0;
#X connect 29 0 19 0;
#X connect 29 0 18 0;
#X connect 29 0 17 0;
#X connect 30 0 29 0;
#X connect 32 0 33 0;
#X connect 32 1 35 0;
#X connect 33 0 37 0;
#X connect 34 0 33 1;
#X connect 34 0 35 1;
#X connect 35 0 38 0;
#X connect 37 0 36 0;
#X connect 38 0 36 0;
#X connect 41 0 44 0;
#X connect 42 0 44 0;
#X restore 175 558 pd keyboardControl;
#X obj 108 486 bng 20 250 50 0 all empty empty 17 7 0 10 -228856 -1
-1;
#X obj 172 486 bng 20 250 50 0 none empty empty 17 7 0 10 -228856 -1
-1;
#X text 235 383 number keys 1-8;
#X text 105 465 set all;
#X text 169 465 set none;
#X text 106 292 A;
#X text 122 292 S;
#X text 138 292 D;
#X text 223 102 clips: keys Q \, W \, E \, R \, T;
#X text 234 436 shift + number keys 1-8;
#X text 221 6 Germs;
#X text 182 27 for laptop ensemble;
#X text 395 36 David Schneider;
#X text 419 53 -2012-;
#N canvas 0 0 466 328 metroSend 0;
#X obj 43 31 r ext-metro-start;
#X obj 43 232 udpsend;
#X obj 97 135 loadbang;
#X msg 97 160 connect 255.255.255.255 9999;
#X msg 97 196 disconnect;
#X obj 43 259 tgl 15 0 empty empty empty 17 7 0 10 -262144 -1 -1 1
1;
#X obj 60 80 r ext-metro-stop;
#X msg 43 55 1;
#X msg 60 105 0;
#X connect 0 0 7 0;
#X connect 1 0 5 0;
#X connect 2 0 3 0;
#X connect 3 0 1 0;
#X connect 4 0 1 0;
#X connect 6 0 8 0;
#X connect 7 0 1 0;
#X connect 8 0 1 0;
#X restore 306 558 pd metroSend;
#X obj 323 157 bng 30 100 50 0 empty metro empty 17 7 0 10 -228856
-1 -1;
#X text 310 134 metronome;
#X obj 324 226 bng 20 250 50 0 ext-metro-start empty empty 17 7 0 10
-228856 -1 -1;
#X obj 324 257 bng 20 250 50 0 ext-metro-stop empty empty 17 7 0 10
-228856 -1 -1;
#X text 352 227 start;
#X text 352 258 stop;
#X text 457 226 on/off;
#X text 323 198 external:;
#X text 425 199 internal:;
#X text 85 334 keys: A \, S \, D;
#X text 272 311 (change: + and - keys);
#X text 225 310 octave;
#X obj 181 189 tgl 30 0 looper set-looper empty 17 7 0 10 -228856 -1
-1 0 1;
#X text 179 162 looping (on/off);
#X text 224 193 spacebar;
#X obj 375 164 hsl 120 15 0 238 0 0 metro-delay init-zero empty -2
-8 0 10 -228856 -1 -1 0 1;
#X text 413 141 delay;
