#N canvas 994 26 902 902 10;
#X obj 54 117 mtof;
#X obj 500 172 vline~;
#X obj 54 570 outlet~;
#X obj 54 46 inlet;
#X obj 644 405 soundfiler;
#X floatatom 644 432 6 0 0 0 - - -;
#X obj 676 142 line~;
#X obj 644 349 loadbang;
#X obj 54 148 phasor~;
#X obj 52 247 expr~ ($v1 - 0.5) * 2;
#X msg 500 122 1 10 \, 0 1000 10;
#X obj 426 184 osc~;
#X obj 426 122 - 12;
#X obj 54 485 +~;
#X obj 426 155 mtof;
#X obj 248 169 vline~;
#X obj 426 287 *~;
#X obj 53 312 *~;
#X msg 248 119 1 10 \, 0 850 10;
#X msg 644 378 read -resize attack2.wav attack2;
#X obj 737 434 table attack2;
#X msg 676 117 0 \, 24704 560.18;
#X obj 676 167 tabread4~ attack2;
#X obj 54 428 +~;
#X obj 53 338 *~ 0.5;
#X obj 53 207 expr~ $v1 > $v2;
#X obj 140 181 /~ 100;
#X obj 140 155 +~ 32;
#X obj 54 522 *~ 0.7;
#X obj 54 379 lop~ 1500;
#X obj 677 232 *~ 0.2;
#X obj 139 129 *~ 10;
#X obj 425 239 *~ 0.15;
#X obj 139 104 osc~ 7;
#X connect 0 0 8 0;
#X connect 1 0 16 1;
#X connect 3 0 0 0;
#X connect 3 0 18 0;
#X connect 3 0 12 0;
#X connect 3 0 10 0;
#X connect 3 0 21 0;
#X connect 4 0 5 0;
#X connect 6 0 22 0;
#X connect 7 0 19 0;
#X connect 8 0 25 0;
#X connect 9 0 17 0;
#X connect 10 0 1 0;
#X connect 11 0 32 0;
#X connect 12 0 14 0;
#X connect 13 0 28 0;
#X connect 14 0 11 0;
#X connect 15 0 17 1;
#X connect 16 0 23 1;
#X connect 17 0 24 0;
#X connect 18 0 15 0;
#X connect 19 0 4 0;
#X connect 21 0 6 0;
#X connect 22 0 30 0;
#X connect 23 0 13 0;
#X connect 24 0 29 0;
#X connect 25 0 9 0;
#X connect 26 0 25 1;
#X connect 27 0 26 0;
#X connect 28 0 2 0;
#X connect 29 0 23 0;
#X connect 30 0 13 1;
#X connect 31 0 27 0;
#X connect 32 0 16 0;
#X connect 33 0 31 0;
