#N canvas 257 5 902 902 10;
#X obj 54 94 mtof;
#X obj 289 174 vline~;
#X obj 54 191 *~;
#X obj 54 398 +~;
#X obj 77 365 *~ 0.5;
#X obj 94 290 delwrite~ inst1 80;
#X obj 95 327 delread~ inst1 80;
#X msg 289 124 1 10 \, 0 100 10;
#X obj 54 154 expr~ (min($v1 \, 1 - $v1) - 0.25) * 4;
#X obj 54 123 phasor~;
#X obj 54 484 outlet~;
#X obj 54 46 inlet;
#X obj 381 465 table attack1;
#X msg 288 409 read -resize attack1.wav attack1;
#X obj 288 436 soundfiler;
#X floatatom 288 463 5 0 0 0 - - -;
#X msg 399 124 0 \, 7764 176.05;
#X obj 399 174 tabread4~ attack1;
#X obj 399 149 line~;
#X obj 55 256 +~;
#X obj 288 380 loadbang;
#X obj 400 240 *~ 0.2;
#X connect 0 0 9 0;
#X connect 1 0 2 1;
#X connect 2 0 19 0;
#X connect 3 0 10 0;
#X connect 4 0 3 1;
#X connect 4 0 5 0;
#X connect 6 0 4 0;
#X connect 7 0 1 0;
#X connect 8 0 2 0;
#X connect 9 0 8 0;
#X connect 11 0 0 0;
#X connect 11 0 7 0;
#X connect 11 0 16 0;
#X connect 13 0 14 0;
#X connect 14 0 15 0;
#X connect 16 0 18 0;
#X connect 17 0 21 0;
#X connect 18 0 17 0;
#X connect 19 0 5 0;
#X connect 19 0 3 0;
#X connect 20 0 13 0;
#X connect 21 0 19 1;
