#N canvas 970 153 548 489 10;
#X obj 220 317 textfile;
#X msg 323 213 read clipq.txt;
#N canvas 895 258 471 405 clips 0;
#X obj 21 296 t b b;
#X obj 50 265 t b b;
#X obj 79 236 t b b;
#X obj 109 203 t b b;
#X obj 138 169 t b b;
#X obj 218 361 outlet;
#X msg 21 112 Q;
#X msg 50 112 W;
#X msg 79 112 E;
#X msg 109 113 R;
#X msg 138 113 T;
#X obj 324 225 s cliplabel;
#X obj 324 194 prepend label;
#X obj 21 16 key;
#X obj 21 46 spigot;
#X obj 54 16 r dsp;
#X obj 21 83 sel 113 119 101 114 116;
#X obj 21 363 outlet;
#X msg 165 195 set read clipt.txt;
#X msg 136 230 set read clipr.txt;
#X msg 106 262 set read clipe.txt;
#X msg 77 293 set read clipw.txt;
#X msg 48 322 set read clipq.txt;
#X connect 0 0 17 0;
#X connect 0 1 22 0;
#X connect 1 0 17 0;
#X connect 1 1 21 0;
#X connect 2 0 17 0;
#X connect 2 1 20 0;
#X connect 3 0 17 0;
#X connect 3 1 19 0;
#X connect 4 0 17 0;
#X connect 4 1 18 0;
#X connect 6 0 0 0;
#X connect 6 0 12 0;
#X connect 7 0 1 0;
#X connect 7 0 12 0;
#X connect 8 0 2 0;
#X connect 8 0 12 0;
#X connect 9 0 3 0;
#X connect 9 0 12 0;
#X connect 10 0 4 0;
#X connect 10 0 12 0;
#X connect 12 0 11 0;
#X connect 13 0 14 0;
#X connect 14 0 16 0;
#X connect 15 0 14 1;
#X connect 16 0 6 0;
#X connect 16 1 7 0;
#X connect 16 2 8 0;
#X connect 16 3 9 0;
#X connect 16 4 10 0;
#X connect 18 0 5 0;
#X connect 19 0 5 0;
#X connect 20 0 5 0;
#X connect 21 0 5 0;
#X connect 22 0 5 0;
#X restore 12 13 pd clips;
#X obj 220 244 until;
#X obj 92 352 int;
#X obj 120 352 + 1;
#X msg 107 328 0;
#X obj 77 382 f;
#X obj 220 269 t b b;
#X obj 318 15 table val1 20;
#X obj 318 41 table val2 20;
#X obj 318 67 table val3 20;
#X obj 161 424 tabwrite val1;
#X obj 254 423 tabwrite val2;
#X obj 344 423 tabwrite val3;
#X obj 77 424 outlet;
#X obj 18 423 outlet;
#X floatatom 107 399 5 0 0 0 - - -;
#X msg 265 214 rewind;
#X obj 12 165 t b b b b b b;
#X obj 318 95 table val4 20;
#X obj 436 423 tabwrite val4;
#X obj 220 342 unpack f f f f;
#X connect 0 0 22 0;
#X connect 0 1 3 1;
#X connect 1 0 0 0;
#X connect 2 0 19 0;
#X connect 2 1 1 0;
#X connect 3 0 8 0;
#X connect 4 0 5 0;
#X connect 4 0 12 1;
#X connect 4 0 13 1;
#X connect 4 0 14 1;
#X connect 4 0 7 1;
#X connect 4 0 21 1;
#X connect 5 0 4 1;
#X connect 6 0 4 1;
#X connect 7 0 15 0;
#X connect 7 0 17 0;
#X connect 8 0 0 0;
#X connect 8 1 4 0;
#X connect 18 0 0 0;
#X connect 19 0 7 0;
#X connect 19 1 3 0;
#X connect 19 2 6 0;
#X connect 19 3 18 0;
#X connect 19 4 16 0;
#X connect 19 5 1 0;
#X connect 22 0 12 0;
#X connect 22 1 13 0;
#X connect 22 2 14 0;
#X connect 22 3 21 0;
