#N canvas 544 136 613 614 10;
#X declare -lib panorama_internals/readanysf~;
#X declare -path panorama_internals;
#X obj 10 305 hsl 300 30 20 128 0 0 center-freq set-center-freq empty
-2 -8 0 10 -4032 -1 -1 14950 1;
#X obj 11 343 hsl 128 15 1 5 1 0 filter-q set-filter-q empty -2 -8
0 10 -4032 -1 -1 0 1;
#N canvas 57 322 871 373 internals 0;
#X obj 136 131 filters~;
#X obj 139 83 amp-mod~;
#X obj 137 224 reverb~;
#X obj 155 51 r amp-mix;
#X obj 224 52 r amp-freq;
#X obj 213 140 r verb-size;
#X obj 228 165 r verb-mix;
#X obj 101 7 granular~;
#X obj 136 270 throw~ mainL;
#X obj 176 247 throw~ mainR;
#X obj 321 121 loadbang;
#X obj 222 108 r filter-q;
#X obj 159 107 r center-freq;
#X obj 256 204 init 0;
#X obj 301 50 init 0;
#X msg 321 141 \; set-verb-size 0.95 \; set-center-freq 74 \; pd dsp
1;
#N canvas 293 191 979 383 saved-paths 0;
#X obj 72 105 s sf-path1;
#X obj 142 10 loadbang;
#X obj 252 131 s sf-path4;
#X obj 193 105 s sf-path3;
#X obj 131 131 s sf-path2;
#X obj 23 166 r set-sf-path1;
#X obj 20 189 symbol;
#X obj 74 215 symbol;
#X obj 181 184 symbol;
#X obj 235 210 symbol;
#X obj 77 192 r set-sf-path2;
#X obj 184 161 r set-sf-path3;
#X obj 238 187 r set-sf-path4;
#X msg 235 236 set \$1;
#X msg 176 207 set \$1;
#X msg 73 243 set \$1;
#X msg 19 214 set \$1;
#X obj 328 278 symbol;
#X msg 328 304 set \$1;
#X obj 428 340 symbol;
#X msg 428 366 set \$1;
#X obj 345 199 s sf-path5;
#X obj 445 261 s sf-path6;
#X obj 431 317 r set-sf-path6;
#X obj 331 255 r set-sf-path5;
#X msg 385 27 /home/jwmatthys/titanic/titanic_pd_13december2012/audio_files/quartet/nearer_my_god.wav
;
#X msg 386 71 /home/jwmatthys/titanic/titanic_pd_13december2012/audio_files/engines.wav
;
#X msg 386 116 /home/jwmatthys/titanic/titanic_pd_13december2012/audio_files/quartet/nearx4.wav
;
#X msg 384 164 /home/jwmatthys/titanic/titanic_pd_13december2012/audio_files/TT_perc/metal_drum.wav
;
#X msg 477 232 /home/jwmatthys/titanic/titanic_pd_13december2012/audio_files/TT_perc/ball_on_gong.wav
;
#X msg 577 294 /home/jwmatthys/titanic/titanic_pd_13december2012/audio_files/TT_perc/ball_stretchedlow.wav
;
#X connect 1 0 25 0;
#X connect 1 0 26 0;
#X connect 1 0 27 0;
#X connect 1 0 28 0;
#X connect 1 0 29 0;
#X connect 1 0 30 0;
#X connect 5 0 6 0;
#X connect 6 0 16 0;
#X connect 7 0 26 0;
#X connect 7 0 15 0;
#X connect 8 0 14 0;
#X connect 9 0 13 0;
#X connect 10 0 7 0;
#X connect 11 0 8 0;
#X connect 12 0 9 0;
#X connect 13 0 28 0;
#X connect 14 0 27 0;
#X connect 15 0 26 0;
#X connect 16 0 25 0;
#X connect 17 0 18 0;
#X connect 18 0 29 0;
#X connect 19 0 20 0;
#X connect 20 0 30 0;
#X connect 23 0 19 0;
#X connect 24 0 17 0;
#X connect 25 0 0 0;
#X connect 26 0 4 0;
#X connect 27 0 3 0;
#X connect 28 0 2 0;
#X connect 29 0 21 0;
#X connect 30 0 22 0;
#X restore 514 146 pd saved-paths;
#X obj 96 -19 r~ wet;
#X obj 32 179 r~ dry;
#N canvas 67 181 208 235 midi-control 0;
#X obj 77 -2593 ctlin;
#X obj 22 -2554 s midictldata;
#X obj 79 -2529 s midictlnum;
#N canvas 67 97 708 405 mixer-control 0;
#X obj 202 -2345 t f b;
#X obj 245 -2347 s autodetect-off;
#X obj 56 -2253 s midi-mixer1;
#X obj 164 -2252 s midi-mixer2;
#X obj 262 -2244 s midi-mixer3;
#X obj 83 -2192 s midi-mixer4;
#X obj 190 -2193 s midi-mixer5;
#X obj 304 -2191 s midi-mixer6;
#X obj 202 -2371 r mixer-radio;
#X obj 267 -2278 midi-controller;
#X msg 443 -2354 set \$1;
#X msg 498 -2354 set \$1;
#X msg 551 -2354 set \$1;
#X msg 446 -2281 set \$1;
#X msg 501 -2281 set \$1;
#X msg 554 -2281 set \$1;
#X msg 459 -2324 -1;
#X msg 514 -2324 -1;
#X msg 567 -2324 -1;
#X msg 462 -2251 -1;
#X msg 517 -2251 -1;
#X msg 570 -2251 -1;
#X obj 58 -2278 midi-controller;
#X obj 162 -2277 midi-controller;
#X obj 82 -2218 midi-controller;
#X obj 189 -2216 midi-controller;
#X obj 303 -2216 midi-controller;
#X obj 184 -2318 sel 1 2 3 4 5 6 7;
#X obj 317 -2151 midi-controller;
#X msg 433 -2171 set \$1;
#X msg 449 -2141 -1;
#X obj 623 -2358 loadbang;
#X obj 318 -2126 s midi-mainmix;
#X connect 0 0 27 0;
#X connect 0 1 1 0;
#X connect 8 0 0 0;
#X connect 9 0 4 0;
#X connect 9 1 12 0;
#X connect 10 0 16 0;
#X connect 11 0 17 0;
#X connect 12 0 18 0;
#X connect 13 0 19 0;
#X connect 14 0 20 0;
#X connect 15 0 21 0;
#X connect 16 0 22 1;
#X connect 17 0 23 1;
#X connect 18 0 9 1;
#X connect 19 0 24 1;
#X connect 20 0 25 1;
#X connect 21 0 26 1;
#X connect 22 0 2 0;
#X connect 22 1 10 0;
#X connect 23 0 3 0;
#X connect 23 1 11 0;
#X connect 24 0 5 0;
#X connect 24 1 13 0;
#X connect 25 0 6 0;
#X connect 25 1 14 0;
#X connect 26 0 7 0;
#X connect 26 1 15 0;
#X connect 27 0 22 0;
#X connect 27 1 23 0;
#X connect 27 2 9 0;
#X connect 27 3 24 0;
#X connect 27 4 25 0;
#X connect 27 5 26 0;
#X connect 27 6 28 0;
#X connect 28 0 32 0;
#X connect 28 1 29 0;
#X connect 29 0 30 0;
#X connect 30 0 28 1;
#X connect 31 0 16 0;
#X connect 31 0 17 0;
#X connect 31 0 18 0;
#X connect 31 0 19 0;
#X connect 31 0 20 0;
#X connect 31 0 21 0;
#X connect 31 0 30 0;
#X restore 47 -2478 pd mixer-control;
#N canvas 323 288 725 321 fx-bal-control 0;
#X obj 202 -2345 t f b;
#X obj 245 -2347 s autodetect-off;
#X obj 184 -2318 sel 1 2 3 4 5 6;
#X obj 202 -2371 r fx-bal-radio;
#X obj 56 -2253 s wetdry1;
#X obj 164 -2252 s wetdry2;
#X obj 262 -2244 s wetdry3;
#X obj 83 -2192 s wetdry4;
#X obj 190 -2193 s wetdry5;
#X obj 304 -2191 s wetdry6;
#X obj 58 -2278 midi-controller;
#X obj 162 -2277 midi-controller;
#X obj 267 -2278 midi-controller;
#X obj 82 -2218 midi-controller;
#X obj 189 -2216 midi-controller;
#X obj 303 -2216 midi-controller;
#X msg 447 -2343 set \$1;
#X msg 444 -2320 -1;
#X msg 502 -2341 set \$1;
#X msg 499 -2318 -1;
#X msg 564 -2340 set \$1;
#X msg 561 -2317 -1;
#X msg 448 -2220 set \$1;
#X msg 445 -2197 -1;
#X msg 503 -2218 set \$1;
#X msg 500 -2195 -1;
#X msg 565 -2217 set \$1;
#X msg 562 -2194 -1;
#X obj 652 -2349 loadbang;
#X connect 0 0 2 0;
#X connect 0 1 1 0;
#X connect 2 0 10 0;
#X connect 2 1 11 0;
#X connect 2 2 12 0;
#X connect 2 3 13 0;
#X connect 2 4 14 0;
#X connect 2 5 15 0;
#X connect 3 0 0 0;
#X connect 10 0 4 0;
#X connect 10 1 16 0;
#X connect 11 0 5 0;
#X connect 11 1 18 0;
#X connect 12 0 6 0;
#X connect 12 1 20 0;
#X connect 13 0 7 0;
#X connect 13 1 22 0;
#X connect 14 0 8 0;
#X connect 14 1 24 0;
#X connect 15 0 9 0;
#X connect 15 1 26 0;
#X connect 16 0 17 0;
#X connect 17 0 10 1;
#X connect 18 0 19 0;
#X connect 19 0 11 1;
#X connect 20 0 21 0;
#X connect 21 0 12 1;
#X connect 22 0 23 0;
#X connect 23 0 13 1;
#X connect 24 0 25 0;
#X connect 25 0 14 1;
#X connect 26 0 27 0;
#X connect 27 0 15 1;
#X connect 28 0 17 0;
#X connect 28 0 19 0;
#X connect 28 0 21 0;
#X connect 28 0 23 0;
#X connect 28 0 25 0;
#X connect 28 0 27 0;
#X restore 49 -2454 pd fx-bal-control;
#N canvas 323 288 737 374 fx-control 0;
#X obj 202 -2345 t f b;
#X obj 245 -2347 s autodetect-off;
#X obj 184 -2318 sel 1 2 3 4 5 6;
#X obj 53 -2251 / 32;
#X obj 52 -2226 + 1;
#X obj 52 -2200 s set-filter-q;
#X obj 202 -2371 r fx-radio;
#X obj 166 -2253 * 0.850394;
#X obj 164 -2227 + 20;
#X obj 164 -2202 s set-center-freq;
#X obj 268 -2253 * 1.24409;
#X obj 267 -2229 - 30;
#X obj 287 -2203 s set-amp-freq;
#X obj 121 -2121 * 0.787402;
#X obj 120 -2095 s set-amp-mix;
#X obj 228 -2122 / 127;
#X obj 229 -2096 s set-verb-size;
#X obj 342 -2120 / 127;
#X obj 341 -2096 s set-verb-mix;
#X obj 58 -2278 midi-controller;
#X obj 162 -2277 midi-controller;
#X obj 267 -2278 midi-controller;
#X obj 120 -2147 midi-controller;
#X obj 227 -2145 midi-controller;
#X obj 341 -2145 midi-controller;
#X msg 467 -2323 set \$1;
#X msg 464 -2300 -1;
#X msg 522 -2321 set \$1;
#X msg 519 -2298 -1;
#X msg 584 -2320 set \$1;
#X msg 581 -2297 -1;
#X msg 468 -2200 set \$1;
#X msg 465 -2177 -1;
#X msg 523 -2198 set \$1;
#X msg 520 -2175 -1;
#X msg 585 -2197 set \$1;
#X msg 582 -2174 -1;
#X obj 672 -2329 loadbang;
#X connect 0 0 2 0;
#X connect 0 1 1 0;
#X connect 2 0 19 0;
#X connect 2 1 20 0;
#X connect 2 2 21 0;
#X connect 2 3 22 0;
#X connect 2 4 23 0;
#X connect 2 5 24 0;
#X connect 3 0 4 0;
#X connect 4 0 5 0;
#X connect 6 0 0 0;
#X connect 7 0 8 0;
#X connect 8 0 9 0;
#X connect 10 0 11 0;
#X connect 11 0 12 0;
#X connect 13 0 14 0;
#X connect 15 0 16 0;
#X connect 17 0 18 0;
#X connect 19 0 3 0;
#X connect 19 1 25 0;
#X connect 20 0 7 0;
#X connect 20 1 27 0;
#X connect 21 0 10 0;
#X connect 21 1 29 0;
#X connect 22 0 13 0;
#X connect 22 1 31 0;
#X connect 23 0 15 0;
#X connect 23 1 33 0;
#X connect 24 0 17 0;
#X connect 24 1 35 0;
#X connect 25 0 26 0;
#X connect 26 0 19 1;
#X connect 27 0 28 0;
#X connect 28 0 20 1;
#X connect 29 0 30 0;
#X connect 30 0 21 1;
#X connect 31 0 32 0;
#X connect 32 0 22 1;
#X connect 33 0 34 0;
#X connect 34 0 23 1;
#X connect 35 0 36 0;
#X connect 36 0 24 1;
#X connect 37 0 26 0;
#X connect 37 0 28 0;
#X connect 37 0 30 0;
#X connect 37 0 32 0;
#X connect 37 0 34 0;
#X connect 37 0 36 0;
#X restore 51 -2430 pd fx-control;
#N canvas 287 136 915 536 grain-control 0;
#X obj 202 -2345 t f b;
#X obj 245 -2347 s autodetect-off;
#X obj 184 -2318 sel 1 2 3 4 5 6 7;
#X obj 411 -2092 / 127;
#X obj 53 -2251 * 0.787402;
#X obj 53 -2226 s set-gran-mix;
#X obj 202 -2371 r grain-radio;
#X obj 161 -2232 *;
#X obj 162 -2255 t f f;
#X obj 160 -2209 * 1.85969;
#X obj 160 -2187 + 5;
#X obj 160 -2165 s set-grain-separation;
#X obj 266 -2231 *;
#X obj 273 -2254 t f f;
#X obj 265 -2208 * 0.552421;
#X obj 264 -2189 + 90;
#X obj 302 -2164 s set-grain-rate-var;
#X obj 386 -2252 *;
#X obj 387 -2275 t f f;
#X obj 385 -2229 * 1.85969;
#X obj 385 -2207 + 50;
#X obj 385 -2185 s set-grain-size;
#X obj 129 -2084 *;
#X obj 130 -2107 t f f;
#X obj 128 -2061 * 0.306901;
#X obj 128 -2039 + 50;
#X obj 128 -2017 s set-grain-size-var;
#X obj 305 -2094 / 5.77273;
#X obj 303 -2067 + 2;
#X obj 303 -2036 s set-grain-pitch;
#X obj 410 -2068 s set-pitch-randomness;
#X obj 53 -2275 midi-controller;
#X obj 162 -2277 midi-controller;
#X obj 267 -2278 midi-controller;
#X obj 388 -2299 midi-controller;
#X obj 131 -2132 midi-controller;
#X obj 304 -2119 midi-controller;
#X obj 410 -2117 midi-controller;
#X msg 590 -2293 set \$1;
#X msg 587 -2270 -1;
#X msg 645 -2291 set \$1;
#X msg 642 -2268 -1;
#X msg 707 -2290 set \$1;
#X msg 704 -2267 -1;
#X msg 591 -2170 set \$1;
#X msg 588 -2147 -1;
#X msg 646 -2168 set \$1;
#X msg 643 -2145 -1;
#X msg 708 -2167 set \$1;
#X msg 705 -2144 -1;
#X obj 795 -2299 loadbang;
#X msg 531 -2293 set \$1;
#X msg 528 -2270 -1;
#X connect 0 0 2 0;
#X connect 0 1 1 0;
#X connect 2 0 31 0;
#X connect 2 1 32 0;
#X connect 2 2 33 0;
#X connect 2 3 34 0;
#X connect 2 4 35 0;
#X connect 2 5 36 0;
#X connect 2 6 37 0;
#X connect 3 0 30 0;
#X connect 4 0 5 0;
#X connect 6 0 0 0;
#X connect 7 0 9 0;
#X connect 8 0 7 0;
#X connect 8 1 7 1;
#X connect 9 0 10 0;
#X connect 10 0 11 0;
#X connect 12 0 14 0;
#X connect 13 0 12 0;
#X connect 13 1 12 1;
#X connect 14 0 15 0;
#X connect 15 0 16 0;
#X connect 17 0 19 0;
#X connect 18 0 17 0;
#X connect 18 1 17 1;
#X connect 19 0 20 0;
#X connect 20 0 21 0;
#X connect 22 0 24 0;
#X connect 23 0 22 0;
#X connect 23 1 22 1;
#X connect 24 0 25 0;
#X connect 25 0 26 0;
#X connect 27 0 28 0;
#X connect 28 0 29 0;
#X connect 31 0 4 0;
#X connect 31 1 51 0;
#X connect 32 0 8 0;
#X connect 32 1 38 0;
#X connect 33 0 13 0;
#X connect 33 1 40 0;
#X connect 34 0 18 0;
#X connect 34 1 42 0;
#X connect 35 0 23 0;
#X connect 35 1 44 0;
#X connect 36 0 27 0;
#X connect 36 1 46 0;
#X connect 37 0 3 0;
#X connect 37 1 48 0;
#X connect 38 0 39 0;
#X connect 39 0 32 1;
#X connect 40 0 41 0;
#X connect 41 0 33 1;
#X connect 42 0 43 0;
#X connect 43 0 34 1;
#X connect 44 0 45 0;
#X connect 45 0 35 1;
#X connect 46 0 47 0;
#X connect 47 0 36 1;
#X connect 48 0 49 0;
#X connect 49 0 37 1;
#X connect 50 0 39 0;
#X connect 50 0 41 0;
#X connect 50 0 43 0;
#X connect 50 0 45 0;
#X connect 50 0 47 0;
#X connect 50 0 49 0;
#X connect 50 0 52 0;
#X connect 51 0 52 0;
#X connect 52 0 31 1;
#X restore 51 -2407 pd grain-control;
#X connect 0 0 1 0;
#X connect 0 1 2 0;
#X restore 534 215 pd midi-control;
#X obj 340 216 r assign-midi-control;
#X msg 340 238 \; pd-assign-midi vis 1;
#X obj -96 84 amp-mod~;
#X obj -80 52 r amp-mix;
#X obj -11 53 r amp-freq;
#X obj 66 51 init 0;
#X obj -93 133 filters~;
#X obj -70 109 r center-freq;
#X obj 16 110 r filter-q;
#X obj 501 260 declare -lib panorama_internals/readanysf~;
#X obj 468 284 declare -path panorama_internals;
#X connect 0 0 2 1;
#X connect 1 0 0 0;
#X connect 2 0 8 0;
#X connect 2 1 9 0;
#X connect 3 0 1 2;
#X connect 4 0 1 1;
#X connect 5 0 2 2;
#X connect 6 0 2 3;
#X connect 7 0 22 0;
#X connect 7 1 1 0;
#X connect 10 0 15 0;
#X connect 11 0 0 2;
#X connect 12 0 0 1;
#X connect 13 0 2 3;
#X connect 14 0 1 2;
#X connect 17 0 7 0;
#X connect 18 0 8 0;
#X connect 18 0 9 0;
#X connect 20 0 21 0;
#X connect 22 0 26 0;
#X connect 23 0 22 2;
#X connect 24 0 22 1;
#X connect 25 0 22 2;
#X connect 26 0 2 0;
#X connect 27 0 26 1;
#X connect 28 0 26 2;
#X restore 337 542 pd internals;
#X obj 450 175 titanic-out~;
#X obj 25 5 cnv 15 160 60 empty empty empty 20 12 0 14 -261682 -66577
0;
#X obj 200 5 cnv 15 160 60 empty empty empty 20 12 0 14 -204786 -66577
0;
#X obj 25 74 cnv 15 160 60 empty empty empty 20 12 0 14 -262130 -66577
0;
#X obj 200 74 cnv 15 160 60 empty empty empty 20 12 0 14 -204800 -66577
0;
#X text 119 308 filter freq;
#X text 19 342 filter Q (strength);
#X obj 10 370 cnv 15 300 200 empty empty empty 20 12 0 14 -204786 -66577
0;
#X obj 32 411 hsl 128 15 5 30000 1 0 grain-separation set-grain-separation
empty -2 -8 0 10 -262144 -1 -1 3361 1;
#X text 169 409 grain separation;
#X obj 32 437 hsl 128 15 90 9000 1 0 grain-rate-var set-grain-rate-var
empty -2 -8 0 10 -262144 -1 -1 0 1;
#X text 169 434 separation randomness;
#X obj 32 463 hsl 128 15 50 30000 1 0 grain-size set-grain-size empty
-2 -8 0 10 -262144 -1 -1 1376 1;
#X obj 32 489 hsl 128 15 50 5000 1 0 grain-size-var set-grain-size-var
empty -2 -8 0 10 -262144 -1 -1 0 1;
#X text 169 459 grain size;
#X text 168 487 size randomness;
#X obj 32 385 hsl 128 15 0 100 0 0 gran-mix set-gran-mix empty -2 -8
0 10 -262144 -1 -1 0 1;
#X text 169 384 granular mix;
#X obj 335 347 cnv 15 200 180 empty empty empty 20 12 0 14 -191407
-66577 0;
#X obj 373 359 vsl 15 128 -30 128 0 0 amp-freq set-amp-freq empty 0
-9 0 10 -258113 -1 -1 0 1;
#X obj 404 359 vsl 15 128 0 100 0 0 amp-mix set-amp-mix empty 0 -9
0 10 -260097 -1 -1 0 1;
#X text 377 508 Ring Mod;
#X text 373 490 Hz;
#X text 401 489 mix;
#X obj 455 359 vsl 15 128 0 1 0 0 verb-size set-verb-size empty 0 -9
0 10 -232576 -1 -1 12065 1;
#X obj 486 359 vsl 15 128 0 1 0 0 verb-mix set-verb-mix empty 0 -9
0 10 -203904 -1 -1 0 1;
#X text 450 490 size;
#X text 484 490 mix;
#X text 455 508 Reverb;
#X obj 32 516 hsl 128 15 2 24 0 0 grain-pitch set-grain-pitch empty
-2 -8 0 10 -262144 -1 -1 3464 1;
#X text 170 513 pitch;
#X text 248 513 reset;
#X obj 229 516 bng 15 250 50 0 reset-grain-pitch empty empty 17 7 0
10 -262144 -1 -1;
#X obj 32 542 hsl 128 15 0 1 0 0 grain-pitch-randomness set-pitch-randomness
empty -2 -8 0 10 -262144 -1 -1 0 1;
#X text 170 539 pitch randomness;
#X obj 378 5 cnv 15 160 60 empty empty empty 20 12 0 14 -203904 -66577
0;
#X obj 378 74 cnv 15 160 60 empty empty empty 20 12 0 14 -232576 -66577
0;
#X obj 6 141 titanic-mixer~;
#N canvas 148 214 516 384 assign-midi 0;
#X obj 368 -2832 bng 30 250 50 0 midi-clearall empty empty 17 7 0 10
-258113 -1 -1;
#X text 354 -2799 clear all;
#X obj 44 -2913 comment 0 20 helvetica ? 0 0 0 0 MIDI Controller Assign
;
#X obj 30 -2875 cnv 15 100 160 empty empty empty 20 12 0 14 -233017
-66577 0;
#X obj 41 -2853 vradio 15 1 0 8 mixer-radio empty empty 0 -8 0 10 -262144
-1 -1 0;
#X text 61 -2873 VOLUME;
#X text 61 -2841 channel 1;
#X text 61 -2826 channel 2;
#X text 62 -2750 main mix;
#X text 61 -2811 channel 3;
#X text 61 -2796 channel 4;
#X text 61 -2781 channel 5;
#X text 61 -2766 channel 6;
#X obj 172 -2874 cnv 15 140 160 empty empty empty 20 12 0 14 -233017
-66577 0;
#X obj 182 -2853 vradio 15 1 0 7 fx-bal-radio empty empty 0 -8 0 10
-262144 -1 -1 0;
#X text 203 -2842 channel 1;
#X text 203 -2827 channel 2;
#X text 203 -2812 channel 3;
#X text 203 -2797 channel 4;
#X text 203 -2782 channel 5;
#X text 203 -2767 channel 6;
#X text 182 -2873 EFFECTS WET/DRY MIX;
#X obj 29 -2702 cnv 15 120 140 empty empty empty 20 12 0 14 -233017
-66577 0;
#X obj 41 -2679 vradio 15 1 0 7 fx-radio empty empty 0 -8 0 10 -262144
-1 -1 0;
#X text 63 -2636 ringmod Hz;
#X text 63 -2621 ringmod mix;
#X text 63 -2606 reverb size;
#X text 63 -2591 reverb mix;
#X text 61 -2698 EFFECTS;
#X obj 172 -2701 cnv 15 170 150 empty empty empty 20 12 0 14 -233017
-66577 0;
#X obj 183 -2682 vradio 15 1 0 8 grain-radio empty empty 0 -8 0 10
-262144 -1 -1 0;
#X text 207 -2699 GRANULAR SETTINGS;
#X text 204 -2670 granular mix;
#X text 204 -2655 grain separation;
#X text 204 -2640 separation randomness;
#X text 204 -2625 grain size;
#X text 204 -2610 size randomness;
#X text 204 -2595 pitch;
#X text 205 -2579 pitch randomness;
#X text 348 -2736 Choose a button \, then \; move a MIDI controller
\; to assign to a slider. \; \; Save your patch to save \; your MIDI
controller \; settings. \; \; You may need to set up \; your MIDI controller
\; in the Preferences.;
#X text 61 -2854 NONE;
#X text 203 -2856 NONE;
#X text 63 -2682 NONE;
#X text 204 -2684 NONE;
#X text 63 -2667 filter Q;
#X text 63 -2652 filter freq;
#X restore 420 542 pd assign-midi;
#X obj 356 261 bng 50 250 50 0 assign-midi-control empty assign_midi_control
-25 60 0 10 -228856 -1 -1;
#X obj 209 7 soundfile~ 1000 3;
#X obj 35 7 soundfile~ 1000 1;
#X obj 209 76 soundfile~ 1000 4;
#X obj 35 77 soundfile~ 1000 2;
#X obj 386 8 soundfile~ 1000 5;
#X obj 386 77 soundfile~ 1000 6;
