#N canvas 270 85 891 593 10;
#X declare -path silc;
#X declare -lib mrpeach;
#X declare -lib mrpeach;
#X declare -lib mrpeach;
#X obj 277 1 net-switcher;
#X obj 80 -54 r note-out;
#X text 8 366 PEEPUMS - Joel Matthys;
#N canvas 59 24 450 300 send-midi 0;
#X obj 119 61 t f b b;
#X obj 161 91 hsl 128 15 0 1000 0 0 empty empty empty -2 -8 0 10 -4034
-1 -1 3810 1;
#X obj 261 45 loadbang;
#X msg 261 67 300;
#X obj 138 89 vsl 15 128 0 127 0 0 empty empty empty 0 -9 0 10 -260097
-1 -1 12700 1;
#X msg 162 132 127;
#X obj 119 234 noteout;
#X text 298 90 duration (in ms);
#X text 167 174 velocity (0-127);
#X obj 119 39 r play-note;
#X connect 0 0 6 0;
#X connect 0 1 4 0;
#X connect 0 2 1 0;
#X connect 1 0 6 2;
#X connect 2 0 3 0;
#X connect 2 0 5 0;
#X connect 3 0 1 0;
#X connect 4 0 6 1;
#X connect 5 0 4 0;
#X connect 9 0 0 0;
#X restore 632 15 pd send-midi;
#N canvas 1 81 1366 714 guts 0;
#X obj 367 30 r play-note;
#X obj 834 461 - 1;
#X obj 834 481 abs;
#X obj 751 530 *~;
#X obj 766 510 line~;
#X msg 766 489 \$1 30;
#X obj 817 546 *~;
#X obj 833 524 line~;
#X msg 833 503 \$1 30;
#X obj 820 425 cos;
#X obj 54 53 loadbang;
#X msg 54 79 0;
#X obj 1073 546 dac~;
#X obj 1137 477 *~;
#X obj 1165 448 line~;
#X msg 1202 425 \$1 100;
#X obj 103 106 vsl 30 289 1.5708 0 0 0 empty empty empty 0 -9 0 10
-66577 -262144 -1 28800 1;
#X obj 137 104 cnv 15 500 160 empty empty empty 20 12 0 14 -99865 -66577
0;
#X obj 198 110 sfx-synth~ a;
#X obj 302 147 sfx-envelope~;
#X obj 137 268 cnv 15 550 130 empty empty empty 20 12 0 14 -99865 -66577
0;
#N canvas 540 137 674 429 wave 0;
#N canvas 0 22 450 300 (subpatch) 0;
#X array \$0-wave 2051 float 0;
#X coords 0 1 2050 0 110 80 1;
#X restore 149 119 graph;
#N canvas 59 24 771 448 reset 0;
#X obj 466 118 inlet;
#X obj 470 151 sel 1 2 3;
#N canvas 496 187 450 300 sine 0;
#X obj 228 41 inlet;
#X obj 230 166 int;
#X obj 258 167 + 1;
#X msg 328 124 0;
#X obj 233 203 t f f f;
#X obj 250 266 * 6.28;
#X obj 252 368 tabwrite \$0-wave;
#X obj 228 71 t b b;
#X obj 250 317 + 1;
#X obj 251 345 / 2;
#X obj 250 293 sin;
#X obj 228 121 Uzi 2051;
#X obj 250 235 / 2051;
#X connect 0 0 7 0;
#X connect 1 0 4 0;
#X connect 2 0 1 1;
#X connect 3 0 1 1;
#X connect 4 0 2 0;
#X connect 4 1 12 0;
#X connect 4 2 6 1;
#X connect 5 0 10 0;
#X connect 7 0 11 0;
#X connect 7 1 3 0;
#X connect 8 0 9 0;
#X connect 9 0 6 0;
#X connect 10 0 8 0;
#X connect 11 0 1 0;
#X connect 12 0 5 0;
#X restore 654 210 pd sine;
#N canvas 59 24 559 492 square 0;
#X obj 213 163 int;
#X obj 241 164 + 1;
#X msg 311 121 0;
#X obj 235 365 tabwrite \$0-wave;
#X obj 215 23 inlet;
#X msg 222 282 1;
#X obj 350 209 int;
#X obj 378 210 + 1;
#X obj 211 68 t b b b;
#X obj 211 118 Uzi 1025;
#X obj 348 164 Uzi 1026;
#X msg 424 184 1025;
#X obj 216 200 t f b f;
#X obj 353 246 t f b f;
#X msg 359 328 0;
#X connect 0 0 12 0;
#X connect 1 0 0 1;
#X connect 2 0 0 1;
#X connect 4 0 8 0;
#X connect 5 0 3 0;
#X connect 6 0 13 0;
#X connect 7 0 6 1;
#X connect 8 0 9 0;
#X connect 8 1 2 0;
#X connect 8 2 11 0;
#X connect 9 0 0 0;
#X connect 9 1 10 0;
#X connect 10 0 6 0;
#X connect 11 0 6 1;
#X connect 12 0 1 0;
#X connect 12 1 5 0;
#X connect 12 2 3 1;
#X connect 13 0 7 0;
#X connect 13 1 14 0;
#X connect 13 2 3 1;
#X connect 14 0 3 0;
#X restore 285 240 pd square;
#N canvas 59 24 559 492 triangle 0;
#X obj 213 163 int;
#X obj 241 164 + 1;
#X msg 311 121 0;
#X obj 235 365 tabwrite \$0-wave;
#X obj 215 23 inlet;
#X obj 350 209 int;
#X obj 378 210 + 1;
#X obj 211 68 t b b b;
#X obj 211 118 Uzi 1025;
#X obj 348 164 Uzi 1026;
#X msg 424 184 1025;
#X obj 216 200 t f f f;
#X obj 219 251 / 1024;
#X obj 353 246 t f f f;
#X obj 397 321 / 1025;
#X obj 400 349 - 1;
#X obj 399 396 abs;
#X obj 425 297 - 1024;
#X connect 0 0 11 0;
#X connect 1 0 0 1;
#X connect 2 0 0 1;
#X connect 4 0 7 0;
#X connect 5 0 13 0;
#X connect 6 0 5 1;
#X connect 7 0 8 0;
#X connect 7 1 2 0;
#X connect 7 2 10 0;
#X connect 8 0 0 0;
#X connect 8 1 9 0;
#X connect 9 0 5 0;
#X connect 10 0 5 1;
#X connect 11 0 1 0;
#X connect 11 1 12 0;
#X connect 11 2 3 1;
#X connect 12 0 3 0;
#X connect 13 0 6 0;
#X connect 13 1 17 0;
#X connect 13 2 3 1;
#X connect 14 0 15 0;
#X connect 15 0 16 0;
#X connect 16 0 3 0;
#X connect 17 0 14 0;
#X restore 381 240 pd triangle;
#N canvas 430 102 450 300 sawtooth 0;
#X obj 228 41 inlet;
#X obj 230 166 int;
#X obj 258 167 + 1;
#X msg 328 124 0;
#X obj 233 203 t f f f;
#X obj 250 261 tabwrite \$0-wave;
#X obj 228 71 t b b;
#X obj 228 121 Uzi 2051;
#X obj 250 235 / 2051;
#X connect 0 0 6 0;
#X connect 1 0 4 0;
#X connect 2 0 1 1;
#X connect 3 0 1 1;
#X connect 4 0 2 0;
#X connect 4 1 8 0;
#X connect 4 2 5 1;
#X connect 6 0 7 0;
#X connect 6 1 3 0;
#X connect 7 0 1 0;
#X connect 8 0 5 0;
#X restore 533 214 pd sawtooth;
#X connect 0 0 1 0;
#X connect 1 0 3 0;
#X connect 1 1 4 0;
#X connect 1 2 5 0;
#X connect 1 3 2 0;
#X restore 427 25 pd reset;
#X obj 372 110 inlet;
#X obj 372 142 mtof;
#X obj 372 192 line~;
#X obj 372 217 phasor~;
#X obj 373 306 outlet~;
#X obj 121 270 switch~;
#X obj 244 101 tgl 15 0 empty empty empty 17 7 0 10 -262144 -1 -1 1
1;
#X obj 64 19 loadbang;
#X obj 372 242 *~ 2000;
#X obj 365 18 loadbang;
#X msg 356 48 1;
#X obj 101 128 vradio 15 1 0 4 empty empty empty 0 -8 0 10 -262144
-1 -1 0;
#X text 120 156 tri;
#X text 120 171 saw;
#X text 119 127 sin;
#X text 120 141 sqr;
#X msg 81 48 0;
#X obj 373 281 tabread4~ \$0-wave;
#X msg 372 167 \$1 5;
#X connect 2 0 3 0;
#X connect 3 0 20 0;
#X connect 4 0 5 0;
#X connect 5 0 10 0;
#X connect 8 0 7 0;
#X connect 9 0 18 0;
#X connect 10 0 19 0;
#X connect 11 0 12 0;
#X connect 12 0 8 0;
#X connect 13 0 1 0;
#X connect 18 0 13 0;
#X connect 19 0 6 0;
#X connect 20 0 4 0;
#X coords 0 -1 1 1 160 100 1 100 100;
#X restore 195 286 pd wave;
#X obj 166 268 cnv 15 20 130 empty peepums-bottom empty 20 12 0 14
-1 -262144 0;
#N canvas 61 233 606 448 blue 0;
#X obj 405 56 inlet;
#X obj 249 385 outlet;
#X text 409 30 blue;
#X obj 402 129 * -256;
#X obj 397 249 clip -256 -1;
#X connect 0 0 3 0;
#X connect 3 0 4 0;
#X connect 4 0 1 0;
#X restore 1035 151 pd blue;
#X msg 852 153 \; peepums-bottom color \$1 0;
#X msg 1040 181 \; peepums-top color \$1 0;
#X obj 166 104 cnv 15 20 160 empty peepums-top empty 20 12 0 14 -64
-262144 0;
#N canvas 59 207 606 448 red 0;
#X obj 262 53 inlet;
#X obj 249 385 outlet;
#X text 267 28 red;
#X obj 263 134 * -65536;
#X obj 339 247 - 1;
#X obj 263 82 * 255;
#X obj 263 105 int;
#X connect 0 0 5 0;
#X connect 3 0 4 0;
#X connect 4 0 1 0;
#X connect 5 0 6 0;
#X connect 6 0 3 0;
#X restore 893 118 pd red;
#X obj 1193 386 r master-vol;
#X obj 1137 541 pvu~;
#X obj 1145 573 s total-lev;
#X obj 1161 506 clip~ -1 1;
#N canvas 721 166 450 300 effects 0;
#X obj 149 17 inlet~;
#X obj 174 255 outlet~;
#X msg 324 105 100;
#X obj 316 74 loadbang;
#X obj 103 133 sfx-compressor~;
#X obj 103 53 sfx-ringmod~;
#X obj 103 73 sfx-fm~;
#X obj 103 93 sfx-randomdelay~;
#X obj 103 113 sfx-reverb~;
#X connect 0 0 5 0;
#X connect 2 0 6 1;
#X connect 3 0 2 0;
#X connect 4 0 1 0;
#X connect 5 0 6 0;
#X connect 6 0 7 0;
#X connect 7 0 8 0;
#X connect 8 0 4 0;
#X coords 0 -1 1 1 146 103 2 100 50;
#X restore 469 145 pd effects;
#N canvas 719 166 450 300 effects 0;
#X obj 149 17 inlet~;
#X obj 174 255 outlet~;
#X msg 324 105 100;
#X obj 316 74 loadbang;
#X obj 103 133 sfx-compressor~;
#X obj 103 53 sfx-ringmod~;
#X obj 103 73 sfx-fm~;
#X obj 103 93 sfx-randomdelay~;
#X obj 103 113 sfx-reverb~;
#X connect 0 0 5 0;
#X connect 2 0 6 1;
#X connect 3 0 2 0;
#X connect 4 0 1 0;
#X connect 5 0 6 0;
#X connect 6 0 7 0;
#X connect 7 0 8 0;
#X connect 8 0 4 0;
#X coords 0 -1 1 1 146 103 2 100 50;
#X restore 529 284 pd effects;
#X obj 453 63 bng 15 250 50 0 empty empty empty 17 7 0 10 -262144 -1
-1;
#X obj 362 286 sfx-envelope~;
#X connect 0 0 18 0;
#X connect 0 0 19 1;
#X connect 0 0 21 0;
#X connect 0 0 34 0;
#X connect 0 0 35 1;
#X connect 1 0 2 0;
#X connect 2 0 8 0;
#X connect 2 0 27 0;
#X connect 3 0 13 0;
#X connect 4 0 3 1;
#X connect 5 0 4 0;
#X connect 6 0 13 0;
#X connect 7 0 6 1;
#X connect 8 0 7 0;
#X connect 9 0 5 0;
#X connect 9 0 1 0;
#X connect 9 0 23 0;
#X connect 10 0 11 0;
#X connect 11 0 16 0;
#X connect 13 0 31 0;
#X connect 14 0 13 1;
#X connect 15 0 14 0;
#X connect 16 0 9 0;
#X connect 18 0 19 0;
#X connect 19 0 32 0;
#X connect 21 0 35 0;
#X connect 23 0 25 0;
#X connect 27 0 24 0;
#X connect 28 0 15 0;
#X connect 29 0 30 0;
#X connect 31 0 29 0;
#X connect 31 0 12 0;
#X connect 31 0 12 1;
#X connect 32 0 3 0;
#X connect 33 0 6 0;
#X connect 35 0 33 0;
#X coords 0 -1 1 1 590 301 2 100 100;
#X restore 156 215 pd guts;
#N canvas 269 71 290 474 transpose 0;
#X obj 139 3 vsl 30 200 0.95 1.05263 0 0 empty empty empty 0 -9 0 10
-228856 -1 -1 9695 1;
#X obj 48 44 pow;
#X floatatom 101 190 5 0 0 0 - - -;
#X floatatom 101 1 5 0 0 0 - - -;
#X obj 101 -44 r note-in;
#X obj 69 320 s note-out;
#X text 109 19 in;
#X text 109 171 out;
#X obj 184 73 vsl 15 80 1 5000 0 0 empty empty empty 0 -9 0 10 -191407
-1 -1 156 1;
#X floatatom 184 157 5 0 0 0 - - -;
#X obj 215 210 int;
#X obj 70 239 pipe;
#X floatatom 73 276 5 0 0 0 - - -;
#X obj 161 270 s play-note;
#X text 156 2 transpose;
#X text 178 48 delay;
#X obj 188 184 bng 15 250 50 0 empty empty empty 17 7 0 10 -262144
-1 -1;
#X obj 226 -32 loadbang;
#X msg 238 5 1;
#X obj 115 87 bng 15 250 50 0 empty empty empty 17 7 0 10 -262144 -1
-1;
#X text 106 66 reset;
#X obj 5 145 clip 20 100;
#X msg 239 74 100;
#X connect 0 0 1 1;
#X connect 1 0 21 0;
#X connect 2 0 11 0;
#X connect 2 0 13 0;
#X connect 3 0 1 0;
#X connect 4 0 3 0;
#X connect 8 0 10 0;
#X connect 9 0 11 1;
#X connect 10 0 9 0;
#X connect 11 0 12 0;
#X connect 12 0 5 0;
#X connect 12 0 16 0;
#X connect 17 0 18 0;
#X connect 17 0 22 0;
#X connect 18 0 0 0;
#X connect 19 0 18 0;
#X connect 21 0 2 0;
#X connect 22 0 8 0;
#X coords 0 -1 1 1 120 207 2 100 0;
#X restore 15 144 pd transpose;
#X text 793 14 master;
#X text 792 28 volume;
#N canvas 0 22 450 312 dsp 0;
#N canvas 691 217 482 356 dsp 0;
#X obj 11 7 inlet;
#X obj 92 226 select 0 1;
#X obj 92 57 route dsp;
#X obj 92 36 receive pd;
#X obj 206 138 loadbang;
#X msg 11 220 dsp \$1;
#X obj 11 245 send pd;
#X msg 235 275 set \$1;
#X obj 206 174 value GLOBAL_PDDP_DSP;
#X obj 180 309 send \$0-dsp-toggle;
#X obj 92 115 change;
#X msg 109 278 color \$1 20 12;
#X msg 162 253 13;
#X msg 64 254 1;
#X connect 0 0 5 0;
#X connect 0 0 10 0;
#X connect 1 0 13 0;
#X connect 1 1 12 0;
#X connect 2 0 10 0;
#X connect 3 0 2 0;
#X connect 4 0 8 0;
#X connect 5 0 6 0;
#X connect 7 0 9 0;
#X connect 8 0 7 0;
#X connect 8 0 1 0;
#X connect 10 0 7 0;
#X connect 10 0 1 0;
#X connect 10 0 8 0;
#X connect 11 0 9 0;
#X connect 12 0 11 0;
#X connect 13 0 11 0;
#X restore 109 158 pd dsp logic;
#X obj 101 101 tgl 30 0 FOO \$0-dsp-toggle dsp 2 15 1 12 -258699 -195568
-33289 1 1;
#X connect 1 0 0 0;
#X coords 0 -1 1 1 32 32 2 100 100;
#X restore 702 44 pd dsp;
#X obj 687 141 bng 60 100 50 0 empty play-note empty 17 7 0 10 -66577
-262144 -1;
#N canvas 59 24 529 345 test-note 0;
#X obj 184 101 bng 30 250 50 0 empty empty empty 17 7 0 10 -262144
-1 -1;
#X obj 231 235 s note-in;
#X obj 295 64 random 20;
#X obj 272 117 sel 0;
#X obj 229 194 tabread melody-array;
#X obj 328 141 int;
#X obj 354 142 + 1;
#X obj 329 164 mod;
#X obj 411 152 arraysize melody-array;
#X obj 354 111 random;
#X obj 389 82 t b b;
#X obj 391 58 loadbang;
#X obj 272 145 t b b;
#X text 111 105 create note;
#X floatatom 384 212 5 0 0 0 - - -;
#X msg 314 100 bang;
#X floatatom 315 25 5 0 0 0 - - -;
#X obj 431 20 bng 15 250 50 0 empty empty empty 17 7 0 10 -262144 -1
-1;
#X connect 0 0 2 0;
#X connect 2 0 3 0;
#X connect 2 0 16 0;
#X connect 3 0 12 0;
#X connect 3 1 15 0;
#X connect 4 0 1 0;
#X connect 5 0 6 0;
#X connect 5 0 7 0;
#X connect 6 0 5 1;
#X connect 7 0 4 0;
#X connect 7 0 14 0;
#X connect 8 0 7 1;
#X connect 8 0 9 1;
#X connect 9 0 5 1;
#X connect 10 0 9 0;
#X connect 10 1 8 0;
#X connect 11 0 10 0;
#X connect 12 0 5 0;
#X connect 12 1 9 0;
#X connect 15 0 5 0;
#X connect 17 0 10 0;
#X coords 0 -1 1 1 115 32 2 100 100;
#X restore 19 94 pd test-note;
#N canvas 59 24 450 300 stuff 0;
#X obj 75 41 loadbang;
#X msg 62 104 \; pd dsp 1 \; set-volume 0.8;
#X obj 235 95 declare -path silc;
#X connect 0 0 1 0;
#X restore 633 39 pd stuff;
#N canvas 155 113 450 300 meters 0;
#X obj 102 103 vu 15 120 empty empty -1 -8 0 10 -66577 -1 0 0;
#X obj 119 103 vu 15 120 empty empty -1 -8 0 10 -66577 -1 0 0;
#X obj 255 47 r total-lev;
#X obj 328 48 r total-lev;
#X connect 2 0 0 0;
#X connect 3 0 1 0;
#X coords 0 -1 1 1 36 126 2 100 100;
#X restore 790 329 pd meters;
#N canvas 0 22 487 387 store-melody 0;
#X obj 81 172 inlet;
#X obj 81 234 tabwrite melody-array;
#N canvas 0 22 450 300 (subpatch) 0;
#X array melody-array 50 float 1;
#A 0 99.008 49.9964 72.001 78.999 85.9969 90.9992 78.9992 85.9971 90.9993
49.0116 49.9965 66.9989 99.0081 77.0035 77.0035 66.9989 99.0081 77.0034
77.0034 66.9989 99.008 77.0034 49.0116 54.9988 61.0118 66.999 68.0098
68.9947 72.0012 78.9992 85.9971 90.9993 49.0116 49.9965 72.0011 78.9991
85.997 90.9993 49.0116 49.9965 66.9989 99.0081 49.9965 72.0011 78.9991
85.997 90.9993 49.0115 49.9964 66.9989;
#X coords 0 100 49 40 200 140 1;
#X restore 100 20 graph;
#X obj 339 226 loadbang;
#X obj 267 229 int;
#X obj 295 229 + 1;
#X obj 273 273 mod;
#X obj 335 251 arraysize melody-array;
#X obj 198 206 t f b;
#X connect 0 0 8 0;
#X connect 3 0 7 0;
#X connect 4 0 6 0;
#X connect 4 0 5 0;
#X connect 5 0 4 1;
#X connect 6 0 1 1;
#X connect 7 0 6 1;
#X connect 8 0 1 0;
#X connect 8 1 4 0;
#X restore 168 54 pd store-melody;
#X obj 147 -54 r toggle-connection;
#X obj 277 -55 net-listener-peepums /p1 /p2 /p3 /p4 /p5 /p6 /p7 /p8
;
#X obj 80 -28 net-sendosc2;
#X obj 19 -40 cnv 15 40 60 empty peepums-pnum-canvas 1 6 30 0 36 -233017
-66577 0;
#X text 20 -57 player;
#N canvas 177 366 570 316 adc 0;
#X obj 89 2 adc~;
#X obj 181 88 s note-out;
#X obj 307 42 r my-pnum;
#X obj 311 69 sel 1;
#X obj 319 122 switch~;
#X msg 353 94 0;
#X msg 269 167 \; set-volume 0;
#X obj 54 118 hsl 100 15 0 100 0 0 empty empty empty -2 -8 0 10 -1
-262144 -1 4079 1;
#X msg 318 94 1;
#X floatatom 124 101 5 0 0 0 - - -;
#X obj 32 59 env~ 1024;
#X msg 374 148 \; set-volume 0.8;
#X text 54 100 mic in (p1);
#X obj 25 165 mavg 10;
#X obj 208 242 change;
#X obj 208 194 int;
#X floatatom 212 266 5 0 0 0 - - -;
#X obj 209 166 * 8;
#X obj 207 216 / 8;
#X obj 88 57 moses 24;
#X obj 86 36 sigmund~ -hop 256 -npts 4096 notes;
#X connect 0 0 10 0;
#X connect 0 0 20 0;
#X connect 0 1 10 0;
#X connect 0 1 20 0;
#X connect 2 0 3 0;
#X connect 3 0 6 0;
#X connect 3 0 8 0;
#X connect 3 1 5 0;
#X connect 3 1 11 0;
#X connect 5 0 4 0;
#X connect 5 0 7 0;
#X connect 8 0 4 0;
#X connect 10 0 13 0;
#X connect 13 0 7 0;
#X connect 14 0 16 0;
#X connect 15 0 18 0;
#X connect 16 0 1 0;
#X connect 16 0 9 0;
#X connect 17 0 15 0;
#X connect 18 0 14 0;
#X connect 19 1 17 0;
#X connect 20 0 19 0;
#X coords 0 -1 1 1 107 34 2 50 100;
#X restore 28 41 pd adc;
#X obj 155 142 net-switcher2;
#X obj 156 82 net-listener2-peepums /p9 /p10 /p11 /p12 /p13 /p14 /p15
/p16;
#X obj 796 49 vsl 30 200 0 1 0 0 master-vol set-volume empty 0 -9 0
10 -258113 -1 -1 0 1;
#X text 37 383 rev. 120928;
#X connect 1 0 16 0;
#X connect 14 0 16 1;
#X connect 15 0 0 0;
#X connect 15 0 13 0;
#X connect 15 1 0 1;
#X connect 15 2 0 2;
#X connect 15 3 0 3;
#X connect 15 4 0 4;
#X connect 15 5 0 5;
#X connect 15 6 0 6;
#X connect 15 7 0 7;
#X connect 21 0 20 0;
#X connect 21 1 20 1;
#X connect 21 2 20 2;
#X connect 21 3 20 3;
#X connect 21 4 20 4;
#X connect 21 5 20 5;
#X connect 21 6 20 6;
#X connect 21 7 20 7;
