#N canvas 3 27 975 625 10;
#X text 130 514 NRCI-UC;
#X text 123 529 16 Feb 2011;
#X obj 596 298 tgl 30 0 set-dsp empty DSP 4 -7 0 10 -258113 -1 -1 1
1;
#N canvas 0 0 450 300 dsp 0;
#X msg 166 87 \; pd dsp \$1;
#X obj 165 39 r set-dsp;
#X text 89 196 NRCI created by Chris Burns & Greg Surges;
#X text 91 218 Updated for CiCLOP by Joel Matthys;
#X connect 1 0 0 0;
#X restore 39 522 pd dsp;
#X obj 419 445 sfx-randomdelay~ E;
#X obj 22 220 cnv 15 180 290 empty empty empty 20 12 0 14 -233017 -66577
0;
#X obj 104 230 sfx-synth~;
#X text 35 229 SYNTHESIS;
#X text 30 296 note:;
#X text 30 313 sfx-synth~;
#X text 30 330 requires;
#X text 30 347 note data;
#X obj 658 311 sfx-mixer~;
#X obj 104 370 sfx-synth~;
#X obj 422 476 sfx-randomdelay~ E;
#X obj 420 122 - 500;
#X obj 461 122 - 500;
#X obj 405 79 pdj AccelerationXYZ;
#X msg 590 431 20;
#X floatatom 485 187 5 0 0 0 - - -;
#X floatatom 365 188 5 0 0 0 - - -;
#X obj 421 152 / 20;
#X obj 462 152 / 30;
#X connect 4 0 12 0;
#X connect 6 0 4 0;
#X connect 13 0 14 0;
#X connect 14 0 12 1;
#X connect 15 0 21 0;
#X connect 16 0 22 0;
#X connect 17 2 15 0;
#X connect 17 3 16 0;
#X connect 18 0 14 1;
#X connect 18 0 4 1;
#X connect 19 0 13 0;
#X connect 20 0 6 0;
#X connect 21 0 20 0;
#X connect 22 0 19 0;
