#N canvas 472 160 562 292 10;
#X declare -lib mrpeach;
#X obj 345 28 net-sendosc 127.0.0.1 /p1;
#X obj 184 -38 nbx 5 14 -1e+37 1e+37 0 0 empty empty empty 0 -8 0 10
-262144 -1 -1 58.2769 256;
#X text 15 -76 2 Play \, man!;
#X text 124 -39 MIDI note;
#X text 14 -115 1 Change net-sendosc ip address and;
#X text 46 -98 check box to start sending data;
#X obj 320 -79 moses 22;
#X msg 357 -203 bang;
#X obj 271 -84 bonk~;
#X obj 345 -31 f;
#X msg 313 -54 bang;
#X obj 238 -39 bng 15 250 50 0 empty empty empty 17 7 0 10 -262144
-1 -1;
#N canvas 0 0 450 300 mic-in 0;
#X obj 232 37 adc~;
#X obj 240 61 hip~ 5;
#X obj 274 -52 switch~;
#X obj 169 101 tgl 15 0 empty empty empty 17 7 0 10 -262144 -1 -1 0
1;
#X obj 244 114 outlet~;
#X connect 0 0 1 0;
#X connect 0 1 1 0;
#X connect 1 0 4 0;
#X connect 3 0 2 0;
#X coords 0 -1 1 1 85 17 1 100 100;
#X restore 258 -162 pd mic-in;
#N canvas 0 0 453 442 compare-to-prev 0;
#X obj 111 41 inlet;
#X obj 125 118 f;
#X obj 177 119 f;
#X floatatom 177 160 5 0 0 0 - - -;
#X floatatom 125 158 5 0 0 0 - - -;
#X obj 158 196 -;
#X obj 159 225 abs;
#X floatatom 164 254 5 0 0 0 - - -;
#X obj 170 71 t f b f;
#X floatatom 213 330 5 0 0 0 - - -;
#X obj 251 263 f;
#X obj 141 308 > \$1;
#X floatatom 145 336 5 0 0 0 - - -;
#X obj 149 363 sel 1;
#X msg 150 391 bang;
#X obj 210 358 outlet;
#X connect 0 0 8 0;
#X connect 1 0 2 1;
#X connect 1 0 4 0;
#X connect 2 0 3 0;
#X connect 3 0 5 1;
#X connect 4 0 5 0;
#X connect 5 0 6 0;
#X connect 6 0 7 0;
#X connect 7 0 11 0;
#X connect 8 0 1 0;
#X connect 8 1 2 0;
#X connect 8 2 10 1;
#X connect 9 0 15 0;
#X connect 10 0 9 0;
#X connect 11 0 12 0;
#X connect 12 0 13 0;
#X connect 13 0 14 0;
#X connect 14 0 10 0;
#X restore 345 -2 pd compare-to-prev 0.5;
#X obj 320 -104 sigmund~ -hop 4096 pitch;
#X text 19 -145 WAXLIPS LEADER (Melody maker);
#X obj 358 -165 synth-loop~;
#X obj 482 -118 output~;
#X connect 6 1 1 0;
#X connect 6 1 9 1;
#X connect 7 0 16 0;
#X connect 8 0 10 0;
#X connect 9 0 13 0;
#X connect 10 0 9 0;
#X connect 12 0 8 0;
#X connect 12 0 14 0;
#X connect 13 0 0 0;
#X connect 13 0 11 0;
#X connect 14 0 6 0;
#X connect 16 0 8 0;
#X connect 16 0 14 0;
#X connect 16 0 17 0;
#X connect 16 0 17 1;
