#N canvas 1343 74 961 657 10;
#X declare -lib mrpeach;
#X declare -lib mrpeach;
#X text 131 538 NRCI-UC;
#X obj 212 317 cnv 15 370 220 empty empty empty 20 12 0 14 -233017
-66577 0;
#X obj 272 429 sfx-ampenv~ e;
#X obj 420 349 sfx-combfilter~ 99 f;
#X obj 420 389 sfx-distortion~ g;
#X obj 420 409 sfx-feedback~ h;
#X obj 420 449 sfx-ffm~ i;
#X obj 420 429 sfx-fm~ A;
#X obj 272 449 sfx-gate~ B;
#X obj 420 329 sfx-randomcomb~ D;
#X obj 420 489 sfx-reverb~ F;
#X obj 420 369 sfx-ringmod~ G;
#X obj 420 509 sfx-scrub~ H;
#X obj 272 329 sfx-lowpass~ I;
#X obj 272 349 sfx-highpass~ J;
#X obj 420 469 sfx-randomdelay~ E;
#X obj 272 389 sfx-bandpass~ 0.9 K;
#X obj 272 369 sfx-randombpass~ L;
#X text 212 334 EFFECTS;
#X obj 611 309 sfx-pan~;
#X obj 23 244 cnv 15 180 290 empty empty empty 20 12 0 14 -233017 -66577
0;
#X text 36 253 SYNTHESIS;
#X obj 335 469 sfx-pan~;
#X obj 279 -59 net-listener /p1 /p2 /p3 /p4 /p5 /p6 /p7 /p8;
#X obj 361 32 net-switcher;
#X obj 82 -67 r note-out;
#X text 93 14 WAXLIPS;
#X text 120 78 player number (/p2 \, /p3 etc);
#X text 88 44 1 Change net-sendosc above to the;
#X text 120 61 server ip address and your;
#N canvas 0 0 450 300 test-note 0;
#X obj 238 156 outlet;
#X obj 184 101 bng 15 250 50 0 empty empty empty 17 7 0 10 -262144
-1 -1;
#X obj 239 127 + 50;
#X obj 241 98 random 45;
#X connect 1 0 3 0;
#X connect 2 0 0 0;
#X connect 3 0 2 0;
#X coords 0 -1 1 1 100 17 1 100 100;
#X restore 76 154 pd test-note;
#X obj 272 409 sfx-compressor~ M;
#X text 124 124 of your own design;
#X obj 356 108 r note-in;
#X obj 82 -47 net-sendosc 10.42.43.1 /set-me;
#X obj 213 189 cnv 15 370 120 empty empty empty 20 12 0 14 -233017
-66577 0;
#X text 382 187 WAVEFORM;
#X obj 632 164 waxlips-transformer;
#X text 438 120 one less than your number;
#X text 606 109 |;
#X text 607 106 ^;
#X text 606 119 |;
#X text 84 106 2 Connect to sound instrument;
#X text 260 101 ______________;
#X text 342 107 >;
#X text 796 107 |;
#X text 796 117 |;
#X text 795 122 V;
#X text 423 107 3 Check the box of the player;
#X text 750 69 4 twist knobs to alter;
#X text 765 86 outgoing data;
#X obj 105 254 sfx-synth~ a;
#X obj 105 394 sfx-synth~ b;
#X obj 243 199 synth-wave~ c;
#X obj 416 203 sfx-envelope~ d;
#X text 124 553 27 Mar 2011;
#N canvas 0 0 450 312 dsp 0;
#N canvas 691 217 482 356 dsp 0;
#X obj 11 7 inlet;
#X obj 92 226 select 0 1;
#X obj 92 57 route dsp;
#X obj 92 36 receive pd;
#X obj 206 138 loadbang;
#X msg 11 220 dsp \$1;
#X obj 11 245 send pd;
#X msg 235 275 set \$1;
#X obj 206 174 value GLOBAL_PDDP_DSP;
#X obj 180 309 send \$0-dsp-toggle;
#X obj 92 115 change;
#X msg 109 278 color \$1 20 12;
#X msg 162 253 13;
#X msg 64 254 1;
#X connect 0 0 5 0;
#X connect 0 0 10 0;
#X connect 1 0 13 0;
#X connect 1 1 12 0;
#X connect 2 0 10 0;
#X connect 3 0 2 0;
#X connect 4 0 8 0;
#X connect 5 0 6 0;
#X connect 7 0 9 0;
#X connect 8 0 7 0;
#X connect 8 0 1 0;
#X connect 10 0 7 0;
#X connect 10 0 1 0;
#X connect 10 0 8 0;
#X connect 11 0 9 0;
#X connect 12 0 11 0;
#X connect 13 0 11 0;
#X restore 109 158 pd dsp logic;
#X obj 101 101 tgl 30 0 FOO \$0-dsp-toggle dsp 2 15 1 12 -258699 -195568
-33289 1 1;
#X connect 1 0 0 0;
#X coords 0 -1 1 1 32 32 2 100 100;
#X restore 693 315 pd dsp;
#X obj 611 374 sfx-mixer~;
#X obj 405 164 *~;
#X obj 308 162 * 1.414;
#X connect 2 0 8 0;
#X connect 3 0 11 0;
#X connect 4 0 5 0;
#X connect 5 0 7 0;
#X connect 6 0 15 0;
#X connect 7 0 6 0;
#X connect 8 0 9 0;
#X connect 9 0 3 0;
#X connect 10 0 12 0;
#X connect 11 0 4 0;
#X connect 12 0 19 0;
#X connect 13 0 14 0;
#X connect 14 0 17 0;
#X connect 15 0 10 0;
#X connect 16 0 31 0;
#X connect 17 0 16 0;
#X connect 19 0 57 0;
#X connect 19 1 57 1;
#X connect 23 0 24 0;
#X connect 23 2 24 1;
#X connect 23 4 24 2;
#X connect 23 6 24 3;
#X connect 23 8 24 4;
#X connect 23 10 24 5;
#X connect 23 12 24 6;
#X connect 23 14 24 7;
#X connect 25 0 34 0;
#X connect 30 0 51 0;
#X connect 31 0 2 0;
#X connect 33 0 51 0;
#X connect 33 0 54 1;
#X connect 33 0 59 0;
#X connect 33 0 19 1;
#X connect 33 0 3 1;
#X connect 51 0 58 1;
#X connect 53 0 58 0;
#X connect 54 0 13 0;
#X connect 58 0 54 0;
#X connect 59 0 53 0;
