#N canvas 0 0 977 598 10;
#X obj 668 258 cdata-rlinearhi 40 100;
#X obj 668 277 cdata-rlinearlo 10 100;
#X obj 668 296 cdata-rtriangle 40 100;
#X obj 668 314 cdata-sinusoid 20 100 0.55;
#X obj 657 500 cdata-triangular 20 100 0.55;
#X obj 668 239 cdata-random 60 72;
#X obj 423 259 cdata-cycle 40 100;
#X obj 423 278 cdata-heap 40 100;
#X obj 421 213 cdata-constant 100;
#X obj 342 102 vradio 16 1 0 9 empty empty empty 0 -8 0 10 -262144
-1 -1 3;
#X text 289 101 constant;
#X text 231 148 random (low \, high);
#X text 237 117 cycle (low \, high);
#X text 243 133 heap (low \, high);
#X text 141 165 random - weighted low (low \, high);
#X text 135 181 random - weighted high (low \, high);
#X text 123 197 random - weighted center (low \, high);
#X text 177 213 sinusoid (low \, high \, scale);
#X text 177 230 triangle (low \, high \, scale);
#X obj 419 -33 inlet;
#X msg 419 -9 bang;
#X obj 620 206 sel 0 1 2 3 4 5 6 7 8;
#X obj 668 33 s \$0-low;
#X obj 669 62 s \$0-high;
#X floatatom 255 102 5 0 0 0 - - -;
#X obj 855 -17 loadbang;
#X msg 879 51 100;
#X floatatom 134 126 5 0 0 0 - - -;
#X floatatom 134 145 5 0 0 0 - - -;
#X text 111 125 LOW;
#X text 104 144 HIGH;
#X text 101 224 SCALE;
#X floatatom 138 223 5 0 0 0 - - -;
#X obj 436 172 r \$0-low;
#X obj 499 169 r \$0-high;
#X obj 818 188 r \$0-low;
#X obj 874 191 r \$0-high;
#X msg 846 49 40;
#X obj 409 353 * 0.01;
#X msg 815 45 50;
#X obj 382 104 bng 15 250 50 0 empty empty empty 17 7 0 10 -262144
-1 -1;
#X obj 566 437 demux;
#X obj 459 469 int;
#X floatatom 364 230 5 0 0 0 - - -;
#X obj 376 205 tgl 15 0 empty empty empty 17 7 0 10 -262144 -1 -1 0
1;
#X text 362 187 round;
#X obj 511 523 outlet;
#X floatatom 405 384 5 0 0 0 - - -;
#X msg 780 45 3;
#X obj 796 21 t b b b b b;
#X msg 913 52 60;
#X connect 0 0 41 0;
#X connect 1 0 41 0;
#X connect 2 0 41 0;
#X connect 3 0 41 0;
#X connect 4 0 41 0;
#X connect 5 0 41 0;
#X connect 6 0 41 0;
#X connect 7 0 41 0;
#X connect 8 0 41 0;
#X connect 9 0 21 0;
#X connect 19 0 20 0;
#X connect 20 0 9 0;
#X connect 20 0 40 0;
#X connect 21 0 8 0;
#X connect 21 1 6 0;
#X connect 21 2 7 0;
#X connect 21 3 5 0;
#X connect 21 4 1 0;
#X connect 21 5 0 0;
#X connect 21 6 2 0;
#X connect 21 7 3 0;
#X connect 21 8 4 0;
#X connect 24 0 8 1;
#X connect 25 0 49 0;
#X connect 26 0 28 0;
#X connect 27 0 22 0;
#X connect 28 0 23 0;
#X connect 32 0 38 0;
#X connect 33 0 7 1;
#X connect 33 0 6 1;
#X connect 34 0 7 2;
#X connect 34 0 6 2;
#X connect 35 0 5 1;
#X connect 35 0 0 1;
#X connect 35 0 1 1;
#X connect 35 0 2 1;
#X connect 35 0 3 1;
#X connect 35 0 4 1;
#X connect 36 0 5 2;
#X connect 36 0 0 2;
#X connect 36 0 1 2;
#X connect 36 0 2 2;
#X connect 36 0 3 2;
#X connect 36 0 4 2;
#X connect 37 0 27 0;
#X connect 38 0 3 3;
#X connect 38 0 47 0;
#X connect 38 0 4 3;
#X connect 39 0 32 0;
#X connect 41 0 43 0;
#X connect 41 1 42 0;
#X connect 42 0 43 0;
#X connect 43 0 46 0;
#X connect 44 0 41 1;
#X connect 48 0 9 0;
#X connect 49 0 48 0;
#X connect 49 1 39 0;
#X connect 49 2 37 0;
#X connect 49 3 26 0;
#X connect 49 4 50 0;
#X connect 50 0 24 0;
#X coords 0 -1 1 1 300 150 1 100 100;
