#N canvas 333 102 461 498 10;
#X obj 176 9 inlet;
#X obj 176 319 outlet;
#X text 218 9 stream of incoming bangs;
#X text 226 319 stream of values;
#X obj 204 34 + 1;
#X obj 176 34 int;
#X obj 176 83 sin;
#X text 232 35 counter;
#X text 213 58 multiply by \$3 scale factor;
#X obj 176 59 * \$3;
#X obj 176 282 +;
#X obj 192 218 -;
#X obj 176 243 *;
#X text 18 353 output sinusoidally oscillating values;
#X text 18 368 three user-specified value (\$1 \, \$2 \, \$3): lower
threshold \,;
#X text 19 401 one inlet: stream of bangs (timing messages);
#X text 19 415 one outlet: stream of numeric values;
#X text 39 384 upper threshold \, scale factor (frequency in radians)
;
#X text 229 73 (in radians);
#X obj 176 105 * 0.5;
#X floatatom 176 301 5 0 0 0 - - -;
#X text 19 339 cdata-sinusoid.pd;
#X obj 287 166 f \$2;
#X obj 322 166 f \$1;
#X obj 287 123 loadbang;
#X obj 287 142 t b b;
#X obj 355 121 inlet;
#X obj 395 140 inlet;
#X obj 370 187 t b f;
#X obj 406 187 t b f;
#X obj 176 128 + 0.5;
#X obj 439 130 inlet;
#X connect 0 0 5 0;
#X connect 4 0 5 1;
#X connect 5 0 4 0;
#X connect 5 0 9 0;
#X connect 6 0 19 0;
#X connect 9 0 6 0;
#X connect 10 0 20 0;
#X connect 11 0 12 1;
#X connect 12 0 10 0;
#X connect 19 0 30 0;
#X connect 20 0 1 0;
#X connect 22 0 11 0;
#X connect 23 0 11 1;
#X connect 23 0 10 1;
#X connect 24 0 25 0;
#X connect 25 0 22 0;
#X connect 25 1 23 0;
#X connect 26 0 28 0;
#X connect 27 0 29 0;
#X connect 28 0 25 0;
#X connect 28 1 23 1;
#X connect 29 0 25 0;
#X connect 29 1 22 1;
#X connect 30 0 12 0;
#X connect 31 0 9 1;
#X coords 0 -1 1 1 210 17 1 0 300;
