#N canvas 486 146 538 322 10;
#X obj 148 17 inlet;
#X obj 148 159 outlet;
#X text 196 87 \$1 is constant value;
#X obj 148 86 f \$1;
#X text 18 234 one user-specified value (\$1): output value;
#X text 19 248 one inlet: stream of durations in msec;
#X text 18 219 produce value/duration pairs with constant value;
#X text 190 17 stream of incoming bangs;
#X text 198 159 stream of values;
#X floatatom 148 131 5 0 0 0 - - -;
#X text 191 130 output value;
#X text 19 205 cdata-constant.pd;
#X text 19 261 one outlet: stream of constant values (timed to match
input);
#X obj 372 42 inlet;
#X connect 0 0 3 0;
#X connect 3 0 9 0;
#X connect 9 0 1 0;
#X connect 13 0 3 1;
#X coords 0 -1 1 1 170 17 1 12 130;
