#N canvas 95 137 430 534 10;
#X obj -1 11 inlet;
#X obj 176 371 outlet;
#X text 18 439 two user-specified values (\$1 \, \$2): lower \, upper
thresholds;
#X obj -1 158 random;
#X obj 176 330 +;
#X obj 71 93 -;
#X text 35 452 for random value;
#X text 43 10 stream of incoming bangs;
#X text 17 472 one inlet: stream of bang messages;
#X text 17 487 one outlet: stream of random values;
#X text 226 371 stream of random values;
#X floatatom 176 351 5 0 0 0 - - -;
#X obj -1 30 t b b;
#X obj 71 129 t f f;
#X obj 46 158 random;
#X obj 71 111 * 100;
#X obj 60 287 / 100;
#X obj -1 179 t f f;
#X obj 46 178 t f f;
#X obj -1 207 <=;
#X obj 13 255 f;
#X obj 60 254 f;
#X text 17 424 produce streams of random values (linear distribution)
;
#X obj -1 227 sel 1 0;
#X text 18 410 cdata-rlinearlo.pd;
#X obj 207 64 f \$2;
#X obj 242 64 f \$1;
#X obj 207 21 loadbang;
#X obj 207 40 t b b;
#X obj 275 19 inlet;
#X obj 315 38 inlet;
#X obj 290 85 t b f;
#X obj 326 85 t b f;
#X connect 0 0 12 0;
#X connect 3 0 17 0;
#X connect 4 0 11 0;
#X connect 5 0 15 0;
#X connect 11 0 1 0;
#X connect 12 0 3 0;
#X connect 12 1 14 0;
#X connect 13 0 3 1;
#X connect 13 1 14 1;
#X connect 14 0 18 0;
#X connect 15 0 13 0;
#X connect 16 0 4 0;
#X connect 17 0 19 0;
#X connect 17 1 20 1;
#X connect 18 0 19 1;
#X connect 18 1 21 1;
#X connect 19 0 23 0;
#X connect 20 0 16 0;
#X connect 21 0 16 0;
#X connect 23 0 20 0;
#X connect 23 1 21 0;
#X connect 25 0 5 0;
#X connect 26 0 4 1;
#X connect 26 0 5 1;
#X connect 27 0 28 0;
#X connect 28 0 25 0;
#X connect 28 1 26 0;
#X connect 29 0 31 0;
#X connect 30 0 32 0;
#X connect 31 0 28 0;
#X connect 31 1 26 1;
#X connect 32 0 28 0;
#X connect 32 1 25 1;
#X coords 0 -1 1 1 170 17 1 40 350;
