#N canvas 129 39 677 619 10;
#X obj 304 25 inlet;
#X text 346 28 on/off switch;
#X text 345 39 (0 = off \, 1 = on);
#X obj 354 436 outlet;
#X text 23 541 one inlet: on/off switch (nonzero/zero);
#X text 23 556 one outlet: stream of bang messages;
#X obj 297 350 spigot;
#X obj 304 70 t f f;
#X obj 156 107 sel 1;
#X obj 297 437 delay;
#X obj 297 457 s \$0-retrigger;
#X obj 51 107 r \$0-retrigger;
#X text 404 436 stream of bangs;
#X obj 184 153 + 1;
#X obj 156 153 int;
#X text 212 154 counter;
#X obj 202 106 r \$0-reset;
#X msg 202 124 0;
#X text 83 190 increment;
#X obj 156 337 s \$0-reset;
#X obj 156 216 pow;
#X obj 156 172 trigger b f;
#X obj 156 191 f \$3;
#X text 29 483 produce a geometrically decreasing timed stream of bangs
;
#X obj 156 236 trigger b f;
#X obj 156 277 -;
#X obj 156 255 f \$1;
#X obj 156 297 moses \$2;
#X obj 304 51 tgl 15 0 empty empty empty 0 -6 0 8 -262144 -1 -1 1 1
;
#X obj 297 370 trigger b f b b f;
#X text 27 499 four user-specified values: upper \, lower thresholds
;
#X obj 232 25 select \$4;
#X text 27 470 ctime-gdecrease.pd;
#X obj 232 2 internals-keyswitch;
#X text 38 513 for time interval between bangs (\$1 \, \$2) \, decrement
;
#X text 34 527 scale factor (\$3) \, on/off key assignment (\$4);
#X obj 411 392 s duration-report;
#X obj 382 415 s rhythm-report;
#X obj 387 98 inlet;
#X obj 427 99 inlet;
#X obj 467 99 inlet;
#X connect 0 0 28 0;
#X connect 6 0 29 0;
#X connect 7 0 8 0;
#X connect 7 1 6 1;
#X connect 8 0 14 0;
#X connect 9 0 10 0;
#X connect 11 0 14 0;
#X connect 13 0 14 1;
#X connect 14 0 13 0;
#X connect 14 0 21 0;
#X connect 16 0 17 0;
#X connect 17 0 14 0;
#X connect 20 0 24 0;
#X connect 21 0 22 0;
#X connect 21 1 20 1;
#X connect 22 0 20 0;
#X connect 24 0 26 0;
#X connect 24 1 25 1;
#X connect 25 0 27 0;
#X connect 26 0 25 0;
#X connect 27 0 19 0;
#X connect 27 1 6 0;
#X connect 28 0 7 0;
#X connect 29 0 9 0;
#X connect 29 1 9 1;
#X connect 29 2 3 0;
#X connect 29 3 37 0;
#X connect 29 4 36 0;
#X connect 31 0 28 0;
#X connect 33 0 31 0;
#X connect 38 0 27 1;
#X connect 39 0 26 1;
#X connect 40 0 22 1;
#X coords 0 -1 1 1 230 17 1 90 50;
