#N canvas 290 181 464 380 10;
#X obj 127 27 inlet;
#X obj 101 103 tgl 15 0 empty empty empty 17 7 0 10 -262144 -1 -1 0
1;
#X obj 222 103 vradio 15 1 0 4 empty empty empty 0 -8 0 10 -262144
-1 -1 0;
#X obj -2 228 spigot;
#X floatatom 246 102 5 0 0 0 - - -;
#X floatatom 246 133 5 0 0 0 - - -;
#X obj 321 121 min;
#X obj 353 121 max;
#X obj 322 86 t b f;
#N canvas 0 0 450 300 random-range 0;
#X obj 181 169 random 2000;
#X floatatom 270 65 5 0 0 0 - - -;
#X floatatom 341 63 5 0 0 0 - - -;
#X obj 304 133 -;
#X floatatom 301 163 5 0 0 0 - - -;
#X obj 181 190 +;
#X obj 281 96 t f f;
#X msg 142 46 bang;
#X text 265 45 low;
#X text 340 44 high;
#X obj 174 217 outlet;
#X obj 145 22 inlet;
#X obj 263 26 inlet;
#X obj 335 25 inlet;
#X connect 0 0 5 0;
#X connect 1 0 6 0;
#X connect 2 0 3 0;
#X connect 3 0 4 0;
#X connect 4 0 0 1;
#X connect 5 0 10 0;
#X connect 6 0 3 1;
#X connect 6 1 5 1;
#X connect 7 0 0 0;
#X connect 11 0 7 0;
#X connect 12 0 1 0;
#X connect 13 0 2 0;
#X restore 183 228 pd random-range;
#N canvas 0 0 450 300 random-range 0;
#X obj 181 169 random 2000;
#X floatatom 270 65 5 0 0 0 - - -;
#X floatatom 341 63 5 0 0 0 - - -;
#X obj 304 133 -;
#X floatatom 301 163 5 0 0 0 - - -;
#X obj 181 190 +;
#X obj 281 96 t f f;
#X msg 142 46 bang;
#X text 265 45 low;
#X text 340 44 high;
#X obj 174 217 outlet;
#X obj 145 22 inlet;
#X obj 263 26 inlet;
#X obj 335 25 inlet;
#X connect 0 0 5 0;
#X connect 1 0 6 0;
#X connect 2 0 3 0;
#X connect 3 0 4 0;
#X connect 4 0 0 1;
#X connect 5 0 10 0;
#X connect 6 0 3 1;
#X connect 6 1 5 1;
#X connect 7 0 0 0;
#X connect 11 0 7 0;
#X connect 12 0 1 0;
#X connect 13 0 2 0;
#X restore 280 227 pd random-range;
#X obj 90 170 demux 0 1 2 3;
#X obj 266 284 +;
#N canvas 0 0 450 300 random-range 0;
#X obj 181 169 random 2000;
#X floatatom 270 65 5 0 0 0 - - -;
#X floatatom 341 63 5 0 0 0 - - -;
#X obj 304 133 -;
#X floatatom 301 163 5 0 0 0 - - -;
#X obj 181 190 +;
#X obj 281 96 t f f;
#X msg 142 46 bang;
#X text 265 45 low;
#X text 340 44 high;
#X obj 174 217 outlet;
#X obj 145 22 inlet;
#X obj 263 26 inlet;
#X obj 335 25 inlet;
#X connect 0 0 5 0;
#X connect 1 0 6 0;
#X connect 2 0 3 0;
#X connect 3 0 4 0;
#X connect 4 0 0 1;
#X connect 5 0 10 0;
#X connect 6 0 3 1;
#X connect 6 1 5 1;
#X connect 7 0 0 0;
#X connect 11 0 7 0;
#X connect 12 0 1 0;
#X connect 13 0 2 0;
#X restore 67 238 pd random-range;
#X obj 26 284 t b b;
#X obj 47 195 t b f b b b;
#X obj 18 354 outlet;
#X obj 266 308 * 0.5;
#X text 303 303 triangular;
#X obj 217 285 max;
#X obj 185 285 min;
#X obj 161 317 f;
#X obj 201 317 f;
#X obj 249 333 f;
#X msg 134 199 bang;
#X msg 171 200 bang;
#X msg 208 201 bang;
#X text 250 115 low;
#X text 250 148 high;
#X text 178 100 random;
#X text 154 114 random-low;
#X text 149 129 random-high;
#X text 115 144 random-triangular;
#X obj 222 8 loadbang;
#X msg 218 70 0;
#X obj 249 35 t b b b;
#X msg 254 66 1000;
#X obj 101 151 bng 10 50 20 0 empty empty empty 17 7 0 10 -262144 -1
-1;
#X obj 4 72 t b b;
#X obj 312 157 t f f f;
#X obj 365 156 t f f f;
#X obj 32 125 t b f b b;
#X floatatom 110 328 5 0 0 0 - - -;
#X text 100 128 random;
#X obj 377 40 max 10;
#X obj 377 61 max 10;
#X msg 294 64 1000;
#X obj 71 355 del 1000;
#X text 100 115 ctime-;
#X connect 0 0 1 0;
#X connect 1 0 41 0;
#X connect 2 0 11 1;
#X connect 3 0 14 0;
#X connect 4 0 44 0;
#X connect 5 0 45 0;
#X connect 6 0 39 0;
#X connect 7 0 40 0;
#X connect 8 0 6 0;
#X connect 8 0 7 0;
#X connect 8 1 6 1;
#X connect 8 1 7 1;
#X connect 9 0 12 0;
#X connect 9 0 19 0;
#X connect 9 0 20 0;
#X connect 10 0 12 1;
#X connect 10 0 19 1;
#X connect 10 0 20 1;
#X connect 11 0 13 0;
#X connect 11 1 24 0;
#X connect 11 2 25 0;
#X connect 11 3 26 0;
#X connect 12 0 17 0;
#X connect 13 0 42 0;
#X connect 14 0 47 0;
#X connect 14 1 16 0;
#X connect 14 1 37 0;
#X connect 15 0 3 0;
#X connect 15 3 9 0;
#X connect 15 4 10 0;
#X connect 17 0 23 1;
#X connect 19 0 22 1;
#X connect 20 0 21 1;
#X connect 21 0 42 0;
#X connect 22 0 42 0;
#X connect 23 0 42 0;
#X connect 24 0 21 0;
#X connect 25 0 22 0;
#X connect 26 0 23 0;
#X connect 33 0 35 0;
#X connect 34 0 2 0;
#X connect 35 0 34 0;
#X connect 35 1 36 0;
#X connect 35 2 46 0;
#X connect 36 0 4 0;
#X connect 38 0 15 0;
#X connect 38 1 11 0;
#X connect 39 0 13 1;
#X connect 39 1 9 1;
#X connect 39 2 10 1;
#X connect 40 0 13 2;
#X connect 40 1 9 2;
#X connect 40 2 10 2;
#X connect 41 0 15 0;
#X connect 41 1 3 1;
#X connect 41 2 4 0;
#X connect 41 3 5 0;
#X connect 42 0 47 1;
#X connect 44 0 7 0;
#X connect 44 0 6 0;
#X connect 45 0 8 0;
#X connect 46 0 5 0;
#X connect 47 0 38 0;
#X coords 0 -1 1 1 180 65 2 100 100;
