#N canvas 129 39 610 622 10;
#X obj 284 25 inlet;
#X text 328 24 on/off switch;
#X text 328 36 (0 = off \, 1 = on);
#X obj 334 455 outlet;
#X text 29 561 one inlet: on/off switch (nonzero/zero);
#X text 27 577 one outlet: stream of bang messages;
#X obj 277 375 spigot;
#X obj 284 70 t f f;
#X obj 139 119 sel 1;
#X obj 277 456 delay;
#X obj 277 476 s \$0-retrigger;
#X obj 34 119 r \$0-retrigger;
#X text 384 455 stream of bangs;
#X obj 167 225 + 1;
#X obj 139 225 int;
#X text 78 226 counter;
#X text 44 529 for time interval between bangs (\$1 \, \$2) \, increment
;
#X text 66 253 increment;
#X obj 139 277 + \$1;
#X obj 190 317 moses \$2;
#X obj 139 383 s \$0-reset;
#X obj 195 159 sel 0 1;
#X obj 195 117 r \$0-reset;
#X text 32 498 linearly increasing/decreasing timed stream of bangs
;
#X obj 139 298 moses \$1;
#X obj 251 158 loadbang;
#X msg 139 318 0;
#X msg 241 336 1;
#X obj 195 136 t b f;
#X msg 195 188 1;
#X msg 224 188 -1;
#X obj 139 253 * \$3;
#X obj 284 51 tgl 15 0 empty empty empty 0 -6 0 8 -262144 -1 -1 0 1
;
#X obj 277 395 trigger b f b b f;
#X obj 217 25 select \$4;
#X text 33 515 four user-specified values: lower \, upper thresholds
;
#X text 40 543 (in msec) (\$3) \, on/off key assignment (\$4);
#X obj 217 2 internals-keyswitch;
#X text 34 483 ctime-triangular.pd;
#X obj 391 415 s duration-report;
#X obj 362 435 s rhythm-report;
#X connect 0 0 32 0;
#X connect 6 0 33 0;
#X connect 7 0 8 0;
#X connect 7 1 6 1;
#X connect 8 0 14 0;
#X connect 9 0 10 0;
#X connect 11 0 14 0;
#X connect 13 0 14 1;
#X connect 14 0 13 0;
#X connect 14 0 31 0;
#X connect 18 0 24 0;
#X connect 19 0 6 0;
#X connect 19 1 27 0;
#X connect 21 0 29 0;
#X connect 21 1 30 0;
#X connect 22 0 28 0;
#X connect 24 0 26 0;
#X connect 24 1 19 0;
#X connect 25 0 29 0;
#X connect 26 0 20 0;
#X connect 27 0 20 0;
#X connect 28 0 14 0;
#X connect 28 1 21 0;
#X connect 29 0 13 1;
#X connect 30 0 13 1;
#X connect 31 0 18 0;
#X connect 32 0 7 0;
#X connect 33 0 9 0;
#X connect 33 1 9 1;
#X connect 33 2 3 0;
#X connect 33 3 40 0;
#X connect 33 4 39 0;
#X connect 34 0 32 0;
#X connect 37 0 34 0;
#X coords 0 -1 1 1 230 17 1 70 50;
