#N canvas 151 273 811 398 10;
#X obj 597 99 ctime-gincrease 1000 2000 10;
#X obj 602 120 ctime-gdecrease 1000 2000 10;
#X obj 344 98 ctime-lincrease 1000 2000 10;
#X obj 345 119 ctime-ldecrease 1000 2000 10;
#X obj 113 51 inlet;
#X obj 101 103 tgl 15 0 empty empty empty 17 7 0 10 -262144 -1 -1 0
1;
#X obj 101 151 bng 10 50 20 0 empty empty empty 17 7 0 10 -262144 -1
-1;
#X obj 213 102 vradio 15 1 0 2 empty empty empty 0 -8 0 10 -262144
-1 -1 0;
#X obj 213 132 vradio 15 1 0 2 empty empty empty 0 -8 0 10 -262144
-1 -1 0;
#X text 148 99 increasing;
#X text 148 114 decreasing;
#X text 172 130 linear;
#X text 153 145 geometric;
#X floatatom 266 102 5 0 0 0 - - -;
#X floatatom 266 121 5 0 0 0 - - -;
#X floatatom 266 147 5 0 0 0 - - -;
#X text 100 130 sawtooth;
#X text 241 100 low;
#X text 236 119 high;
#X text 231 146 scale;
#X obj 276 -3 loadbang;
#X obj 276 20 t b b b b b;
#X obj 235 202 * 2;
#X obj 184 224 +;
#X obj 449 -14 sel 0 1 2;
#X msg 367 2 0;
#X obj 367 23 t f f f f;
#X obj 447 42 f;
#X obj 473 42 f;
#X obj 500 43 f;
#X obj 525 43 f;
#X obj 309 238 outlet;
#X msg 312 214 bang;
#X obj 445 20 bng 15 250 50 0 empty empty empty 17 7 0 10 -262144 -1
-1;
#X obj 470 21 bng 15 250 50 0 empty empty empty 17 7 0 10 -262144 -1
-1;
#X obj 500 21 bng 15 250 50 0 empty empty empty 17 7 0 10 -262144 -1
-1;
#X obj 525 23 bng 15 250 50 0 empty empty empty 17 7 0 10 -262144 -1
-1;
#X obj 208 173 t b f;
#X obj 544 -50 r \$0-which-timer;
#X obj 450 -34 f;
#X obj 187 267 s \$0-which-timer;
#X obj 449 -54 t b f f f f b;
#X obj 135 249 f;
#X obj 178 246 t b f;
#X msg 253 52 100;
#X msg 292 52 1000;
#X msg 328 53 2;
#X obj 593 -12 max 10;
#X obj 651 -35 max 10;
#X obj 602 30 min;
#X obj 640 32 max;
#X obj 694 -7 t b b f f;
#X text 100 116 ctime-;
#X connect 0 0 32 0;
#X connect 1 0 32 0;
#X connect 2 0 32 0;
#X connect 3 0 32 0;
#X connect 4 0 5 0;
#X connect 5 0 41 0;
#X connect 5 0 42 1;
#X connect 7 0 23 0;
#X connect 8 0 37 0;
#X connect 13 0 47 0;
#X connect 14 0 48 0;
#X connect 15 0 2 3;
#X connect 15 0 3 3;
#X connect 15 0 0 3;
#X connect 15 0 1 3;
#X connect 20 0 21 0;
#X connect 21 0 44 0;
#X connect 21 1 45 0;
#X connect 21 2 46 0;
#X connect 22 0 23 1;
#X connect 23 0 43 0;
#X connect 24 0 33 0;
#X connect 24 1 34 0;
#X connect 24 2 35 0;
#X connect 24 3 36 0;
#X connect 25 0 26 0;
#X connect 26 0 2 0;
#X connect 26 1 1 0;
#X connect 26 2 0 0;
#X connect 26 3 3 0;
#X connect 27 0 2 0;
#X connect 28 0 3 0;
#X connect 29 0 0 0;
#X connect 30 0 1 0;
#X connect 32 0 31 0;
#X connect 32 0 6 0;
#X connect 33 0 27 0;
#X connect 34 0 28 0;
#X connect 35 0 29 0;
#X connect 36 0 30 0;
#X connect 37 0 23 0;
#X connect 37 1 22 0;
#X connect 38 0 39 1;
#X connect 39 0 24 0;
#X connect 41 0 39 0;
#X connect 41 1 27 1;
#X connect 41 2 28 1;
#X connect 41 3 29 1;
#X connect 41 4 30 1;
#X connect 41 5 25 0;
#X connect 42 0 41 0;
#X connect 43 0 42 0;
#X connect 43 1 40 0;
#X connect 44 0 13 0;
#X connect 45 0 14 0;
#X connect 46 0 15 0;
#X connect 47 0 50 0;
#X connect 47 0 49 0;
#X connect 48 0 51 0;
#X connect 49 0 2 1;
#X connect 49 0 3 1;
#X connect 49 0 0 1;
#X connect 49 0 1 1;
#X connect 50 0 2 2;
#X connect 50 0 3 2;
#X connect 50 0 0 2;
#X connect 50 0 1 2;
#X connect 51 0 49 0;
#X connect 51 1 50 0;
#X connect 51 2 49 1;
#X connect 51 3 50 1;
#X coords 0 -1 1 1 200 65 2 100 100;
