#N canvas 181 116 531 544 10;
#X obj 254 23 inlet;
#X text 298 23 on/off switch;
#X text 298 35 (0 = off \, 1 = on);
#X obj 254 393 outlet;
#X text 22 492 one inlet: on/off switch (nonzero/zero);
#X text 22 507 one outlet: stream of bang messages;
#X obj 254 226 metro;
#X obj 298 103 loadbang;
#X obj 273 339 / 100;
#X obj 273 357 moses \$3;
#X obj 273 321 random 10001;
#X obj 273 375 s \$0-new-frequency;
#X obj 284 124 t b b;
#X obj 284 62 r \$0-new-frequency;
#X msg 284 81 bang;
#X text 20 413 produce a stream of bangs based on shifting subdivisions
;
#X text 42 427 of a basic pulse;
#X text 36 460 maximum number of subdivisions (\$2) \, % likelihood
of change;
#X obj 284 143 f \$1;
#X obj 314 143 random \$2;
#X obj 314 162 + 1;
#X obj 284 187 /;
#X obj 254 51 tgl 15 0 empty empty empty 0 -6 0 8 -262144 -1 -1 0 1
;
#X obj 284 206 t f f;
#X obj 254 247 t b b b b;
#X obj 312 266 f;
#X text 21 445 four user-specified values: basic period (\$1);
#X text 35 474 on each event (\$3) \, on/off key assignment (\$4);
#X obj 183 23 select \$4;
#X text 21 399 ctime-tuplet.pd;
#X obj 183 0 internals-keyswitch;
#X obj 312 284 s duration-report;
#X obj 292 303 s rhythm-report;
#X connect 0 0 22 0;
#X connect 6 0 24 0;
#X connect 7 0 12 0;
#X connect 8 0 9 0;
#X connect 9 0 11 0;
#X connect 10 0 8 0;
#X connect 12 0 18 0;
#X connect 12 1 19 0;
#X connect 13 0 14 0;
#X connect 14 0 12 0;
#X connect 18 0 21 0;
#X connect 19 0 20 0;
#X connect 20 0 21 1;
#X connect 21 0 23 0;
#X connect 22 0 6 0;
#X connect 23 0 6 1;
#X connect 23 1 25 1;
#X connect 24 0 3 0;
#X connect 24 1 10 0;
#X connect 24 2 32 0;
#X connect 24 3 25 0;
#X connect 25 0 31 0;
#X connect 28 0 22 0;
#X connect 30 0 28 0;
#X coords 0 -1 1 1 180 17 1 90 50;
