#N canvas 129 39 594 620 10;
#X obj 304 28 inlet;
#X text 348 29 on/off switch;
#X text 348 62 (0 = off \, 1 = on);
#X obj 354 431 outlet;
#X text 47 542 one inlet: on/off switch (nonzero/zero);
#X text 47 557 one outlet: stream of bang messages;
#X obj 297 349 spigot;
#X obj 304 71 t f f;
#X obj 159 120 sel 1;
#X obj 297 432 delay;
#X obj 297 452 s \$0-retrigger;
#X obj 54 120 r \$0-retrigger;
#X text 404 431 stream of bangs;
#X obj 187 166 + 1;
#X obj 159 166 int;
#X text 215 167 counter;
#X text 62 510 for time interval between bangs (\$1 \, \$2) \, increment
;
#X obj 205 119 r \$0-reset;
#X msg 205 137 0;
#X text 86 203 increment;
#X obj 159 248 + \$1;
#X obj 159 268 moses \$2;
#X obj 210 288 s \$0-reset;
#X text 50 476 produce a geometrically increasing timed stream of bangs
;
#X obj 159 229 pow;
#X obj 159 185 trigger b f;
#X obj 159 204 f \$3;
#X obj 304 51 tgl 15 0 empty empty empty 0 -6 0 8 -262144 -1 -1 0 1
;
#X obj 297 369 trigger b f b b f;
#X obj 231 28 select \$4;
#X text 51 496 four user-specified values: lower \, upper thresholds
;
#X text 58 524 (in msec) (\$3) \, on/off key assignment;
#X text 51 462 ctime-gincrease.pd;
#X obj 231 5 internals-keyswitch;
#X obj 411 390 s duration-report;
#X obj 382 410 s rhythm-report;
#X obj 397 108 inlet;
#X obj 437 109 inlet;
#X obj 477 109 inlet;
#X connect 0 0 27 0;
#X connect 6 0 28 0;
#X connect 7 0 8 0;
#X connect 7 1 6 1;
#X connect 8 0 14 0;
#X connect 9 0 10 0;
#X connect 11 0 14 0;
#X connect 13 0 14 1;
#X connect 14 0 13 0;
#X connect 14 0 25 0;
#X connect 17 0 18 0;
#X connect 18 0 14 0;
#X connect 20 0 21 0;
#X connect 21 0 6 0;
#X connect 21 1 22 0;
#X connect 24 0 20 0;
#X connect 25 0 26 0;
#X connect 25 1 24 1;
#X connect 26 0 24 0;
#X connect 27 0 7 0;
#X connect 28 0 9 0;
#X connect 28 1 9 1;
#X connect 28 2 3 0;
#X connect 28 3 35 0;
#X connect 28 4 34 0;
#X connect 29 0 27 0;
#X connect 33 0 29 0;
#X connect 36 0 20 1;
#X connect 37 0 21 1;
#X connect 38 0 26 1;
#X coords 0 -1 1 1 230 17 1 90 50;
