#N canvas 536 113 640 556 10;
#X obj 234 27 inlet;
#X text 278 26 on/off switch;
#X text 252 51 (0 = off \, 1 = on);
#X obj 287 486 outlet;
#X text 293 286 one inlet: on/off switch (nonzero/zero);
#X text 293 301 one outlet: stream of bang messages;
#X obj 230 401 spigot;
#X obj 186 168 f \$2;
#X obj 223 168 f \$1;
#X obj 146 365 +;
#X obj 186 125 loadbang;
#X obj 186 190 -;
#X obj 186 144 t b b;
#X obj 234 82 t f f;
#X obj 143 124 != 0;
#X obj 143 144 sel 1;
#X obj 230 486 delay;
#X obj 230 506 s \$0-retrigger;
#X obj 38 144 r \$0-retrigger;
#X text 337 486 stream of bangs;
#X text 292 198 produce a randomly timed stream of bangs;
#X obj 234 51 tgl 15 0 empty empty empty 0 -6 0 8 -262144 -1 -1 0 1
;
#X obj 230 421 trigger b f b b f;
#X text 291 245 three user-specified values: lower \, upper thresholds
;
#X text 310 260 for time interval between bangs (\$1 \, \$2) \; on/off
key (\$3);
#X obj 164 26 select \$3;
#X obj 164 6 internals-keyswitch;
#X obj 38 187 t b b;
#X obj 38 225 random;
#X obj 85 225 random;
#X obj 38 246 t f f;
#X obj 85 245 t f f;
#X obj 52 322 f;
#X obj 99 321 f;
#X obj 38 274 >=;
#X obj 38 294 sel 1 0;
#X text 293 184 ctime-rlinearhi.pd;
#X text 291 214 according to a linear distribution (biased towards
;
#X text 312 229 high values);
#X obj 344 444 s duration-report;
#X obj 315 465 s rhythm-report;
#X connect 0 0 21 0;
#X connect 6 0 22 0;
#X connect 7 0 11 0;
#X connect 8 0 11 1;
#X connect 8 0 9 1;
#X connect 9 0 6 0;
#X connect 10 0 12 0;
#X connect 11 0 28 1;
#X connect 11 0 29 1;
#X connect 12 0 7 0;
#X connect 12 1 8 0;
#X connect 13 0 14 0;
#X connect 13 1 6 1;
#X connect 14 0 15 0;
#X connect 15 0 27 0;
#X connect 16 0 17 0;
#X connect 18 0 27 0;
#X connect 21 0 13 0;
#X connect 22 0 16 0;
#X connect 22 1 16 1;
#X connect 22 2 3 0;
#X connect 22 3 40 0;
#X connect 22 4 39 0;
#X connect 25 0 21 0;
#X connect 26 0 25 0;
#X connect 27 0 28 0;
#X connect 27 1 29 0;
#X connect 28 0 30 0;
#X connect 29 0 31 0;
#X connect 30 0 34 0;
#X connect 30 1 32 1;
#X connect 31 0 34 1;
#X connect 31 1 33 1;
#X connect 32 0 9 0;
#X connect 33 0 9 0;
#X connect 34 0 35 0;
#X connect 35 0 32 0;
#X connect 35 1 33 0;
#X coords 0 -1 1 1 230 17 1 20 50;
