#N canvas 129 39 621 650 10;
#X obj 264 28 inlet;
#X text 308 27 on/off switch;
#X text 308 39 (0 = off \, 1 = on);
#X obj 314 513 outlet;
#X text 31 604 one inlet: on/off switch (nonzero/zero);
#X text 31 619 one outlet: stream of bang messages;
#X obj 257 437 spigot;
#X obj 264 76 t f f;
#X obj 172 119 sel 1;
#X obj 257 511 delay;
#X obj 257 531 s \$0-retrigger;
#X obj 67 119 r \$0-retrigger;
#X text 364 513 stream of bangs;
#X text 32 547 produce a sinusoidally timed stream of bangs (LFO);
#X obj 200 141 + 1;
#X obj 172 141 int;
#X obj 172 190 sin;
#X text 228 142 counter;
#X obj 172 166 * \$3;
#X obj 188 303 f \$2;
#X obj 225 303 f \$1;
#X obj 172 389 +;
#X obj 188 260 loadbang;
#X obj 188 325 -;
#X obj 188 279 t b b;
#X obj 172 350 *;
#X text 204 177 (in radians);
#X obj 172 212 * 0.5;
#X obj 172 235 + 0.5;
#X text 209 165 scale factor;
#X text 50 572 for time interval between bangs (\$1 \, \$2) \, scale
factor;
#X obj 264 51 tgl 15 0 empty empty empty 0 -6 0 8 -262144 -1 -1 0 1
;
#X obj 257 457 trigger b f b b f;
#X text 33 559 four user-specified values: lower \, upper thresholds
;
#X text 52 584 (frequency in radians) (\$3) \, on/off key assignment
(\$4);
#X obj 194 28 select \$4;
#X obj 194 5 internals-keyswitch;
#X text 33 530 ctime-sinusoid.pd;
#X obj 371 476 s duration-report;
#X obj 342 495 s rhythm-report;
#X connect 0 0 31 0;
#X connect 6 0 32 0;
#X connect 7 0 8 0;
#X connect 7 1 6 1;
#X connect 8 0 15 0;
#X connect 9 0 10 0;
#X connect 11 0 15 0;
#X connect 14 0 15 1;
#X connect 15 0 14 0;
#X connect 15 0 18 0;
#X connect 16 0 27 0;
#X connect 18 0 16 0;
#X connect 19 0 23 0;
#X connect 20 0 23 1;
#X connect 20 0 21 1;
#X connect 21 0 6 0;
#X connect 22 0 24 0;
#X connect 23 0 25 1;
#X connect 24 0 19 0;
#X connect 24 1 20 0;
#X connect 25 0 21 0;
#X connect 27 0 28 0;
#X connect 28 0 25 0;
#X connect 31 0 7 0;
#X connect 32 0 9 0;
#X connect 32 1 9 1;
#X connect 32 2 3 0;
#X connect 32 3 39 0;
#X connect 32 4 38 0;
#X connect 35 0 31 0;
#X connect 36 0 35 0;
#X coords 0 -1 1 1 230 17 1 50 50;
