#N canvas 48 40 989 633 10;
#X declare -lib mrpeach;
#X declare -lib mrpeach;
#X text 861 12 NRCI-UC;
#X obj 803 -8 ui-keyboard;
#X obj 9 -117 cnv 15 775 100 empty empty empty 20 12 0 14 -228856 -66577
0;
#X obj 551 -63 ctime-randomperiodic 1000 500 17 t;
#X text 245 -112 TIMERS;
#X obj 10 -10 cnv 15 388 170 empty empty empty 20 12 0 14 -233017 -66577
0;
#X obj 93 -2 cdata;
#X text 20 -3 NOTE DATA;
#X obj 626 411 cnv 15 300 225 empty empty empty 20 12 0 14 -233017
-66577 0;
#X text 739 410 EFFECTS;
#X obj 523 430 sfx-pan~;
#X obj 571 -9 cnv 15 220 150 empty empty empty 20 12 0 14 -233017 -66577
0;
#X obj 576 13 ui-mouse 1279 799;
#X obj 576 33 ui-fretboard-number;
#X obj 576 53 ui-fretboard-pitch;
#X obj 404 -10 cnv 15 160 170 empty empty empty 20 12 0 14 -233017
-66577 0;
#X text 436 -11 SAMPLE PLAYBACK;
#X obj 8 167 cnv 15 120 300 empty empty empty 20 12 0 14 -233017 -66577
0;
#X text 38 166 SYNTHESIS;
#X obj 699 569 sfx-pan~;
#X obj 635 152 ui-grid;
#X obj 551 -43 ctime-tuplet 2000 4 10 q;
#X obj 551 -103 ctime-triangular 1000 4000 200 r;
#X obj 551 -83 ctime-sinusoid 2000 5000 0.55 s;
#X text 376 -112 (values in milliseconds);
#X obj 788 -117 cnv 15 190 100 empty empty empty 20 12 0 14 -233017
-66577 0;
#X text 831 -118 OSC COMMUNICATION;
#X obj 159 -91 ctime-sawtooth;
#X obj 794 -103 net-sendosc 127.0.0.1 /nrci;
#X obj 799 235 ctime-random;
#X obj 135 167 cnv 15 180 235 empty empty empty 20 12 0 14 -233017
-66577 0;
#X text 200 166 WAVEFORM;
#X obj 794 -65 net-rcvosc /nrci;
#X text 586 -5 USER INTERACTION;
#X obj 634 429 sfx-lowpass~ A;
#X obj 634 449 sfx-highpass~ B;
#X obj 356 463 sfx-randombpass~ C;
#X obj 634 489 sfx-bandpass~ 0.9 D;
#X obj 634 509 sfx-compressor~ E;
#X obj 634 529 sfx-ampenv~ F;
#X obj 634 549 sfx-gate~ G;
#X obj 782 429 sfx-randomcomb~ H;
#X obj 782 469 sfx-ringmod~ J;
#X obj 782 489 sfx-distortion~ K;
#X obj 782 509 sfx-feedback~ L;
#X obj 782 549 sfx-ffm~ N;
#X obj 782 569 sfx-randomdelay~ O;
#X obj 522 406 sfx-reverb~ P;
#X obj 782 609 sfx-scrub~ Q;
#X obj 18 185 sfx-synth~ a;
#X obj 18 325 sfx-synth~ b;
#X obj 147 185 synth-wave~ c;
#X obj 152 303 sfx-envelope~ d;
#X obj 328 332 ui-keytrigger;
#X obj 681 73 ui-keytrigger;
#X obj 409 113 synth-soundfile~ z;
#X obj 409 9 synth-grain~ v;
#X obj 409 71 synth-playback~ y;
#X obj 408 50 synth-playback~ x;
#X text 854 30 27 Mar 2011;
#X obj 358 434 synth-soundfile~ z;
#X obj 354 492 output~;
#X text 810 97 Greg Surges \, & Joel Matthys;
#X text 818 79 created by Chris Burns \,;
#X obj 20 -95 ctime-steady 1000;
#X obj 858 148 button panic;
#X msg 858 186 \; pd dsp 0;
#X obj 521 382 synth-loop~;
#X obj 181 485 output~;
#X obj 522 499 output~;
#X obj 414 162 adc~;
#X obj 320 410 synth-soundfile~ z;
#X obj 357 205 sigmund~ -hop 2048;
#X obj 206 440 *~;
#X obj 475 205 bonk~;
#X msg 530 352 bang;
#X connect 10 0 69 0;
#X connect 10 1 69 1;
#X connect 36 0 61 0;
#X connect 36 0 61 1;
#X connect 47 0 10 0;
#X connect 50 0 73 0;
#X connect 51 0 52 0;
#X connect 52 0 73 1;
#X connect 53 0 71 0;
#X connect 53 1 60 0;
#X connect 60 0 36 0;
#X connect 65 0 66 0;
#X connect 67 0 47 0;
#X connect 70 0 72 0;
#X connect 70 0 74 0;
#X connect 70 1 72 0;
#X connect 70 1 74 0;
#X connect 71 0 36 0;
#X connect 72 0 50 0;
#X connect 72 0 51 0;
#X connect 72 0 36 1;
#X connect 73 0 68 0;
#X connect 73 0 68 1;
#X connect 74 0 52 1;
#X connect 75 0 67 0;
