#N canvas 0 0 450 300 10;
#X obj -123 23 key;
#X obj -123 76 net-keycols;
#X obj -123 102 s keys-to-modules;
#X obj -123 50 spigot;
#X obj 101 101 cnv 15 108 15 empty empty empty 20 12 0 14 -232576 -66577
0;
#X obj 194 101 tgl 15 0 empty empty empty 17 7 0 10 -159808 -1 -1 0
1;
#X text 103 99 read keyboard;
#X connect 0 0 3 0;
#X connect 1 0 2 0;
#X connect 3 0 1 0;
#X connect 5 0 3 1;
#X coords 0 -1 1 1 110 17 1 100 100;
