#N canvas 180 44 591 620 10;
#X obj 34 -13 inlet~;
#X obj 410 553 outlet~;
#X obj 470 553 outlet~;
#X obj 56 70 *~;
#X obj 70 47 line~;
#X msg 85 21 \$1 20;
#X obj 107 149 vsl 15 128 0 1 0 0 empty empty empty 0 -9 0 10 -262130
-1 -1 0 1;
#X obj 78 -13 inlet~;
#X obj 100 70 *~;
#X obj 114 47 line~;
#X msg 129 21 \$1 20;
#X obj 122 149 vsl 15 128 0 1 0 0 empty empty empty 0 -9 0 10 -262130
-1 -1 0 1;
#X obj 123 -14 inlet~;
#X obj 137 71 *~;
#X obj 159 46 line~;
#X msg 174 20 \$1 20;
#X obj 143 149 vsl 15 128 0 1 0 0 empty empty empty 0 -9 0 10 -204786
-1 -1 0 1;
#X obj 167 -14 inlet~;
#X obj 189 69 *~;
#X obj 203 46 line~;
#X msg 218 20 \$1 20;
#X obj 158 149 vsl 15 128 0 1 0 0 empty empty empty 0 -9 0 10 -204786
-1 -1 0 1;
#X obj 213 -14 inlet~;
#X obj 235 69 *~;
#X obj 249 46 line~;
#X msg 264 20 \$1 20;
#X obj 179 149 vsl 15 128 0 1 0 0 empty empty empty 0 -9 0 10 -204800
-1 -1 0 1;
#X obj 257 -14 inlet~;
#X obj 279 69 *~;
#X obj 293 46 line~;
#X msg 308 20 \$1 20;
#X obj 194 149 vsl 15 128 0 1 0 0 empty empty empty 0 -9 0 10 -204800
-1 -1 0 1;
#X obj 302 -15 inlet~;
#X obj 324 68 *~;
#X obj 338 45 line~;
#X msg 353 19 \$1 20;
#X obj 215 149 vsl 15 128 0 1 0 0 empty empty empty 0 -9 0 10 -232576
-1 -1 0 1;
#X obj 346 -15 inlet~;
#X obj 368 68 *~;
#X obj 382 45 line~;
#X msg 397 19 \$1 20;
#X obj 230 149 vsl 15 128 0 1 0 0 empty empty empty 0 -9 0 10 -232576
-1 -1 0 1;
#X obj 332 173 vu 15 120 empty empty -1 -8 0 5 -66577 -1 1 0;
#X obj 314 173 vu 15 120 empty empty -1 -8 0 5 -66577 -1 0 0;
#X obj 107 281 tgl 15 0 empty empty empty 17 7 0 10 -257985 -1 -1 0
1;
#X obj 71 356 *~;
#X obj 85 333 line~;
#X msg 100 307 \$1 20;
#X obj 112 358 *~;
#X obj 126 335 line~;
#X msg 141 309 \$1 20;
#X obj 122 281 tgl 15 0 empty empty empty 17 7 0 10 -257985 -1 -1 0
1;
#X obj 143 281 tgl 15 0 empty empty empty 17 7 0 10 -4034 -1 -1 0 1
;
#X obj 131 408 *~;
#X obj 145 385 line~;
#X msg 160 359 \$1 20;
#X obj 171 413 *~;
#X obj 186 387 line~;
#X msg 201 361 \$1 20;
#X obj 158 281 tgl 15 0 empty empty empty 17 7 0 10 -4034 -1 -1 0 1
;
#X obj 179 281 tgl 15 0 empty empty empty 17 7 0 10 -4032 -1 -1 0 1
;
#X obj 194 462 *~;
#X obj 208 439 line~;
#X msg 223 413 \$1 20;
#X obj 235 464 *~;
#X obj 249 441 line~;
#X msg 264 415 \$1 20;
#X obj 194 281 tgl 15 0 empty empty empty 17 7 0 10 -4032 -1 -1 0 1
;
#X obj 215 281 tgl 15 0 empty empty empty 17 7 0 10 -159808 -1 -1 0
1;
#X obj 254 514 *~;
#X obj 268 491 line~;
#X msg 283 465 \$1 20;
#X obj 295 516 *~;
#X obj 309 493 line~;
#X msg 324 467 \$1 20;
#X obj 230 281 tgl 15 0 empty empty empty 17 7 0 10 -159808 -1 -1 0
1;
#X obj 429 445 *~;
#X obj 443 422 line~;
#X msg 458 396 \$1 20;
#X obj 256 104 vsl 20 170 0 1 0 0 empty empty empty 0 -9 0 10 -162280
-262144 -1 0 1;
#X obj 495 447 *~;
#X obj 487 422 line~;
#X msg 502 396 \$1 20;
#X obj 276 104 vsl 20 170 0 1 0 0 empty empty empty 0 -9 0 10 -162280
-262144 -1 0 1;
#X obj 453 268 pvu~;
#X obj 486 268 pvu~;
#X obj 256 278 tgl 20 0 empty empty empty 17 7 0 10 -262144 -1 -1 0
1;
#X obj 431 518 *~;
#X obj 445 495 line~;
#X msg 460 469 \$1 20;
#X obj 472 520 *~;
#X obj 486 497 line~;
#X msg 501 471 \$1 20;
#X obj 276 278 tgl 20 0 empty empty empty 17 7 0 10 -262144 -1 -1 0
1;
#X obj 501 115 loadbang;
#X msg 484 156 1;
#X obj 303 104 button PANIC;
#X msg 467 107 0;
#X text 109 129 L;
#X text 124 129 R;
#X text 145 130 L;
#X text 160 130 R;
#X text 180 129 L;
#X text 195 129 R;
#X text 216 130 L;
#X text 231 130 R;
#X connect 0 0 3 0;
#X connect 3 0 45 0;
#X connect 4 0 3 1;
#X connect 5 0 4 0;
#X connect 6 0 5 0;
#X connect 7 0 8 0;
#X connect 8 0 48 0;
#X connect 9 0 8 1;
#X connect 10 0 9 0;
#X connect 11 0 10 0;
#X connect 12 0 13 0;
#X connect 13 0 53 0;
#X connect 14 0 13 1;
#X connect 15 0 14 0;
#X connect 16 0 15 0;
#X connect 17 0 18 0;
#X connect 18 0 56 0;
#X connect 19 0 18 1;
#X connect 20 0 19 0;
#X connect 21 0 20 0;
#X connect 22 0 23 0;
#X connect 23 0 61 0;
#X connect 24 0 23 1;
#X connect 25 0 24 0;
#X connect 26 0 25 0;
#X connect 27 0 28 0;
#X connect 28 0 64 0;
#X connect 29 0 28 1;
#X connect 30 0 29 0;
#X connect 31 0 30 0;
#X connect 32 0 33 0;
#X connect 33 0 69 0;
#X connect 34 0 33 1;
#X connect 35 0 34 0;
#X connect 36 0 35 0;
#X connect 37 0 38 0;
#X connect 38 0 72 0;
#X connect 39 0 38 1;
#X connect 40 0 39 0;
#X connect 41 0 40 0;
#X connect 44 0 47 0;
#X connect 45 0 76 0;
#X connect 46 0 45 1;
#X connect 47 0 46 0;
#X connect 48 0 80 0;
#X connect 49 0 48 1;
#X connect 50 0 49 0;
#X connect 51 0 50 0;
#X connect 52 0 55 0;
#X connect 53 0 76 0;
#X connect 54 0 53 1;
#X connect 55 0 54 0;
#X connect 56 0 80 0;
#X connect 57 0 56 1;
#X connect 58 0 57 0;
#X connect 59 0 58 0;
#X connect 60 0 63 0;
#X connect 61 0 76 0;
#X connect 62 0 61 1;
#X connect 63 0 62 0;
#X connect 64 0 80 0;
#X connect 65 0 64 1;
#X connect 66 0 65 0;
#X connect 67 0 66 0;
#X connect 68 0 71 0;
#X connect 69 0 76 0;
#X connect 70 0 69 1;
#X connect 71 0 70 0;
#X connect 72 0 80 0;
#X connect 73 0 72 1;
#X connect 74 0 73 0;
#X connect 75 0 74 0;
#X connect 77 0 76 1;
#X connect 78 0 77 0;
#X connect 79 0 78 0;
#X connect 81 0 80 1;
#X connect 82 0 81 0;
#X connect 83 0 82 0;
#X connect 84 0 43 0;
#X connect 85 0 42 0;
#X connect 86 0 89 0;
#X connect 88 0 87 1;
#X connect 89 0 88 0;
#X connect 91 0 90 1;
#X connect 92 0 91 0;
#X connect 93 0 92 0;
#X connect 94 0 95 0;
#X connect 95 0 86 0;
#X connect 95 0 93 0;
#X connect 96 0 97 0;
#X connect 97 0 86 0;
#X connect 97 0 93 0;
#X coords 0 -1 1 1 300 200 1 100 100;
