#N canvas 0 0 450 300 10;
#X obj 101 101 tgl 40 0 empty empty empty 17 7 0 10 -1 -262144 -1 1
1;
#X obj 143 101 tgl 40 0 empty empty empty 17 7 0 10 -1 -262144 -1 0
1;
#X obj 185 101 tgl 40 0 empty empty empty 17 7 0 10 -1 -262144 -1 0
1;
#X obj 227 101 tgl 40 0 empty empty empty 17 7 0 10 -1 -262144 -1 0
1;
#X obj 269 101 tgl 40 0 empty empty empty 17 7 0 10 -1 -262144 -1 0
1;
#X obj 311 101 tgl 40 0 empty empty empty 17 7 0 10 -1 -262144 -1 0
1;
#X obj 353 101 tgl 40 0 empty empty empty 17 7 0 10 -1 -262144 -1 0
1;
#X obj 395 101 tgl 40 0 empty empty empty 17 7 0 10 -1 -262144 -1 0
1;
#X obj 58 169 inlet;
#X obj 58 193 spigot;
#X obj 102 169 inlet;
#X obj 102 193 spigot;
#X obj 147 169 inlet;
#X obj 147 193 spigot;
#X obj 191 169 inlet;
#X obj 191 193 spigot;
#X obj 235 169 inlet;
#X obj 235 193 spigot;
#X obj 279 169 inlet;
#X obj 279 193 spigot;
#X obj 324 169 inlet;
#X obj 324 193 spigot;
#X obj 368 169 inlet;
#X obj 368 193 spigot;
#X text 118 83 1;
#X text 157 83 2;
#X text 199 83 3;
#X text 241 83 4;
#X text 286 83 5;
#X text 325 83 6;
#X text 367 83 7;
#X text 409 83 8;
#X obj 215 234 s note-in;
#X connect 0 0 9 1;
#X connect 1 0 11 1;
#X connect 2 0 13 1;
#X connect 3 0 15 1;
#X connect 4 0 17 1;
#X connect 5 0 19 1;
#X connect 6 0 21 1;
#X connect 7 0 23 1;
#X connect 8 0 9 0;
#X connect 9 0 32 0;
#X connect 10 0 11 0;
#X connect 11 0 32 0;
#X connect 12 0 13 0;
#X connect 13 0 32 0;
#X connect 14 0 15 0;
#X connect 15 0 32 0;
#X connect 16 0 17 0;
#X connect 17 0 32 0;
#X connect 18 0 19 0;
#X connect 19 0 32 0;
#X connect 20 0 21 0;
#X connect 21 0 32 0;
#X connect 22 0 23 0;
#X connect 23 0 32 0;
#X coords 0 -1 1 1 336 65 2 100 80;
