#N canvas 459 77 450 467 10;
#X declare -lib mrpeach;
#X obj 227 233 udpsend;
#X obj 343 13 import mrpeach;
#X obj 19 94 symbol \$2;
#X obj 95 70 f;
#X obj 141 70 f;
#X obj 67 -13 inlet;
#X obj 129 -18 inlet;
#X obj 343 -15 loadbang;
#X text 328 77 send osc message;
#X text 329 94 \$1 = host ip;
#X text 362 109 or localhost;
#X text 332 127 \$2 = tag (ie /joel);
#X obj 127 219 packOSC;
#X obj 24 140 pack symbol f f;
#X msg 54 169 send \$1 \$2 \$3;
#X obj 264 142 sel 1;
#X obj 264 119 tgl 15 0 empty empty empty 17 7 0 10 -262144 -1 -1 0
1;
#X msg 383 266 disconnect;
#X obj 134 28 t b b f;
#X obj 66 29 t b b f;
#X msg 192 204 connect \$1 9997;
#X obj 271 295 sel 0;
#X msg 277 348 1;
#X obj 270 271 spigot;
#X msg 346 235 1;
#X obj 68 7 spigot;
#X obj 131 5 spigot;
#X msg 349 211 0;
#X msg 133 283 send /server/connect;
#X msg 91 316 send /server/disconnect;
#X obj 271 319 del 0;
#X obj 150 261 del 10;
#X obj 383 238 del 10;
#X obj 315 59 s my_own_tag;
#X obj 323 168 t b b b b;
#X symbolatom 198 118 10 0 0 0 - - -;
#X obj 295 34 symbol \$2;
#X obj 205 149 t b b b b;
#X symbolatom 103 118 15 0 0 0 - - -;
#X obj 181 176 symbol;
#X obj 227 12 symbol \$1;
#X connect 0 0 23 0;
#X connect 2 0 13 0;
#X connect 3 0 13 1;
#X connect 4 0 13 2;
#X connect 5 0 25 0;
#X connect 6 0 26 0;
#X connect 7 0 1 0;
#X connect 7 0 36 0;
#X connect 7 0 40 0;
#X connect 12 0 0 0;
#X connect 13 0 14 0;
#X connect 14 0 12 0;
#X connect 15 0 37 0;
#X connect 15 1 34 0;
#X connect 16 0 15 0;
#X connect 16 0 26 1;
#X connect 16 0 25 1;
#X connect 17 0 0 0;
#X connect 18 0 2 0;
#X connect 18 1 3 0;
#X connect 18 2 4 0;
#X connect 19 0 2 0;
#X connect 19 1 4 0;
#X connect 19 2 3 0;
#X connect 20 0 0 0;
#X connect 21 0 30 0;
#X connect 22 0 16 0;
#X connect 23 0 21 0;
#X connect 24 0 23 1;
#X connect 25 0 19 0;
#X connect 26 0 18 0;
#X connect 27 0 23 1;
#X connect 28 0 12 0;
#X connect 29 0 12 0;
#X connect 30 0 22 0;
#X connect 31 0 28 0;
#X connect 32 0 17 0;
#X connect 34 0 32 0;
#X connect 34 1 29 0;
#X connect 34 2 27 0;
#X connect 35 0 33 0;
#X connect 35 0 2 1;
#X connect 36 0 35 0;
#X connect 37 0 31 0;
#X connect 37 1 39 0;
#X connect 37 2 24 0;
#X connect 37 3 35 0;
#X connect 37 3 38 0;
#X connect 38 0 39 1;
#X connect 39 0 20 0;
#X connect 40 0 38 0;
#X coords 0 -1 1 1 180 35 1 100 100;
