#N canvas 0 27 1022 657 10;
#X declare -lib mrpeach;
#X obj 623 -133 import mrpeach;
#X obj 622 -156 loadbang;
#X obj 565 -65 symbol \$1;
#X obj 580 -38 symbol \$2;
#X obj 595 -12 symbol \$3;
#X obj 607 12 symbol \$4;
#X obj 631 -65 symbol \$5;
#X obj 650 -39 symbol \$6;
#X obj 665 -13 symbol \$7;
#X obj 677 11 symbol \$8;
#X obj 793 -110 r my_own_tag;
#X obj 785 -87 t b symbol;
#X obj 631 59 pack symbol symbol symbol symbol symbol symbol symbol
symbol symbol;
#X msg 631 107 set \$1 \$2 \$3 \$4 \$5 \$6 \$7 \$8 \$9;
#X obj 11 101 cnv 15 66 45 empty empty empty 20 12 0 14 -191407 -66577
0;
#X obj 145 101 cnv 15 66 45 empty empty empty 20 12 0 14 -191407 -66577
0;
#X obj 278 101 cnv 15 66 45 empty empty empty 20 12 0 14 -191407 -66577
0;
#X obj 413 101 cnv 15 66 45 empty empty empty 20 12 0 14 -191407 -66577
0;
#X obj 19 -45 unpackOSC;
#X obj 19 31 unpack f f;
#X floatatom 12 130 4 0 0 0 - - -;
#X obj 19 -69 udpreceive 12001;
#X floatatom 40 130 4 0 0 0 - - -;
#X obj 40 59 unpack f f;
#X floatatom 86 130 4 0 0 0 - - -;
#X floatatom 114 130 4 0 0 0 - - -;
#X obj 141 31 unpack f f;
#X floatatom 152 130 4 0 0 0 - - -;
#X floatatom 180 130 4 0 0 0 - - -;
#X obj 162 59 unpack f f;
#X floatatom 218 130 4 0 0 0 - - -;
#X floatatom 246 130 4 0 0 0 - - -;
#X obj 262 31 unpack f f;
#X floatatom 283 130 4 0 0 0 - - -;
#X floatatom 311 130 4 0 0 0 - - -;
#X obj 283 59 unpack f f;
#X floatatom 352 130 4 0 0 0 - - -;
#X floatatom 380 130 4 0 0 0 - - -;
#X obj 384 31 unpack f f;
#X floatatom 420 130 4 0 0 0 - - -;
#X floatatom 448 130 4 0 0 0 - - -;
#X obj 405 59 unpack f f;
#X floatatom 484 130 4 0 0 0 - - -;
#X floatatom 510 130 4 0 0 0 - - -;
#X obj 19 -22 routeOSC /a /b /c /d /e /f /g /h /self;
#X obj 502 119 bng 10 50 20 0 empty empty empty 17 7 0 10 -262144 -1
-1;
#X obj 440 119 bng 10 50 20 0 empty empty empty 17 7 0 10 -262144 -1
-1;
#X obj 374 119 bng 10 50 20 0 empty empty empty 17 7 0 10 -262144 -1
-1;
#X obj 305 119 bng 10 50 20 0 empty empty empty 17 7 0 10 -262144 -1
-1;
#X obj 237 119 bng 10 50 20 0 empty empty empty 17 7 0 10 -262144 -1
-1;
#X obj 171 119 bng 10 50 20 0 empty empty empty 17 7 0 10 -262144 -1
-1;
#X obj 107 119 bng 10 50 20 0 empty empty empty 17 7 0 10 -262144 -1
-1;
#X obj 33 119 bng 10 50 20 0 empty empty empty 17 7 0 10 -262144 -1
-1;
#X obj 12 163 outlet;
#X obj 26 188 outlet;
#X obj 73 162 outlet;
#X obj 87 187 outlet;
#X obj 134 161 outlet;
#X obj 148 186 outlet;
#X obj 195 160 outlet;
#X obj 209 185 outlet;
#X obj 252 160 outlet;
#X obj 266 185 outlet;
#X obj 313 159 outlet;
#X obj 327 184 outlet;
#X obj 374 158 outlet;
#X obj 388 183 outlet;
#X obj 435 157 outlet;
#X obj 449 182 outlet;
#X symbolatom 13 101 9 0 0 0 - - -;
#X symbolatom 82 101 9 0 0 0 - - -;
#X symbolatom 147 101 9 0 0 0 - - -;
#X symbolatom 217 101 9 0 0 0 - - -;
#X symbolatom 284 101 9 0 0 0 - - -;
#X symbolatom 350 101 9 0 0 0 - - -;
#X symbolatom 419 101 9 0 0 0 - - -;
#X symbolatom 482 101 9 0 0 0 - - -;
#X obj 539 101 cnv 15 66 45 empty empty empty 20 12 0 14 -66577 -66577
0;
#X floatatom 546 130 4 0 0 0 - - -;
#X floatatom 574 130 4 0 0 0 - - -;
#X obj 566 119 bng 10 50 20 0 empty empty empty 17 7 0 10 -262144 -1
-1;
#X symbolatom 545 101 9 0 0 0 - - -;
#X obj 543 158 outlet;
#X obj 557 183 outlet;
#X obj 494 32 unpack symbol list;
#X obj 561 65 unpack;
#X obj 649 163 print;
#X obj 821 -34 symbol;
#X obj 603 -102 t b b b b b b b b b;
#X connect 1 0 0 0;
#X connect 1 0 88 0;
#X connect 2 0 12 0;
#X connect 2 0 69 0;
#X connect 3 0 12 1;
#X connect 3 0 70 0;
#X connect 4 0 12 2;
#X connect 4 0 71 0;
#X connect 5 0 12 3;
#X connect 5 0 72 0;
#X connect 6 0 12 4;
#X connect 6 0 73 0;
#X connect 7 0 12 5;
#X connect 7 0 74 0;
#X connect 8 0 12 6;
#X connect 8 0 75 0;
#X connect 9 0 12 7;
#X connect 9 0 76 0;
#X connect 10 0 11 0;
#X connect 11 0 88 0;
#X connect 11 1 87 1;
#X connect 12 0 13 0;
#X connect 13 0 44 0;
#X connect 13 0 86 0;
#X connect 18 0 44 0;
#X connect 19 0 20 0;
#X connect 19 0 52 0;
#X connect 19 1 22 0;
#X connect 20 0 53 0;
#X connect 21 0 18 0;
#X connect 22 0 54 0;
#X connect 23 0 24 0;
#X connect 23 0 25 0;
#X connect 23 1 25 0;
#X connect 24 0 55 0;
#X connect 25 0 56 0;
#X connect 26 0 27 0;
#X connect 26 0 50 0;
#X connect 26 1 28 0;
#X connect 27 0 57 0;
#X connect 28 0 58 0;
#X connect 29 0 30 0;
#X connect 29 0 49 0;
#X connect 29 1 31 0;
#X connect 30 0 59 0;
#X connect 31 0 60 0;
#X connect 32 0 33 0;
#X connect 32 0 48 0;
#X connect 32 1 34 0;
#X connect 33 0 61 0;
#X connect 34 0 62 0;
#X connect 35 0 36 0;
#X connect 35 0 47 0;
#X connect 35 1 37 0;
#X connect 36 0 63 0;
#X connect 37 0 64 0;
#X connect 38 0 39 0;
#X connect 38 0 46 0;
#X connect 38 1 40 0;
#X connect 39 0 65 0;
#X connect 40 0 66 0;
#X connect 41 0 42 0;
#X connect 41 0 45 0;
#X connect 41 1 43 0;
#X connect 42 0 67 0;
#X connect 43 0 68 0;
#X connect 44 0 19 0;
#X connect 44 1 23 0;
#X connect 44 2 26 0;
#X connect 44 3 29 0;
#X connect 44 4 32 0;
#X connect 44 5 35 0;
#X connect 44 6 38 0;
#X connect 44 7 41 0;
#X connect 44 9 84 0;
#X connect 78 0 82 0;
#X connect 79 0 83 0;
#X connect 84 0 81 0;
#X connect 84 0 80 0;
#X connect 84 1 85 0;
#X connect 85 0 78 0;
#X connect 85 1 79 0;
#X connect 87 0 12 8;
#X connect 88 0 2 0;
#X connect 88 1 3 0;
#X connect 88 2 4 0;
#X connect 88 3 5 0;
#X connect 88 4 6 0;
#X connect 88 5 7 0;
#X connect 88 6 8 0;
#X connect 88 7 9 0;
#X connect 88 8 87 0;
#X coords 0 -1 1 1 596 50 2 10 100;
