#N canvas 458 100 598 587 10;
#X obj 266 9 inlet;
#X obj 56 24 inlet~;
#X text 308 9 stream of incoming data values (0 - 100);
#X text 105 24 audio input;
#X text 46 510 one inlet~: audio data for processing;
#X text 45 555 one outlet~: processed audio;
#X obj 56 401 outlet~;
#X obj 266 29 clip 0 100;
#X text 113 400 audio output;
#X obj 205 151 tgl 15 0 empty empty empty 0 -6 0 8 -262144 -1 -1 1
1;
#X obj 56 190 internals-bypass~;
#X obj 75 77 internals-keyswitch;
#X text 47 449 sfx-lowpass~.pd;
#X text 46 462 apply a lowpass filter to an input signal;
#X text 45 494 one user-specified value: on/off key assignment ($1)
;
#X obj 75 97 select \$1;
#X obj 203 264 lop~;
#X obj 155 323 lop~;
#X obj 155 354 lop~;
#X obj 203 219 *~ -2;
#X obj 155 297 +~;
#X obj 155 266 *~ 3;
#X text 61 478 (removing high frequencies);
#X obj 266 52 * 200;
#X text 335 28 interpreted as a percentage of spectrum;
#X obj 266 239 t f f f;
#X obj 287 176 loadbang;
#X msg 287 197 20000;
#X text 46 524 one inlet: values interpreted as percentage of spectrum
;
#X text 262 301 this filter design is "twiced";
#X text 262 314 which creates a steeper cutoff slope;
#X text 262 328 than just using a single filter;
#X text 327 197 initialize to pass all frequencies;
#X text 69 539 (0 = all frequencies cut off \, 100 = all frequencies
pass);
#X connect 0 0 7 0;
#X connect 1 0 10 0;
#X connect 7 0 23 0;
#X connect 9 0 10 1;
#X connect 10 0 6 0;
#X connect 10 1 21 0;
#X connect 10 1 19 0;
#X connect 11 0 15 0;
#X connect 15 0 9 0;
#X connect 16 0 20 1;
#X connect 17 0 18 0;
#X connect 18 0 6 0;
#X connect 19 0 16 0;
#X connect 20 0 17 0;
#X connect 21 0 20 0;
#X connect 23 0 25 0;
#X connect 25 0 16 1;
#X connect 25 1 17 1;
#X connect 25 2 18 1;
#X connect 26 0 27 0;
#X connect 27 0 25 0;
#X coords 0 -1 1 1 110 17 1 111 150;
