#N canvas 458 100 564 482 10;
#X obj 201 30 inlet;
#X obj 36 24 inlet~;
#X text 243 30 stream of incoming data values (0 - 100);
#X text 85 24 audio input;
#X text 33 373 one inlet~: audio data for processing;
#X text 33 401 one outlet~: processed audio;
#X text 33 387 one inlet: values interpreted as MIDI pitches (0-100)
;
#X obj 36 301 outlet~;
#X obj 201 198 line~;
#X obj 201 179 pack;
#X msg 224 153 5;
#X obj 201 91 mtof;
#X obj 201 50 clip 0 100;
#X text 93 300 audio output;
#X obj 185 151 tgl 15 0 empty empty empty 0 -6 0 8 -262144 -1 -1 0
1;
#X text 32 343 ring modulate an input signal;
#X text 33 329 milo-sfx-ringmod~.pd;
#X obj 185 240 *~;
#X obj 201 220 osc~;
#X obj 201 112 t f b;
#X obj 201 69 t f f;
#X obj 185 6 select \$1;
#X text 32 358 one user-specified value: on/off key assignment;
#X obj 36 190 internals-bypass~;
#X obj 185 -13 internals-keyswitch;
#X obj 235 91 s pitch-report;
#X connect 0 0 12 0;
#X connect 1 0 23 0;
#X connect 8 0 18 0;
#X connect 9 0 8 0;
#X connect 10 0 9 1;
#X connect 11 0 19 0;
#X connect 12 0 20 0;
#X connect 14 0 23 1;
#X connect 17 0 7 0;
#X connect 18 0 17 1;
#X connect 19 0 9 0;
#X connect 19 1 10 0;
#X connect 20 0 11 0;
#X connect 20 1 25 0;
#X connect 21 0 14 0;
#X connect 23 0 7 0;
#X connect 23 1 17 0;
#X connect 24 0 21 0;
#X coords 0 -1 1 1 110 17 1 91 150;
