#N canvas 0 0 450 328 10;
#X obj 176 72 vradio 16 1 0 7 empty empty empty 0 -8 0 10 -262144 -1
-1 6;
#X text 158 86 fm;
#X text 123 70 sine_osc;
#X text 105 102 pulse_noise;
#X text 105 119 pulse_train;
#X text 142 135 pluck;
#X text 139 151 flute;
#X floatatom 34 233 5 0 0 0 - - -;
#X floatatom 27 143 5 0 0 0 - - -;
#X obj 311 146 t f f f f f f;
#X msg 311 126 0;
#X obj 252 84 t f f b;
#X obj 264 180 sel 0 1 2 3 4 5;
#X obj 45 22 inlet;
#X obj 248 303 outlet~;
#X obj 257 147 pipe 10;
#X obj 254 15 loadbang;
#X obj 259 35 del 100;
#X obj 88 248 synth-osc~;
#X obj 91 268 synth-fm~;
#X obj 67 288 synth-pulsenoise~;
#X obj 264 213 synth-pulsetrain~;
#X obj 287 235 synth-pluck~;
#X obj 291 258 synth-flute~;
#X text 129 167 fm_bell;
#X obj 98 199 demux 0 1 2 3 4 5 6;
#X obj 327 282 synth-fmbell~;
#X msg 256 56 6;
#X obj 354 18 internals-keyswitch;
#X obj 355 46 sel \$1;
#X obj 179 51 tgl 15 0 empty empty empty 17 7 0 10 -262144 -1 -1 0
1;
#X obj 353 75 switch~;
#X connect 0 0 11 0;
#X connect 8 0 25 0;
#X connect 9 0 19 1;
#X connect 9 1 18 1;
#X connect 9 2 23 1;
#X connect 9 3 20 1;
#X connect 9 4 22 1;
#X connect 9 5 21 1;
#X connect 10 0 9 0;
#X connect 11 0 25 1;
#X connect 11 1 15 0;
#X connect 11 2 10 0;
#X connect 12 0 18 1;
#X connect 12 1 19 1;
#X connect 12 2 20 1;
#X connect 12 3 21 1;
#X connect 12 4 22 1;
#X connect 12 5 23 1;
#X connect 13 0 8 0;
#X connect 15 0 12 0;
#X connect 16 0 17 0;
#X connect 17 0 27 0;
#X connect 18 0 14 0;
#X connect 19 0 14 0;
#X connect 20 0 14 0;
#X connect 21 0 14 0;
#X connect 22 0 14 0;
#X connect 23 0 14 0;
#X connect 25 0 18 0;
#X connect 25 1 7 0;
#X connect 25 1 19 0;
#X connect 25 2 20 0;
#X connect 25 3 21 0;
#X connect 25 4 22 0;
#X connect 25 5 23 0;
#X connect 25 6 26 0;
#X connect 26 0 14 0;
#X connect 27 0 0 0;
#X connect 28 0 29 0;
#X connect 29 0 30 0;
#X connect 30 0 31 0;
#X coords 0 -1 1 1 95 137 1 100 50;
