#N canvas 458 100 602 581 10;
#X obj 253 22 inlet;
#X obj 36 24 inlet~;
#X text 295 22 stream of incoming data values (0 - 100);
#X text 85 24 audio input;
#X text 32 479 one inlet~: audio data for processing;
#X text 30 525 one outlet~: processed audio;
#X obj 36 401 outlet~;
#X obj 253 173 line~;
#X obj 253 154 pack;
#X msg 276 135 5;
#X text 93 400 audio output;
#X obj 185 151 tgl 15 0 empty empty empty 0 -6 0 8 -262144 -1 -1 0
1;
#X obj 253 273 vd~ \$0-fm 100;
#X obj 185 400 delwrite~ \$0-fm 1500;
#X obj 253 196 osc~;
#X obj 253 225 *~;
#X obj 253 249 +~ 1000;
#X obj 357 182 line~;
#X obj 357 163 pack;
#X msg 435 120 5;
#X obj 357 120 random 100;
#X obj 357 140 / 10;
#X text 31 449 frequency modulate a delayed copy of input audio w/feedback
;
#X text 32 493 one inlet: values interpreted as feedback %;
#X text 54 508 also triggers random mod frequency \, index changes
;
#X obj 253 326 *~;
#X obj 253 62 / 100;
#X obj 253 83 trigger bang bang bang bang float bang;
#X msg 514 103 5;
#X obj 491 124 pack;
#X obj 253 42 clip 0 99;
#X obj 491 251 line~;
#X obj 206 110 random 800;
#X obj 185 22 select \$1;
#X text 31 464 one user-specified value: on/off key assignment ($1)
;
#X obj 185 2 internals-keyswitch;
#X obj 36 190 internals-bypass~;
#X text 32 435 sfx-ffm~.pd;
#X connect 0 0 30 0;
#X connect 1 0 36 0;
#X connect 7 0 14 0;
#X connect 8 0 7 0;
#X connect 9 0 8 1;
#X connect 11 0 36 1;
#X connect 12 0 6 0;
#X connect 12 0 25 0;
#X connect 14 0 15 0;
#X connect 15 0 16 0;
#X connect 16 0 12 0;
#X connect 17 0 15 1;
#X connect 18 0 17 0;
#X connect 19 0 18 1;
#X connect 20 0 21 0;
#X connect 21 0 18 0;
#X connect 25 0 13 0;
#X connect 26 0 27 0;
#X connect 27 0 32 0;
#X connect 27 1 9 0;
#X connect 27 2 20 0;
#X connect 27 3 19 0;
#X connect 27 4 29 0;
#X connect 27 5 28 0;
#X connect 28 0 29 1;
#X connect 29 0 31 0;
#X connect 30 0 26 0;
#X connect 31 0 25 1;
#X connect 32 0 8 0;
#X connect 33 0 11 0;
#X connect 35 0 33 0;
#X connect 36 0 6 0;
#X connect 36 1 13 0;
#X coords 0 -1 1 1 80 17 1 121 150;
