#N canvas 108 75 722 634 10;
#X obj 369 216 tabread4~ \$0-env;
#X floatatom 108 178 7 0 0 0 - - -;
#X obj 500 -93 loadbang;
#X msg 403 14 1000;
#X obj 369 141 f;
#X msg 370 117 bang;
#X obj 414 -68 inlet;
#X obj 230 -72 inlet~;
#X obj 328 330 *~;
#X obj 310 369 outlet~;
#X obj 494 56 int;
#X obj 520 56 + 1;
#X obj 523 167 tabwrite \$0-env;
#X msg 577 -27 0;
#X obj 107 143 bng 15 250 50 0 empty empty empty 17 7 0 10 -262144
-1 -1;
#X text 102 125 reset;
#X obj 134 143 bng 15 250 50 0 empty empty empty 17 7 0 10 -262144
-1 -1;
#X text 136 125 0;
#X obj 194 371 int;
#X obj 220 372 + 1;
#X obj 223 482 tabwrite \$0-env;
#X obj 200 402 t f f f;
#X obj 175 342 Uzi 1000;
#X msg 249 284 0;
#X obj 201 246 t b b b;
#X msg 224 445 0;
#X obj 499 25 Uzi 50;
#X obj 478 206 int;
#X obj 504 206 + 1;
#X obj 507 317 tabwrite \$0-env;
#X obj 459 177 Uzi 50;
#X obj 484 237 t f f f f;
#X obj 500 87 t f f f;
#X obj 524 125 expr $f1/49;
#X obj 508 275 expr 50/$f1;
#X obj 430 305 int;
#X obj 456 305 + 1;
#X obj 459 416 tabwrite \$0-env;
#X obj 436 336 t f f f;
#X obj 411 276 Uzi 650;
#X obj 501 -69 t b b b b b b;
#X obj 399 377 + 1;
#X obj 402 488 tabwrite \$0-env;
#X obj 379 408 t f f f;
#X obj 378 346 Uzi 250;
#X obj 371 378 int;
#X obj 403 446 expr (999-$f1)/500;
#X obj 244 105 tgl 15 0 empty empty empty 17 7 0 10 -262144 -1 -1 0
1;
#X obj 289 239 demux~;
#N canvas 0 0 450 300 (subpatch) 0;
#X array \$0-env 1000 float 0;
#X coords 0 1 999 0 90 60 1;
#X restore 166 135 graph;
#X msg 459 372 0.5;
#X msg 369 167 0 \, 1000 \$1;
#X obj 369 191 line~;
#X obj 387 248 z~ 1;
#X obj 376 276 +~;
#X obj 364 305 *~ 0.5;
#X obj 150 -16 internals-keyswitch;
#X obj 151 21 sel \$1;
#X obj 298 130 == 0;
#X text 107 160 duration;
#X connect 0 0 53 0;
#X connect 0 0 54 0;
#X connect 1 0 4 1;
#X connect 2 0 40 0;
#X connect 3 0 1 0;
#X connect 4 0 51 0;
#X connect 5 0 4 0;
#X connect 6 0 5 0;
#X connect 7 0 48 0;
#X connect 8 0 9 0;
#X connect 10 0 32 0;
#X connect 11 0 10 1;
#X connect 11 0 27 1;
#X connect 13 0 10 1;
#X connect 14 0 40 0;
#X connect 16 0 24 0;
#X connect 18 0 21 0;
#X connect 19 0 18 1;
#X connect 21 0 19 0;
#X connect 21 1 25 0;
#X connect 21 2 20 1;
#X connect 22 0 18 0;
#X connect 23 0 18 1;
#X connect 24 1 22 0;
#X connect 24 2 23 0;
#X connect 25 0 20 0;
#X connect 26 0 10 0;
#X connect 27 0 31 0;
#X connect 28 0 27 1;
#X connect 28 0 35 1;
#X connect 30 0 27 0;
#X connect 31 0 28 0;
#X connect 31 1 34 0;
#X connect 31 2 29 1;
#X connect 32 0 11 0;
#X connect 32 1 33 0;
#X connect 32 2 12 1;
#X connect 33 0 12 0;
#X connect 34 0 29 0;
#X connect 35 0 38 0;
#X connect 36 0 35 1;
#X connect 36 0 45 1;
#X connect 38 0 36 0;
#X connect 38 1 50 0;
#X connect 38 2 37 1;
#X connect 39 0 35 0;
#X connect 40 0 3 0;
#X connect 40 1 44 0;
#X connect 40 2 39 0;
#X connect 40 3 30 0;
#X connect 40 4 26 0;
#X connect 40 5 13 0;
#X connect 41 0 45 1;
#X connect 43 0 41 0;
#X connect 43 1 46 0;
#X connect 43 2 42 1;
#X connect 44 0 45 0;
#X connect 45 0 43 0;
#X connect 46 0 42 0;
#X connect 47 0 58 0;
#X connect 48 0 8 0;
#X connect 48 1 9 0;
#X connect 50 0 37 0;
#X connect 51 0 52 0;
#X connect 52 0 0 0;
#X connect 53 0 54 1;
#X connect 54 0 55 0;
#X connect 55 0 8 1;
#X connect 56 0 57 0;
#X connect 57 0 47 0;
#X connect 58 0 48 0;
#X coords 0 -1 1 1 160 100 1 100 100;
