#N canvas 0 0 658 517 10;
#N canvas 0 0 450 300 (subpatch) 0;
#X array \$0-wave 2000 float 0;
#X coords 0 1 1999 0 100 75 1;
#X restore 159 124 graph;
#N canvas 0 0 450 300 reset 0;
#X obj 203 153 int;
#X obj 231 154 + 1;
#X msg 301 111 0;
#X obj 206 190 t f f f;
#X obj 223 253 * 6.28;
#X obj 225 355 tabwrite \$0-wave;
#X obj 201 58 t b b;
#X obj 223 304 + 1;
#X obj 224 332 / 2;
#X obj 203 34 inlet;
#X obj 223 280 sin;
#X obj 223 222 / 2000;
#X obj 201 108 Uzi 2000;
#X connect 0 0 3 0;
#X connect 1 0 0 1;
#X connect 2 0 0 1;
#X connect 3 0 1 0;
#X connect 3 1 11 0;
#X connect 3 2 5 1;
#X connect 4 0 10 0;
#X connect 6 0 12 0;
#X connect 6 1 2 0;
#X connect 7 0 8 0;
#X connect 8 0 5 0;
#X connect 9 0 6 0;
#X connect 10 0 7 0;
#X connect 11 0 4 0;
#X connect 12 0 0 0;
#X restore 417 15 pd reset;
#X obj 362 100 inlet;
#X obj 362 134 mtof;
#X obj 362 188 line~;
#X obj 363 213 phasor~;
#X obj 363 271 tabread4~ \$0-wave;
#X obj 363 302 outlet~;
#X obj 111 260 switch~;
#X obj 244 101 tgl 15 0 empty empty empty 17 7 0 10 -262144 -1 -1 0
1;
#X obj 118 172 bng 15 250 50 0 empty empty empty 17 7 0 10 -262144
-1 -1;
#X obj 426 -41 loadbang;
#X text 111 154 reset;
#X obj 364 238 *~ 2000;
#X msg 362 164 \$1 15;
#X obj 211 27 internals-keyswitch;
#X obj 208 56 sel \$1;
#X connect 2 0 3 0;
#X connect 3 0 14 0;
#X connect 4 0 5 0;
#X connect 5 0 13 0;
#X connect 6 0 7 0;
#X connect 9 0 8 0;
#X connect 10 0 1 0;
#X connect 11 0 1 0;
#X connect 13 0 6 0;
#X connect 14 0 4 0;
#X connect 15 0 16 0;
#X connect 16 0 9 0;
#X coords 0 -1 1 1 160 100 1 100 100;
