#N canvas 155 151 830 629 10;
#X obj 62 208 line~;
#X obj 18 4 inlet;
#X obj 62 436 outlet~;
#X text 60 4 stream of incoming data values (0-100);
#X text 120 436 audio output;
#X text 348 75 one outlet~: synthesis audio;
#X obj 18 23 clip 0 100;
#X obj 78 387 line~;
#X obj 62 409 *~;
#X obj 226 251 tgl 15 0 empty empty empty 0 -6 0 8 -262144 -1 -1 0
1;
#X obj 226 296 t b b;
#X obj 226 271 sel 1;
#X obj 270 296 t b b;
#X msg 78 365 1 5;
#X obj 256 374 switch~;
#X obj 300 317 delay 6;
#X msg 300 341 0;
#X msg 256 342 1;
#X msg 107 365 0 5;
#X obj 357 317 loadbang;
#X text 348 32 sample playback;
#X text 348 61 one inlet: stream of values interpreted as file location
%;
#X text 105 208 sweep through soundfile;
#X obj 376 120 table \$0-playback;
#X text 503 120 soundfile data;
#X obj 210 251 bng 15 250 50 0 empty empty empty 0 -6 0 8 -262144 -1
-1;
#X obj 210 474 openpanel;
#X obj 210 539 soundfiler;
#X obj 210 454 trigger bang bang;
#X obj 324 473 f \$0;
#X obj 210 498 pack s f;
#X msg 210 519 read -resize \$1 \$2-playback;
#X obj 210 559 s \$0-filesize;
#X msg 131 140 10;
#X obj 62 188 pack;
#X obj 18 89 *;
#X obj 62 67 r \$0-filesize;
#X obj 18 67 t f b;
#X obj 18 111 t f b f;
#X msg 85 140 10000;
#X obj -3 137 pipe 10;
#X obj -3 157 + 441000;
#X obj 62 228 tabread4~ \$0-playback;
#X obj 18 44 / 100;
#X text 349 88 bang to select a soundfile for playback;
#X obj 282 211 select \$1;
#X text 348 47 one user-specified value: on/off key assignment;
#X obj 282 190 internals-keyswitch;
#X text 349 18 synth-playback~.pd;
#X connect 0 0 42 0;
#X connect 1 0 6 0;
#X connect 6 0 43 0;
#X connect 7 0 8 1;
#X connect 8 0 2 0;
#X connect 9 0 11 0;
#X connect 10 0 13 0;
#X connect 10 1 17 0;
#X connect 11 0 10 0;
#X connect 11 1 12 0;
#X connect 12 0 18 0;
#X connect 12 1 15 0;
#X connect 13 0 7 0;
#X connect 15 0 16 0;
#X connect 16 0 14 0;
#X connect 17 0 14 0;
#X connect 18 0 7 0;
#X connect 19 0 16 0;
#X connect 25 0 28 0;
#X connect 26 0 30 0;
#X connect 27 0 32 0;
#X connect 28 0 26 0;
#X connect 28 1 29 0;
#X connect 29 0 30 1;
#X connect 30 0 31 0;
#X connect 31 0 27 0;
#X connect 33 0 34 1;
#X connect 34 0 0 0;
#X connect 35 0 38 0;
#X connect 36 0 35 1;
#X connect 37 0 35 0;
#X connect 37 1 33 0;
#X connect 38 0 40 0;
#X connect 38 1 39 0;
#X connect 38 2 34 0;
#X connect 39 0 34 1;
#X connect 40 0 41 0;
#X connect 41 0 34 0;
#X connect 42 0 8 0;
#X connect 43 0 37 0;
#X connect 45 0 9 0;
#X connect 47 0 45 0;
#X coords 0 -1 1 1 150 17 1 92 250;
