#N canvas 101 38 748 410 10;
#X obj 30 71 int;
#X obj 55 71 + 1;
#X text 339 97 - midi pitch;
#X text 339 117 - amplitude (0 - 1);
#X text 339 137 - freq. mod ratio (1 = unison);
#X text 334 75 carillon takes a single note in list form:;
#X obj 30 117 + 1;
#X text 30 4 note;
#X obj 30 25 inlet;
#X obj 29 194 route 1 2 3 4 5 6 7 8 9 10 11 12 13 14 15 16;
#X obj 16 321 catch~ \$0-bell;
#X text 333 217 the notes are distributed in turn among 16 instruments
;
#X text 339 157 - freq. mod index;
#X obj 29 171 pack 1 2 3 4 5 6 7;
#X text 339 177 - attack time;
#X text 339 197 - decay time;
#N canvas 0 0 450 300 bell 0;
#X obj 177 145 throw~ \$0-bell;
#X obj 176 98 inlet;
#X obj 176 122 onebell;
#X connect 1 0 2 0;
#X connect 2 0 0 0;
#X restore 29 217 pd bell;
#N canvas 0 0 450 300 bell 0;
#X obj 177 145 throw~ \$0-bell;
#X obj 176 98 inlet;
#X obj 176 122 onebell;
#X connect 1 0 2 0;
#X connect 2 0 0 0;
#X restore 45 240 pd bell;
#N canvas 0 0 450 300 bell 0;
#X obj 177 145 throw~ \$0-bell;
#X obj 176 98 inlet;
#X obj 176 122 onebell;
#X connect 1 0 2 0;
#X connect 2 0 0 0;
#X restore 61 264 pd bell;
#N canvas 0 0 450 300 bell 0;
#X obj 177 145 throw~ \$0-bell;
#X obj 176 98 inlet;
#X obj 176 122 onebell;
#X connect 1 0 2 0;
#X connect 2 0 0 0;
#X restore 77 286 pd bell;
#N canvas 0 0 450 300 bell 0;
#X obj 177 145 throw~ \$0-bell;
#X obj 176 98 inlet;
#X obj 176 122 onebell;
#X connect 1 0 2 0;
#X connect 2 0 0 0;
#X restore 94 218 pd bell;
#N canvas 0 0 450 300 bell 0;
#X obj 177 145 throw~ \$0-bell;
#X obj 176 98 inlet;
#X obj 176 122 onebell;
#X connect 1 0 2 0;
#X connect 2 0 0 0;
#X restore 110 240 pd bell;
#N canvas 0 0 450 300 bell 0;
#X obj 177 145 throw~ \$0-bell;
#X obj 176 98 inlet;
#X obj 176 122 onebell;
#X connect 1 0 2 0;
#X connect 2 0 0 0;
#X restore 126 264 pd bell;
#N canvas 0 0 450 300 bell 0;
#X obj 177 145 throw~ \$0-bell;
#X obj 176 98 inlet;
#X obj 176 122 onebell;
#X connect 1 0 2 0;
#X connect 2 0 0 0;
#X restore 142 286 pd bell;
#N canvas 0 0 450 300 bell 0;
#X obj 177 145 throw~ \$0-bell;
#X obj 176 98 inlet;
#X obj 176 122 onebell;
#X connect 1 0 2 0;
#X connect 2 0 0 0;
#X restore 159 218 pd bell;
#N canvas 0 0 450 300 bell 0;
#X obj 177 145 throw~ \$0-bell;
#X obj 176 98 inlet;
#X obj 176 122 onebell;
#X connect 1 0 2 0;
#X connect 2 0 0 0;
#X restore 175 240 pd bell;
#N canvas 0 0 450 300 bell 0;
#X obj 177 145 throw~ \$0-bell;
#X obj 176 98 inlet;
#X obj 176 122 onebell;
#X connect 1 0 2 0;
#X connect 2 0 0 0;
#X restore 191 264 pd bell;
#N canvas 0 0 450 300 bell 0;
#X obj 177 145 throw~ \$0-bell;
#X obj 176 98 inlet;
#X obj 176 122 onebell;
#X connect 1 0 2 0;
#X connect 2 0 0 0;
#X restore 207 286 pd bell;
#N canvas 0 0 450 300 bell 0;
#X obj 177 145 throw~ \$0-bell;
#X obj 176 98 inlet;
#X obj 176 122 onebell;
#X connect 1 0 2 0;
#X connect 2 0 0 0;
#X restore 224 218 pd bell;
#N canvas 0 0 450 300 bell 0;
#X obj 177 145 throw~ \$0-bell;
#X obj 176 98 inlet;
#X obj 176 122 onebell;
#X connect 1 0 2 0;
#X connect 2 0 0 0;
#X restore 240 240 pd bell;
#N canvas 0 0 450 300 bell 0;
#X obj 177 145 throw~ \$0-bell;
#X obj 176 98 inlet;
#X obj 176 122 onebell;
#X connect 1 0 2 0;
#X connect 2 0 0 0;
#X restore 256 264 pd bell;
#N canvas 0 0 450 300 bell 0;
#X obj 177 145 throw~ \$0-bell;
#X obj 176 98 inlet;
#X obj 176 122 onebell;
#X connect 1 0 2 0;
#X connect 2 0 0 0;
#X restore 272 286 pd bell;
#X obj 30 48 t b f b b b b b b;
#X msg 159 121 1000;
#X obj 30 94 mod 16;
#X msg 79 128 100;
#X obj 9 371 outlet~;
#X obj 9 348 *~ 0.5;
#X msg 141 98 5;
#X msg 103 84 5;
#X obj 211 84 * 0.1;
#X obj 211 107 + 1;
#X obj 211 61 random 81;
#X connect 0 0 1 0;
#X connect 0 0 34 0;
#X connect 1 0 0 1;
#X connect 6 0 13 0;
#X connect 8 0 32 0;
#X connect 9 0 16 0;
#X connect 9 1 17 0;
#X connect 9 2 18 0;
#X connect 9 3 19 0;
#X connect 9 4 20 0;
#X connect 9 5 21 0;
#X connect 9 6 22 0;
#X connect 9 7 23 0;
#X connect 9 8 24 0;
#X connect 9 9 25 0;
#X connect 9 10 26 0;
#X connect 9 11 27 0;
#X connect 9 12 28 0;
#X connect 9 13 29 0;
#X connect 9 14 30 0;
#X connect 9 15 31 0;
#X connect 10 0 37 0;
#X connect 13 0 9 0;
#X connect 32 0 0 0;
#X connect 32 1 13 1;
#X connect 32 3 42 0;
#X connect 32 4 35 0;
#X connect 32 5 39 0;
#X connect 32 6 38 0;
#X connect 32 7 33 0;
#X connect 33 0 13 6;
#X connect 34 0 6 0;
#X connect 35 0 13 2;
#X connect 37 0 36 0;
#X connect 38 0 13 5;
#X connect 39 0 13 3;
#X connect 40 0 41 0;
#X connect 41 0 13 4;
#X connect 42 0 40 0;
