#N canvas 332 135 791 630 10;
#X obj 17 13 inlet;
#X obj 62 462 outlet~;
#X text 59 13 stream of incoming data values (0-100);
#X text 120 462 audio output;
#X text 348 101 one outlet~: synthesis audio;
#X obj 78 413 line~;
#X obj 62 435 *~;
#X obj 226 277 tgl 15 0 empty empty empty 0 -6 0 8 -262144 -1 -1 1
1;
#X obj 226 322 t b b;
#X obj 226 297 sel 1;
#X obj 270 322 t b b;
#X msg 78 391 1 5;
#X obj 256 400 switch~;
#X obj 300 343 delay 6;
#X msg 300 367 0;
#X msg 256 368 1;
#X msg 107 391 0 5;
#X obj 357 343 loadbang;
#X text 348 87 one inlet: stream of values interpreted as file location
%;
#X text 494 146 soundfile data;
#X obj 210 277 bng 15 250 50 0 empty empty empty 0 -6 0 8 -262144 -1
-1;
#X text 349 114 bang to select a soundfile for playback;
#X obj 282 237 select \$1;
#X text 348 73 one user-specified value: on/off key assignment;
#X obj 282 216 internals-keyswitch;
#X text 349 44 synth-grain~.pd;
#X text 348 58 granulated sample playback;
#X obj 210 483 openpanel;
#X obj 210 556 soundfiler;
#X obj 349 147 table \$0-grainarray 100;
#X obj 210 576 s \$0-filesize;
#X obj 210 464 trigger bang bang;
#X obj 309 483 f \$0;
#X msg 210 536 read -resize \$1 \$2-grainarray;
#X obj 210 516 pack s f;
#X obj 17 96 /;
#X obj 75 177 *;
#X obj -13 198 metro;
#X obj 113 217 r \$0-filesize;
#X obj 108 138 / 100;
#N canvas 164 22 972 719 get-next-start 0;
#X obj 38 37 inlet;
#X obj 163 39 inlet;
#X text 162 22 grain procession (%);
#X obj 477 37 inlet;
#X text 477 22 soundfile size (samples);
#X obj 296 505 outlet;
#X obj 38 149 f;
#X obj 54 128 r \$0-last;
#X obj 313 40 inlet;
#X obj 147 155 f;
#X obj 297 155 f;
#X obj 461 167 f;
#X obj 147 207 *;
#X obj 163 59 / 100;
#X obj 38 243 +;
#X text 312 22 grain duration (msec);
#X obj 313 59 * 44.1;
#X obj 313 79 int;
#X text 295 523 pair: grain start location (samples);
#X text 336 534 grain duration (samples);
#X obj 296 482 pack;
#X obj 220 69 inlet;
#X text 216 41 procession;
#X text 216 53 randomize (%);
#X text 15 10 bang: get next;
#X text 16 21 grain start sample;
#X obj 38 59 trigger b b b b b;
#X obj 183 155 random;
#X obj 183 314 / 1000;
#X obj 183 348 *;
#X obj 297 174 t f f f;
#X obj 461 235 -;
#X text 488 236 filesize minus grain duration;
#X obj 461 257 t f f f;
#X obj 38 317 mod;
#X obj 38 337 t f f;
#X obj 38 394 s \$0-last;
#X obj 167 386 +;
#X obj 167 420 mod;
#X text 339 80 duration (samples);
#X obj 220 136 * 10;
#X connect 0 0 26 0;
#X connect 1 0 13 0;
#X connect 3 0 11 1;
#X connect 6 0 14 0;
#X connect 7 0 6 1;
#X connect 8 0 16 0;
#X connect 9 0 12 0;
#X connect 10 0 30 0;
#X connect 11 0 31 0;
#X connect 12 0 14 1;
#X connect 13 0 9 1;
#X connect 14 0 34 0;
#X connect 16 0 17 0;
#X connect 17 0 10 1;
#X connect 20 0 5 0;
#X connect 21 0 40 0;
#X connect 26 0 6 0;
#X connect 26 1 9 0;
#X connect 26 2 27 0;
#X connect 26 3 11 0;
#X connect 26 4 10 0;
#X connect 27 0 28 0;
#X connect 28 0 29 0;
#X connect 29 0 37 1;
#X connect 30 0 12 1;
#X connect 30 1 20 1;
#X connect 30 2 31 1;
#X connect 31 0 33 0;
#X connect 33 0 34 1;
#X connect 33 1 29 1;
#X connect 33 2 38 1;
#X connect 34 0 35 0;
#X connect 35 0 36 0;
#X connect 35 1 37 0;
#X connect 37 0 38 0;
#X connect 38 0 20 0;
#X connect 40 0 27 1;
#X restore 14 237 pd get-next-start;
#X obj 78 138 f;
#X obj 78 115 t b f;
#N canvas 595 22 479 442 jitter 0;
#X obj 51 15 inlet;
#X obj 234 13 inlet;
#X obj -72 14 inlet;
#X obj 35 413 outlet;
#X text 85 414 next metro duration (msec);
#X text 93 15 grain period;
#X text 276 14 jitter %;
#X text -31 15 get next;
#X obj 35 291 f;
#X obj 148 142 spigot;
#X obj 312 74 t f b b;
#X obj 297 142 spigot;
#X obj 185 187 -;
#X obj 234 73 t b f b b;
#X obj 148 206 random;
#X obj 234 32 * 10;
#X obj 234 51 moses 1000;
#X msg 185 167 1000;
#X obj 148 226 / 1000;
#X obj -72 35 t b b;
#X obj 35 310 t f f;
#X obj 148 246 t b f;
#X obj 65 333 *;
#X obj 35 357 -;
#X msg 255 98 1;
#X msg 284 98 0;
#X msg 334 97 1;
#X msg 363 97 0;
#X obj 345 142 - 1000;
#X obj 297 182 random;
#X obj 297 202 / 1000;
#X obj 297 223 + 1;
#X obj 297 244 t b f;
#X obj 107 353 f;
#X obj 107 376 *;
#X obj 51 41 trigger f f;
#X connect 0 0 35 0;
#X connect 1 0 15 0;
#X connect 2 0 19 0;
#X connect 8 0 20 0;
#X connect 9 0 14 0;
#X connect 10 0 28 0;
#X connect 10 1 26 0;
#X connect 10 2 27 0;
#X connect 11 0 29 0;
#X connect 12 0 14 1;
#X connect 13 0 17 0;
#X connect 13 1 12 1;
#X connect 13 2 24 0;
#X connect 13 3 25 0;
#X connect 14 0 18 0;
#X connect 15 0 16 0;
#X connect 16 0 13 0;
#X connect 16 1 10 0;
#X connect 17 0 12 0;
#X connect 18 0 21 0;
#X connect 19 0 9 0;
#X connect 19 1 11 0;
#X connect 20 0 23 0;
#X connect 20 1 22 0;
#X connect 21 0 8 0;
#X connect 21 1 22 1;
#X connect 22 0 23 1;
#X connect 23 0 3 0;
#X connect 24 0 9 1;
#X connect 25 0 11 1;
#X connect 26 0 11 1;
#X connect 27 0 9 1;
#X connect 28 0 29 1;
#X connect 29 0 30 0;
#X connect 30 0 31 0;
#X connect 31 0 32 0;
#X connect 32 0 33 0;
#X connect 32 1 34 1;
#X connect 33 0 34 0;
#X connect 34 0 3 0;
#X connect 35 0 8 1;
#X connect 35 1 33 1;
#X restore 14 177 pd jitter;
#X obj -13 217 t b b;
#X obj -36 243 s \$0-j;
#X obj -27 116 r \$0-j;
#N canvas 536 293 478 328 sample-data 0;
#X obj 50 19 inlet;
#X text 92 18 pair: start sample;
#X obj 50 38 unpack;
#X obj 50 198 pack;
#X obj 301 138 delay;
#X obj 140 145 delay;
#X text 134 30 duration (samples);
#X obj 87 57 t f f;
#X obj 117 95 trigger bang float bang bang float bang;
#X obj 331 117 + 1;
#X obj 50 223 outlet;
#X obj 140 223 outlet;
#X obj 170 119 - 5;
#X msg 140 166 0 5;
#X msg 224 164 1 5;
#X obj 117 76 / 45;
#X connect 0 0 2 0;
#X connect 2 0 3 0;
#X connect 2 1 7 0;
#X connect 3 0 10 0;
#X connect 5 0 13 0;
#X connect 7 0 3 1;
#X connect 7 1 15 0;
#X connect 8 0 5 0;
#X connect 8 1 12 0;
#X connect 8 2 14 0;
#X connect 8 3 4 0;
#X connect 8 4 9 0;
#X connect 9 0 4 1;
#X connect 12 0 5 1;
#X connect 13 0 11 0;
#X connect 14 0 11 0;
#X connect 15 0 8 0;
#X restore 14 256 pd sample-data;
#X obj 13 302 tabplay~ \$0-grainarray;
#X obj 157 302 line~;
#X obj 13 346 *~;
#X obj 78 75 random 50;
#X obj 78 95 + 50;
#X obj 17 54 trigger bang float bang bang bang bang;
#X obj 264 85 random 50;
#X obj -38 287 print;
#X obj 17 116 t b b f f;
#X obj 264 105 - 30;
#X obj 264 125 clip 0 20;
#X obj 17 33 clip 1 99;
#X msg 152 138 100;
#X msg 17 74 1200;
#X obj 197 85 random 100;
#X obj 197 105 - 50;
#X obj 197 125 clip 0 50;
#X connect 0 0 59 0;
#X connect 5 0 6 1;
#X connect 6 0 1 0;
#X connect 7 0 9 0;
#X connect 8 0 11 0;
#X connect 8 1 15 0;
#X connect 9 0 8 0;
#X connect 9 1 10 0;
#X connect 10 0 16 0;
#X connect 10 1 13 0;
#X connect 11 0 5 0;
#X connect 13 0 14 0;
#X connect 14 0 12 0;
#X connect 15 0 12 0;
#X connect 16 0 5 0;
#X connect 17 0 14 0;
#X connect 20 0 31 0;
#X connect 22 0 7 0;
#X connect 24 0 22 0;
#X connect 27 0 34 0;
#X connect 28 0 30 0;
#X connect 31 0 27 0;
#X connect 31 1 32 0;
#X connect 32 0 34 1;
#X connect 33 0 28 0;
#X connect 34 0 33 0;
#X connect 35 0 56 0;
#X connect 36 0 40 3;
#X connect 37 0 44 0;
#X connect 38 0 40 4;
#X connect 39 0 36 1;
#X connect 40 0 47 0;
#X connect 41 0 36 0;
#X connect 42 0 41 0;
#X connect 42 1 39 0;
#X connect 43 0 37 1;
#X connect 44 0 45 0;
#X connect 44 1 40 0;
#X connect 46 0 43 0;
#X connect 47 0 48 0;
#X connect 47 1 49 0;
#X connect 48 0 50 0;
#X connect 49 0 50 1;
#X connect 50 0 6 0;
#X connect 51 0 52 0;
#X connect 52 0 42 0;
#X connect 53 0 61 0;
#X connect 53 1 35 1;
#X connect 53 2 51 0;
#X connect 53 3 60 0;
#X connect 53 4 62 0;
#X connect 53 5 54 0;
#X connect 54 0 57 0;
#X connect 56 0 37 0;
#X connect 56 1 43 0;
#X connect 56 2 43 1;
#X connect 56 3 41 0;
#X connect 57 0 58 0;
#X connect 58 0 43 2;
#X connect 59 0 53 0;
#X connect 60 0 40 1;
#X connect 61 0 35 0;
#X connect 62 0 63 0;
#X connect 63 0 64 0;
#X connect 64 0 40 2;
#X coords 0 -1 1 1 125 17 1 117 276;
