#N canvas 155 151 516 601 10;
#X obj 20 159 line~;
#X text 61 159 set oscillator frequency;
#X obj 20 18 inlet;
#X obj 20 79 mtof;
#X msg 42 120 5;
#X obj 20 140 pack;
#X text 66 80 calculate oscillator frequency;
#X obj 20 436 outlet~;
#X text 62 18 stream of incoming data values (0-100);
#X text 78 436 audio output;
#X text 19 522 one inlet: stream of values interpreted as MIDI pitches
;
#X text 19 536 one outlet~: synthesis audio;
#X obj 20 40 clip 0 100;
#X obj 36 387 line~;
#X obj 20 409 *~;
#X obj 184 251 tgl 15 0 empty empty empty 0 -6 0 8 -262144 -1 -1 0
1;
#X obj 184 296 t b b;
#X obj 184 271 sel 1;
#X obj 228 296 t b b;
#X obj 214 374 switch~;
#X obj 258 317 delay 6;
#X msg 258 341 0;
#X msg 214 342 1;
#X msg 71 365 0 5;
#X obj 315 317 loadbang;
#X obj 20 99 t f b;
#X obj 20 59 t f f;
#X obj 20 183 osc~;
#X obj 20 202 max~ 0;
#X obj 76 203 noise~;
#X obj 20 229 *~;
#X text 19 493 pulsed noise generator;
#X msg 36 365 1 5;
#X obj 184 230 select \$1;
#X text 19 508 one user-specified value: on/off key assignment (\$1)
;
#X obj 184 209 internals-keyswitch;
#X text 20 479 synth-pulsenoise~.pd;
#X obj 72 120 s pitch-report;
#X obj 333 166 inlet;
#X connect 0 0 27 0;
#X connect 2 0 12 0;
#X connect 3 0 25 0;
#X connect 4 0 5 1;
#X connect 5 0 0 0;
#X connect 12 0 26 0;
#X connect 13 0 14 1;
#X connect 14 0 7 0;
#X connect 15 0 17 0;
#X connect 16 0 32 0;
#X connect 16 1 22 0;
#X connect 17 0 16 0;
#X connect 17 1 18 0;
#X connect 18 0 23 0;
#X connect 18 1 20 0;
#X connect 20 0 21 0;
#X connect 21 0 19 0;
#X connect 22 0 19 0;
#X connect 23 0 13 0;
#X connect 24 0 21 0;
#X connect 25 0 5 0;
#X connect 25 1 4 0;
#X connect 26 0 3 0;
#X connect 26 1 37 0;
#X connect 27 0 28 0;
#X connect 28 0 30 0;
#X connect 29 0 30 1;
#X connect 30 0 14 0;
#X connect 32 0 13 0;
#X connect 33 0 15 0;
#X connect 35 0 33 0;
#X connect 38 0 15 0;
#X coords 0 -1 1 1 140 17 1 60 250;
