#N canvas 0 0 450 328 10;
#X obj 109 232 synth-fm~ x;
#X obj 106 212 synth-osc~ y;
#X obj 287 235 synth-pluck~ a;
#X obj 85 252 synth-pulsenoise~ b;
#X obj 264 213 synth-pulsetrain~ c;
#X obj 291 258 synth-flute~ M;
#X obj 176 72 vradio 16 1 0 6 empty empty empty 0 -8 0 10 -262144 -1
-1 4;
#X text 158 86 fm;
#X text 123 70 sine_osc;
#X text 105 102 pulse_noise;
#X text 105 119 pulse_train;
#X text 142 135 pluck;
#X text 139 151 flute;
#X obj 99 180 demux 0 1 2 3 4 5;
#X floatatom 53 233 5 0 0 0 - - -;
#X floatatom 27 143 5 0 0 0 - - -;
#X obj 311 146 t f f f f f f;
#X msg 311 126 0;
#X obj 252 84 t f f b;
#X obj 264 180 sel 0 1 2 3 4 5;
#X obj 45 22 inlet;
#X obj 204 287 outlet~;
#X obj 257 147 pipe 10;
#X obj 254 15 loadbang;
#X msg 256 56 0;
#X obj 259 35 del 100;
#X connect 0 0 21 0;
#X connect 1 0 21 0;
#X connect 2 0 21 0;
#X connect 3 0 21 0;
#X connect 4 0 21 0;
#X connect 5 0 21 0;
#X connect 6 0 18 0;
#X connect 13 0 1 0;
#X connect 13 1 14 0;
#X connect 13 1 0 0;
#X connect 13 2 3 0;
#X connect 13 3 4 0;
#X connect 13 4 2 0;
#X connect 13 5 5 0;
#X connect 15 0 13 0;
#X connect 16 0 0 1;
#X connect 16 1 1 1;
#X connect 16 2 5 1;
#X connect 16 3 3 1;
#X connect 16 4 2 1;
#X connect 16 5 4 1;
#X connect 17 0 16 0;
#X connect 18 0 13 1;
#X connect 18 1 22 0;
#X connect 18 2 17 0;
#X connect 19 0 1 1;
#X connect 19 1 0 1;
#X connect 19 2 3 1;
#X connect 19 3 4 1;
#X connect 19 4 2 1;
#X connect 19 5 5 1;
#X connect 20 0 15 0;
#X connect 22 0 19 0;
#X connect 23 0 25 0;
#X connect 24 0 6 0;
#X connect 25 0 24 0;
#X coords 0 -1 1 1 95 120 1 100 50;
