#N canvas 155 0 538 657 10;
#X obj 20 160 line~;
#X obj 20 18 inlet;
#X obj 20 80 mtof;
#X msg 43 120 5;
#X obj 20 140 pack;
#X text 56 80 calculate oscillator frequency;
#X obj 20 636 outlet~;
#X text 62 18 stream of incoming data values (0-100);
#X text 78 636 audio output;
#X text 20 717 one inlet: stream of values interpreted as MIDI pitches
;
#X text 20 731 one outlet~: synthesis audio;
#X obj 20 37 clip 0 100;
#X obj 36 587 line~;
#X obj 20 609 *~;
#X obj 184 451 tgl 15 0 empty empty empty 0 -6 0 8 -262144 -1 -1 1
1;
#X obj 184 496 t b b;
#X obj 184 471 sel 1;
#X obj 228 496 t b b;
#X obj 214 574 switch~;
#X obj 258 517 delay 6;
#X msg 258 541 0;
#X msg 214 542 1;
#X msg 79 564 0 5;
#X obj 315 517 loadbang;
#X obj 20 411 osc~;
#X obj 319 178 random 100;
#X obj 319 197 / 10;
#X obj 71 332 osc~;
#X obj 71 289 pack;
#X msg 273 180 5;
#X obj 71 310 line~;
#X obj 71 358 *~;
#X obj 20 386 +~;
#X obj 71 244 *;
#X msg 114 180 1.5;
#X msg 142 180 2;
#X msg 170 180 3;
#X obj 197 180 random 100;
#X obj 197 199 / 10;
#X msg 87 180 1;
#X obj 87 130 random 5;
#X text 20 688 fm oscillator;
#X obj 142 331 *;
#X obj 71 265 t f f;
#X obj 87 149 sel 0 1 2 3 4;
#X obj 20 99 trigger f b f b b b;
#X obj 20 57 t f f;
#X text 20 703 one user-specified values: on/off key assignment (\$1)
;
#X obj 184 414 select \$1;
#X obj 184 393 internals-keyswitch;
#X text 21 674 synth-fm~.pd;
#X obj 299 81 s pitch-report;
#X obj 460 227 inlet;
#X msg 37 565 0.5 5;
#X connect 0 0 32 0;
#X connect 1 0 11 0;
#X connect 2 0 45 0;
#X connect 3 0 4 1;
#X connect 4 0 0 0;
#X connect 11 0 46 0;
#X connect 12 0 13 1;
#X connect 13 0 6 0;
#X connect 14 0 16 0;
#X connect 15 0 53 0;
#X connect 15 1 21 0;
#X connect 16 0 15 0;
#X connect 16 1 17 0;
#X connect 17 0 22 0;
#X connect 17 1 19 0;
#X connect 19 0 20 0;
#X connect 20 0 18 0;
#X connect 21 0 18 0;
#X connect 22 0 12 0;
#X connect 23 0 20 0;
#X connect 24 0 13 0;
#X connect 25 0 26 0;
#X connect 26 0 42 1;
#X connect 27 0 31 0;
#X connect 28 0 30 0;
#X connect 29 0 28 1;
#X connect 30 0 27 0;
#X connect 31 0 32 1;
#X connect 32 0 24 0;
#X connect 33 0 43 0;
#X connect 34 0 33 1;
#X connect 35 0 33 1;
#X connect 36 0 33 1;
#X connect 37 0 38 0;
#X connect 38 0 33 1;
#X connect 39 0 33 1;
#X connect 40 0 44 0;
#X connect 42 0 31 1;
#X connect 43 0 28 0;
#X connect 43 1 42 0;
#X connect 44 0 39 0;
#X connect 44 1 34 0;
#X connect 44 2 35 0;
#X connect 44 3 36 0;
#X connect 44 4 37 0;
#X connect 45 0 4 0;
#X connect 45 1 3 0;
#X connect 45 2 33 0;
#X connect 45 3 40 0;
#X connect 45 4 29 0;
#X connect 45 5 25 0;
#X connect 46 0 2 0;
#X connect 46 1 51 0;
#X connect 48 0 14 0;
#X connect 49 0 48 0;
#X connect 52 0 14 0;
#X connect 53 0 12 0;
#X coords 0 -1 1 1 100 17 1 100 450;
