#N canvas 155 139 830 629 10;
#X obj 213 518 outlet~;
#X text 120 436 audio output;
#X text 348 75 one outlet~: synthesis audio;
#X obj 226 251 tgl 15 0 empty empty empty 0 -6 0 8 -262144 -1 -1 0
1;
#X obj 253 299 sel 1;
#X obj 253 372 switch~;
#X obj 280 323 delay 6;
#X msg 280 347 0;
#X obj 337 323 loadbang;
#X obj 210 251 bng 15 250 50 0 empty empty empty 0 -6 0 8 -262144 -1
-1;
#X obj 247 397 openpanel;
#X text 349 88 bang to select a soundfile for playback;
#X obj 282 211 select \$1;
#X text 348 47 one user-specified value: on/off key assignment;
#X obj 282 190 internals-keyswitch;
#X msg 214 465 open \$1;
#X obj 214 492 readsf~;
#X obj 214 440 symbol;
#X obj 101 94 inlet;
#X msg 114 391 start;
#X obj 155 337 t b b;
#X msg 215 202 1;
#X msg 250 337 1;
#X obj 236 417 t b b symbol;
#X text 349 18 synth-soundfile~.pd;
#X text 348 32 soundfile playback;
#X text 348 61 one inlet: bang to start playback;
#X connect 3 0 4 0;
#X connect 4 0 22 0;
#X connect 4 1 6 0;
#X connect 6 0 7 0;
#X connect 7 0 5 0;
#X connect 8 0 7 0;
#X connect 9 0 10 0;
#X connect 10 0 23 0;
#X connect 12 0 3 0;
#X connect 14 0 12 0;
#X connect 15 0 16 0;
#X connect 16 0 0 0;
#X connect 17 0 15 0;
#X connect 18 0 20 0;
#X connect 19 0 16 0;
#X connect 20 0 19 0;
#X connect 20 1 17 0;
#X connect 21 0 3 0;
#X connect 22 0 5 0;
#X connect 23 0 21 0;
#X connect 23 1 17 0;
#X connect 23 2 17 1;
#X coords 0 -1 1 1 150 17 1 92 250;
