#N canvas 0 0 450 300 10;
#X obj 124 92 ctime-random2;
#X obj 117 199 timer;
#X obj 119 169 t b b b;
#X obj 210 202 + 1;
#X obj 171 202 int;
#X msg 190 181 0;
#X obj 114 234 +;
#X obj 112 260 int;
#X obj 154 267 /;
#X floatatom 193 277 10 0 0 0 - - -;
#X msg 106 41 bang;
#X connect 0 0 2 0;
#X connect 1 0 6 0;
#X connect 2 0 1 0;
#X connect 2 1 1 1;
#X connect 2 2 4 0;
#X connect 3 0 4 1;
#X connect 3 0 8 1;
#X connect 4 0 3 0;
#X connect 5 0 4 0;
#X connect 5 0 6 1;
#X connect 6 0 7 0;
#X connect 7 0 6 1;
#X connect 7 0 8 0;
#X connect 8 0 9 0;
#X connect 10 0 0 0;
