#N canvas 125 123 654 439 10;
#N canvas 505 222 650 420 NUMKEYS 0;
#X obj 316 336 outlet;
#X obj 30 333 outlet;
#X obj 69 17 inlet;
#X obj 69 80 select 33 64 35 36 37 94 38 42 40 41;
#X text 82 333 report matches by ID number;
#X text 369 335 pass nonmatches;
#X text 330 80 test ASCII input against !@#$%^&*();
#X msg 59 101 110;
#X msg 30 101 108;
#X msg 88 101 111;
#X msg 117 101 112;
#X msg 146 101 113;
#X msg 175 101 115;
#X msg 204 101 116;
#X msg 234 101 117;
#X msg 263 101 118;
#X msg 291 101 119;
#X connect 2 0 3 0;
#X connect 3 0 8 0;
#X connect 3 1 7 0;
#X connect 3 2 9 0;
#X connect 3 3 10 0;
#X connect 3 4 11 0;
#X connect 3 5 12 0;
#X connect 3 6 13 0;
#X connect 3 7 14 0;
#X connect 3 8 15 0;
#X connect 3 9 16 0;
#X connect 3 10 0 0;
#X connect 7 0 1 0;
#X connect 8 0 1 0;
#X connect 9 0 1 0;
#X connect 10 0 1 0;
#X connect 11 0 1 0;
#X connect 12 0 1 0;
#X connect 13 0 1 0;
#X connect 14 0 1 0;
#X connect 15 0 1 0;
#X connect 16 0 1 0;
#X restore 312 142 pd NUMKEYS;
#N canvas 527 374 702 428 QWERTYUIOP 0;
#X obj 315 334 outlet;
#X obj 29 333 outlet;
#X obj 68 18 inlet;
#X obj 68 51 select 81 87 69 82 84 89 85 73 79 80;
#X text 81 333 report matches by ID number;
#X text 368 333 pass nonmatches;
#X text 327 51 test ASCII input against QWERTYUIOP;
#X msg 29 72 96;
#X msg 58 72 98;
#X msg 87 72 99;
#X msg 116 72 100;
#X msg 145 72 101;
#X msg 174 72 103;
#X msg 203 72 104;
#X msg 232 72 105;
#X msg 261 72 106;
#X msg 290 72 107;
#X connect 2 0 3 0;
#X connect 3 0 7 0;
#X connect 3 1 8 0;
#X connect 3 2 9 0;
#X connect 3 3 10 0;
#X connect 3 4 11 0;
#X connect 3 5 12 0;
#X connect 3 6 13 0;
#X connect 3 7 14 0;
#X connect 3 8 15 0;
#X connect 3 9 16 0;
#X connect 3 10 0 0;
#X connect 7 0 1 0;
#X connect 8 0 1 0;
#X connect 9 0 1 0;
#X connect 10 0 1 0;
#X connect 11 0 1 0;
#X connect 12 0 1 0;
#X connect 13 0 1 0;
#X connect 14 0 1 0;
#X connect 15 0 1 0;
#X connect 16 0 1 0;
#X restore 377 164 pd QWERTYUIOP;
#N canvas 505 222 642 412 ASDFGHJKL 0;
#X obj 316 329 outlet;
#X obj 30 333 outlet;
#X obj 69 17 inlet;
#X obj 69 39 select 65 83 68 70 71 72 74 75 76 58;
#X text 82 333 report matches by ID number;
#X text 369 328 pass nonmatches;
#X text 333 40 test ASCII input against ASDFGHJKL:;
#X msg 30 60 84;
#X msg 59 60 86;
#X msg 88 60 87;
#X msg 117 60 88;
#X msg 147 60 89;
#X msg 175 60 91;
#X msg 204 60 92;
#X msg 233 60 93;
#X msg 262 60 94;
#X msg 291 60 95;
#X connect 2 0 3 0;
#X connect 3 0 7 0;
#X connect 3 1 8 0;
#X connect 3 2 9 0;
#X connect 3 3 10 0;
#X connect 3 4 11 0;
#X connect 3 5 12 0;
#X connect 3 6 13 0;
#X connect 3 7 14 0;
#X connect 3 8 15 0;
#X connect 3 9 16 0;
#X connect 3 10 0 0;
#X connect 7 0 1 0;
#X connect 8 0 1 0;
#X connect 9 0 1 0;
#X connect 10 0 1 0;
#X connect 11 0 1 0;
#X connect 12 0 1 0;
#X connect 13 0 1 0;
#X connect 14 0 1 0;
#X connect 15 0 1 0;
#X connect 16 0 1 0;
#X restore 463 186 pd ASDFGHJKL;
#N canvas 527 374 658 428 ZXCVBNM 0;
#X obj 317 332 outlet;
#X obj 31 333 outlet;
#X obj 70 18 inlet;
#X obj 70 48 select 90 88 67 86 66 78 77 60 62 63;
#X text 83 333 report matches by ID number;
#X text 370 331 pass nonmatches;
#X text 336 47 test ASCII input against ZXCVBNM<>?;
#X msg 31 69 72;
#X msg 60 69 74;
#X msg 89 69 75;
#X msg 118 69 76;
#X msg 147 69 77;
#X msg 176 69 79;
#X msg 205 69 80;
#X msg 234 69 81;
#X msg 263 69 82;
#X msg 292 69 83;
#X connect 2 0 3 0;
#X connect 3 0 7 0;
#X connect 3 1 8 0;
#X connect 3 2 9 0;
#X connect 3 3 10 0;
#X connect 3 4 11 0;
#X connect 3 5 12 0;
#X connect 3 6 13 0;
#X connect 3 7 14 0;
#X connect 3 8 15 0;
#X connect 3 9 16 0;
#X connect 3 10 0 0;
#X connect 7 0 1 0;
#X connect 8 0 1 0;
#X connect 9 0 1 0;
#X connect 10 0 1 0;
#X connect 11 0 1 0;
#X connect 12 0 1 0;
#X connect 13 0 1 0;
#X connect 14 0 1 0;
#X connect 15 0 1 0;
#X connect 16 0 1 0;
#X restore 542 208 pd ZXCVBNM;
#X text 258 80 derived from "lattice" code by lcb;
#N canvas 505 222 654 424 numkeys 0;
#X obj 316 336 outlet;
#X obj 30 333 outlet;
#X obj 69 17 inlet;
#X text 82 333 report matches by ID number;
#X text 369 335 pass nonmatches;
#X obj 69 80 select 49 50 51 52 53 54 55 56 57 48;
#X text 330 80 test ASCII input against numbers;
#X msg 30 101 60;
#X msg 59 101 62;
#X msg 88 101 63;
#X msg 117 101 64;
#X msg 146 101 65;
#X msg 175 101 67;
#X msg 204 101 68;
#X msg 234 101 69;
#X msg 263 101 70;
#X msg 291 101 71;
#X connect 2 0 5 0;
#X connect 5 0 7 0;
#X connect 5 1 8 0;
#X connect 5 2 9 0;
#X connect 5 3 10 0;
#X connect 5 4 11 0;
#X connect 5 5 12 0;
#X connect 5 6 13 0;
#X connect 5 7 14 0;
#X connect 5 8 15 0;
#X connect 5 9 16 0;
#X connect 5 10 0 0;
#X connect 7 0 1 0;
#X connect 8 0 1 0;
#X connect 9 0 1 0;
#X connect 10 0 1 0;
#X connect 11 0 1 0;
#X connect 12 0 1 0;
#X connect 13 0 1 0;
#X connect 14 0 1 0;
#X connect 15 0 1 0;
#X connect 16 0 1 0;
#X restore 17 54 pd numkeys;
#N canvas 527 374 706 432 qwertyuiop 0;
#X obj 385 332 outlet;
#X obj 68 333 outlet;
#X obj 68 18 inlet;
#X text 120 333 report matches by ID number;
#X text 438 331 pass nonmatches;
#X text 398 50 test ASCII input against QWERTYUIOP;
#X obj 68 51 select 113 119 101 114 116 121 117 105 111 112;
#X msg 68 72 48;
#X msg 97 72 50;
#X msg 126 72 51;
#X msg 155 72 52;
#X msg 185 72 53;
#X msg 213 72 55;
#X msg 242 72 56;
#X msg 271 72 57;
#X msg 301 72 58;
#X msg 329 72 59;
#X connect 2 0 6 0;
#X connect 6 0 7 0;
#X connect 6 1 8 0;
#X connect 6 2 9 0;
#X connect 6 3 10 0;
#X connect 6 4 11 0;
#X connect 6 5 12 0;
#X connect 6 6 13 0;
#X connect 6 7 14 0;
#X connect 6 8 15 0;
#X connect 6 9 16 0;
#X connect 6 10 0 0;
#X connect 7 0 1 0;
#X connect 8 0 1 0;
#X connect 9 0 1 0;
#X connect 10 0 1 0;
#X connect 11 0 1 0;
#X connect 12 0 1 0;
#X connect 13 0 1 0;
#X connect 14 0 1 0;
#X connect 15 0 1 0;
#X connect 16 0 1 0;
#X restore 82 76 pd qwertyuiop;
#N canvas 505 222 713 414 asdfghjkl 0;
#X obj 330 343 outlet;
#X obj 27 345 outlet;
#X obj 27 27 inlet;
#X text 79 345 report matches by ID number;
#X text 383 342 pass nonmatches;
#X text 343 49 test ASCII input against asdfghjkl (semicolon);
#X obj 27 49 select 97 115 100 102 103 104 106 107 108 59;
#X msg 27 72 36;
#X msg 56 72 38;
#X msg 85 72 39;
#X msg 114 72 40;
#X msg 143 72 41;
#X msg 172 72 43;
#X msg 201 72 44;
#X msg 230 72 45;
#X msg 259 72 46;
#X msg 288 72 47;
#X connect 2 0 6 0;
#X connect 6 0 7 0;
#X connect 6 1 8 0;
#X connect 6 2 9 0;
#X connect 6 3 10 0;
#X connect 6 4 11 0;
#X connect 6 5 12 0;
#X connect 6 6 13 0;
#X connect 6 7 14 0;
#X connect 6 8 15 0;
#X connect 6 9 16 0;
#X connect 6 10 0 0;
#X connect 7 0 1 0;
#X connect 8 0 1 0;
#X connect 9 0 1 0;
#X connect 10 0 1 0;
#X connect 11 0 1 0;
#X connect 12 0 1 0;
#X connect 13 0 1 0;
#X connect 14 0 1 0;
#X connect 15 0 1 0;
#X connect 16 0 1 0;
#X restore 168 98 pd asdfghjkl;
#N canvas 527 374 646 385 zxcvbnm 0;
#X obj 313 332 outlet;
#X obj 31 333 outlet;
#X obj 31 11 inlet;
#X text 83 333 report matches by ID number;
#X text 366 331 pass nonmatches;
#X text 342 42 test ASCII input against zxcvbnm \, ./;
#X obj 31 41 select 122 120 99 118 98 110 109 44 46 47;
#X msg 31 69 24;
#X msg 60 69 26;
#X msg 89 69 27;
#X msg 118 69 28;
#X msg 148 69 29;
#X msg 176 69 31;
#X msg 205 69 32;
#X msg 233 69 33;
#X msg 263 69 34;
#X msg 292 69 35;
#X connect 2 0 6 0;
#X connect 6 0 7 0;
#X connect 6 1 8 0;
#X connect 6 2 9 0;
#X connect 6 3 10 0;
#X connect 6 4 11 0;
#X connect 6 5 12 0;
#X connect 6 6 13 0;
#X connect 6 7 14 0;
#X connect 6 8 15 0;
#X connect 6 9 16 0;
#X connect 6 10 0 0;
#X connect 7 0 1 0;
#X connect 8 0 1 0;
#X connect 9 0 1 0;
#X connect 10 0 1 0;
#X connect 11 0 1 0;
#X connect 12 0 1 0;
#X connect 13 0 1 0;
#X connect 14 0 1 0;
#X connect 15 0 1 0;
#X connect 16 0 1 0;
#X restore 247 120 pd zxcvbnm;
#X floatatom 156 301 5 0 0 0 - - -;
#X obj 156 327 outlet;
#X text 261 38 no inlets;
#X text 259 13 user interface object: report keypresses;
#X text 261 25 (when "fretboard" mode is switched on);
#X text 261 50 one user specified value: transposition;
#X text 260 63 one outlet: keypress interpreted as pitch;
#X text 260 93 updated 01.21.2008;
#X obj 156 248 + \$1;
#X text 259 0 ui-fretboard-pitch.pd;
#X obj 17 28 key;
#X obj 156 275 spigot;
#X obj 139 301 tgl 15 0 empty empty empty 17 7 0 10 -262144 -1 -1 0
1;
#X connect 0 0 17 0;
#X connect 0 1 1 0;
#X connect 1 0 17 0;
#X connect 1 1 2 0;
#X connect 2 0 17 0;
#X connect 2 1 3 0;
#X connect 3 0 17 0;
#X connect 5 0 17 0;
#X connect 5 1 6 0;
#X connect 6 0 17 0;
#X connect 6 1 7 0;
#X connect 7 0 17 0;
#X connect 7 1 8 0;
#X connect 8 0 17 0;
#X connect 8 1 0 0;
#X connect 9 0 10 0;
#X connect 17 0 20 0;
#X connect 19 0 5 0;
#X connect 20 0 9 0;
#X connect 21 0 20 1;
#X coords 0 -1 1 1 180 17 1 10 300;
