#N canvas 0 0 569 486 10;
#X obj 423 22 inlet;
#X obj 51 67 grid grid2 150 40 100 150 40 100 1 0.1 0.1 10 10 712 188
;
#X msg 463 109 color 224 224 224;
#X obj 470 79 loadbang;
#X obj 342 263 f;
#X obj 454 264 f;
#X obj 377 62 t b b;
#X obj 346 357 outlet;
#X obj 186 51 tgl 15 0 empty empty empty 17 7 0 10 -262144 -1 -1 0
1;
#X floatatom 51 219 5 0 0 0 - - -;
#X floatatom 169 219 5 0 0 0 - - -;
#X text 84 219 X;
#X text 156 219 Y;
#X text 149 49 round;
#X obj 343 286 demux;
#X obj 371 311 int;
#X obj 459 360 outlet;
#X obj 456 289 demux;
#X obj 483 319 int;
#X text 55 340 to edit X and Y;
#X text 53 358 maxes and mins \, rt-click;
#X text 54 324 GRID object;
#X connect 0 0 6 0;
#X connect 1 0 4 1;
#X connect 1 1 5 1;
#X connect 2 0 1 0;
#X connect 3 0 2 0;
#X connect 4 0 14 0;
#X connect 5 0 17 0;
#X connect 6 0 4 0;
#X connect 6 1 5 0;
#X connect 8 0 14 1;
#X connect 8 0 17 1;
#X connect 9 0 7 0;
#X connect 10 0 16 0;
#X connect 14 0 9 0;
#X connect 14 1 15 0;
#X connect 15 0 9 0;
#X connect 17 0 10 0;
#X connect 17 1 18 0;
#X connect 18 0 10 0;
#X coords 0 -1 1 1 152 190 1 50 50;
