#N canvas 0 0 450 300 10;
#X obj -123 23 key;
#X obj -123 76 net-keycols;
#X obj -123 102 s keys-to-modules;
#X obj -123 50 spigot;
#X obj 134 101 tgl 15 0 empty empty empty 17 7 0 10 -262144 -66577
-1 0 1;
#X text 102 99 key;
#X connect 0 0 3 0;
#X connect 1 0 2 0;
#X connect 3 0 1 0;
#X connect 4 0 3 1;
#X coords 0 -1 1 1 50 17 2 100 100;
