#N canvas 610 345 216 235 10;
#N canvas 87 200 639 441 internals 1;
#N canvas 566 285 450 300 sendosc 0;
#X obj 174 123 loadbang;
#X obj 129 89 mrpeach/packOSC;
#X msg 124 62 sendtyped /clock iii \$1 \$2 \$3;
#X obj 304 29 inlet;
#X obj 237 102 speedlim 1000;
#X obj 164 206 outlet;
#X obj 110 11 inlet;
#X obj 125 34 pack f f f;
#X obj 154 9 inlet;
#X obj 196 9 inlet;
#X msg 175 147 connect 255.255.255.255 26499;
#X msg 54 138 disconnect;
#X obj 165 179 mrpeach/udpsend;
#X connect 0 0 10 0;
#X connect 1 0 12 0;
#X connect 2 0 1 0;
#X connect 3 0 4 0;
#X connect 4 0 10 0;
#X connect 6 0 7 0;
#X connect 7 0 2 0;
#X connect 8 0 7 1;
#X connect 9 0 7 2;
#X connect 10 0 12 0;
#X connect 11 0 12 0;
#X connect 12 0 5 0;
#X restore 151 323 pd sendosc;
#X obj 148 349 tgl 15 0 empty empty empty 17 7 0 10 -262144 -1 -1 1
1;
#X obj 147 370 sel 0;
#X obj 86 58 metro 1000;
#X obj 95 95 int;
#X obj 124 94 + 1;
#X obj 93 121 t f f f f;
#X obj 85 166 / 60;
#X obj 80 191 int;
#X obj 118 165 % 60;
#N canvas 481 304 450 402 sections 0;
#X obj 165 41 inlet;
#X obj 195 152 tabread sections;
#X obj 166 67 t f b;
#X obj 195 107 int;
#X obj 259 193 + 1;
#X obj 246 219 int;
#X floatatom 195 181 5 0 0 0 - - -;
#X obj 156 201 >=;
#X obj 154 231 sel 1;
#X obj 238 197 bng 15 250 50 0 empty empty empty 17 7 0 10 -262144
-1 -1;
#X obj 295 107 t f f f;
#X obj 224 270 int;
#X msg 206 244 bang;
#X floatatom 224 314 5 0 0 0 - - -;
#X obj 225 290 - 1;
#X obj 226 48 r sectionnum;
#X obj 219 342 outlet;
#X obj 157 126 + 1;
#X connect 0 0 2 0;
#X connect 1 0 6 0;
#X connect 2 0 17 0;
#X connect 2 1 3 0;
#X connect 3 0 10 0;
#X connect 4 0 5 1;
#X connect 5 0 3 1;
#X connect 6 0 7 1;
#X connect 7 0 8 0;
#X connect 8 0 9 0;
#X connect 8 1 12 0;
#X connect 9 0 5 0;
#X connect 10 0 4 0;
#X connect 10 1 1 0;
#X connect 10 2 11 1;
#X connect 11 0 14 0;
#X connect 12 0 11 0;
#X connect 13 0 16 0;
#X connect 14 0 13 0;
#X connect 15 0 3 1;
#X connect 17 0 7 0;
#X restore 160 164 pd sections;
#X obj 100 17 r tog-clock;
#X obj 223 35 r sectionnum;
#X obj 222 64 tabread sections;
#X obj 265 114 table sections 10;
#X msg 299 232 \; sections read sections.txt;
#X obj 299 204 loadbang;
#X obj 514 256 s osc-start;
#X obj 514 234 bng 15 250 50 0 empty empty empty 17 7 0 10 -262144
-1 -1;
#X obj 466 136 mrpeach/udpreceive 45828;
#X obj 466 161 mrpeach/unpackOSC;
#X obj 467 183 mrpeach/routeOSC /startclock;
#X obj 54 64 bng 15 250 50 0 empty empty empty 17 7 0 10 -262144 -1
-1;
#X obj 29 29 until;
#X msg 26 7 60;
#X connect 0 0 1 0;
#X connect 1 0 2 0;
#X connect 2 0 0 3;
#X connect 3 0 4 0;
#X connect 4 0 6 0;
#X connect 5 0 4 1;
#X connect 6 0 7 0;
#X connect 6 1 9 0;
#X connect 6 2 10 0;
#X connect 6 3 5 0;
#X connect 7 0 8 0;
#X connect 8 0 0 0;
#X connect 9 0 0 1;
#X connect 10 0 0 2;
#X connect 11 0 3 0;
#X connect 12 0 13 0;
#X connect 13 0 4 1;
#X connect 16 0 15 0;
#X connect 18 0 17 0;
#X connect 19 0 20 0;
#X connect 20 0 21 0;
#X connect 21 0 18 0;
#X connect 22 0 4 0;
#X connect 23 0 22 0;
#X connect 24 0 23 0;
#X restore 36 149 pd internals;
#X obj 151 25 vradio 15 1 0 10 sectionnum empty empty 0 -8 0 10 -262144
-1 -1 4;
#X text 134 6 sections;
#X obj 18 12 tgl 100 0 tog-clock osc-start empty 17 7 0 10 -260097
-1 -1 1 1;
