#N canvas 67 97 450 300 10;
#X obj 147 58 inlet~;
#X obj 160 148 *~;
#X obj 210 118 osc~;
#X obj 207 96 line~;
#X msg 209 76 \$1 500;
#X obj 204 31 inlet;
#X obj 139 219 outlet~;
#X obj 323 30 inlet;
#X text 327 57 mix;
#X text 208 11 freq;
#X obj 142 189 crossfade~;
#X obj 209 52 mtof;
#X connect 0 0 1 0;
#X connect 0 0 10 1;
#X connect 1 0 10 0;
#X connect 2 0 1 1;
#X connect 3 0 2 0;
#X connect 4 0 3 0;
#X connect 5 0 11 0;
#X connect 7 0 10 2;
#X connect 10 0 6 0;
#X connect 11 0 4 0;
