#N canvas 444 150 556 574 10;
#X obj 102 29 inlet~;
#X obj -56 263 line~;
#X obj 156 305 *~;
#X obj -65 330 outlet~;
#X obj 42 282 line~;
#X obj 28 316 *~;
#X obj 33 349 outlet~;
#X obj 43 150 expr 1.5708-$f1;
#X obj 309 40 inlet;
#X msg 42 258 \$1 10;
#X msg -56 239 \$1 10;
#X obj 311 77 / 63.662;
#X text 312 226 sfx-pan~;
#X text 274 244 left inlet - mono audio signal;
#X text 273 264 right inlet - pan value 0-100;
#X obj 41 182 cos;
#X obj -54 168 cos;
#X obj 41 212 clip 0 1;
#X obj -55 193 clip 0 1;
#X obj 239 154 f;
#X floatatom 89 232 5 0 0 0 - - -;
#X floatatom 2 227 5 0 0 0 - - -;
#X obj 202 45 init 100;
#X connect 0 0 2 0;
#X connect 0 0 5 0;
#X connect 1 0 2 1;
#X connect 2 0 3 0;
#X connect 4 0 5 1;
#X connect 5 0 6 0;
#X connect 7 0 15 0;
#X connect 8 0 11 0;
#X connect 9 0 4 0;
#X connect 10 0 1 0;
#X connect 11 0 19 0;
#X connect 15 0 17 0;
#X connect 16 0 18 0;
#X connect 17 0 9 0;
#X connect 17 0 20 0;
#X connect 18 0 10 0;
#X connect 18 0 21 0;
#X connect 19 0 7 0;
#X connect 19 0 16 0;
#X connect 22 0 11 0;
