#N canvas 216 129 505 561 10;
#X obj 102 29 inlet~;
#X obj 170 271 line~;
#X obj 156 305 *~;
#X obj 42 282 line~;
#X obj 28 316 *~;
#X obj 87 398 outlet~;
#X obj 43 150 expr 1.5708-$f1;
#X obj 309 40 inlet;
#X msg 42 258 \$1 10;
#X msg 170 247 \$1 10;
#X obj 311 77 / 63.662;
#X text 267 247 right inlet - pan value 0-100;
#X obj 41 182 cos;
#X obj 172 176 cos;
#X obj 41 212 clip 0 1;
#X obj 171 201 clip 0 1;
#X obj 223 82 init 0.7854;
#X obj 239 154 f;
#X obj 161 28 inlet~;
#X text 312 226 crossfade~;
#X connect 0 0 4 0;
#X connect 1 0 2 1;
#X connect 2 0 5 0;
#X connect 3 0 4 1;
#X connect 4 0 5 0;
#X connect 6 0 12 0;
#X connect 7 0 10 0;
#X connect 8 0 3 0;
#X connect 9 0 1 0;
#X connect 10 0 17 0;
#X connect 12 0 14 0;
#X connect 13 0 15 0;
#X connect 14 0 8 0;
#X connect 15 0 9 0;
#X connect 16 0 17 0;
#X connect 17 0 6 0;
#X connect 17 0 13 0;
#X connect 18 0 2 0;
