#N canvas 67 92 450 300 10;
#X obj 169 34 inlet~;
#X obj 253 37 inlet;
#X obj 345 36 inlet;
#X obj 163 124 outlet~;
#X obj 164 69 vcf~ 200 0;
#X obj 263 117 line~;
#X obj 270 67 mtof;
#X floatatom 341 209 5 0 0 0 - - -;
#X msg 270 94 \$1 50;
#X obj 152 99 compressor~ 2;
#X obj 322 72 - 1;
#X obj 322 9 init 1;
#X obj 343 260 *;
#X obj 338 234 t f f;
#X floatatom 284 257 5 0 0 0 - - -;
#X connect 0 0 4 0;
#X connect 1 0 6 0;
#X connect 2 0 10 0;
#X connect 4 0 9 0;
#X connect 4 1 9 0;
#X connect 5 0 4 1;
#X connect 6 0 8 0;
#X connect 7 0 13 0;
#X connect 8 0 5 0;
#X connect 9 0 3 0;
#X connect 10 0 7 0;
#X connect 11 0 10 0;
#X connect 12 0 14 0;
#X connect 13 0 12 0;
#X connect 13 1 12 1;
#X connect 14 0 4 2;
