#N canvas 97 227 724 439 10;
#X obj 28 168 r grain-separation;
#X obj 30 191 r grain-rate-var;
#X obj 30 216 r grain-size;
#X obj 32 240 r grain-size-var;
#X msg 224 251 0;
#X obj 224 231 loadbang;
#X msg 255 252 1;
#X obj 276 35 loadbang;
#X obj 341 400 outlet~;
#X obj 427 404 outlet~;
#X obj 108 34 inlet~;
#X obj 430 372 crossfade~;
#X obj 345 373 crossfade~;
#X obj 523 327 r gran-mix;
#X obj 513 293 init 0;
#X msg 257 63 ramptime 500 \, smooth \, ambidirectional 1;
#X obj 119 104 disis_munger~ 30000 2 10;
#X obj 411 103 r grain-pitch;
#X obj 396 212 line 0 10;
#X obj 570 33 r reset-grain-pitch;
#X floatatom 404 250 5 0 0 0 - - -;
#X obj 468 150 int;
#X obj 488 173 / 8;
#X msg 397 187 \$1 5000;
#X obj 308 140 r grain-pitch-randomness;
#X msg 576 71 \; set-grain-pitch 8 \; set-pitch-randomness 0;
#X msg 70 281 \; set-grain-separation 50 \; set-grain-size 100 \; set-grain-pitch
8 \; set-pitch-randomness 0;
#X connect 0 0 16 1;
#X connect 1 0 16 2;
#X connect 2 0 16 3;
#X connect 3 0 16 4;
#X connect 4 0 16 2;
#X connect 4 0 16 4;
#X connect 4 0 16 6;
#X connect 5 0 4 0;
#X connect 5 0 6 0;
#X connect 5 0 26 0;
#X connect 6 0 16 7;
#X connect 7 0 15 0;
#X connect 10 0 11 1;
#X connect 10 0 12 1;
#X connect 10 0 16 0;
#X connect 11 0 9 0;
#X connect 12 0 8 0;
#X connect 13 0 11 2;
#X connect 13 0 12 2;
#X connect 14 0 11 2;
#X connect 14 0 12 2;
#X connect 15 0 16 0;
#X connect 16 0 12 0;
#X connect 16 1 11 0;
#X connect 17 0 21 0;
#X connect 18 0 16 5;
#X connect 18 0 20 0;
#X connect 19 0 25 0;
#X connect 21 0 22 0;
#X connect 22 0 23 0;
#X connect 23 0 18 0;
#X connect 24 0 16 6;
