#N canvas 493 195 604 321 12;
#X obj 104 117 demux;
#X obj 71 165 spigot;
#X obj 104 141 ==;
#X obj 108 77 t b f;
#X msg 149 115 0;
#X obj 252 35 inlet;
#X obj 105 251 outlet;
#X msg 243 68 1;
#X msg 308 67 0;
#X obj 311 34 r autodetect-off;
#X obj 38 4 r midictldata;
#X obj 150 5 r midictlnum;
#X obj 466 39 r midi-clearall;
#X msg 465 70 -1;
#X obj 441 8 inlet;
#X text 246 142 left: autodetect on \; right: receive stored ctl num
;
#X obj 241 226 spigot;
#X obj 239 254 outlet;
#X connect 0 0 2 0;
#X connect 0 1 2 1;
#X connect 1 0 6 0;
#X connect 2 0 1 1;
#X connect 3 0 4 0;
#X connect 3 1 0 0;
#X connect 4 0 0 1;
#X connect 5 0 7 0;
#X connect 7 0 0 1;
#X connect 7 0 16 1;
#X connect 8 0 0 1;
#X connect 8 0 16 1;
#X connect 9 0 8 0;
#X connect 10 0 1 0;
#X connect 11 0 3 0;
#X connect 11 0 16 0;
#X connect 12 0 13 0;
#X connect 13 0 2 1;
#X connect 13 0 17 0;
#X connect 14 0 2 1;
#X connect 16 0 17 0;
