#N canvas 507 214 450 415 10;
#X obj 11 101 cnv 15 398 133 empty empty empty 20 12 0 14 -1 -66577
0;
#X obj 19 11 inlet~;
#X obj 11 103 vsl 30 128 0 1 0 0 empty empty empty 0 -9 0 10 -261682
-1 -1 0 1;
#X obj 65 103 vsl 30 128 0 1 0 0 empty empty empty 0 -9 0 10 -262130
-1 -1 0 1;
#X obj 119 103 vsl 30 128 0 1 0 0 empty empty empty 0 -9 0 10 -204786
-1 -1 0 1;
#X obj 173 103 vsl 30 128 0 1 0 0 empty empty empty 0 -9 0 10 -204800
-1 -1 0 1;
#X obj 227 103 vsl 30 128 0 1 0 0 empty empty empty 0 -9 0 10 -203904
-1 -1 0 1;
#X obj 281 103 vsl 30 128 0 1 0 0 empty empty empty 0 -9 0 10 -232576
-1 -1 0 1;
#X obj 335 103 vsl 30 128 0 1 0 0 empty empty empty 0 -9 0 10 -258113
-1 -1 0 1;
#X obj 379 103 vsl 30 128 0 1 0 0 empty empty empty 0 -9 0 10 -257985
-1 -1 0 1;
#X obj 16 52 *~;
#X obj 46 55 line~;
#X msg 46 35 \$1 100;
#X obj 74 -30 inlet~;
#X obj 71 11 *~;
#X obj 101 14 line~;
#X msg 101 -6 \$1 100;
#X obj 101 35 inlet~;
#X obj 98 76 *~;
#X obj 128 79 line~;
#X msg 128 59 \$1 100;
#X obj 156 -6 inlet~;
#X obj 153 35 *~;
#X obj 183 38 line~;
#X msg 183 18 \$1 100;
#X obj 235 1 inlet~;
#X obj 232 42 *~;
#X obj 262 45 line~;
#X msg 262 25 \$1 100;
#X obj 290 -40 inlet~;
#X obj 287 1 *~;
#X obj 317 4 line~;
#X msg 317 -16 \$1 100;
#X obj 317 25 inlet~;
#X obj 314 66 *~;
#X obj 344 69 line~;
#X msg 344 49 \$1 100;
#X obj 372 -16 inlet~;
#X obj 369 25 *~;
#X obj 399 28 line~;
#X msg 399 8 \$1 100;
#X obj 175 302 clip~ 0 1;
#X connect 1 0 10 0;
#X connect 2 0 12 0;
#X connect 3 0 16 0;
#X connect 4 0 20 0;
#X connect 5 0 24 0;
#X connect 6 0 28 0;
#X connect 7 0 32 0;
#X connect 8 0 36 0;
#X connect 9 0 40 0;
#X connect 10 0 41 0;
#X connect 11 0 10 1;
#X connect 12 0 11 0;
#X connect 13 0 14 0;
#X connect 14 0 41 0;
#X connect 15 0 14 1;
#X connect 16 0 15 0;
#X connect 17 0 18 0;
#X connect 18 0 41 0;
#X connect 19 0 18 1;
#X connect 20 0 19 0;
#X connect 21 0 22 0;
#X connect 22 0 41 0;
#X connect 23 0 22 1;
#X connect 24 0 23 0;
#X connect 25 0 26 0;
#X connect 26 0 41 0;
#X connect 27 0 26 1;
#X connect 28 0 27 0;
#X connect 29 0 30 0;
#X connect 30 0 41 0;
#X connect 31 0 30 1;
#X connect 32 0 31 0;
#X connect 33 0 34 0;
#X connect 34 0 41 0;
#X connect 35 0 34 1;
#X connect 36 0 35 0;
#X connect 37 0 38 0;
#X connect 38 0 41 0;
#X connect 39 0 38 1;
#X connect 40 0 39 0;
#X coords 0 -1 1 1 400 135 1 10 100;
