#N canvas 67 182 612 444 10;
#X obj 151 110 freeverb~;
#X msg 329 43 roomsize \$1;
#X msg 280 285 wet \$1 \, dry \$2;
#X obj 350 174 t f f;
#X obj 376 199 - 1;
#X obj 379 223 abs;
#X obj 300 262 pack;
#X obj 330 18 inlet;
#X obj 533 18 inlet;
#X obj 144 44 inlet~;
#X obj 152 277 outlet~;
#X obj 278 168 outlet~;
#X obj 60 167 loadbang;
#X text 537 45 mix;
#X obj 190 46 inlet~;
#X obj 289 139 crossfade~;
#X obj 156 243 crossfade~;
#X obj 476 143 * 100;
#X msg 61 196 wet 0.96 \, dry 0.04 \, roomsize 0.95 \, damping 1;
#X connect 0 0 16 0;
#X connect 0 1 15 0;
#X connect 1 0 0 0;
#X connect 2 0 0 0;
#X connect 3 0 6 0;
#X connect 3 1 4 0;
#X connect 4 0 5 0;
#X connect 5 0 6 1;
#X connect 6 0 2 0;
#X connect 7 0 1 0;
#X connect 8 0 17 0;
#X connect 9 0 0 0;
#X connect 9 0 16 1;
#X connect 12 0 18 0;
#X connect 14 0 0 1;
#X connect 14 0 15 1;
#X connect 15 0 11 0;
#X connect 16 0 10 0;
#X connect 17 0 15 2;
#X connect 17 0 16 2;
#X connect 18 0 0 0;
