#N canvas 174 92 591 620 10;
#X obj 34 -13 inlet~;
#X obj 56 70 *~;
#X obj 70 47 line~;
#X msg 85 21 \$1 20;
#X obj 107 149 vsl 15 128 0 1 0 0 empty empty empty 0 -9 0 10 -262130
-1 -1 12700 1;
#X obj 78 -13 inlet~;
#X obj 100 70 *~;
#X obj 114 47 line~;
#X msg 129 21 \$1 20;
#X obj 125 149 vsl 15 128 0 1 0 0 empty empty empty 0 -9 0 10 -262130
-1 -1 12700 1;
#X obj 123 -14 inlet~;
#X obj 137 71 *~;
#X obj 159 46 line~;
#X msg 174 20 \$1 20;
#X obj 143 149 vsl 15 128 0 1 0 0 empty empty empty 0 -9 0 10 -204786
-1 -1 12700 1;
#X obj 167 -14 inlet~;
#X obj 189 69 *~;
#X obj 203 46 line~;
#X msg 218 20 \$1 20;
#X obj 161 149 vsl 15 128 0 1 0 0 empty empty empty 0 -9 0 10 -204786
-1 -1 12700 1;
#X obj 213 -14 inlet~;
#X obj 235 69 *~;
#X obj 249 46 line~;
#X msg 264 20 \$1 20;
#X obj 179 149 vsl 15 128 0 1 0 0 empty empty empty 0 -9 0 10 -204800
-1 -1 12700 1;
#X obj 257 -14 inlet~;
#X obj 280 70 *~;
#X obj 293 46 line~;
#X msg 308 20 \$1 20;
#X obj 197 149 vsl 15 128 0 1 0 0 empty empty empty 0 -9 0 10 -204800
-1 -1 12700 1;
#X obj 302 -15 inlet~;
#X obj 324 68 *~;
#X obj 338 45 line~;
#X msg 353 19 \$1 20;
#X obj 215 149 vsl 15 128 0 1 0 0 empty empty empty 0 -9 0 10 -232576
-1 -1 12700 1;
#X obj 346 -15 inlet~;
#X obj 368 68 *~;
#X obj 382 45 line~;
#X msg 397 19 \$1 20;
#X obj 233 149 vsl 15 128 0 1 0 0 empty empty empty 0 -9 0 10 -232576
-1 -1 12700 1;
#X obj 345 173 vu 15 120 empty empty -1 -8 0 5 -66577 -1 1 0;
#X obj 327 173 vu 15 120 empty empty -1 -8 0 5 -66577 -1 0 0;
#X obj 107 281 tgl 15 0 empty empty empty 17 7 0 10 -257985 -1 -1 0
1;
#X obj 125 281 tgl 15 0 empty empty empty 17 7 0 10 -257985 -1 -1 0
1;
#X obj 143 281 tgl 15 0 empty empty empty 17 7 0 10 -4034 -1 -1 0 1
;
#X obj 161 281 tgl 15 0 empty empty empty 17 7 0 10 -4034 -1 -1 0 1
;
#X obj 179 281 tgl 15 0 empty empty empty 17 7 0 10 -4032 -1 -1 0 1
;
#X obj 197 281 tgl 15 0 empty empty empty 17 7 0 10 -4032 -1 -1 0 1
;
#X obj 215 281 tgl 15 0 empty empty empty 17 7 0 10 -159808 -1 -1 0
1;
#X obj 233 281 tgl 15 0 empty empty empty 17 7 0 10 -159808 -1 -1 0
1;
#X obj 234 577 *~;
#X obj 443 422 line~;
#X msg 458 396 \$1 20;
#X obj 282 142 vsl 20 133 0 1 0 0 empty empty empty 0 -9 0 10 -162280
-262144 -1 6600 1;
#X obj 300 465 *~;
#X obj 487 422 line~;
#X msg 502 396 \$1 20;
#X obj 453 268 pvu~;
#X obj 486 268 pvu~;
#X obj 333 123 button PANIC;
#X msg 474 50 0;
#X obj 101 104 cnv 15 75 15 empty empty empty 20 12 0 14 -262130 -66577
0;
#X obj 177 104 cnv 15 75 15 empty empty empty 20 12 0 14 -204786 -66577
0;
#X obj 252 104 cnv 15 75 15 empty empty empty 20 12 0 14 -204800 -66577
0;
#X obj 324 104 cnv 15 75 15 empty empty empty 20 12 0 14 -232576 -66577
0;
#X obj 438 515 hip~ 5;
#X obj 488 515 hip~ 5;
#X obj 510 560 outlet~;
#X obj 354 562 outlet~;
#X obj 507 88 loadbang;
#X text 266 121 MAIN OUT;
#X msg 506 203 0.5;
#X obj 282 278 tgl 20 0 empty empty empty 17 7 0 10 -1 -262144 -1 0
1;
#N canvas 59 24 450 300 autodetect_midicontroller 0;
#X obj 119 131 demux;
#X obj 86 179 spigot;
#X obj 119 155 ==;
#X text 220 113 left - control data;
#X text 218 130 middle - midi controller #;
#X text 225 147 right - toggle (0/1) autodetect;
#X obj 123 91 t b f;
#X msg 164 129 0;
#X obj 60 43 inlet;
#X obj 130 44 inlet;
#X obj 267 49 inlet;
#X obj 120 265 outlet;
#X obj 230 233 outlet;
#X obj 110 224 / 127;
#X connect 0 0 2 0;
#X connect 0 1 2 1;
#X connect 1 0 13 0;
#X connect 2 0 1 1;
#X connect 6 0 7 0;
#X connect 6 1 0 0;
#X connect 7 0 0 1;
#X connect 7 0 12 0;
#X connect 8 0 1 0;
#X connect 9 0 6 0;
#X connect 10 0 0 1;
#X connect 13 0 11 0;
#X restore 627 130 pd autodetect_midicontroller;
#N canvas 59 24 450 300 autodetect_midicontroller 0;
#X obj 119 131 demux;
#X obj 86 179 spigot;
#X obj 119 155 ==;
#X text 220 113 left - control data;
#X text 218 130 middle - midi controller #;
#X text 225 147 right - toggle (0/1) autodetect;
#X obj 123 91 t b f;
#X msg 164 129 0;
#X obj 60 43 inlet;
#X obj 130 44 inlet;
#X obj 267 49 inlet;
#X obj 120 265 outlet;
#X obj 230 233 outlet;
#X obj 120 234 / 127;
#X connect 0 0 2 0;
#X connect 0 1 2 1;
#X connect 1 0 13 0;
#X connect 2 0 1 1;
#X connect 6 0 7 0;
#X connect 6 1 0 0;
#X connect 7 0 0 1;
#X connect 7 0 12 0;
#X connect 8 0 1 0;
#X connect 9 0 6 0;
#X connect 10 0 0 1;
#X connect 13 0 11 0;
#X restore 629 160 pd autodetect_midicontroller;
#N canvas 59 24 450 300 autodetect_midicontroller 0;
#X obj 119 131 demux;
#X obj 86 179 spigot;
#X obj 119 155 ==;
#X text 220 113 left - control data;
#X text 218 130 middle - midi controller #;
#X text 225 147 right - toggle (0/1) autodetect;
#X obj 123 91 t b f;
#X msg 164 129 0;
#X obj 60 43 inlet;
#X obj 130 44 inlet;
#X obj 267 49 inlet;
#X obj 230 233 outlet;
#X obj 130 275 outlet;
#X obj 130 244 / 127;
#X connect 0 0 2 0;
#X connect 0 1 2 1;
#X connect 1 0 13 0;
#X connect 2 0 1 1;
#X connect 6 0 7 0;
#X connect 6 1 0 0;
#X connect 7 0 0 1;
#X connect 7 0 11 0;
#X connect 8 0 1 0;
#X connect 9 0 6 0;
#X connect 10 0 0 1;
#X connect 13 0 12 0;
#X restore 628 187 pd autodetect_midicontroller;
#N canvas 59 24 450 300 autodetect_midicontroller 0;
#X obj 119 131 demux;
#X obj 86 179 spigot;
#X obj 119 155 ==;
#X text 220 113 left - control data;
#X text 218 130 middle - midi controller #;
#X text 225 147 right - toggle (0/1) autodetect;
#X obj 123 91 t b f;
#X msg 164 129 0;
#X obj 60 43 inlet;
#X obj 130 44 inlet;
#X obj 267 49 inlet;
#X obj 230 233 outlet;
#X obj 106 251 outlet;
#X obj 106 220 / 127;
#X connect 0 0 2 0;
#X connect 0 1 2 1;
#X connect 1 0 13 0;
#X connect 2 0 1 1;
#X connect 6 0 7 0;
#X connect 6 1 0 0;
#X connect 7 0 0 1;
#X connect 7 0 11 0;
#X connect 8 0 1 0;
#X connect 9 0 6 0;
#X connect 10 0 0 1;
#X connect 13 0 12 0;
#X restore 628 218 pd autodetect_midicontroller;
#N canvas 0 0 450 300 autodetect_midicontroller 0;
#X obj 119 131 demux;
#X obj 86 179 spigot;
#X obj 119 155 ==;
#X text 220 113 left - control data;
#X text 218 130 middle - midi controller #;
#X text 225 147 right - toggle (0/1) autodetect;
#X obj 123 91 t b f;
#X msg 164 129 0;
#X obj 60 43 inlet;
#X obj 130 44 inlet;
#X obj 267 49 inlet;
#X obj 230 233 outlet;
#X obj 100 251 outlet;
#X obj 100 220 / 127;
#X connect 0 0 2 0;
#X connect 0 1 2 1;
#X connect 1 0 13 0;
#X connect 2 0 1 1;
#X connect 6 0 7 0;
#X connect 6 1 0 0;
#X connect 7 0 0 1;
#X connect 7 0 11 0;
#X connect 8 0 1 0;
#X connect 9 0 6 0;
#X connect 10 0 0 1;
#X connect 13 0 12 0;
#X restore 625 245 pd autodetect_midicontroller;
#N canvas 59 24 450 300 autodetect_midicontroller 0;
#X obj 119 131 demux;
#X obj 86 179 spigot;
#X obj 119 155 ==;
#X text 220 113 left - control data;
#X text 218 130 middle - midi controller #;
#X text 225 147 right - toggle (0/1) autodetect;
#X obj 123 91 t b f;
#X msg 164 129 0;
#X obj 60 43 inlet;
#X obj 130 44 inlet;
#X obj 267 49 inlet;
#X obj 230 233 outlet;
#X obj 112 255 outlet;
#X obj 112 224 / 127;
#X connect 0 0 2 0;
#X connect 0 1 2 1;
#X connect 1 0 13 0;
#X connect 2 0 1 1;
#X connect 6 0 7 0;
#X connect 6 1 0 0;
#X connect 7 0 0 1;
#X connect 7 0 11 0;
#X connect 8 0 1 0;
#X connect 9 0 6 0;
#X connect 10 0 0 1;
#X connect 13 0 12 0;
#X restore 627 275 pd autodetect_midicontroller;
#N canvas 59 24 450 300 autodetect_midicontroller 0;
#X obj 119 131 demux;
#X obj 86 179 spigot;
#X obj 119 155 ==;
#X text 220 113 left - control data;
#X text 218 130 middle - midi controller #;
#X text 225 147 right - toggle (0/1) autodetect;
#X obj 123 91 t b f;
#X msg 164 129 0;
#X obj 60 43 inlet;
#X obj 130 44 inlet;
#X obj 267 49 inlet;
#X obj 230 233 outlet;
#X obj 112 249 outlet;
#X obj 112 218 / 127;
#X connect 0 0 2 0;
#X connect 0 1 2 1;
#X connect 1 0 13 0;
#X connect 2 0 1 1;
#X connect 6 0 7 0;
#X connect 6 1 0 0;
#X connect 7 0 0 1;
#X connect 7 0 11 0;
#X connect 8 0 1 0;
#X connect 9 0 6 0;
#X connect 10 0 0 1;
#X connect 13 0 12 0;
#X restore 624 303 pd autodetect_midicontroller;
#N canvas 59 24 450 300 autodetect_midicontroller 0;
#X obj 119 131 demux;
#X obj 86 179 spigot;
#X obj 119 155 ==;
#X text 220 113 left - control data;
#X text 218 130 middle - midi controller #;
#X text 225 147 right - toggle (0/1) autodetect;
#X obj 123 91 t b f;
#X msg 164 129 0;
#X obj 60 43 inlet;
#X obj 130 44 inlet;
#X obj 267 49 inlet;
#X obj 230 233 outlet;
#X obj 89 243 outlet;
#X obj 89 212 / 127;
#X connect 0 0 2 0;
#X connect 0 1 2 1;
#X connect 1 0 13 0;
#X connect 2 0 1 1;
#X connect 6 0 7 0;
#X connect 6 1 0 0;
#X connect 7 0 0 1;
#X connect 7 0 11 0;
#X connect 8 0 1 0;
#X connect 9 0 6 0;
#X connect 10 0 0 1;
#X connect 13 0 12 0;
#X restore 626 333 pd autodetect_midicontroller;
#X msg 505 120 0;
#X obj 592 99 ctlin;
#N canvas 59 24 450 300 autodetect_midicontroller 0;
#X obj 119 131 demux;
#X obj 86 179 spigot;
#X obj 119 155 ==;
#X text 220 113 left - control data;
#X text 218 130 middle - midi controller #;
#X text 225 147 right - toggle (0/1) autodetect;
#X obj 123 91 t b f;
#X msg 164 129 0;
#X obj 60 43 inlet;
#X obj 130 44 inlet;
#X obj 267 49 inlet;
#X obj 230 233 outlet;
#X obj 89 243 outlet;
#X obj 89 212 / 127;
#X connect 0 0 2 0;
#X connect 0 1 2 1;
#X connect 1 0 13 0;
#X connect 2 0 1 1;
#X connect 6 0 7 0;
#X connect 6 1 0 0;
#X connect 7 0 0 1;
#X connect 7 0 11 0;
#X connect 8 0 1 0;
#X connect 9 0 6 0;
#X connect 10 0 0 1;
#X connect 13 0 12 0;
#X restore 625 359 pd autodetect_midicontroller;
#X msg 537 119 1;
#X connect 0 0 1 0;
#X connect 1 0 50 0;
#X connect 2 0 1 1;
#X connect 3 0 2 0;
#X connect 4 0 3 0;
#X connect 5 0 6 0;
#X connect 6 0 54 0;
#X connect 7 0 6 1;
#X connect 8 0 7 0;
#X connect 9 0 8 0;
#X connect 10 0 11 0;
#X connect 11 0 50 0;
#X connect 12 0 11 1;
#X connect 13 0 12 0;
#X connect 14 0 13 0;
#X connect 15 0 16 0;
#X connect 16 0 54 0;
#X connect 17 0 16 1;
#X connect 18 0 17 0;
#X connect 19 0 18 0;
#X connect 20 0 21 0;
#X connect 21 0 50 0;
#X connect 22 0 21 1;
#X connect 23 0 22 0;
#X connect 24 0 23 0;
#X connect 25 0 26 0;
#X connect 26 0 54 0;
#X connect 27 0 26 1;
#X connect 28 0 27 0;
#X connect 29 0 28 0;
#X connect 30 0 31 0;
#X connect 31 0 50 0;
#X connect 32 0 31 1;
#X connect 33 0 32 0;
#X connect 34 0 33 0;
#X connect 35 0 36 0;
#X connect 36 0 54 0;
#X connect 37 0 36 1;
#X connect 38 0 37 0;
#X connect 39 0 38 0;
#X connect 42 0 73 2;
#X connect 43 0 74 2;
#X connect 44 0 75 2;
#X connect 45 0 76 2;
#X connect 46 0 77 2;
#X connect 47 0 78 2;
#X connect 48 0 79 2;
#X connect 49 0 80 2;
#X connect 50 0 65 0;
#X connect 51 0 50 1;
#X connect 52 0 51 0;
#X connect 53 0 52 0;
#X connect 53 0 56 0;
#X connect 54 0 66 0;
#X connect 55 0 54 1;
#X connect 56 0 55 0;
#X connect 57 0 41 0;
#X connect 58 0 40 0;
#X connect 59 0 60 0;
#X connect 60 0 53 0;
#X connect 65 0 57 0;
#X connect 65 0 68 0;
#X connect 66 0 58 0;
#X connect 66 0 67 0;
#X connect 69 0 81 0;
#X connect 69 0 71 0;
#X connect 69 0 84 0;
#X connect 71 0 53 0;
#X connect 72 0 83 2;
#X connect 73 0 4 0;
#X connect 73 1 42 0;
#X connect 74 0 9 0;
#X connect 74 1 43 0;
#X connect 75 0 14 0;
#X connect 75 1 44 0;
#X connect 76 0 19 0;
#X connect 76 1 45 0;
#X connect 77 0 24 0;
#X connect 77 1 46 0;
#X connect 78 0 29 0;
#X connect 78 1 47 0;
#X connect 79 0 34 0;
#X connect 79 1 48 0;
#X connect 80 0 39 0;
#X connect 80 1 49 0;
#X connect 81 0 42 0;
#X connect 81 0 43 0;
#X connect 81 0 44 0;
#X connect 81 0 45 0;
#X connect 81 0 46 0;
#X connect 81 0 47 0;
#X connect 81 0 48 0;
#X connect 81 0 49 0;
#X connect 82 0 73 0;
#X connect 82 0 74 0;
#X connect 82 0 75 0;
#X connect 82 0 76 0;
#X connect 82 0 77 0;
#X connect 82 0 78 0;
#X connect 82 0 79 0;
#X connect 82 0 80 0;
#X connect 82 0 83 0;
#X connect 82 1 73 1;
#X connect 82 1 74 1;
#X connect 82 1 75 1;
#X connect 82 1 76 1;
#X connect 82 1 77 1;
#X connect 82 1 78 1;
#X connect 82 1 79 1;
#X connect 82 1 80 1;
#X connect 82 1 83 1;
#X connect 83 0 53 0;
#X connect 83 1 72 0;
#X connect 84 0 4 0;
#X connect 84 0 9 0;
#X connect 84 0 14 0;
#X connect 84 0 19 0;
#X connect 84 0 24 0;
#X connect 84 0 29 0;
#X connect 84 0 34 0;
#X connect 84 0 39 0;
#X coords 0 -1 1 1 300 200 2 100 100;
