#N canvas 352 251 831 516 10;
#X obj 475 39 openpanel;
#X obj 54 -16 init 1;
#X text 32 256 \$1 fade time;
#X obj 124 119 tgl 15 0 empty empty empty 17 7 0 10 -262144 -1 -1 1
1;
#X text 91 116 loop?;
#X obj 124 101 bng 15 250 50 0 empty empty empty 17 7 0 10 -262144
-1 -1;
#X text 95 99 load;
#X obj 141 252 throw~ sf-\$2;
#X text 14 101 soundfile;
#X obj 75 104 cnv 15 15 30 empty \$2-number 1 2 16 0 24 -233017 -66577
0;
#X obj 665 -25 loadbang;
#X obj 661 21 l2s;
#X msg 661 43 \; \$1-number label \$1;
#X obj 664 0 f \$2;
#X obj 262 16 r sf-path\$2;
#X obj 473 224 s set-sf-path\$2;
#X obj 262 40 symbol;
#X obj 11 139 cnv 15 128 15 empty \$2-filename no_file_loaded 1 8 1
12 -62784 -262144 0;
#X obj 501 64 splitfilename /;
#X msg 500 172 \; \$2-filename label \$1;
#X obj 548 134 pack symbol \$2;
#X obj 235 264 t b b;
#X msg 252 295 stop;
#X msg 260 83 open \$1;
#X obj 260 60 pack symbol;
#X obj 265 153 route ready;
#X obj 265 181 sel 1;
#X msg 266 233 play \, loop \$1;
#X obj 265 208 f;
#X msg 140 178 loop \$1;
#X msg 384 314 \; \$2-filename color \$1;
#X obj 386 282 pack f \$2;
#X floatatom 387 260 5 0 0 0 - - -;
#X msg 362 229 18;
#X msg 402 229 13;
#X obj 198 125 readanysf~ 1 16 512;
#X obj 13 121 bng 15 250 50 0 empty empty empty 17 7 0 10 -262144 -1
-1;
#X text 31 119 restart;
#X obj 142 103 vsl 12 48 0 2 0 0 empty empty empty 0 -9 0 10 -262144
-1 -1 2350 1;
#X msg 355 104 speed \$1;
#X msg 146 52 1;
#X obj 354 75 line;
#X msg 354 31 \$1 2000;
#X obj 129 142 bng 12 250 50 0 empty empty empty 17 7 0 10 -159808
-1 -1;
#X obj 551 104 splitfilename .;
#X connect 0 0 15 0;
#X connect 0 0 18 0;
#X connect 0 0 24 0;
#X connect 0 0 34 0;
#X connect 1 0 3 0;
#X connect 1 0 38 0;
#X connect 3 0 28 1;
#X connect 3 0 29 0;
#X connect 5 0 21 0;
#X connect 10 0 13 0;
#X connect 11 0 12 0;
#X connect 13 0 11 0;
#X connect 14 0 16 0;
#X connect 16 0 18 0;
#X connect 16 0 24 0;
#X connect 18 1 44 0;
#X connect 20 0 19 0;
#X connect 21 0 0 0;
#X connect 21 1 22 0;
#X connect 22 0 35 0;
#X connect 23 0 35 0;
#X connect 24 0 23 0;
#X connect 25 0 26 0;
#X connect 26 0 28 0;
#X connect 26 0 33 0;
#X connect 26 0 40 0;
#X connect 27 0 35 0;
#X connect 28 0 27 0;
#X connect 29 0 35 0;
#X connect 31 0 30 0;
#X connect 32 0 31 0;
#X connect 33 0 32 0;
#X connect 34 0 32 0;
#X connect 35 0 7 0;
#X connect 35 1 25 0;
#X connect 36 0 24 0;
#X connect 36 0 40 0;
#X connect 38 0 42 0;
#X connect 39 0 35 0;
#X connect 40 0 38 0;
#X connect 41 0 39 0;
#X connect 42 0 41 0;
#X connect 43 0 40 0;
#X connect 44 0 20 0;
#X coords 0 -1 1 1 145 55 2 10 100;
