#N canvas 326 187 831 471 10;
#X obj 221 337 openpanel;
#X obj 151 160 *~;
#X obj 297 241 line~;
#X obj 296 262 *~;
#X obj 296 218 pack;
#X msg 290 175 1;
#X obj 323 176 f \$1;
#X msg 361 173 0;
#X obj 337 140 t b b b;
#X obj 364 230 del \$1;
#X obj 161 9 spigot;
#X obj 21 32 init 1;
#X text 32 256 \$1 fade time;
#X obj 124 123 tgl 15 0 empty empty empty 17 7 0 10 -262144 -1 -1 1
1;
#X text 91 120 loop?;
#X obj 124 101 bng 15 250 50 0 empty empty empty 17 7 0 10 -262144
-1 -1;
#X text 95 99 load;
#X obj 141 252 throw~ sf-\$2;
#X text 14 101 soundfile;
#X obj 75 104 cnv 15 15 30 empty \$2-number 1 2 16 0 24 -233017 -66577
0;
#X obj 347 46 loadbang;
#X obj 343 92 l2s;
#X msg 343 114 \; \$1-number label \$1;
#X obj 346 71 f \$2;
#X obj 217 -34 r sf-path\$2;
#X obj 421 259 s set-sf-path\$2;
#X obj 217 -12 symbol;
#X obj 200 151 speedlim 1000;
#X obj 11 139 cnv 15 128 15 empty \$2-filename 03_woman_bump.wav 1
8 1 12 -1 -262144 0;
#X obj 489 79 splitfilename /;
#X msg 500 172 \; \$2-filename label \$1;
#X obj 548 134 pack symbol \$2;
#X obj 469 315 table sf-\$0;
#X obj 208 366 pack symbol symbol;
#X obj 311 339 symbol sf-\$0;
#X obj 308 317 loadbang;
#X obj 113 308 tabplay~ sf-\$0;
#X msg 201 56 bang;
#X obj 155 119 tabplay~ sf-\$0;
#X obj 188 411 soundfiler;
#X msg 201 389 read -resize \$1 \$2;
#X obj 116 3 t;
#X obj 247 49 print;
#X obj 235 264 t b b;
#X obj 192 -14 tgl 15 0 empty empty empty 17 7 0 10 -262144 -1 -1 1
1;
#X msg 252 295 stop;
#X obj 269 84 sel 1;
#X connect 0 0 25 0;
#X connect 0 0 29 0;
#X connect 0 0 33 0;
#X connect 1 0 17 0;
#X connect 2 0 3 0;
#X connect 2 0 3 1;
#X connect 3 0 1 1;
#X connect 4 0 2 0;
#X connect 5 0 4 0;
#X connect 6 0 4 1;
#X connect 7 0 4 0;
#X connect 8 0 9 0;
#X connect 8 1 7 0;
#X connect 8 2 6 0;
#X connect 9 0 5 0;
#X connect 10 0 37 0;
#X connect 10 0 42 0;
#X connect 11 0 13 0;
#X connect 13 0 44 0;
#X connect 13 0 46 0;
#X connect 15 0 43 0;
#X connect 20 0 23 0;
#X connect 21 0 22 0;
#X connect 23 0 21 0;
#X connect 24 0 26 0;
#X connect 26 0 29 0;
#X connect 26 0 33 0;
#X connect 27 0 10 0;
#X connect 29 1 31 0;
#X connect 31 0 30 0;
#X connect 33 0 40 0;
#X connect 34 0 33 1;
#X connect 35 0 34 0;
#X connect 37 0 8 0;
#X connect 37 0 38 0;
#X connect 38 0 1 0;
#X connect 38 1 27 0;
#X connect 39 0 10 0;
#X connect 40 0 39 0;
#X connect 43 0 0 0;
#X connect 43 1 45 0;
#X connect 44 0 10 1;
#X connect 45 0 38 0;
#X connect 46 0 37 0;
#X coords 0 -1 1 1 130 55 2 10 100;
