#N canvas 170 139 831 471 10;
#X obj 152 114 readsf~;
#X msg 206 90 1;
#X obj 241 35 t b b;
#X msg 121 55 set open \$1;
#X obj 105 -21 openpanel;
#X obj 151 160 *~;
#X obj 297 241 line~;
#X obj 296 262 *~;
#X obj 296 218 pack;
#X msg 290 175 1;
#X obj 323 176 f \$1;
#X msg 361 173 0;
#X obj 337 140 t b b b;
#X obj 364 230 del \$1;
#X obj 224 185 spigot;
#X obj 21 32 init 1;
#X text 32 256 \$1 fade time;
#X obj 124 123 tgl 15 0 empty empty empty 17 7 0 10 -262144 -1 -1 1
1;
#X text 91 120 loop?;
#X obj 124 101 bng 15 250 50 0 empty empty empty 17 7 0 10 -262144
-1 -1;
#X text 95 99 load;
#X obj 141 252 throw~ sf-\$2;
#X text 14 101 soundfile;
#X obj 75 104 cnv 15 15 30 empty \$2-number 1 2 16 0 24 -233017 -66577
0;
#X obj 347 46 loadbang;
#X obj 343 92 l2s;
#X msg 343 114 \; \$1-number label \$1;
#X obj 346 71 f \$2;
#X obj 172 -37 r sf-path\$2;
#X obj 457 215 s set-sf-path\$2;
#X obj 172 -15 symbol;
#X obj 128 18 t b symbol;
#X obj 208 149 speedlim 1000;
#X msg 302 -10 open /home/jwmatthys/titanic/titanic_pd_20apr2012/audio_files/quartet/nearer_my_god.wav
;
#X obj 11 139 cnv 15 128 15 empty \$2-filename nearer_my_god.wav 1
8 1 12 -1 -262144 0;
#X obj 489 79 splitfilename /;
#X msg 500 172 \; \$2-filename label \$1;
#X obj 548 134 pack symbol \$2;
#X connect 0 0 5 0;
#X connect 0 1 32 0;
#X connect 1 0 0 0;
#X connect 1 0 12 0;
#X connect 2 0 1 0;
#X connect 2 1 33 0;
#X connect 3 0 33 0;
#X connect 4 0 29 0;
#X connect 4 0 31 0;
#X connect 5 0 21 0;
#X connect 6 0 7 0;
#X connect 6 0 7 1;
#X connect 7 0 5 1;
#X connect 8 0 6 0;
#X connect 9 0 8 0;
#X connect 10 0 8 1;
#X connect 11 0 8 0;
#X connect 12 0 13 0;
#X connect 12 1 11 0;
#X connect 12 2 10 0;
#X connect 13 0 9 0;
#X connect 14 0 2 0;
#X connect 15 0 17 0;
#X connect 17 0 14 1;
#X connect 19 0 4 0;
#X connect 24 0 27 0;
#X connect 25 0 26 0;
#X connect 27 0 25 0;
#X connect 28 0 30 0;
#X connect 30 0 31 0;
#X connect 31 0 2 0;
#X connect 31 1 3 0;
#X connect 31 1 35 0;
#X connect 32 0 14 0;
#X connect 33 0 0 0;
#X connect 35 1 37 0;
#X connect 37 0 36 0;
#X coords 0 -1 1 1 130 55 2 10 100;
