#N canvas 207 256 1099 511 10;
#X obj 11 101 cnv 15 304 153 empty empty empty 20 12 0 14 -99865 -66577
0;
#X obj 12 104 vsl 30 128 0 1 0 0 empty empty empty 0 -9 0 10 -261682
-1 -1 0 1;
#X obj 65 103 vsl 30 128 0 1 0 0 empty empty empty 0 -9 0 10 -262130
-1 -1 0 1;
#X obj 119 103 vsl 30 128 0 1 0 0 empty empty empty 0 -9 0 10 -204786
-1 -1 0 1;
#X obj 173 103 vsl 30 128 0 1 0 0 empty empty empty 0 -9 0 10 -204800
-1 -1 0 1;
#X obj 230 103 vsl 30 128 0 1 0 0 empty empty empty 0 -9 0 10 -203904
-1 -1 0 1;
#X obj 16 52 *~;
#X obj 46 55 line~;
#X msg 46 35 \$1 100;
#X obj 71 11 *~;
#X obj 101 14 line~;
#X msg 101 -6 \$1 100;
#X obj 98 76 *~;
#X obj 128 79 line~;
#X msg 128 59 \$1 100;
#X obj 153 35 *~;
#X obj 183 38 line~;
#X msg 183 18 \$1 100;
#X obj 193 66 *~;
#X obj 223 69 line~;
#X msg 223 49 \$1 100;
#X obj -4 -27 catch~ sf-1;
#X obj 74 -30 catch~ sf-2;
#X obj 152 -30 catch~ sf-3;
#X obj 156 -6 catch~ sf-4;
#X text 22 154 1;
#X text 73 153 2;
#X text 128 153 3;
#X text 180 152 4;
#X obj 251 -12 catch~ sf-5;
#X obj 284 103 vsl 30 128 0 1 0 0 empty empty empty 0 -9 0 10 -232576
-1 -1 0 1;
#X text 240 151 5;
#X text 294 149 6;
#X obj 284 72 *~;
#X obj 314 75 line~;
#X msg 314 55 \$1 100;
#X obj 342 -6 catch~ sf-6;
#X obj 337 308 sum;
#X obj 334 258 pack f f f f f f;
#X obj 343 187 t b f;
#X obj 384 187 t b f;
#X obj 424 186 t b f;
#X obj 465 186 t b f;
#X obj 506 185 t b f;
#X obj 171 319 line~;
#X msg 168 295 \$1 20;
#X obj 116 339 /~;
#X obj 115 364 clip~ -1 1;
#X obj 167 268 max 1;
#X floatatom 226 342 5 0 0 0 - - -;
#X obj 501 25 r midi-mixer1;
#X obj 589 24 r midi-mixer2;
#X obj 675 23 r midi-mixer3;
#X obj 765 24 r midi-mixer4;
#X obj 853 23 r midi-mixer5;
#X obj 939 22 r midi-mixer6;
#X obj 456 98 / 127;
#X obj 505 96 / 127;
#X obj 557 94 / 127;
#X obj 606 92 / 127;
#X obj 655 91 / 127;
#X obj 704 89 / 127;
#X obj 673 430 s~ wet;
#X obj 461 407 s~ dry;
#X obj 471 325 cp-pan~;
#X obj 637 152 r wetdry1;
#X obj 711 153 r wetdry2;
#X obj 789 153 r wetdry3;
#X obj 860 152 r wetdry4;
#X obj 936 152 r wetdry5;
#X obj 1007 152 r wetdry6;
#X obj 638 184 * 0.787402;
#X obj 710 184 * 0.787402;
#X obj 788 183 * 0.787402;
#X obj 856 181 * 0.787402;
#X obj 932 179 * 0.787402;
#X obj 1000 177 * 0.787402;
#X obj 15 241 hsl 25 10 0 100 0 0 empty empty empty -2 -8 0 10 -261682
-1 -1 0 1;
#X obj 68 242 hsl 25 10 0 100 0 0 empty empty empty -2 -8 0 10 -262130
-1 -1 0 1;
#X obj 123 241 hsl 25 10 0 100 0 0 empty empty empty -2 -8 0 10 -204786
-1 -1 0 1;
#X obj 176 242 hsl 25 10 0 100 0 0 empty empty empty -2 -8 0 10 -204800
-1 -1 0 1;
#X obj 234 240 hsl 25 10 0 100 0 0 empty empty empty -2 -8 0 10 -203904
-1 -1 2400 1;
#X obj 287 241 hsl 25 10 0 100 0 0 empty empty empty -2 -8 0 10 -232576
-1 -1 2400 1;
#X obj 528 325 cp-pan~;
#X obj 587 324 cp-pan~;
#X obj 644 324 cp-pan~;
#X obj 701 323 cp-pan~;
#X obj 758 323 cp-pan~;
#X obj 441 126 init 100;
#X connect 1 0 8 0;
#X connect 1 0 38 0;
#X connect 2 0 11 0;
#X connect 2 0 39 0;
#X connect 3 0 14 0;
#X connect 3 0 40 0;
#X connect 4 0 17 0;
#X connect 4 0 41 0;
#X connect 5 0 20 0;
#X connect 5 0 42 0;
#X connect 6 0 64 0;
#X connect 7 0 6 1;
#X connect 8 0 7 0;
#X connect 9 0 83 0;
#X connect 10 0 9 1;
#X connect 11 0 10 0;
#X connect 12 0 84 0;
#X connect 13 0 12 1;
#X connect 14 0 13 0;
#X connect 15 0 85 0;
#X connect 16 0 15 1;
#X connect 17 0 16 0;
#X connect 18 0 86 0;
#X connect 19 0 18 1;
#X connect 20 0 19 0;
#X connect 21 0 6 0;
#X connect 22 0 9 0;
#X connect 23 0 12 0;
#X connect 24 0 15 0;
#X connect 29 0 18 0;
#X connect 30 0 35 0;
#X connect 30 0 43 0;
#X connect 33 0 87 0;
#X connect 34 0 33 1;
#X connect 35 0 34 0;
#X connect 36 0 33 0;
#X connect 37 0 48 0;
#X connect 38 0 37 0;
#X connect 39 0 38 0;
#X connect 39 1 38 1;
#X connect 40 0 38 0;
#X connect 40 1 38 2;
#X connect 41 0 38 0;
#X connect 41 1 38 3;
#X connect 42 0 38 0;
#X connect 42 1 38 4;
#X connect 43 0 38 0;
#X connect 43 1 38 5;
#X connect 44 0 46 1;
#X connect 45 0 44 0;
#X connect 46 0 47 0;
#X connect 48 0 45 0;
#X connect 48 0 49 0;
#X connect 50 0 56 0;
#X connect 51 0 57 0;
#X connect 52 0 58 0;
#X connect 53 0 59 0;
#X connect 54 0 60 0;
#X connect 55 0 61 0;
#X connect 56 0 1 0;
#X connect 57 0 2 0;
#X connect 58 0 3 0;
#X connect 59 0 4 0;
#X connect 60 0 5 0;
#X connect 61 0 30 0;
#X connect 64 0 63 0;
#X connect 64 1 62 0;
#X connect 65 0 71 0;
#X connect 66 0 72 0;
#X connect 67 0 73 0;
#X connect 68 0 74 0;
#X connect 69 0 75 0;
#X connect 70 0 76 0;
#X connect 71 0 77 0;
#X connect 72 0 78 0;
#X connect 73 0 79 0;
#X connect 74 0 80 0;
#X connect 75 0 81 0;
#X connect 76 0 82 0;
#X connect 77 0 64 1;
#X connect 78 0 83 1;
#X connect 79 0 84 1;
#X connect 80 0 85 1;
#X connect 81 0 86 1;
#X connect 82 0 87 1;
#X connect 83 0 63 0;
#X connect 83 1 62 0;
#X connect 84 0 63 0;
#X connect 84 1 62 0;
#X connect 85 0 63 0;
#X connect 85 1 62 0;
#X connect 86 0 63 0;
#X connect 86 1 62 0;
#X connect 87 0 63 0;
#X connect 87 1 62 0;
#X connect 88 0 82 0;
#X connect 88 0 81 0;
#X connect 88 0 80 0;
#X connect 88 0 79 0;
#X connect 88 0 78 0;
#X connect 88 0 77 0;
#X coords 0 -1 1 1 306 155 1 10 100;
