#N canvas 67 107 450 300 10;
#X obj 149 105 vu 15 120 empty empty -1 -8 0 10 -66577 -1 0 0;
#X obj 166 105 vu 15 120 empty empty -1 -8 0 10 -66577 -1 0 0;
#X obj 107 105 vsl 30 120 0 2 0 0 empty empty empty 0 -9 0 10 -1 -262144
-1 5950 1;
#X obj 221 67 catch~ mainL;
#X obj 316 67 catch~ mainR;
#X obj 230 149 *~;
#X obj 254 123 line~;
#X msg 253 101 \$1 50;
#X obj 316 152 *~;
#X obj 340 126 line~;
#X msg 339 104 \$1 50;
#X text 117 229 MAIN MIX;
#X obj 298 248 dac~;
#X obj 221 215 pvu~;
#X obj 348 211 pvu~;
#X obj 102 58 init 1;
#X obj 170 63 / 64;
#X obj 166 34 r midi-mainmix;
#X connect 2 0 7 0;
#X connect 2 0 10 0;
#X connect 3 0 5 0;
#X connect 4 0 8 0;
#X connect 5 0 12 0;
#X connect 5 0 13 0;
#X connect 6 0 5 1;
#X connect 7 0 6 0;
#X connect 8 0 12 1;
#X connect 8 0 14 0;
#X connect 9 0 8 1;
#X connect 10 0 9 0;
#X connect 13 0 0 0;
#X connect 14 0 1 0;
#X connect 15 0 2 0;
#X connect 16 0 2 0;
#X connect 17 0 16 0;
#X coords 0 -1 1 1 85 150 2 100 100;
